G75*
%MOIN*%
%OFA0B0*%
%FSLAX25Y25*%
%IPPOS*%
%LPD*%
%AMOC8*
5,1,8,0,0,1.08239X$1,22.5*
%
%ADD10R,0.01969X0.03543*%
%ADD11R,0.01969X0.01969*%
%ADD12R,0.03937X0.04331*%
%ADD13R,0.04331X0.03937*%
%ADD14R,0.04724X0.05512*%
%ADD15R,0.07098X0.06299*%
%ADD16R,0.02000X0.05000*%
%ADD17R,0.02756X0.01378*%
%ADD18C,0.02400*%
%ADD19C,0.02362*%
%ADD20C,0.03937*%
%ADD21C,0.07400*%
%ADD22R,0.03820X0.03543*%
%ADD23R,0.03820X0.03672*%
%ADD24R,0.03543X0.03820*%
%ADD25R,0.03672X0.03820*%
%ADD26R,0.03937X0.03937*%
%ADD27R,0.05791X0.01896*%
%ADD28R,0.03687X0.01039*%
%ADD29R,0.01039X0.03386*%
%ADD30R,0.20276X0.20276*%
%ADD31C,0.06600*%
%ADD32R,0.06693X0.09449*%
%ADD33C,0.00600*%
%ADD34C,0.02978*%
%ADD35C,0.01600*%
%ADD36C,0.01000*%
%ADD37C,0.00400*%
D10*
X0264272Y0074528D03*
D11*
X0264272Y0066261D03*
D12*
X0211976Y0082954D03*
X0211976Y0089646D03*
X0149976Y0079646D03*
X0149976Y0072954D03*
X0149976Y0039646D03*
X0149976Y0032954D03*
X0134976Y0032954D03*
X0134976Y0039646D03*
X0077323Y0148300D03*
X0070630Y0148300D03*
X0057323Y0148300D03*
X0050630Y0148300D03*
X0023976Y0168954D03*
X0023976Y0175646D03*
X0141630Y0196300D03*
X0148323Y0196300D03*
X0171630Y0196300D03*
X0178323Y0196300D03*
X0178323Y0176300D03*
X0171630Y0176300D03*
X0171630Y0156300D03*
X0178323Y0156300D03*
D13*
X0143323Y0126300D03*
X0136630Y0126300D03*
X0123323Y0126300D03*
X0116630Y0126300D03*
X0103323Y0126300D03*
X0096630Y0126300D03*
X0084976Y0069646D03*
X0084976Y0062954D03*
X0068323Y0056300D03*
X0061630Y0056300D03*
X0061630Y0036300D03*
X0068323Y0036300D03*
X0091630Y0016300D03*
X0098323Y0016300D03*
X0111630Y0016300D03*
X0118323Y0016300D03*
X0166630Y0059300D03*
X0173323Y0059300D03*
X0231630Y0066300D03*
X0238323Y0066300D03*
X0251630Y0066300D03*
X0258323Y0066300D03*
X0057323Y0193300D03*
X0050630Y0193300D03*
D14*
X0194071Y0196300D03*
X0205882Y0196300D03*
X0205882Y0176300D03*
X0194071Y0176300D03*
X0194071Y0156300D03*
X0205882Y0156300D03*
D15*
X0029976Y0156898D03*
X0029976Y0145702D03*
D16*
X0029976Y0045800D03*
X0034976Y0045800D03*
X0039976Y0045800D03*
X0044976Y0045800D03*
X0024976Y0045800D03*
X0024976Y0026800D03*
X0029976Y0026800D03*
X0034976Y0026800D03*
X0039976Y0026800D03*
X0044976Y0026800D03*
D17*
X0038598Y0100473D03*
X0038598Y0102442D03*
X0038598Y0104410D03*
X0038598Y0106379D03*
X0038598Y0108347D03*
X0038598Y0110316D03*
X0038598Y0112284D03*
X0038598Y0114253D03*
X0038598Y0116221D03*
X0038598Y0118190D03*
X0038598Y0120158D03*
X0038598Y0122127D03*
D18*
X0031472Y0120749D03*
X0031472Y0117599D03*
X0034228Y0116024D03*
X0034228Y0112875D03*
X0031472Y0114450D03*
X0034228Y0109725D03*
X0034228Y0106576D03*
X0031472Y0108150D03*
X0031472Y0105001D03*
X0031472Y0101851D03*
D19*
X0034228Y0100473D02*
X0034228Y0098111D01*
X0034228Y0122127D02*
X0034228Y0124489D01*
D20*
X0035409Y0129017D02*
X0039346Y0129017D01*
X0017299Y0129017D02*
X0013362Y0129017D01*
X0013362Y0093583D02*
X0017299Y0093583D01*
X0035409Y0093583D02*
X0039346Y0093583D01*
D21*
X0164976Y0116300D03*
X0174976Y0116300D03*
X0184976Y0116300D03*
X0194976Y0116300D03*
X0204976Y0116300D03*
X0214976Y0116300D03*
X0214976Y0126300D03*
X0204976Y0126300D03*
X0194976Y0126300D03*
X0184976Y0126300D03*
X0174976Y0126300D03*
X0164976Y0126300D03*
D22*
X0083976Y0169209D03*
X0149976Y0059391D03*
D23*
X0149976Y0053273D03*
X0083976Y0175327D03*
D24*
X0068067Y0076300D03*
X0166885Y0073300D03*
X0191885Y0066300D03*
X0211885Y0066300D03*
D25*
X0218003Y0066300D03*
X0198003Y0066300D03*
X0173003Y0073300D03*
X0061950Y0076300D03*
D26*
X0054976Y0097363D03*
X0054976Y0105237D03*
X0054976Y0117363D03*
X0054976Y0125237D03*
D27*
X0062439Y0164461D03*
X0062439Y0167020D03*
X0062439Y0169580D03*
X0062439Y0172139D03*
X0045513Y0172139D03*
X0045513Y0169580D03*
X0045513Y0167020D03*
X0045513Y0164461D03*
D28*
X0101632Y0087127D03*
X0101632Y0085158D03*
X0101632Y0083190D03*
X0101632Y0081221D03*
X0101632Y0079253D03*
X0101632Y0077284D03*
X0101632Y0075316D03*
X0101632Y0073347D03*
X0101632Y0071379D03*
X0101632Y0069410D03*
X0101632Y0067442D03*
X0101632Y0065473D03*
X0128320Y0065473D03*
X0128320Y0067442D03*
X0128320Y0069410D03*
X0128320Y0071379D03*
X0128320Y0073347D03*
X0128320Y0075316D03*
X0128320Y0077284D03*
X0128320Y0079253D03*
X0128320Y0081221D03*
X0128320Y0083190D03*
X0128320Y0085158D03*
X0128320Y0087127D03*
D29*
X0125803Y0089822D03*
X0123835Y0089822D03*
X0121866Y0089822D03*
X0119898Y0089822D03*
X0117929Y0089822D03*
X0115961Y0089822D03*
X0113992Y0089822D03*
X0112024Y0089822D03*
X0110055Y0089822D03*
X0108087Y0089822D03*
X0106118Y0089822D03*
X0104150Y0089822D03*
X0104150Y0062778D03*
X0106118Y0062778D03*
X0108087Y0062778D03*
X0110055Y0062778D03*
X0112024Y0062778D03*
X0113992Y0062778D03*
X0115961Y0062778D03*
X0117929Y0062778D03*
X0119898Y0062778D03*
X0121866Y0062778D03*
X0123835Y0062778D03*
X0125803Y0062778D03*
D30*
X0114976Y0076300D03*
D31*
X0124976Y0136300D03*
X0134976Y0136300D03*
D32*
X0112260Y0036300D03*
X0097693Y0036300D03*
D33*
X0009576Y0005900D02*
X0009576Y0089700D01*
X0017234Y0089700D01*
X0018034Y0088900D01*
X0034674Y0088900D01*
X0035474Y0089700D01*
X0055225Y0089700D01*
X0055576Y0090051D01*
X0055576Y0094494D01*
X0057318Y0094494D01*
X0057845Y0095022D01*
X0057845Y0099704D01*
X0057318Y0100231D01*
X0055576Y0100231D01*
X0055576Y0101969D01*
X0057116Y0101969D01*
X0057447Y0102057D01*
X0057743Y0102228D01*
X0057985Y0102470D01*
X0058156Y0102767D01*
X0058245Y0103097D01*
X0058245Y0104937D01*
X0055576Y0104937D01*
X0055576Y0105537D01*
X0058245Y0105537D01*
X0058245Y0107377D01*
X0058156Y0107707D01*
X0057985Y0108004D01*
X0057743Y0108246D01*
X0057447Y0108417D01*
X0057116Y0108505D01*
X0055576Y0108505D01*
X0055576Y0114494D01*
X0057318Y0114494D01*
X0057845Y0115022D01*
X0057845Y0115963D01*
X0061619Y0115963D01*
X0065556Y0119900D01*
X0066376Y0120720D01*
X0066376Y0131880D01*
X0065556Y0132700D01*
X0061376Y0136880D01*
X0060556Y0137700D01*
X0035556Y0137700D01*
X0031604Y0141652D01*
X0033898Y0141652D01*
X0034426Y0142179D01*
X0034426Y0149224D01*
X0033898Y0149751D01*
X0026054Y0149751D01*
X0025527Y0149224D01*
X0025527Y0142179D01*
X0026054Y0141652D01*
X0028576Y0141652D01*
X0028576Y0140720D01*
X0029396Y0139900D01*
X0033576Y0135720D01*
X0034396Y0134900D01*
X0059396Y0134900D01*
X0063576Y0130720D01*
X0063576Y0121880D01*
X0060459Y0118763D01*
X0057845Y0118763D01*
X0057845Y0119704D01*
X0057318Y0120231D01*
X0055576Y0120231D01*
X0055576Y0122369D01*
X0057318Y0122369D01*
X0057845Y0122896D01*
X0057845Y0127578D01*
X0057318Y0128105D01*
X0055576Y0128105D01*
X0055576Y0131549D01*
X0055225Y0131900D01*
X0036474Y0131900D01*
X0035230Y0133145D01*
X0017479Y0133145D01*
X0016234Y0131900D01*
X0009576Y0131900D01*
X0009576Y0206700D01*
X0264976Y0206700D01*
X0264976Y0077600D01*
X0264464Y0077600D01*
X0264464Y0074721D01*
X0264080Y0074721D01*
X0264080Y0077600D01*
X0263117Y0077600D01*
X0262786Y0077511D01*
X0262490Y0077340D01*
X0262248Y0077098D01*
X0262076Y0076802D01*
X0261988Y0076471D01*
X0261988Y0074720D01*
X0264080Y0074720D01*
X0264080Y0074336D01*
X0264464Y0074336D01*
X0264464Y0071457D01*
X0264976Y0071457D01*
X0264976Y0070408D01*
X0264745Y0070640D01*
X0219435Y0070640D01*
X0219435Y0086549D01*
X0219083Y0086900D01*
X0215110Y0086900D01*
X0215156Y0086979D01*
X0215245Y0087310D01*
X0215245Y0089346D01*
X0212276Y0089346D01*
X0212276Y0089946D01*
X0211676Y0089946D01*
X0211676Y0089346D01*
X0208708Y0089346D01*
X0208708Y0087310D01*
X0208796Y0086979D01*
X0208842Y0086900D01*
X0206381Y0086900D01*
X0206030Y0086549D01*
X0206030Y0070640D01*
X0185229Y0070640D01*
X0175576Y0080544D01*
X0175576Y0080549D01*
X0175404Y0080721D01*
X0175233Y0080897D01*
X0175228Y0080897D01*
X0175225Y0080900D01*
X0174980Y0080900D01*
X0174736Y0080903D01*
X0174732Y0080900D01*
X0155728Y0080900D01*
X0155376Y0080549D01*
X0155376Y0076900D01*
X0153110Y0076900D01*
X0153156Y0076979D01*
X0153245Y0077310D01*
X0153245Y0079346D01*
X0150276Y0079346D01*
X0150276Y0079946D01*
X0149676Y0079946D01*
X0149676Y0079346D01*
X0146708Y0079346D01*
X0146708Y0077310D01*
X0146796Y0076979D01*
X0146842Y0076900D01*
X0145358Y0076900D01*
X0145006Y0076549D01*
X0145006Y0071273D01*
X0142375Y0068642D01*
X0139015Y0068642D01*
X0139284Y0068911D01*
X0140966Y0068911D01*
X0142365Y0070310D01*
X0142365Y0072290D01*
X0140966Y0073689D01*
X0138987Y0073689D01*
X0137587Y0072290D01*
X0137587Y0070610D01*
X0133984Y0070610D01*
X0134284Y0070911D01*
X0135966Y0070911D01*
X0137365Y0072310D01*
X0137365Y0074290D01*
X0136512Y0075143D01*
X0155469Y0094100D01*
X0204473Y0094100D01*
X0210473Y0100100D01*
X0211176Y0100803D01*
X0211176Y0113029D01*
X0211719Y0112486D01*
X0212356Y0112024D01*
X0213057Y0111666D01*
X0213806Y0111423D01*
X0214583Y0111300D01*
X0214676Y0111300D01*
X0214676Y0116000D01*
X0215276Y0116000D01*
X0215276Y0111300D01*
X0215370Y0111300D01*
X0216147Y0111423D01*
X0216896Y0111666D01*
X0217597Y0112024D01*
X0218234Y0112486D01*
X0218790Y0113043D01*
X0219253Y0113679D01*
X0219610Y0114381D01*
X0219853Y0115129D01*
X0219976Y0115906D01*
X0219976Y0116000D01*
X0215276Y0116000D01*
X0215276Y0116600D01*
X0214676Y0116600D01*
X0214676Y0121300D01*
X0214583Y0121300D01*
X0213806Y0121177D01*
X0213057Y0120934D01*
X0212356Y0120576D01*
X0211719Y0120114D01*
X0211176Y0119571D01*
X0211176Y0121797D01*
X0208994Y0123979D01*
X0209576Y0125385D01*
X0209576Y0127215D01*
X0208876Y0128906D01*
X0207582Y0130200D01*
X0205891Y0130900D01*
X0204061Y0130900D01*
X0202371Y0130200D01*
X0201077Y0128906D01*
X0200376Y0127215D01*
X0200376Y0125385D01*
X0201077Y0123694D01*
X0202371Y0122400D01*
X0204061Y0121700D01*
X0205891Y0121700D01*
X0207297Y0122282D01*
X0208776Y0120803D01*
X0208776Y0119005D01*
X0207582Y0120200D01*
X0205891Y0120900D01*
X0204061Y0120900D01*
X0202371Y0120200D01*
X0201176Y0119005D01*
X0201176Y0121797D01*
X0198994Y0123979D01*
X0199576Y0125385D01*
X0199576Y0127215D01*
X0198876Y0128906D01*
X0197582Y0130200D01*
X0195891Y0130900D01*
X0194061Y0130900D01*
X0192371Y0130200D01*
X0191077Y0128906D01*
X0190376Y0127215D01*
X0190376Y0125385D01*
X0191077Y0123694D01*
X0192371Y0122400D01*
X0194061Y0121700D01*
X0195891Y0121700D01*
X0197297Y0122282D01*
X0198776Y0120803D01*
X0198776Y0119005D01*
X0197582Y0120200D01*
X0195891Y0120900D01*
X0194061Y0120900D01*
X0192371Y0120200D01*
X0191176Y0119005D01*
X0191176Y0121797D01*
X0188994Y0123979D01*
X0189576Y0125385D01*
X0189576Y0127215D01*
X0188876Y0128906D01*
X0187582Y0130200D01*
X0185891Y0130900D01*
X0184061Y0130900D01*
X0182371Y0130200D01*
X0181077Y0128906D01*
X0180376Y0127215D01*
X0180376Y0125385D01*
X0181077Y0123694D01*
X0182371Y0122400D01*
X0184061Y0121700D01*
X0185891Y0121700D01*
X0187297Y0122282D01*
X0188776Y0120803D01*
X0188776Y0119005D01*
X0187582Y0120200D01*
X0185891Y0120900D01*
X0184061Y0120900D01*
X0182371Y0120200D01*
X0181176Y0119005D01*
X0181176Y0121797D01*
X0178994Y0123979D01*
X0179576Y0125385D01*
X0179576Y0127215D01*
X0178876Y0128906D01*
X0177582Y0130200D01*
X0175891Y0130900D01*
X0174061Y0130900D01*
X0172371Y0130200D01*
X0171077Y0128906D01*
X0170376Y0127215D01*
X0170376Y0125385D01*
X0171077Y0123694D01*
X0172371Y0122400D01*
X0174061Y0121700D01*
X0175891Y0121700D01*
X0177297Y0122282D01*
X0178776Y0120803D01*
X0178776Y0119005D01*
X0177582Y0120200D01*
X0175891Y0120900D01*
X0174061Y0120900D01*
X0172371Y0120200D01*
X0171176Y0119005D01*
X0171176Y0121797D01*
X0168994Y0123979D01*
X0169576Y0125385D01*
X0169576Y0127215D01*
X0168876Y0128906D01*
X0167582Y0130200D01*
X0165891Y0130900D01*
X0164061Y0130900D01*
X0162371Y0130200D01*
X0161077Y0128906D01*
X0160376Y0127215D01*
X0160376Y0125385D01*
X0161077Y0123694D01*
X0162371Y0122400D01*
X0164061Y0121700D01*
X0165891Y0121700D01*
X0167297Y0122282D01*
X0168776Y0120803D01*
X0168776Y0119005D01*
X0167582Y0120200D01*
X0165891Y0120900D01*
X0164061Y0120900D01*
X0162371Y0120200D01*
X0161077Y0118906D01*
X0160376Y0117215D01*
X0160376Y0115385D01*
X0161077Y0113694D01*
X0162371Y0112400D01*
X0163776Y0111818D01*
X0163776Y0108797D01*
X0162479Y0107500D01*
X0134362Y0107500D01*
X0133659Y0106797D01*
X0119277Y0092415D01*
X0119005Y0092415D01*
X0118913Y0092323D01*
X0118822Y0092415D01*
X0117037Y0092415D01*
X0116945Y0092323D01*
X0116853Y0092415D01*
X0115068Y0092415D01*
X0114976Y0092323D01*
X0114885Y0092415D01*
X0113224Y0092415D01*
X0113224Y0123940D01*
X0113253Y0123830D01*
X0113424Y0123533D01*
X0113666Y0123291D01*
X0113963Y0123120D01*
X0114293Y0123031D01*
X0116330Y0123031D01*
X0116330Y0126000D01*
X0116930Y0126000D01*
X0116930Y0126600D01*
X0120095Y0126600D01*
X0120095Y0128440D01*
X0120007Y0128770D01*
X0119836Y0129067D01*
X0119593Y0129309D01*
X0119297Y0129480D01*
X0118966Y0129568D01*
X0116930Y0129568D01*
X0116930Y0126600D01*
X0116330Y0126600D01*
X0116330Y0129568D01*
X0114293Y0129568D01*
X0113963Y0129480D01*
X0113666Y0129309D01*
X0113424Y0129067D01*
X0113253Y0128770D01*
X0113224Y0128660D01*
X0113224Y0140803D01*
X0127521Y0155100D01*
X0168761Y0155100D01*
X0168761Y0153762D01*
X0169289Y0153235D01*
X0173971Y0153235D01*
X0174498Y0153762D01*
X0174498Y0158838D01*
X0173971Y0159365D01*
X0169289Y0159365D01*
X0168761Y0158838D01*
X0168761Y0157500D01*
X0126527Y0157500D01*
X0125824Y0156797D01*
X0111255Y0142229D01*
X0111255Y0142882D01*
X0143473Y0175100D01*
X0168761Y0175100D01*
X0168761Y0173762D01*
X0169289Y0173235D01*
X0173971Y0173235D01*
X0174498Y0173762D01*
X0174498Y0178838D01*
X0173971Y0179365D01*
X0169289Y0179365D01*
X0168761Y0178838D01*
X0168761Y0177500D01*
X0142479Y0177500D01*
X0141776Y0176797D01*
X0108855Y0143876D01*
X0108855Y0096490D01*
X0108656Y0096689D01*
X0106677Y0096689D01*
X0105277Y0095290D01*
X0105277Y0093877D01*
X0104523Y0094631D01*
X0104523Y0123431D01*
X0105861Y0123431D01*
X0106388Y0123959D01*
X0106388Y0128641D01*
X0105861Y0129168D01*
X0100785Y0129168D01*
X0100257Y0128641D01*
X0100257Y0123959D01*
X0100785Y0123431D01*
X0102123Y0123431D01*
X0102123Y0093637D01*
X0103345Y0092415D01*
X0103257Y0092415D01*
X0102730Y0091888D01*
X0102730Y0091022D01*
X0058479Y0091022D01*
X0023776Y0056319D01*
X0023776Y0049200D01*
X0023604Y0049200D01*
X0023076Y0048673D01*
X0023076Y0042927D01*
X0023604Y0042400D01*
X0026349Y0042400D01*
X0026876Y0042927D01*
X0026876Y0048673D01*
X0026349Y0049200D01*
X0026176Y0049200D01*
X0026176Y0055325D01*
X0028776Y0057925D01*
X0028776Y0049200D01*
X0028604Y0049200D01*
X0028076Y0048673D01*
X0028076Y0042927D01*
X0028604Y0042400D01*
X0031349Y0042400D01*
X0031876Y0042927D01*
X0031876Y0048673D01*
X0031349Y0049200D01*
X0031176Y0049200D01*
X0031176Y0057630D01*
X0033776Y0060230D01*
X0033776Y0049200D01*
X0033604Y0049200D01*
X0033076Y0048673D01*
X0033076Y0042927D01*
X0033604Y0042400D01*
X0036349Y0042400D01*
X0036876Y0042927D01*
X0036876Y0048673D01*
X0036349Y0049200D01*
X0036176Y0049200D01*
X0036176Y0059661D01*
X0038776Y0062261D01*
X0038776Y0049200D01*
X0038604Y0049200D01*
X0038076Y0048673D01*
X0038076Y0042927D01*
X0038604Y0042400D01*
X0041349Y0042400D01*
X0041876Y0042927D01*
X0041876Y0048673D01*
X0041349Y0049200D01*
X0041176Y0049200D01*
X0041176Y0061693D01*
X0061473Y0081990D01*
X0098889Y0081990D01*
X0098889Y0080329D01*
X0098981Y0080237D01*
X0098889Y0080145D01*
X0098889Y0078360D01*
X0098981Y0078269D01*
X0098889Y0078177D01*
X0098889Y0076392D01*
X0098981Y0076300D01*
X0098889Y0076208D01*
X0098889Y0074423D01*
X0098981Y0074331D01*
X0098889Y0074240D01*
X0098889Y0072579D01*
X0097129Y0072579D01*
X0092911Y0076797D01*
X0092208Y0077500D01*
X0070739Y0077500D01*
X0070739Y0078583D01*
X0070212Y0079110D01*
X0065923Y0079110D01*
X0065396Y0078583D01*
X0065396Y0074551D01*
X0064685Y0075261D01*
X0064685Y0078583D01*
X0064158Y0079110D01*
X0059741Y0079110D01*
X0059214Y0078583D01*
X0059214Y0074017D01*
X0059741Y0073490D01*
X0063062Y0073490D01*
X0067123Y0069430D01*
X0067123Y0059168D01*
X0065785Y0059168D01*
X0065257Y0058641D01*
X0065257Y0053959D01*
X0065785Y0053431D01*
X0067123Y0053431D01*
X0067123Y0039168D01*
X0065785Y0039168D01*
X0065257Y0038641D01*
X0065257Y0033959D01*
X0065785Y0033431D01*
X0070861Y0033431D01*
X0071388Y0033959D01*
X0071388Y0038641D01*
X0070861Y0039168D01*
X0069523Y0039168D01*
X0069523Y0053431D01*
X0070861Y0053431D01*
X0071388Y0053959D01*
X0071388Y0055100D01*
X0097798Y0055100D01*
X0098987Y0053911D01*
X0100966Y0053911D01*
X0102365Y0055310D01*
X0102365Y0057290D01*
X0100966Y0058689D01*
X0098987Y0058689D01*
X0097798Y0057500D01*
X0071388Y0057500D01*
X0071388Y0058641D01*
X0070861Y0059168D01*
X0069523Y0059168D01*
X0069523Y0070424D01*
X0068820Y0071127D01*
X0066456Y0073490D01*
X0070212Y0073490D01*
X0070739Y0074017D01*
X0070739Y0075100D01*
X0091214Y0075100D01*
X0095704Y0070610D01*
X0094045Y0070610D01*
X0092966Y0071689D01*
X0090987Y0071689D01*
X0089798Y0070500D01*
X0088042Y0070500D01*
X0088042Y0071988D01*
X0087515Y0072515D01*
X0082438Y0072515D01*
X0081911Y0071988D01*
X0081911Y0067305D01*
X0082438Y0066778D01*
X0087515Y0066778D01*
X0088042Y0067305D01*
X0088042Y0068100D01*
X0089798Y0068100D01*
X0090987Y0066911D01*
X0092966Y0066911D01*
X0094265Y0068210D01*
X0098889Y0068210D01*
X0098889Y0068063D01*
X0094980Y0064154D01*
X0088042Y0064154D01*
X0088042Y0065295D01*
X0087515Y0065822D01*
X0082438Y0065822D01*
X0081911Y0065295D01*
X0081911Y0064154D01*
X0077365Y0064154D01*
X0077365Y0064290D01*
X0075966Y0065689D01*
X0073987Y0065689D01*
X0072587Y0064290D01*
X0072587Y0062310D01*
X0073987Y0060911D01*
X0075966Y0060911D01*
X0076808Y0061754D01*
X0081911Y0061754D01*
X0081911Y0060612D01*
X0082438Y0060085D01*
X0087515Y0060085D01*
X0088042Y0060612D01*
X0088042Y0061754D01*
X0095974Y0061754D01*
X0098889Y0064669D01*
X0098889Y0064581D01*
X0099416Y0064054D01*
X0102730Y0064054D01*
X0102730Y0060712D01*
X0103257Y0060185D01*
X0105042Y0060185D01*
X0105134Y0060277D01*
X0105226Y0060185D01*
X0107011Y0060185D01*
X0107102Y0060277D01*
X0107194Y0060185D01*
X0108979Y0060185D01*
X0109071Y0060277D01*
X0109163Y0060185D01*
X0110948Y0060185D01*
X0111039Y0060277D01*
X0111131Y0060185D01*
X0112916Y0060185D01*
X0113008Y0060277D01*
X0113100Y0060185D01*
X0114885Y0060185D01*
X0114976Y0060277D01*
X0115068Y0060185D01*
X0116729Y0060185D01*
X0116729Y0059750D01*
X0109479Y0052500D01*
X0094155Y0052500D01*
X0092966Y0053689D01*
X0090987Y0053689D01*
X0089587Y0052290D01*
X0089587Y0050608D01*
X0061479Y0022500D01*
X0026176Y0022500D01*
X0026176Y0023400D01*
X0026349Y0023400D01*
X0026876Y0023927D01*
X0026876Y0029673D01*
X0026349Y0030200D01*
X0023604Y0030200D01*
X0023076Y0029673D01*
X0023076Y0023927D01*
X0023604Y0023400D01*
X0023776Y0023400D01*
X0023776Y0020803D01*
X0024479Y0020100D01*
X0062473Y0020100D01*
X0063176Y0020803D01*
X0091284Y0048911D01*
X0092966Y0048911D01*
X0094155Y0050100D01*
X0110473Y0050100D01*
X0111176Y0050803D01*
X0117088Y0056715D01*
X0117088Y0055310D01*
X0118488Y0053911D01*
X0120467Y0053911D01*
X0120666Y0054110D01*
X0120666Y0048687D01*
X0119479Y0047500D01*
X0107196Y0047500D01*
X0101516Y0041820D01*
X0101412Y0041924D01*
X0093974Y0041924D01*
X0093446Y0041397D01*
X0093446Y0031203D01*
X0093974Y0030676D01*
X0097123Y0030676D01*
X0097123Y0019168D01*
X0095785Y0019168D01*
X0095257Y0018641D01*
X0095257Y0013959D01*
X0095785Y0013431D01*
X0100861Y0013431D01*
X0101388Y0013959D01*
X0101388Y0018641D01*
X0100861Y0019168D01*
X0099523Y0019168D01*
X0099523Y0030676D01*
X0101412Y0030676D01*
X0101939Y0031203D01*
X0101939Y0038849D01*
X0108190Y0045100D01*
X0119363Y0045100D01*
X0116083Y0041820D01*
X0115979Y0041924D01*
X0108541Y0041924D01*
X0108013Y0041397D01*
X0108013Y0031203D01*
X0108541Y0030676D01*
X0110430Y0030676D01*
X0110430Y0019168D01*
X0109092Y0019168D01*
X0108565Y0018641D01*
X0108565Y0013959D01*
X0109092Y0013431D01*
X0114168Y0013431D01*
X0114695Y0013959D01*
X0114695Y0018641D01*
X0114168Y0019168D01*
X0112830Y0019168D01*
X0112830Y0030676D01*
X0115979Y0030676D01*
X0116506Y0031203D01*
X0116506Y0038849D01*
X0125035Y0047378D01*
X0125035Y0054363D01*
X0125487Y0053911D01*
X0127168Y0053911D01*
X0133776Y0047303D01*
X0133776Y0042712D01*
X0132635Y0042712D01*
X0132108Y0042185D01*
X0132108Y0037108D01*
X0132635Y0036581D01*
X0137318Y0036581D01*
X0137845Y0037108D01*
X0137845Y0042185D01*
X0137318Y0042712D01*
X0136176Y0042712D01*
X0136176Y0048297D01*
X0135473Y0049000D01*
X0128865Y0055608D01*
X0128865Y0057290D01*
X0127466Y0058689D01*
X0127003Y0058689D01*
X0127003Y0060493D01*
X0127223Y0060712D01*
X0127223Y0064054D01*
X0130537Y0064054D01*
X0130756Y0064273D01*
X0130840Y0064273D01*
X0132759Y0062354D01*
X0140633Y0062354D01*
X0146187Y0056799D01*
X0146187Y0036666D01*
X0146539Y0036314D01*
X0147478Y0036314D01*
X0147210Y0036159D01*
X0146968Y0035917D01*
X0146796Y0035621D01*
X0146708Y0035290D01*
X0146708Y0033254D01*
X0149676Y0033254D01*
X0149676Y0032654D01*
X0146708Y0032654D01*
X0146708Y0030617D01*
X0146796Y0030286D01*
X0146968Y0029990D01*
X0147210Y0029748D01*
X0147506Y0029577D01*
X0147837Y0029488D01*
X0149676Y0029488D01*
X0149676Y0032653D01*
X0150276Y0032653D01*
X0150276Y0029488D01*
X0152116Y0029488D01*
X0152447Y0029577D01*
X0152743Y0029748D01*
X0152985Y0029990D01*
X0153156Y0030286D01*
X0153245Y0030617D01*
X0153245Y0032654D01*
X0150276Y0032654D01*
X0150276Y0033254D01*
X0153245Y0033254D01*
X0153245Y0035290D01*
X0153156Y0035621D01*
X0152985Y0035917D01*
X0152743Y0036159D01*
X0152475Y0036314D01*
X0153729Y0036314D01*
X0154080Y0036666D01*
X0154080Y0052117D01*
X0178926Y0052117D01*
X0179277Y0052469D01*
X0179277Y0056799D01*
X0184433Y0061956D01*
X0259724Y0060704D01*
X0259728Y0060700D01*
X0259971Y0060700D01*
X0260215Y0060696D01*
X0260219Y0060700D01*
X0263485Y0060700D01*
X0263836Y0061051D01*
X0264976Y0062192D01*
X0264976Y0005900D01*
X0009576Y0005900D01*
X0009576Y0006088D02*
X0264976Y0006088D01*
X0264976Y0006687D02*
X0009576Y0006687D01*
X0009576Y0007285D02*
X0264976Y0007285D01*
X0264976Y0007884D02*
X0009576Y0007884D01*
X0009576Y0008482D02*
X0264976Y0008482D01*
X0264976Y0009081D02*
X0009576Y0009081D01*
X0009576Y0009679D02*
X0264976Y0009679D01*
X0264976Y0010278D02*
X0009576Y0010278D01*
X0009576Y0010876D02*
X0264976Y0010876D01*
X0264976Y0011475D02*
X0009576Y0011475D01*
X0009576Y0012073D02*
X0264976Y0012073D01*
X0264976Y0012672D02*
X0009576Y0012672D01*
X0009576Y0013270D02*
X0088703Y0013270D01*
X0088666Y0013291D02*
X0088963Y0013120D01*
X0089293Y0013031D01*
X0091330Y0013031D01*
X0091330Y0016000D01*
X0091930Y0016000D01*
X0091930Y0016600D01*
X0095095Y0016600D01*
X0095095Y0018440D01*
X0095007Y0018770D01*
X0094836Y0019067D01*
X0094593Y0019309D01*
X0094297Y0019480D01*
X0093966Y0019568D01*
X0091930Y0019568D01*
X0091930Y0016600D01*
X0091330Y0016600D01*
X0091330Y0019568D01*
X0089293Y0019568D01*
X0088963Y0019480D01*
X0088666Y0019309D01*
X0088424Y0019067D01*
X0088253Y0018770D01*
X0088165Y0018440D01*
X0088165Y0016600D01*
X0091330Y0016600D01*
X0091330Y0016000D01*
X0088165Y0016000D01*
X0088165Y0014160D01*
X0088253Y0013830D01*
X0088424Y0013533D01*
X0088666Y0013291D01*
X0088243Y0013869D02*
X0009576Y0013869D01*
X0009576Y0014467D02*
X0088165Y0014467D01*
X0088165Y0015066D02*
X0009576Y0015066D01*
X0009576Y0015664D02*
X0088165Y0015664D01*
X0088165Y0016861D02*
X0009576Y0016861D01*
X0009576Y0016263D02*
X0091330Y0016263D01*
X0091330Y0016861D02*
X0091930Y0016861D01*
X0091930Y0016263D02*
X0095257Y0016263D01*
X0095095Y0016000D02*
X0091930Y0016000D01*
X0091930Y0013031D01*
X0093966Y0013031D01*
X0094297Y0013120D01*
X0094593Y0013291D01*
X0094836Y0013533D01*
X0095007Y0013830D01*
X0095095Y0014160D01*
X0095095Y0016000D01*
X0095095Y0015664D02*
X0095257Y0015664D01*
X0095257Y0015066D02*
X0095095Y0015066D01*
X0095095Y0014467D02*
X0095257Y0014467D01*
X0095347Y0013869D02*
X0095017Y0013869D01*
X0094557Y0013270D02*
X0115396Y0013270D01*
X0115359Y0013291D02*
X0115656Y0013120D01*
X0115986Y0013031D01*
X0118023Y0013031D01*
X0118023Y0016000D01*
X0118623Y0016000D01*
X0118623Y0016600D01*
X0121788Y0016600D01*
X0121788Y0018440D01*
X0121700Y0018770D01*
X0121528Y0019067D01*
X0121286Y0019309D01*
X0120990Y0019480D01*
X0120659Y0019568D01*
X0118623Y0019568D01*
X0118623Y0016600D01*
X0118023Y0016600D01*
X0118023Y0019568D01*
X0115986Y0019568D01*
X0115656Y0019480D01*
X0115359Y0019309D01*
X0115117Y0019067D01*
X0114946Y0018770D01*
X0114857Y0018440D01*
X0114857Y0016600D01*
X0118023Y0016600D01*
X0118023Y0016000D01*
X0114857Y0016000D01*
X0114857Y0014160D01*
X0114946Y0013830D01*
X0115117Y0013533D01*
X0115359Y0013291D01*
X0114936Y0013869D02*
X0114605Y0013869D01*
X0114695Y0014467D02*
X0114857Y0014467D01*
X0114857Y0015066D02*
X0114695Y0015066D01*
X0114695Y0015664D02*
X0114857Y0015664D01*
X0114695Y0016263D02*
X0118023Y0016263D01*
X0118023Y0016861D02*
X0118623Y0016861D01*
X0118623Y0016263D02*
X0264976Y0016263D01*
X0264976Y0016861D02*
X0121788Y0016861D01*
X0121788Y0017460D02*
X0264976Y0017460D01*
X0264976Y0018058D02*
X0121788Y0018058D01*
X0121730Y0018657D02*
X0264976Y0018657D01*
X0264976Y0019255D02*
X0121340Y0019255D01*
X0118623Y0019255D02*
X0118023Y0019255D01*
X0118023Y0018657D02*
X0118623Y0018657D01*
X0118623Y0018058D02*
X0118023Y0018058D01*
X0118023Y0017460D02*
X0118623Y0017460D01*
X0118623Y0016000D02*
X0121788Y0016000D01*
X0121788Y0014160D01*
X0121700Y0013830D01*
X0121528Y0013533D01*
X0121286Y0013291D01*
X0120990Y0013120D01*
X0120659Y0013031D01*
X0118623Y0013031D01*
X0118623Y0016000D01*
X0118623Y0015664D02*
X0118023Y0015664D01*
X0118023Y0015066D02*
X0118623Y0015066D01*
X0118623Y0014467D02*
X0118023Y0014467D01*
X0118023Y0013869D02*
X0118623Y0013869D01*
X0118623Y0013270D02*
X0118023Y0013270D01*
X0121250Y0013270D02*
X0264976Y0013270D01*
X0264976Y0013869D02*
X0121710Y0013869D01*
X0121788Y0014467D02*
X0264976Y0014467D01*
X0264976Y0015066D02*
X0121788Y0015066D01*
X0121788Y0015664D02*
X0264976Y0015664D01*
X0264976Y0019854D02*
X0112830Y0019854D01*
X0112830Y0020452D02*
X0264976Y0020452D01*
X0264976Y0021051D02*
X0112830Y0021051D01*
X0112830Y0021649D02*
X0264976Y0021649D01*
X0264976Y0022248D02*
X0112830Y0022248D01*
X0112830Y0022846D02*
X0264976Y0022846D01*
X0264976Y0023445D02*
X0112830Y0023445D01*
X0112830Y0024043D02*
X0264976Y0024043D01*
X0264976Y0024642D02*
X0112830Y0024642D01*
X0112830Y0025240D02*
X0264976Y0025240D01*
X0264976Y0025839D02*
X0112830Y0025839D01*
X0112830Y0026437D02*
X0264976Y0026437D01*
X0264976Y0027036D02*
X0112830Y0027036D01*
X0112830Y0027634D02*
X0264976Y0027634D01*
X0264976Y0028233D02*
X0112830Y0028233D01*
X0112830Y0028832D02*
X0264976Y0028832D01*
X0264976Y0029430D02*
X0112830Y0029430D01*
X0112830Y0030029D02*
X0131945Y0030029D01*
X0131968Y0029990D02*
X0132210Y0029748D01*
X0132506Y0029577D01*
X0132837Y0029488D01*
X0134676Y0029488D01*
X0134676Y0032653D01*
X0135276Y0032653D01*
X0135276Y0029488D01*
X0137116Y0029488D01*
X0137447Y0029577D01*
X0137743Y0029748D01*
X0137985Y0029990D01*
X0138156Y0030286D01*
X0138245Y0030617D01*
X0138245Y0032654D01*
X0135276Y0032654D01*
X0135276Y0033254D01*
X0134676Y0033254D01*
X0134676Y0036419D01*
X0132837Y0036419D01*
X0132506Y0036330D01*
X0132210Y0036159D01*
X0131968Y0035917D01*
X0131796Y0035621D01*
X0131708Y0035290D01*
X0131708Y0033254D01*
X0134676Y0033254D01*
X0134676Y0032654D01*
X0131708Y0032654D01*
X0131708Y0030617D01*
X0131796Y0030286D01*
X0131968Y0029990D01*
X0131708Y0030627D02*
X0112830Y0030627D01*
X0110430Y0030627D02*
X0099523Y0030627D01*
X0099523Y0030029D02*
X0110430Y0030029D01*
X0110430Y0029430D02*
X0099523Y0029430D01*
X0099523Y0028832D02*
X0110430Y0028832D01*
X0110430Y0028233D02*
X0099523Y0028233D01*
X0099523Y0027634D02*
X0110430Y0027634D01*
X0110430Y0027036D02*
X0099523Y0027036D01*
X0099523Y0026437D02*
X0110430Y0026437D01*
X0110430Y0025839D02*
X0099523Y0025839D01*
X0099523Y0025240D02*
X0110430Y0025240D01*
X0110430Y0024642D02*
X0099523Y0024642D01*
X0099523Y0024043D02*
X0110430Y0024043D01*
X0110430Y0023445D02*
X0099523Y0023445D01*
X0099523Y0022846D02*
X0110430Y0022846D01*
X0110430Y0022248D02*
X0099523Y0022248D01*
X0099523Y0021649D02*
X0110430Y0021649D01*
X0110430Y0021051D02*
X0099523Y0021051D01*
X0099523Y0020452D02*
X0110430Y0020452D01*
X0110430Y0019854D02*
X0099523Y0019854D01*
X0099523Y0019255D02*
X0110430Y0019255D01*
X0108580Y0018657D02*
X0101373Y0018657D01*
X0101388Y0018058D02*
X0108565Y0018058D01*
X0108565Y0017460D02*
X0101388Y0017460D01*
X0101388Y0016861D02*
X0108565Y0016861D01*
X0108565Y0016263D02*
X0101388Y0016263D01*
X0101388Y0015664D02*
X0108565Y0015664D01*
X0108565Y0015066D02*
X0101388Y0015066D01*
X0101388Y0014467D02*
X0108565Y0014467D01*
X0108655Y0013869D02*
X0101298Y0013869D01*
X0098323Y0016300D02*
X0098323Y0035670D01*
X0097693Y0036300D01*
X0107693Y0046300D01*
X0119976Y0046300D01*
X0121866Y0048190D01*
X0121866Y0062778D01*
X0119898Y0062778D02*
X0119898Y0056720D01*
X0119477Y0056300D01*
X0117088Y0056363D02*
X0116736Y0056363D01*
X0117088Y0055765D02*
X0116138Y0055765D01*
X0115539Y0055166D02*
X0117233Y0055166D01*
X0117831Y0054568D02*
X0114941Y0054568D01*
X0114342Y0053969D02*
X0118430Y0053969D01*
X0120525Y0053969D02*
X0120666Y0053969D01*
X0120666Y0053370D02*
X0113744Y0053370D01*
X0113145Y0052772D02*
X0120666Y0052772D01*
X0120666Y0052173D02*
X0112547Y0052173D01*
X0111948Y0051575D02*
X0120666Y0051575D01*
X0120666Y0050976D02*
X0111350Y0050976D01*
X0110751Y0050378D02*
X0120666Y0050378D01*
X0120666Y0049779D02*
X0093834Y0049779D01*
X0093236Y0049181D02*
X0120666Y0049181D01*
X0120562Y0048582D02*
X0090956Y0048582D01*
X0090357Y0047984D02*
X0119963Y0047984D01*
X0119254Y0044991D02*
X0108081Y0044991D01*
X0107483Y0044393D02*
X0118656Y0044393D01*
X0118057Y0043794D02*
X0106884Y0043794D01*
X0106286Y0043196D02*
X0117459Y0043196D01*
X0116860Y0042597D02*
X0105687Y0042597D01*
X0105089Y0041999D02*
X0116262Y0041999D01*
X0117860Y0040203D02*
X0132108Y0040203D01*
X0132108Y0039605D02*
X0117262Y0039605D01*
X0116663Y0039006D02*
X0132108Y0039006D01*
X0132108Y0038408D02*
X0116506Y0038408D01*
X0116506Y0037809D02*
X0132108Y0037809D01*
X0132108Y0037211D02*
X0116506Y0037211D01*
X0116506Y0036612D02*
X0132604Y0036612D01*
X0132064Y0036014D02*
X0116506Y0036014D01*
X0116506Y0035415D02*
X0131741Y0035415D01*
X0131708Y0034817D02*
X0116506Y0034817D01*
X0116506Y0034218D02*
X0131708Y0034218D01*
X0131708Y0033620D02*
X0116506Y0033620D01*
X0116506Y0033021D02*
X0134676Y0033021D01*
X0134676Y0032423D02*
X0135276Y0032423D01*
X0135276Y0033021D02*
X0149676Y0033021D01*
X0149676Y0032423D02*
X0150276Y0032423D01*
X0150276Y0033021D02*
X0264976Y0033021D01*
X0264976Y0032423D02*
X0153245Y0032423D01*
X0153245Y0031824D02*
X0264976Y0031824D01*
X0264976Y0031226D02*
X0153245Y0031226D01*
X0153245Y0030627D02*
X0264976Y0030627D01*
X0264976Y0030029D02*
X0153007Y0030029D01*
X0150276Y0030029D02*
X0149676Y0030029D01*
X0149676Y0030627D02*
X0150276Y0030627D01*
X0150276Y0031226D02*
X0149676Y0031226D01*
X0149676Y0031824D02*
X0150276Y0031824D01*
X0153245Y0033620D02*
X0264976Y0033620D01*
X0264976Y0034218D02*
X0153245Y0034218D01*
X0153245Y0034817D02*
X0264976Y0034817D01*
X0264976Y0035415D02*
X0153211Y0035415D01*
X0152889Y0036014D02*
X0264976Y0036014D01*
X0264976Y0036612D02*
X0154027Y0036612D01*
X0154080Y0037211D02*
X0264976Y0037211D01*
X0264976Y0037809D02*
X0154080Y0037809D01*
X0154080Y0038408D02*
X0264976Y0038408D01*
X0264976Y0039006D02*
X0154080Y0039006D01*
X0154080Y0039605D02*
X0264976Y0039605D01*
X0264976Y0040203D02*
X0154080Y0040203D01*
X0154080Y0040802D02*
X0264976Y0040802D01*
X0264976Y0041400D02*
X0154080Y0041400D01*
X0154080Y0041999D02*
X0264976Y0041999D01*
X0264976Y0042597D02*
X0154080Y0042597D01*
X0154080Y0043196D02*
X0264976Y0043196D01*
X0264976Y0043794D02*
X0154080Y0043794D01*
X0154080Y0044393D02*
X0264976Y0044393D01*
X0264976Y0044991D02*
X0154080Y0044991D01*
X0154080Y0045590D02*
X0264976Y0045590D01*
X0264976Y0046188D02*
X0154080Y0046188D01*
X0154080Y0046787D02*
X0264976Y0046787D01*
X0264976Y0047385D02*
X0154080Y0047385D01*
X0154080Y0047984D02*
X0264976Y0047984D01*
X0264976Y0048582D02*
X0154080Y0048582D01*
X0154080Y0049181D02*
X0264976Y0049181D01*
X0264976Y0049779D02*
X0154080Y0049779D01*
X0154080Y0050378D02*
X0264976Y0050378D01*
X0264976Y0050976D02*
X0154080Y0050976D01*
X0154080Y0051575D02*
X0264976Y0051575D01*
X0264976Y0052173D02*
X0178982Y0052173D01*
X0179277Y0052772D02*
X0264976Y0052772D01*
X0264976Y0053370D02*
X0179277Y0053370D01*
X0179277Y0053969D02*
X0264976Y0053969D01*
X0264976Y0054568D02*
X0179277Y0054568D01*
X0179277Y0055166D02*
X0264976Y0055166D01*
X0264976Y0055765D02*
X0179277Y0055765D01*
X0179277Y0056363D02*
X0264976Y0056363D01*
X0264976Y0056962D02*
X0179439Y0056962D01*
X0180038Y0057560D02*
X0264976Y0057560D01*
X0264976Y0058159D02*
X0180636Y0058159D01*
X0181235Y0058757D02*
X0264976Y0058757D01*
X0264976Y0059356D02*
X0181833Y0059356D01*
X0182432Y0059954D02*
X0264976Y0059954D01*
X0264976Y0060553D02*
X0183030Y0060553D01*
X0183629Y0061151D02*
X0232833Y0061151D01*
X0231630Y0066300D02*
X0218003Y0066300D01*
X0219435Y0070727D02*
X0264976Y0070727D01*
X0264976Y0071326D02*
X0219435Y0071326D01*
X0219435Y0071924D02*
X0262282Y0071924D01*
X0262248Y0071958D02*
X0262490Y0071716D01*
X0262786Y0071545D01*
X0263117Y0071457D01*
X0264080Y0071457D01*
X0264080Y0074336D01*
X0261988Y0074336D01*
X0261988Y0072586D01*
X0262076Y0072255D01*
X0262248Y0071958D01*
X0262005Y0072523D02*
X0219435Y0072523D01*
X0219435Y0073121D02*
X0261988Y0073121D01*
X0261988Y0073720D02*
X0219435Y0073720D01*
X0219435Y0074318D02*
X0261988Y0074318D01*
X0261988Y0074917D02*
X0219435Y0074917D01*
X0219435Y0075515D02*
X0261988Y0075515D01*
X0261988Y0076114D02*
X0219435Y0076114D01*
X0219435Y0076712D02*
X0262053Y0076712D01*
X0262460Y0077311D02*
X0219435Y0077311D01*
X0219435Y0077909D02*
X0264976Y0077909D01*
X0264976Y0078508D02*
X0219435Y0078508D01*
X0219435Y0079106D02*
X0264976Y0079106D01*
X0264976Y0079705D02*
X0219435Y0079705D01*
X0219435Y0080303D02*
X0264976Y0080303D01*
X0264976Y0080902D02*
X0219435Y0080902D01*
X0219435Y0081501D02*
X0264976Y0081501D01*
X0264976Y0082099D02*
X0219435Y0082099D01*
X0219435Y0082698D02*
X0264976Y0082698D01*
X0264976Y0083296D02*
X0219435Y0083296D01*
X0219435Y0083895D02*
X0264976Y0083895D01*
X0264976Y0084493D02*
X0219435Y0084493D01*
X0219435Y0085092D02*
X0264976Y0085092D01*
X0264976Y0085690D02*
X0219435Y0085690D01*
X0219435Y0086289D02*
X0264976Y0086289D01*
X0264976Y0086887D02*
X0219096Y0086887D01*
X0215245Y0087486D02*
X0264976Y0087486D01*
X0264976Y0088084D02*
X0215245Y0088084D01*
X0215245Y0088683D02*
X0264976Y0088683D01*
X0264976Y0089281D02*
X0215245Y0089281D01*
X0215245Y0089946D02*
X0212276Y0089946D01*
X0212276Y0093112D01*
X0214116Y0093112D01*
X0214447Y0093023D01*
X0214743Y0092852D01*
X0214985Y0092610D01*
X0215156Y0092314D01*
X0215245Y0091983D01*
X0215245Y0089946D01*
X0215245Y0090478D02*
X0264976Y0090478D01*
X0264976Y0089880D02*
X0212276Y0089880D01*
X0212276Y0090478D02*
X0211676Y0090478D01*
X0211676Y0089946D02*
X0211676Y0093112D01*
X0209837Y0093112D01*
X0209506Y0093023D01*
X0209210Y0092852D01*
X0208968Y0092610D01*
X0208796Y0092314D01*
X0208708Y0091983D01*
X0208708Y0089946D01*
X0211676Y0089946D01*
X0211676Y0089880D02*
X0151249Y0089880D01*
X0151847Y0090478D02*
X0208708Y0090478D01*
X0208708Y0091077D02*
X0152446Y0091077D01*
X0153044Y0091675D02*
X0208708Y0091675D01*
X0208786Y0092274D02*
X0153643Y0092274D01*
X0154241Y0092872D02*
X0209245Y0092872D01*
X0211676Y0092872D02*
X0212276Y0092872D01*
X0212276Y0092274D02*
X0211676Y0092274D01*
X0211676Y0091675D02*
X0212276Y0091675D01*
X0212276Y0091077D02*
X0211676Y0091077D01*
X0208708Y0089281D02*
X0150650Y0089281D01*
X0150052Y0088683D02*
X0208708Y0088683D01*
X0208708Y0088084D02*
X0149453Y0088084D01*
X0148855Y0087486D02*
X0208708Y0087486D01*
X0206369Y0086887D02*
X0148256Y0086887D01*
X0147658Y0086289D02*
X0206030Y0086289D01*
X0206030Y0085690D02*
X0147059Y0085690D01*
X0146461Y0085092D02*
X0206030Y0085092D01*
X0206030Y0084493D02*
X0145862Y0084493D01*
X0145264Y0083895D02*
X0206030Y0083895D01*
X0206030Y0083296D02*
X0144665Y0083296D01*
X0144067Y0082698D02*
X0147055Y0082698D01*
X0146968Y0082610D02*
X0146796Y0082314D01*
X0146708Y0081983D01*
X0146708Y0079946D01*
X0149676Y0079946D01*
X0149676Y0083112D01*
X0147837Y0083112D01*
X0147506Y0083023D01*
X0147210Y0082852D01*
X0146968Y0082610D01*
X0146739Y0082099D02*
X0143468Y0082099D01*
X0142870Y0081501D02*
X0146708Y0081501D01*
X0146708Y0080902D02*
X0142271Y0080902D01*
X0141673Y0080303D02*
X0146708Y0080303D01*
X0146708Y0079106D02*
X0140476Y0079106D01*
X0141074Y0079705D02*
X0149676Y0079705D01*
X0149676Y0080303D02*
X0150276Y0080303D01*
X0150276Y0079946D02*
X0150276Y0083112D01*
X0152116Y0083112D01*
X0152447Y0083023D01*
X0152743Y0082852D01*
X0152985Y0082610D01*
X0153156Y0082314D01*
X0153245Y0081983D01*
X0153245Y0079946D01*
X0150276Y0079946D01*
X0150276Y0079705D02*
X0155376Y0079705D01*
X0155376Y0080303D02*
X0153245Y0080303D01*
X0153245Y0080902D02*
X0174734Y0080902D01*
X0174823Y0080902D02*
X0206030Y0080902D01*
X0206030Y0081501D02*
X0153245Y0081501D01*
X0153214Y0082099D02*
X0206030Y0082099D01*
X0206030Y0082698D02*
X0152898Y0082698D01*
X0150276Y0082698D02*
X0149676Y0082698D01*
X0149676Y0082099D02*
X0150276Y0082099D01*
X0150276Y0081501D02*
X0149676Y0081501D01*
X0149676Y0080902D02*
X0150276Y0080902D01*
X0153245Y0079106D02*
X0155376Y0079106D01*
X0155376Y0078508D02*
X0153245Y0078508D01*
X0153245Y0077909D02*
X0155376Y0077909D01*
X0155376Y0077311D02*
X0153245Y0077311D01*
X0149976Y0072954D02*
X0166539Y0072954D01*
X0166885Y0073300D01*
X0173003Y0073300D02*
X0180003Y0066300D01*
X0180323Y0066300D01*
X0191885Y0066300D01*
X0198003Y0066300D02*
X0211885Y0066300D01*
X0211976Y0066391D01*
X0211976Y0082954D01*
X0206030Y0080303D02*
X0175811Y0080303D01*
X0176394Y0079705D02*
X0206030Y0079705D01*
X0206030Y0079106D02*
X0176978Y0079106D01*
X0177561Y0078508D02*
X0206030Y0078508D01*
X0206030Y0077909D02*
X0178144Y0077909D01*
X0178728Y0077311D02*
X0206030Y0077311D01*
X0206030Y0076712D02*
X0179311Y0076712D01*
X0179894Y0076114D02*
X0206030Y0076114D01*
X0206030Y0075515D02*
X0180478Y0075515D01*
X0181061Y0074917D02*
X0206030Y0074917D01*
X0206030Y0074318D02*
X0181644Y0074318D01*
X0182228Y0073720D02*
X0206030Y0073720D01*
X0206030Y0073121D02*
X0182811Y0073121D01*
X0183394Y0072523D02*
X0206030Y0072523D01*
X0206030Y0071924D02*
X0183978Y0071924D01*
X0184561Y0071326D02*
X0206030Y0071326D01*
X0206030Y0070727D02*
X0185144Y0070727D01*
X0180323Y0066300D02*
X0173323Y0059300D01*
X0166630Y0059300D02*
X0166539Y0059391D01*
X0149976Y0059391D01*
X0143976Y0065473D01*
X0128320Y0065473D01*
X0128320Y0067442D02*
X0143976Y0067442D01*
X0148976Y0072954D01*
X0149976Y0072954D01*
X0145006Y0073121D02*
X0141534Y0073121D01*
X0142132Y0072523D02*
X0145006Y0072523D01*
X0145006Y0071924D02*
X0142365Y0071924D01*
X0142365Y0071326D02*
X0145006Y0071326D01*
X0144461Y0070727D02*
X0142365Y0070727D01*
X0142184Y0070129D02*
X0143862Y0070129D01*
X0143264Y0069530D02*
X0141585Y0069530D01*
X0140987Y0068932D02*
X0142665Y0068932D01*
X0139976Y0071300D02*
X0138087Y0069410D01*
X0128320Y0069410D01*
X0128320Y0071379D02*
X0133055Y0071379D01*
X0134976Y0073300D01*
X0136738Y0074917D02*
X0145006Y0074917D01*
X0145006Y0075515D02*
X0136884Y0075515D01*
X0137483Y0076114D02*
X0145006Y0076114D01*
X0145170Y0076712D02*
X0138081Y0076712D01*
X0138680Y0077311D02*
X0146708Y0077311D01*
X0146708Y0077909D02*
X0139278Y0077909D01*
X0139877Y0078508D02*
X0146708Y0078508D01*
X0145006Y0074318D02*
X0137337Y0074318D01*
X0137365Y0073720D02*
X0145006Y0073720D01*
X0138419Y0073121D02*
X0137365Y0073121D01*
X0137365Y0072523D02*
X0137821Y0072523D01*
X0137587Y0071924D02*
X0136979Y0071924D01*
X0136381Y0071326D02*
X0137587Y0071326D01*
X0137587Y0070727D02*
X0134101Y0070727D01*
X0135537Y0075865D02*
X0128869Y0075865D01*
X0128320Y0075316D01*
X0128320Y0077284D02*
X0135259Y0077284D01*
X0154475Y0096500D01*
X0199976Y0096500D01*
X0204976Y0101500D01*
X0204976Y0116300D01*
X0201976Y0119805D02*
X0201176Y0119805D01*
X0201176Y0119207D02*
X0201378Y0119207D01*
X0201176Y0120404D02*
X0202863Y0120404D01*
X0201176Y0121002D02*
X0208577Y0121002D01*
X0208776Y0120404D02*
X0207089Y0120404D01*
X0207977Y0119805D02*
X0208776Y0119805D01*
X0208776Y0119207D02*
X0208575Y0119207D01*
X0207979Y0121601D02*
X0201176Y0121601D01*
X0200774Y0122199D02*
X0202856Y0122199D01*
X0201973Y0122798D02*
X0200176Y0122798D01*
X0199577Y0123396D02*
X0201375Y0123396D01*
X0200952Y0123995D02*
X0199001Y0123995D01*
X0199248Y0124593D02*
X0200704Y0124593D01*
X0200456Y0125192D02*
X0199496Y0125192D01*
X0199576Y0125790D02*
X0200376Y0125790D01*
X0200376Y0126389D02*
X0199576Y0126389D01*
X0199576Y0126987D02*
X0200376Y0126987D01*
X0200530Y0127586D02*
X0199423Y0127586D01*
X0199175Y0128184D02*
X0200778Y0128184D01*
X0201026Y0128783D02*
X0198927Y0128783D01*
X0198400Y0129381D02*
X0201552Y0129381D01*
X0202151Y0129980D02*
X0197802Y0129980D01*
X0196668Y0130578D02*
X0203285Y0130578D01*
X0206668Y0130578D02*
X0213285Y0130578D01*
X0213776Y0130782D02*
X0212371Y0130200D01*
X0211077Y0128906D01*
X0210376Y0127215D01*
X0210376Y0125385D01*
X0211077Y0123694D01*
X0212371Y0122400D01*
X0214061Y0121700D01*
X0215891Y0121700D01*
X0217582Y0122400D01*
X0218876Y0123694D01*
X0219576Y0125385D01*
X0219576Y0127215D01*
X0218876Y0128906D01*
X0217582Y0130200D01*
X0216176Y0130782D01*
X0216176Y0141797D01*
X0207082Y0150892D01*
X0207082Y0152644D01*
X0208617Y0152644D01*
X0209144Y0153171D01*
X0209144Y0159429D01*
X0208617Y0159956D01*
X0207082Y0159956D01*
X0207082Y0172644D01*
X0208617Y0172644D01*
X0209144Y0173171D01*
X0209144Y0179429D01*
X0208617Y0179956D01*
X0207082Y0179956D01*
X0207082Y0192644D01*
X0208617Y0192644D01*
X0209144Y0193171D01*
X0209144Y0199429D01*
X0208617Y0199956D01*
X0203923Y0199956D01*
X0202082Y0201797D01*
X0201379Y0202500D01*
X0146133Y0202500D01*
X0145430Y0201797D01*
X0142998Y0199365D01*
X0139289Y0199365D01*
X0138761Y0198838D01*
X0138761Y0197500D01*
X0095176Y0197500D01*
X0095176Y0201797D01*
X0094473Y0202500D01*
X0054479Y0202500D01*
X0053776Y0201797D01*
X0053776Y0196126D01*
X0053593Y0196309D01*
X0053297Y0196480D01*
X0052966Y0196568D01*
X0050930Y0196568D01*
X0050930Y0193600D01*
X0050330Y0193600D01*
X0050330Y0196568D01*
X0048293Y0196568D01*
X0047963Y0196480D01*
X0047666Y0196309D01*
X0047424Y0196067D01*
X0047253Y0195770D01*
X0047165Y0195440D01*
X0047165Y0193600D01*
X0050330Y0193600D01*
X0050330Y0193000D01*
X0050930Y0193000D01*
X0050930Y0190031D01*
X0052966Y0190031D01*
X0053297Y0190120D01*
X0053593Y0190291D01*
X0053776Y0190474D01*
X0053776Y0188803D01*
X0070479Y0172100D01*
X0089776Y0172100D01*
X0089776Y0095479D01*
X0089587Y0095290D01*
X0089587Y0093310D01*
X0090987Y0091911D01*
X0092966Y0091911D01*
X0094365Y0093310D01*
X0094365Y0095290D01*
X0092966Y0096689D01*
X0092176Y0096689D01*
X0092176Y0172100D01*
X0094473Y0172100D01*
X0095176Y0172803D01*
X0095176Y0195100D01*
X0138761Y0195100D01*
X0138761Y0193762D01*
X0139289Y0193235D01*
X0143971Y0193235D01*
X0144498Y0193762D01*
X0144498Y0197471D01*
X0145454Y0198427D01*
X0145454Y0193762D01*
X0145982Y0193235D01*
X0147776Y0193235D01*
X0147776Y0188479D01*
X0146587Y0187290D01*
X0146587Y0185310D01*
X0147987Y0183911D01*
X0149966Y0183911D01*
X0151365Y0185310D01*
X0151365Y0187290D01*
X0150176Y0188479D01*
X0150176Y0193235D01*
X0150664Y0193235D01*
X0151191Y0193762D01*
X0151191Y0195100D01*
X0168761Y0195100D01*
X0168761Y0193762D01*
X0169289Y0193235D01*
X0173971Y0193235D01*
X0174498Y0193762D01*
X0174498Y0198838D01*
X0173971Y0199365D01*
X0169289Y0199365D01*
X0168761Y0198838D01*
X0168761Y0197500D01*
X0151191Y0197500D01*
X0151191Y0198838D01*
X0150664Y0199365D01*
X0146392Y0199365D01*
X0147127Y0200100D01*
X0200385Y0200100D01*
X0202620Y0197865D01*
X0202620Y0193171D01*
X0203147Y0192644D01*
X0204682Y0192644D01*
X0204682Y0179956D01*
X0203147Y0179956D01*
X0202620Y0179429D01*
X0202620Y0173171D01*
X0203147Y0172644D01*
X0204682Y0172644D01*
X0204682Y0159956D01*
X0203147Y0159956D01*
X0202620Y0159429D01*
X0202620Y0153171D01*
X0203147Y0152644D01*
X0204682Y0152644D01*
X0204682Y0149897D01*
X0205385Y0149194D01*
X0213776Y0140803D01*
X0213776Y0130782D01*
X0213776Y0131177D02*
X0137830Y0131177D01*
X0137830Y0131775D02*
X0213776Y0131775D01*
X0213776Y0132374D02*
X0137830Y0132374D01*
X0137830Y0132972D02*
X0213776Y0132972D01*
X0213776Y0133571D02*
X0138187Y0133571D01*
X0138537Y0133921D02*
X0139176Y0135465D01*
X0139176Y0137135D01*
X0138537Y0138679D01*
X0137355Y0139861D01*
X0135812Y0140500D01*
X0134141Y0140500D01*
X0132597Y0139861D01*
X0131416Y0138679D01*
X0130776Y0137135D01*
X0130776Y0135465D01*
X0131416Y0133921D01*
X0132597Y0132739D01*
X0134141Y0132100D01*
X0135430Y0132100D01*
X0135430Y0129168D01*
X0134092Y0129168D01*
X0133565Y0128641D01*
X0133565Y0123959D01*
X0134092Y0123431D01*
X0135430Y0123431D01*
X0135430Y0113132D01*
X0134587Y0112290D01*
X0134587Y0110310D01*
X0135987Y0108911D01*
X0137966Y0108911D01*
X0139365Y0110310D01*
X0139365Y0112290D01*
X0137966Y0113689D01*
X0137830Y0113689D01*
X0137830Y0123431D01*
X0139168Y0123431D01*
X0139695Y0123959D01*
X0139695Y0128641D01*
X0139168Y0129168D01*
X0137830Y0129168D01*
X0137830Y0133214D01*
X0138537Y0133921D01*
X0138640Y0134170D02*
X0213776Y0134170D01*
X0213776Y0134768D02*
X0138888Y0134768D01*
X0139136Y0135367D02*
X0213776Y0135367D01*
X0213776Y0135965D02*
X0139176Y0135965D01*
X0139176Y0136564D02*
X0213776Y0136564D01*
X0213776Y0137162D02*
X0139165Y0137162D01*
X0138917Y0137761D02*
X0213776Y0137761D01*
X0213776Y0138359D02*
X0138670Y0138359D01*
X0138258Y0138958D02*
X0213776Y0138958D01*
X0213776Y0139556D02*
X0137660Y0139556D01*
X0136646Y0140155D02*
X0213776Y0140155D01*
X0213776Y0140753D02*
X0113224Y0140753D01*
X0113224Y0140155D02*
X0123307Y0140155D01*
X0122597Y0139861D02*
X0121416Y0138679D01*
X0120776Y0137135D01*
X0120776Y0135465D01*
X0121416Y0133921D01*
X0122123Y0133214D01*
X0122123Y0129168D01*
X0120785Y0129168D01*
X0120257Y0128641D01*
X0120257Y0123959D01*
X0120785Y0123431D01*
X0121776Y0123431D01*
X0121776Y0113479D01*
X0120587Y0112290D01*
X0120587Y0110310D01*
X0121987Y0108911D01*
X0123966Y0108911D01*
X0125365Y0110310D01*
X0125365Y0112290D01*
X0124176Y0113479D01*
X0124176Y0123431D01*
X0125861Y0123431D01*
X0126388Y0123959D01*
X0126388Y0128641D01*
X0125861Y0129168D01*
X0124523Y0129168D01*
X0124523Y0132100D01*
X0125812Y0132100D01*
X0127355Y0132739D01*
X0128537Y0133921D01*
X0129176Y0135465D01*
X0129176Y0137135D01*
X0128537Y0138679D01*
X0127355Y0139861D01*
X0125812Y0140500D01*
X0124141Y0140500D01*
X0122597Y0139861D01*
X0122293Y0139556D02*
X0113224Y0139556D01*
X0113224Y0138958D02*
X0121694Y0138958D01*
X0121283Y0138359D02*
X0113224Y0138359D01*
X0113224Y0137761D02*
X0121035Y0137761D01*
X0120787Y0137162D02*
X0113224Y0137162D01*
X0113224Y0136564D02*
X0120776Y0136564D01*
X0120776Y0135965D02*
X0113224Y0135965D01*
X0113224Y0135367D02*
X0120817Y0135367D01*
X0121065Y0134768D02*
X0113224Y0134768D01*
X0113224Y0134170D02*
X0121313Y0134170D01*
X0121766Y0133571D02*
X0113224Y0133571D01*
X0113224Y0132972D02*
X0122123Y0132972D01*
X0122123Y0132374D02*
X0113224Y0132374D01*
X0113224Y0131775D02*
X0122123Y0131775D01*
X0122123Y0131177D02*
X0113224Y0131177D01*
X0113224Y0130578D02*
X0122123Y0130578D01*
X0122123Y0129980D02*
X0113224Y0129980D01*
X0113224Y0129381D02*
X0113792Y0129381D01*
X0113260Y0128783D02*
X0113224Y0128783D01*
X0116330Y0128783D02*
X0116930Y0128783D01*
X0116930Y0129381D02*
X0116330Y0129381D01*
X0116330Y0128184D02*
X0116930Y0128184D01*
X0116930Y0127586D02*
X0116330Y0127586D01*
X0116330Y0126987D02*
X0116930Y0126987D01*
X0116930Y0126389D02*
X0120257Y0126389D01*
X0120095Y0126000D02*
X0116930Y0126000D01*
X0116930Y0123031D01*
X0118966Y0123031D01*
X0119297Y0123120D01*
X0119593Y0123291D01*
X0119836Y0123533D01*
X0120007Y0123830D01*
X0120095Y0124160D01*
X0120095Y0126000D01*
X0120095Y0125790D02*
X0120257Y0125790D01*
X0120257Y0125192D02*
X0120095Y0125192D01*
X0120095Y0124593D02*
X0120257Y0124593D01*
X0120257Y0123995D02*
X0120051Y0123995D01*
X0119699Y0123396D02*
X0121776Y0123396D01*
X0121776Y0122798D02*
X0113224Y0122798D01*
X0113224Y0123396D02*
X0113561Y0123396D01*
X0113224Y0122199D02*
X0121776Y0122199D01*
X0121776Y0121601D02*
X0113224Y0121601D01*
X0113224Y0121002D02*
X0121776Y0121002D01*
X0121776Y0120404D02*
X0113224Y0120404D01*
X0113224Y0119805D02*
X0121776Y0119805D01*
X0121776Y0119207D02*
X0113224Y0119207D01*
X0113224Y0118608D02*
X0121776Y0118608D01*
X0121776Y0118010D02*
X0113224Y0118010D01*
X0113224Y0117411D02*
X0121776Y0117411D01*
X0121776Y0116813D02*
X0113224Y0116813D01*
X0113224Y0116214D02*
X0121776Y0116214D01*
X0121776Y0115616D02*
X0113224Y0115616D01*
X0113224Y0115017D02*
X0121776Y0115017D01*
X0121776Y0114419D02*
X0113224Y0114419D01*
X0113224Y0113820D02*
X0121776Y0113820D01*
X0121519Y0113222D02*
X0113224Y0113222D01*
X0113224Y0112623D02*
X0120921Y0112623D01*
X0120587Y0112025D02*
X0113224Y0112025D01*
X0113224Y0111426D02*
X0120587Y0111426D01*
X0120587Y0110828D02*
X0113224Y0110828D01*
X0113224Y0110229D02*
X0120669Y0110229D01*
X0121267Y0109631D02*
X0113224Y0109631D01*
X0113224Y0109032D02*
X0121866Y0109032D01*
X0124087Y0109032D02*
X0135866Y0109032D01*
X0135267Y0109631D02*
X0124685Y0109631D01*
X0125284Y0110229D02*
X0134669Y0110229D01*
X0134587Y0110828D02*
X0125365Y0110828D01*
X0125365Y0111426D02*
X0134587Y0111426D01*
X0134587Y0112025D02*
X0125365Y0112025D01*
X0125032Y0112623D02*
X0134921Y0112623D01*
X0135430Y0113222D02*
X0124433Y0113222D01*
X0124176Y0113820D02*
X0135430Y0113820D01*
X0135430Y0114419D02*
X0124176Y0114419D01*
X0124176Y0115017D02*
X0135430Y0115017D01*
X0135430Y0115616D02*
X0124176Y0115616D01*
X0124176Y0116214D02*
X0135430Y0116214D01*
X0135430Y0116813D02*
X0124176Y0116813D01*
X0124176Y0117411D02*
X0135430Y0117411D01*
X0135430Y0118010D02*
X0124176Y0118010D01*
X0124176Y0118608D02*
X0135430Y0118608D01*
X0135430Y0119207D02*
X0124176Y0119207D01*
X0124176Y0119805D02*
X0135430Y0119805D01*
X0135430Y0120404D02*
X0124176Y0120404D01*
X0124176Y0121002D02*
X0135430Y0121002D01*
X0135430Y0121601D02*
X0124176Y0121601D01*
X0124176Y0122199D02*
X0135430Y0122199D01*
X0135430Y0122798D02*
X0124176Y0122798D01*
X0124176Y0123396D02*
X0135430Y0123396D01*
X0133565Y0123995D02*
X0126388Y0123995D01*
X0126388Y0124593D02*
X0133565Y0124593D01*
X0133565Y0125192D02*
X0126388Y0125192D01*
X0126388Y0125790D02*
X0133565Y0125790D01*
X0133565Y0126389D02*
X0126388Y0126389D01*
X0126388Y0126987D02*
X0133565Y0126987D01*
X0133565Y0127586D02*
X0126388Y0127586D01*
X0126388Y0128184D02*
X0133565Y0128184D01*
X0133706Y0128783D02*
X0126247Y0128783D01*
X0124523Y0129381D02*
X0135430Y0129381D01*
X0135430Y0129980D02*
X0124523Y0129980D01*
X0124523Y0130578D02*
X0135430Y0130578D01*
X0135430Y0131177D02*
X0124523Y0131177D01*
X0124523Y0131775D02*
X0135430Y0131775D01*
X0133479Y0132374D02*
X0126473Y0132374D01*
X0127589Y0132972D02*
X0132364Y0132972D01*
X0131766Y0133571D02*
X0128187Y0133571D01*
X0128640Y0134170D02*
X0131313Y0134170D01*
X0131065Y0134768D02*
X0128888Y0134768D01*
X0129136Y0135367D02*
X0130817Y0135367D01*
X0130776Y0135965D02*
X0129176Y0135965D01*
X0129176Y0136564D02*
X0130776Y0136564D01*
X0130787Y0137162D02*
X0129165Y0137162D01*
X0128917Y0137761D02*
X0131035Y0137761D01*
X0131283Y0138359D02*
X0128670Y0138359D01*
X0128258Y0138958D02*
X0131694Y0138958D01*
X0132293Y0139556D02*
X0127660Y0139556D01*
X0126646Y0140155D02*
X0133307Y0140155D01*
X0134976Y0136300D02*
X0136630Y0134646D01*
X0136630Y0126300D01*
X0136630Y0111646D01*
X0136976Y0111300D01*
X0138685Y0109631D02*
X0163776Y0109631D01*
X0163776Y0110229D02*
X0139284Y0110229D01*
X0139365Y0110828D02*
X0163776Y0110828D01*
X0163776Y0111426D02*
X0139365Y0111426D01*
X0139365Y0112025D02*
X0163278Y0112025D01*
X0162148Y0112623D02*
X0139032Y0112623D01*
X0138433Y0113222D02*
X0161549Y0113222D01*
X0161025Y0113820D02*
X0137830Y0113820D01*
X0137830Y0114419D02*
X0160777Y0114419D01*
X0160529Y0115017D02*
X0137830Y0115017D01*
X0137830Y0115616D02*
X0160376Y0115616D01*
X0160376Y0116214D02*
X0137830Y0116214D01*
X0137830Y0116813D02*
X0160376Y0116813D01*
X0160458Y0117411D02*
X0137830Y0117411D01*
X0137830Y0118010D02*
X0160706Y0118010D01*
X0160953Y0118608D02*
X0137830Y0118608D01*
X0137830Y0119207D02*
X0161378Y0119207D01*
X0161976Y0119805D02*
X0137830Y0119805D01*
X0137830Y0120404D02*
X0162863Y0120404D01*
X0162856Y0122199D02*
X0137830Y0122199D01*
X0137830Y0121601D02*
X0167979Y0121601D01*
X0168577Y0121002D02*
X0137830Y0121002D01*
X0137830Y0122798D02*
X0161973Y0122798D01*
X0161375Y0123396D02*
X0146391Y0123396D01*
X0146286Y0123291D02*
X0146528Y0123533D01*
X0146700Y0123830D01*
X0146788Y0124160D01*
X0146788Y0126000D01*
X0143623Y0126000D01*
X0143623Y0126600D01*
X0146788Y0126600D01*
X0146788Y0128440D01*
X0146700Y0128770D01*
X0146528Y0129067D01*
X0146286Y0129309D01*
X0145990Y0129480D01*
X0145659Y0129568D01*
X0143623Y0129568D01*
X0143623Y0126600D01*
X0143023Y0126600D01*
X0143023Y0129568D01*
X0140986Y0129568D01*
X0140656Y0129480D01*
X0140359Y0129309D01*
X0140117Y0129067D01*
X0139946Y0128770D01*
X0139857Y0128440D01*
X0139857Y0126600D01*
X0143023Y0126600D01*
X0143023Y0126000D01*
X0143623Y0126000D01*
X0143623Y0123031D01*
X0145659Y0123031D01*
X0145990Y0123120D01*
X0146286Y0123291D01*
X0146744Y0123995D02*
X0160952Y0123995D01*
X0160704Y0124593D02*
X0146788Y0124593D01*
X0146788Y0125192D02*
X0160456Y0125192D01*
X0160376Y0125790D02*
X0146788Y0125790D01*
X0146788Y0126987D02*
X0160376Y0126987D01*
X0160376Y0126389D02*
X0143623Y0126389D01*
X0143623Y0126987D02*
X0143023Y0126987D01*
X0143023Y0126389D02*
X0139695Y0126389D01*
X0139857Y0126000D02*
X0139857Y0124160D01*
X0139946Y0123830D01*
X0140117Y0123533D01*
X0140359Y0123291D01*
X0140656Y0123120D01*
X0140986Y0123031D01*
X0143023Y0123031D01*
X0143023Y0126000D01*
X0139857Y0126000D01*
X0139857Y0125790D02*
X0139695Y0125790D01*
X0139695Y0125192D02*
X0139857Y0125192D01*
X0139857Y0124593D02*
X0139695Y0124593D01*
X0139695Y0123995D02*
X0139902Y0123995D01*
X0140254Y0123396D02*
X0137830Y0123396D01*
X0139695Y0126987D02*
X0139857Y0126987D01*
X0139857Y0127586D02*
X0139695Y0127586D01*
X0139695Y0128184D02*
X0139857Y0128184D01*
X0139953Y0128783D02*
X0139554Y0128783D01*
X0140485Y0129381D02*
X0137830Y0129381D01*
X0137830Y0129980D02*
X0162151Y0129980D01*
X0161552Y0129381D02*
X0146161Y0129381D01*
X0146692Y0128783D02*
X0161026Y0128783D01*
X0160778Y0128184D02*
X0146788Y0128184D01*
X0146788Y0127586D02*
X0160530Y0127586D01*
X0163285Y0130578D02*
X0137830Y0130578D01*
X0143023Y0129381D02*
X0143623Y0129381D01*
X0143623Y0128783D02*
X0143023Y0128783D01*
X0143023Y0128184D02*
X0143623Y0128184D01*
X0143623Y0127586D02*
X0143023Y0127586D01*
X0143023Y0125790D02*
X0143623Y0125790D01*
X0143623Y0125192D02*
X0143023Y0125192D01*
X0143023Y0124593D02*
X0143623Y0124593D01*
X0143623Y0123995D02*
X0143023Y0123995D01*
X0143023Y0123396D02*
X0143623Y0123396D01*
X0124976Y0136300D02*
X0123323Y0134646D01*
X0123323Y0126300D01*
X0122976Y0125954D01*
X0122976Y0111300D01*
X0113224Y0108434D02*
X0163413Y0108434D01*
X0163776Y0109032D02*
X0138087Y0109032D01*
X0134859Y0106300D02*
X0162976Y0106300D01*
X0164976Y0108300D01*
X0164976Y0116300D01*
X0167977Y0119805D02*
X0168776Y0119805D01*
X0168776Y0119207D02*
X0168575Y0119207D01*
X0168776Y0120404D02*
X0167089Y0120404D01*
X0167097Y0122199D02*
X0167380Y0122199D01*
X0169001Y0123995D02*
X0170952Y0123995D01*
X0170704Y0124593D02*
X0169248Y0124593D01*
X0169496Y0125192D02*
X0170456Y0125192D01*
X0170376Y0125790D02*
X0169576Y0125790D01*
X0169576Y0126389D02*
X0170376Y0126389D01*
X0170376Y0126987D02*
X0169576Y0126987D01*
X0169423Y0127586D02*
X0170530Y0127586D01*
X0170778Y0128184D02*
X0169175Y0128184D01*
X0168927Y0128783D02*
X0171026Y0128783D01*
X0171552Y0129381D02*
X0168400Y0129381D01*
X0167802Y0129980D02*
X0172151Y0129980D01*
X0173285Y0130578D02*
X0166668Y0130578D01*
X0164976Y0126300D02*
X0169976Y0121300D01*
X0169976Y0107900D01*
X0166976Y0104900D01*
X0135427Y0104900D01*
X0122415Y0091888D01*
X0122415Y0090371D01*
X0121866Y0089822D01*
X0120446Y0090371D02*
X0120446Y0091888D01*
X0134859Y0106300D01*
X0134098Y0107237D02*
X0113224Y0107237D01*
X0113224Y0107835D02*
X0162814Y0107835D01*
X0151990Y0102500D02*
X0176176Y0102500D01*
X0179976Y0106300D01*
X0179976Y0121300D01*
X0174976Y0126300D01*
X0179248Y0124593D02*
X0180704Y0124593D01*
X0180952Y0123995D02*
X0179001Y0123995D01*
X0179577Y0123396D02*
X0181375Y0123396D01*
X0181973Y0122798D02*
X0180176Y0122798D01*
X0180774Y0122199D02*
X0182856Y0122199D01*
X0181176Y0121601D02*
X0187979Y0121601D01*
X0188577Y0121002D02*
X0181176Y0121002D01*
X0181176Y0120404D02*
X0182863Y0120404D01*
X0181976Y0119805D02*
X0181176Y0119805D01*
X0181176Y0119207D02*
X0181378Y0119207D01*
X0178776Y0119207D02*
X0178575Y0119207D01*
X0178776Y0119805D02*
X0177977Y0119805D01*
X0178776Y0120404D02*
X0177089Y0120404D01*
X0177979Y0121601D02*
X0171176Y0121601D01*
X0171176Y0121002D02*
X0178577Y0121002D01*
X0177380Y0122199D02*
X0177097Y0122199D01*
X0179496Y0125192D02*
X0180456Y0125192D01*
X0180376Y0125790D02*
X0179576Y0125790D01*
X0179576Y0126389D02*
X0180376Y0126389D01*
X0180376Y0126987D02*
X0179576Y0126987D01*
X0179423Y0127586D02*
X0180530Y0127586D01*
X0180778Y0128184D02*
X0179175Y0128184D01*
X0178927Y0128783D02*
X0181026Y0128783D01*
X0181552Y0129381D02*
X0178400Y0129381D01*
X0177802Y0129980D02*
X0182151Y0129980D01*
X0183285Y0130578D02*
X0176668Y0130578D01*
X0171375Y0123396D02*
X0169577Y0123396D01*
X0170176Y0122798D02*
X0171973Y0122798D01*
X0172856Y0122199D02*
X0170774Y0122199D01*
X0171176Y0120404D02*
X0172863Y0120404D01*
X0171976Y0119805D02*
X0171176Y0119805D01*
X0171176Y0119207D02*
X0171378Y0119207D01*
X0174976Y0116300D02*
X0174976Y0106700D01*
X0171976Y0103700D01*
X0136196Y0103700D01*
X0124383Y0091888D01*
X0124383Y0090371D01*
X0123835Y0089822D01*
X0125803Y0089822D02*
X0130281Y0094300D01*
X0130976Y0094300D01*
X0126318Y0099456D02*
X0113224Y0099456D01*
X0113224Y0100054D02*
X0126916Y0100054D01*
X0127515Y0100653D02*
X0113224Y0100653D01*
X0113224Y0101251D02*
X0128113Y0101251D01*
X0128712Y0101850D02*
X0113224Y0101850D01*
X0113224Y0102448D02*
X0129310Y0102448D01*
X0129909Y0103047D02*
X0113224Y0103047D01*
X0113224Y0103645D02*
X0130507Y0103645D01*
X0131106Y0104244D02*
X0113224Y0104244D01*
X0113224Y0104842D02*
X0131704Y0104842D01*
X0132303Y0105441D02*
X0113224Y0105441D01*
X0113224Y0106039D02*
X0132901Y0106039D01*
X0133500Y0106638D02*
X0113224Y0106638D01*
X0108855Y0106638D02*
X0104523Y0106638D01*
X0104523Y0107237D02*
X0108855Y0107237D01*
X0108855Y0107835D02*
X0104523Y0107835D01*
X0104523Y0108434D02*
X0108855Y0108434D01*
X0108855Y0109032D02*
X0104523Y0109032D01*
X0104523Y0109631D02*
X0108855Y0109631D01*
X0108855Y0110229D02*
X0104523Y0110229D01*
X0104523Y0110828D02*
X0108855Y0110828D01*
X0108855Y0111426D02*
X0104523Y0111426D01*
X0104523Y0112025D02*
X0108855Y0112025D01*
X0108855Y0112623D02*
X0104523Y0112623D01*
X0104523Y0113222D02*
X0108855Y0113222D01*
X0108855Y0113820D02*
X0104523Y0113820D01*
X0104523Y0114419D02*
X0108855Y0114419D01*
X0108855Y0115017D02*
X0104523Y0115017D01*
X0104523Y0115616D02*
X0108855Y0115616D01*
X0108855Y0116214D02*
X0104523Y0116214D01*
X0104523Y0116813D02*
X0108855Y0116813D01*
X0108855Y0117411D02*
X0104523Y0117411D01*
X0104523Y0118010D02*
X0108855Y0118010D01*
X0108855Y0118608D02*
X0104523Y0118608D01*
X0104523Y0119207D02*
X0108855Y0119207D01*
X0108855Y0119805D02*
X0104523Y0119805D01*
X0104523Y0120404D02*
X0108855Y0120404D01*
X0108855Y0121002D02*
X0104523Y0121002D01*
X0104523Y0121601D02*
X0108855Y0121601D01*
X0108855Y0122199D02*
X0104523Y0122199D01*
X0104523Y0122798D02*
X0108855Y0122798D01*
X0108855Y0123396D02*
X0104523Y0123396D01*
X0106388Y0123995D02*
X0108855Y0123995D01*
X0108855Y0124593D02*
X0106388Y0124593D01*
X0106388Y0125192D02*
X0108855Y0125192D01*
X0108855Y0125790D02*
X0106388Y0125790D01*
X0106388Y0126389D02*
X0108855Y0126389D01*
X0108855Y0126987D02*
X0106388Y0126987D01*
X0106388Y0127586D02*
X0108855Y0127586D01*
X0108855Y0128184D02*
X0106388Y0128184D01*
X0106247Y0128783D02*
X0108855Y0128783D01*
X0108855Y0129381D02*
X0099468Y0129381D01*
X0099593Y0129309D02*
X0099297Y0129480D01*
X0098966Y0129568D01*
X0096930Y0129568D01*
X0096930Y0126600D01*
X0100095Y0126600D01*
X0100095Y0128440D01*
X0100007Y0128770D01*
X0099836Y0129067D01*
X0099593Y0129309D01*
X0099999Y0128783D02*
X0100399Y0128783D01*
X0100257Y0128184D02*
X0100095Y0128184D01*
X0100095Y0127586D02*
X0100257Y0127586D01*
X0100257Y0126987D02*
X0100095Y0126987D01*
X0100257Y0126389D02*
X0096930Y0126389D01*
X0096930Y0126600D02*
X0096930Y0126000D01*
X0100095Y0126000D01*
X0100095Y0124160D01*
X0100007Y0123830D01*
X0099836Y0123533D01*
X0099593Y0123291D01*
X0099297Y0123120D01*
X0098966Y0123031D01*
X0096930Y0123031D01*
X0096930Y0126000D01*
X0096330Y0126000D01*
X0096330Y0123031D01*
X0094293Y0123031D01*
X0093963Y0123120D01*
X0093666Y0123291D01*
X0093424Y0123533D01*
X0093253Y0123830D01*
X0093165Y0124160D01*
X0093165Y0126000D01*
X0096330Y0126000D01*
X0096330Y0126600D01*
X0096330Y0129568D01*
X0094293Y0129568D01*
X0093963Y0129480D01*
X0093666Y0129309D01*
X0093424Y0129067D01*
X0093253Y0128770D01*
X0093165Y0128440D01*
X0093165Y0126600D01*
X0096330Y0126600D01*
X0096930Y0126600D01*
X0096930Y0126987D02*
X0096330Y0126987D01*
X0096330Y0126389D02*
X0092176Y0126389D01*
X0092176Y0126987D02*
X0093165Y0126987D01*
X0093165Y0127586D02*
X0092176Y0127586D01*
X0092176Y0128184D02*
X0093165Y0128184D01*
X0093260Y0128783D02*
X0092176Y0128783D01*
X0092176Y0129381D02*
X0093792Y0129381D01*
X0092176Y0129980D02*
X0108855Y0129980D01*
X0108855Y0130578D02*
X0092176Y0130578D01*
X0092176Y0131177D02*
X0108855Y0131177D01*
X0108855Y0131775D02*
X0092176Y0131775D01*
X0092176Y0132374D02*
X0108855Y0132374D01*
X0108855Y0132972D02*
X0092176Y0132972D01*
X0092176Y0133571D02*
X0108855Y0133571D01*
X0108855Y0134170D02*
X0092176Y0134170D01*
X0092176Y0134768D02*
X0108855Y0134768D01*
X0108855Y0135367D02*
X0092176Y0135367D01*
X0092176Y0135965D02*
X0108855Y0135965D01*
X0108855Y0136564D02*
X0092176Y0136564D01*
X0092176Y0137162D02*
X0108855Y0137162D01*
X0108855Y0137761D02*
X0092176Y0137761D01*
X0092176Y0138359D02*
X0108855Y0138359D01*
X0108855Y0138958D02*
X0092176Y0138958D01*
X0092176Y0139556D02*
X0108855Y0139556D01*
X0108855Y0140155D02*
X0092176Y0140155D01*
X0092176Y0140753D02*
X0108855Y0140753D01*
X0108855Y0141352D02*
X0092176Y0141352D01*
X0092176Y0141950D02*
X0108855Y0141950D01*
X0108855Y0142549D02*
X0092176Y0142549D01*
X0092176Y0143147D02*
X0108855Y0143147D01*
X0108855Y0143746D02*
X0092176Y0143746D01*
X0092176Y0144344D02*
X0109324Y0144344D01*
X0109922Y0144943D02*
X0092176Y0144943D01*
X0092176Y0145541D02*
X0110521Y0145541D01*
X0111119Y0146140D02*
X0092176Y0146140D01*
X0092176Y0146738D02*
X0111718Y0146738D01*
X0112316Y0147337D02*
X0092176Y0147337D01*
X0092176Y0147935D02*
X0112915Y0147935D01*
X0113513Y0148534D02*
X0092176Y0148534D01*
X0092176Y0149132D02*
X0114112Y0149132D01*
X0114710Y0149731D02*
X0092176Y0149731D01*
X0092176Y0150329D02*
X0115309Y0150329D01*
X0115907Y0150928D02*
X0092176Y0150928D01*
X0092176Y0151526D02*
X0116506Y0151526D01*
X0117104Y0152125D02*
X0092176Y0152125D01*
X0092176Y0152723D02*
X0117703Y0152723D01*
X0118301Y0153322D02*
X0092176Y0153322D01*
X0092176Y0153920D02*
X0118900Y0153920D01*
X0119498Y0154519D02*
X0092176Y0154519D01*
X0092176Y0155117D02*
X0120097Y0155117D01*
X0120695Y0155716D02*
X0092176Y0155716D01*
X0092176Y0156314D02*
X0121294Y0156314D01*
X0121892Y0156913D02*
X0092176Y0156913D01*
X0092176Y0157511D02*
X0122491Y0157511D01*
X0123089Y0158110D02*
X0092176Y0158110D01*
X0092176Y0158708D02*
X0123688Y0158708D01*
X0124286Y0159307D02*
X0092176Y0159307D01*
X0092176Y0159905D02*
X0124885Y0159905D01*
X0125483Y0160504D02*
X0092176Y0160504D01*
X0092176Y0161103D02*
X0126082Y0161103D01*
X0126680Y0161701D02*
X0092176Y0161701D01*
X0092176Y0162300D02*
X0127279Y0162300D01*
X0127877Y0162898D02*
X0092176Y0162898D01*
X0092176Y0163497D02*
X0128476Y0163497D01*
X0129074Y0164095D02*
X0092176Y0164095D01*
X0092176Y0164694D02*
X0129673Y0164694D01*
X0130271Y0165292D02*
X0092176Y0165292D01*
X0092176Y0165891D02*
X0130870Y0165891D01*
X0131468Y0166489D02*
X0092176Y0166489D01*
X0092176Y0167088D02*
X0132067Y0167088D01*
X0132665Y0167686D02*
X0092176Y0167686D01*
X0092176Y0168285D02*
X0133264Y0168285D01*
X0133863Y0168883D02*
X0092176Y0168883D01*
X0092176Y0169482D02*
X0134461Y0169482D01*
X0135060Y0170080D02*
X0092176Y0170080D01*
X0092176Y0170679D02*
X0135658Y0170679D01*
X0136257Y0171277D02*
X0092176Y0171277D01*
X0092176Y0171876D02*
X0136855Y0171876D01*
X0137454Y0172474D02*
X0094848Y0172474D01*
X0095176Y0173073D02*
X0138052Y0173073D01*
X0138651Y0173671D02*
X0095176Y0173671D01*
X0095176Y0174270D02*
X0139249Y0174270D01*
X0139848Y0174868D02*
X0095176Y0174868D01*
X0095176Y0175467D02*
X0140446Y0175467D01*
X0141045Y0176065D02*
X0095176Y0176065D01*
X0095176Y0176664D02*
X0141643Y0176664D01*
X0142242Y0177262D02*
X0095176Y0177262D01*
X0095176Y0177861D02*
X0168761Y0177861D01*
X0168761Y0178459D02*
X0095176Y0178459D01*
X0095176Y0179058D02*
X0168981Y0179058D01*
X0174279Y0179058D02*
X0175674Y0179058D01*
X0175454Y0178838D02*
X0175454Y0173762D01*
X0175982Y0173235D01*
X0180664Y0173235D01*
X0181191Y0173762D01*
X0181191Y0175100D01*
X0190809Y0175100D01*
X0190809Y0173171D01*
X0191336Y0172644D01*
X0196806Y0172644D01*
X0197333Y0173171D01*
X0197333Y0179429D01*
X0196806Y0179956D01*
X0191336Y0179956D01*
X0190809Y0179429D01*
X0190809Y0177500D01*
X0181191Y0177500D01*
X0181191Y0178838D01*
X0180664Y0179365D01*
X0175982Y0179365D01*
X0175454Y0178838D01*
X0175454Y0178459D02*
X0174498Y0178459D01*
X0174498Y0177861D02*
X0175454Y0177861D01*
X0175454Y0177262D02*
X0174498Y0177262D01*
X0174498Y0176664D02*
X0175454Y0176664D01*
X0175454Y0176065D02*
X0174498Y0176065D01*
X0174498Y0175467D02*
X0175454Y0175467D01*
X0175454Y0174868D02*
X0174498Y0174868D01*
X0174498Y0174270D02*
X0175454Y0174270D01*
X0175545Y0173671D02*
X0174408Y0173671D01*
X0171630Y0176300D02*
X0142976Y0176300D01*
X0110055Y0143379D01*
X0110055Y0089822D01*
X0108087Y0089822D02*
X0108087Y0094300D01*
X0107666Y0094300D01*
X0105852Y0095865D02*
X0104523Y0095865D01*
X0104523Y0096463D02*
X0106451Y0096463D01*
X0105277Y0095266D02*
X0104523Y0095266D01*
X0104523Y0094668D02*
X0105277Y0094668D01*
X0105277Y0094069D02*
X0105085Y0094069D01*
X0103323Y0094134D02*
X0105569Y0091888D01*
X0105569Y0090371D01*
X0106118Y0089822D01*
X0104150Y0089822D02*
X0058976Y0089822D01*
X0024976Y0055822D01*
X0024976Y0045800D01*
X0023076Y0045590D02*
X0009576Y0045590D01*
X0009576Y0046188D02*
X0023076Y0046188D01*
X0023076Y0046787D02*
X0009576Y0046787D01*
X0009576Y0047385D02*
X0023076Y0047385D01*
X0023076Y0047984D02*
X0009576Y0047984D01*
X0009576Y0048582D02*
X0023076Y0048582D01*
X0023584Y0049181D02*
X0009576Y0049181D01*
X0009576Y0049779D02*
X0023776Y0049779D01*
X0023776Y0050378D02*
X0009576Y0050378D01*
X0009576Y0050976D02*
X0023776Y0050976D01*
X0023776Y0051575D02*
X0009576Y0051575D01*
X0009576Y0052173D02*
X0023776Y0052173D01*
X0023776Y0052772D02*
X0009576Y0052772D01*
X0009576Y0053370D02*
X0023776Y0053370D01*
X0023776Y0053969D02*
X0009576Y0053969D01*
X0009576Y0054568D02*
X0023776Y0054568D01*
X0023776Y0055166D02*
X0009576Y0055166D01*
X0009576Y0055765D02*
X0023776Y0055765D01*
X0023820Y0056363D02*
X0009576Y0056363D01*
X0009576Y0056962D02*
X0024419Y0056962D01*
X0025017Y0057560D02*
X0009576Y0057560D01*
X0009576Y0058159D02*
X0025616Y0058159D01*
X0026214Y0058757D02*
X0009576Y0058757D01*
X0009576Y0059356D02*
X0026813Y0059356D01*
X0027411Y0059954D02*
X0009576Y0059954D01*
X0009576Y0060553D02*
X0028010Y0060553D01*
X0028608Y0061151D02*
X0009576Y0061151D01*
X0009576Y0061750D02*
X0029207Y0061750D01*
X0029805Y0062348D02*
X0009576Y0062348D01*
X0009576Y0062947D02*
X0030404Y0062947D01*
X0031002Y0063545D02*
X0009576Y0063545D01*
X0009576Y0064144D02*
X0031601Y0064144D01*
X0032199Y0064742D02*
X0009576Y0064742D01*
X0009576Y0065341D02*
X0032798Y0065341D01*
X0033397Y0065939D02*
X0009576Y0065939D01*
X0009576Y0066538D02*
X0033995Y0066538D01*
X0034594Y0067136D02*
X0009576Y0067136D01*
X0009576Y0067735D02*
X0035192Y0067735D01*
X0035791Y0068333D02*
X0009576Y0068333D01*
X0009576Y0068932D02*
X0036389Y0068932D01*
X0036988Y0069530D02*
X0009576Y0069530D01*
X0009576Y0070129D02*
X0037586Y0070129D01*
X0038185Y0070727D02*
X0009576Y0070727D01*
X0009576Y0071326D02*
X0038783Y0071326D01*
X0039382Y0071924D02*
X0009576Y0071924D01*
X0009576Y0072523D02*
X0039980Y0072523D01*
X0040579Y0073121D02*
X0009576Y0073121D01*
X0009576Y0073720D02*
X0041177Y0073720D01*
X0041776Y0074318D02*
X0009576Y0074318D01*
X0009576Y0074917D02*
X0042374Y0074917D01*
X0042973Y0075515D02*
X0009576Y0075515D01*
X0009576Y0076114D02*
X0043571Y0076114D01*
X0044170Y0076712D02*
X0009576Y0076712D01*
X0009576Y0077311D02*
X0044768Y0077311D01*
X0045367Y0077909D02*
X0009576Y0077909D01*
X0009576Y0078508D02*
X0045965Y0078508D01*
X0046564Y0079106D02*
X0009576Y0079106D01*
X0009576Y0079705D02*
X0047162Y0079705D01*
X0047761Y0080303D02*
X0009576Y0080303D01*
X0009576Y0080902D02*
X0048359Y0080902D01*
X0048958Y0081501D02*
X0009576Y0081501D01*
X0009576Y0082099D02*
X0049556Y0082099D01*
X0050155Y0082698D02*
X0009576Y0082698D01*
X0009576Y0083296D02*
X0050753Y0083296D01*
X0051352Y0083895D02*
X0009576Y0083895D01*
X0009576Y0084493D02*
X0051950Y0084493D01*
X0052549Y0085092D02*
X0009576Y0085092D01*
X0009576Y0085690D02*
X0053147Y0085690D01*
X0053746Y0086289D02*
X0009576Y0086289D01*
X0009576Y0086887D02*
X0054344Y0086887D01*
X0054943Y0087486D02*
X0009576Y0087486D01*
X0009576Y0088084D02*
X0055541Y0088084D01*
X0056140Y0088683D02*
X0009576Y0088683D01*
X0009576Y0089281D02*
X0017653Y0089281D01*
X0035056Y0089281D02*
X0056738Y0089281D01*
X0057337Y0089880D02*
X0055405Y0089880D01*
X0055576Y0090478D02*
X0057935Y0090478D01*
X0055576Y0091077D02*
X0102730Y0091077D01*
X0102730Y0091675D02*
X0055576Y0091675D01*
X0055576Y0092274D02*
X0090624Y0092274D01*
X0090026Y0092872D02*
X0055576Y0092872D01*
X0055576Y0093471D02*
X0089587Y0093471D01*
X0089587Y0094069D02*
X0055576Y0094069D01*
X0057491Y0094668D02*
X0089587Y0094668D01*
X0089587Y0095266D02*
X0057845Y0095266D01*
X0057845Y0095865D02*
X0089776Y0095865D01*
X0089776Y0096463D02*
X0057845Y0096463D01*
X0057845Y0097062D02*
X0089776Y0097062D01*
X0089776Y0097660D02*
X0057845Y0097660D01*
X0057845Y0098259D02*
X0089776Y0098259D01*
X0089776Y0098857D02*
X0057845Y0098857D01*
X0057845Y0099456D02*
X0089776Y0099456D01*
X0089776Y0100054D02*
X0057495Y0100054D01*
X0055576Y0100653D02*
X0089776Y0100653D01*
X0089776Y0101251D02*
X0055576Y0101251D01*
X0055576Y0101850D02*
X0089776Y0101850D01*
X0089776Y0102448D02*
X0057963Y0102448D01*
X0058231Y0103047D02*
X0089776Y0103047D01*
X0089776Y0103645D02*
X0058245Y0103645D01*
X0058245Y0104244D02*
X0089776Y0104244D01*
X0089776Y0104842D02*
X0058245Y0104842D01*
X0058245Y0106039D02*
X0089776Y0106039D01*
X0089776Y0105441D02*
X0055576Y0105441D01*
X0058245Y0106638D02*
X0089776Y0106638D01*
X0089776Y0107237D02*
X0058245Y0107237D01*
X0058083Y0107835D02*
X0089776Y0107835D01*
X0089776Y0108434D02*
X0057385Y0108434D01*
X0055576Y0109032D02*
X0089776Y0109032D01*
X0089776Y0109631D02*
X0055576Y0109631D01*
X0055576Y0110229D02*
X0089776Y0110229D01*
X0089776Y0110828D02*
X0055576Y0110828D01*
X0055576Y0111426D02*
X0089776Y0111426D01*
X0089776Y0112025D02*
X0055576Y0112025D01*
X0055576Y0112623D02*
X0089776Y0112623D01*
X0089776Y0113222D02*
X0055576Y0113222D01*
X0055576Y0113820D02*
X0089776Y0113820D01*
X0089776Y0114419D02*
X0055576Y0114419D01*
X0057840Y0115017D02*
X0089776Y0115017D01*
X0089776Y0115616D02*
X0057845Y0115616D01*
X0061870Y0116214D02*
X0089776Y0116214D01*
X0089776Y0116813D02*
X0062469Y0116813D01*
X0063067Y0117411D02*
X0089776Y0117411D01*
X0089776Y0118010D02*
X0063666Y0118010D01*
X0064264Y0118608D02*
X0089776Y0118608D01*
X0089776Y0119207D02*
X0064863Y0119207D01*
X0065462Y0119805D02*
X0089776Y0119805D01*
X0089776Y0120404D02*
X0066060Y0120404D01*
X0066376Y0121002D02*
X0089776Y0121002D01*
X0089776Y0121601D02*
X0066376Y0121601D01*
X0066376Y0122199D02*
X0089776Y0122199D01*
X0089776Y0122798D02*
X0066376Y0122798D01*
X0066376Y0123396D02*
X0089776Y0123396D01*
X0089776Y0123995D02*
X0066376Y0123995D01*
X0066376Y0124593D02*
X0089776Y0124593D01*
X0089776Y0125192D02*
X0066376Y0125192D01*
X0066376Y0125790D02*
X0089776Y0125790D01*
X0089776Y0126389D02*
X0066376Y0126389D01*
X0066376Y0126987D02*
X0089776Y0126987D01*
X0089776Y0127586D02*
X0066376Y0127586D01*
X0066376Y0128184D02*
X0089776Y0128184D01*
X0089776Y0128783D02*
X0066376Y0128783D01*
X0066376Y0129381D02*
X0089776Y0129381D01*
X0089776Y0129980D02*
X0066376Y0129980D01*
X0066376Y0130578D02*
X0089776Y0130578D01*
X0089776Y0131177D02*
X0066376Y0131177D01*
X0066376Y0131775D02*
X0089776Y0131775D01*
X0089776Y0132374D02*
X0065882Y0132374D01*
X0065284Y0132972D02*
X0089776Y0132972D01*
X0089776Y0133571D02*
X0064685Y0133571D01*
X0064087Y0134170D02*
X0089776Y0134170D01*
X0089776Y0134768D02*
X0063488Y0134768D01*
X0062890Y0135367D02*
X0089776Y0135367D01*
X0089776Y0135965D02*
X0062291Y0135965D01*
X0061693Y0136564D02*
X0089776Y0136564D01*
X0089776Y0137162D02*
X0061094Y0137162D01*
X0059528Y0134768D02*
X0009576Y0134768D01*
X0009576Y0134170D02*
X0060127Y0134170D01*
X0060725Y0133571D02*
X0009576Y0133571D01*
X0009576Y0132972D02*
X0017307Y0132972D01*
X0016708Y0132374D02*
X0009576Y0132374D01*
X0009576Y0135367D02*
X0033930Y0135367D01*
X0033331Y0135965D02*
X0009576Y0135965D01*
X0009576Y0136564D02*
X0032733Y0136564D01*
X0032134Y0137162D02*
X0009576Y0137162D01*
X0009576Y0137761D02*
X0031536Y0137761D01*
X0030937Y0138359D02*
X0009576Y0138359D01*
X0009576Y0138958D02*
X0030339Y0138958D01*
X0029740Y0139556D02*
X0009576Y0139556D01*
X0009576Y0140155D02*
X0029142Y0140155D01*
X0028576Y0140753D02*
X0009576Y0140753D01*
X0009576Y0141352D02*
X0028576Y0141352D01*
X0025756Y0141950D02*
X0009576Y0141950D01*
X0009576Y0142549D02*
X0025527Y0142549D01*
X0025527Y0143147D02*
X0009576Y0143147D01*
X0009576Y0143746D02*
X0025527Y0143746D01*
X0025527Y0144344D02*
X0009576Y0144344D01*
X0009576Y0144943D02*
X0025527Y0144943D01*
X0025527Y0145541D02*
X0009576Y0145541D01*
X0009576Y0146140D02*
X0025527Y0146140D01*
X0025527Y0146738D02*
X0009576Y0146738D01*
X0009576Y0147337D02*
X0025527Y0147337D01*
X0025527Y0147935D02*
X0009576Y0147935D01*
X0009576Y0148534D02*
X0025527Y0148534D01*
X0025527Y0149132D02*
X0009576Y0149132D01*
X0009576Y0149731D02*
X0026034Y0149731D01*
X0025479Y0152100D02*
X0034473Y0152100D01*
X0035176Y0152803D01*
X0035176Y0162803D01*
X0037473Y0165100D01*
X0041318Y0165100D01*
X0041318Y0164635D01*
X0045339Y0164635D01*
X0045339Y0164287D01*
X0041318Y0164287D01*
X0041318Y0163342D01*
X0041407Y0163012D01*
X0041578Y0162715D01*
X0041820Y0162473D01*
X0042116Y0162302D01*
X0042447Y0162214D01*
X0045339Y0162214D01*
X0045339Y0164287D01*
X0045687Y0164287D01*
X0045687Y0162214D01*
X0048580Y0162214D01*
X0048911Y0162302D01*
X0049207Y0162473D01*
X0049449Y0162715D01*
X0049620Y0163012D01*
X0049709Y0163342D01*
X0049709Y0164287D01*
X0045687Y0164287D01*
X0045687Y0164635D01*
X0049709Y0164635D01*
X0049709Y0165580D01*
X0049620Y0165911D01*
X0049449Y0166207D01*
X0049309Y0166348D01*
X0049309Y0170252D01*
X0049449Y0170393D01*
X0049620Y0170689D01*
X0049709Y0171020D01*
X0049709Y0171965D01*
X0045687Y0171965D01*
X0045687Y0172313D01*
X0045339Y0172313D01*
X0045339Y0174386D01*
X0042447Y0174386D01*
X0042116Y0174298D01*
X0041820Y0174127D01*
X0041578Y0173885D01*
X0041407Y0173588D01*
X0041318Y0173258D01*
X0041318Y0172313D01*
X0045339Y0172313D01*
X0045339Y0171965D01*
X0041318Y0171965D01*
X0041318Y0171500D01*
X0026837Y0171500D01*
X0026318Y0172019D01*
X0021635Y0172019D01*
X0021116Y0171500D01*
X0019479Y0171500D01*
X0018776Y0170797D01*
X0018776Y0158803D01*
X0024776Y0152803D01*
X0025479Y0152100D01*
X0025454Y0152125D02*
X0009576Y0152125D01*
X0009576Y0152723D02*
X0024856Y0152723D01*
X0024257Y0153322D02*
X0009576Y0153322D01*
X0009576Y0153920D02*
X0023659Y0153920D01*
X0023060Y0154519D02*
X0009576Y0154519D01*
X0009576Y0155117D02*
X0022462Y0155117D01*
X0021863Y0155716D02*
X0009576Y0155716D01*
X0009576Y0156314D02*
X0021265Y0156314D01*
X0020666Y0156913D02*
X0009576Y0156913D01*
X0009576Y0157511D02*
X0020068Y0157511D01*
X0019469Y0158110D02*
X0009576Y0158110D01*
X0009576Y0158708D02*
X0018871Y0158708D01*
X0018776Y0159307D02*
X0009576Y0159307D01*
X0009576Y0159905D02*
X0018776Y0159905D01*
X0018776Y0160504D02*
X0009576Y0160504D01*
X0009576Y0161103D02*
X0018776Y0161103D01*
X0018776Y0161701D02*
X0009576Y0161701D01*
X0009576Y0162300D02*
X0018776Y0162300D01*
X0018776Y0162898D02*
X0009576Y0162898D01*
X0009576Y0163497D02*
X0018776Y0163497D01*
X0018776Y0164095D02*
X0009576Y0164095D01*
X0009576Y0164694D02*
X0018776Y0164694D01*
X0018776Y0165292D02*
X0009576Y0165292D01*
X0009576Y0165891D02*
X0018776Y0165891D01*
X0018776Y0166489D02*
X0009576Y0166489D01*
X0009576Y0167088D02*
X0018776Y0167088D01*
X0018776Y0167686D02*
X0009576Y0167686D01*
X0009576Y0168285D02*
X0018776Y0168285D01*
X0018776Y0168883D02*
X0009576Y0168883D01*
X0009576Y0169482D02*
X0018776Y0169482D01*
X0018776Y0170080D02*
X0009576Y0170080D01*
X0009576Y0170679D02*
X0018776Y0170679D01*
X0019257Y0171277D02*
X0009576Y0171277D01*
X0009576Y0171876D02*
X0021492Y0171876D01*
X0021506Y0172270D02*
X0021837Y0172181D01*
X0023676Y0172181D01*
X0023676Y0175346D01*
X0024276Y0175346D01*
X0024276Y0172181D01*
X0026116Y0172181D01*
X0026447Y0172270D01*
X0026743Y0172441D01*
X0026985Y0172683D01*
X0027156Y0172979D01*
X0027245Y0173310D01*
X0027245Y0175346D01*
X0024276Y0175346D01*
X0024276Y0175946D01*
X0023676Y0175946D01*
X0023676Y0175346D01*
X0020708Y0175346D01*
X0020708Y0173310D01*
X0020796Y0172979D01*
X0020968Y0172683D01*
X0021210Y0172441D01*
X0021506Y0172270D01*
X0021176Y0172474D02*
X0009576Y0172474D01*
X0009576Y0173073D02*
X0020771Y0173073D01*
X0020708Y0173671D02*
X0009576Y0173671D01*
X0009576Y0174270D02*
X0020708Y0174270D01*
X0020708Y0174868D02*
X0009576Y0174868D01*
X0009576Y0175467D02*
X0023676Y0175467D01*
X0023676Y0175946D02*
X0020708Y0175946D01*
X0020708Y0177983D01*
X0020796Y0178314D01*
X0020968Y0178610D01*
X0021210Y0178852D01*
X0021506Y0179023D01*
X0021837Y0179112D01*
X0023676Y0179112D01*
X0023676Y0175946D01*
X0023676Y0176065D02*
X0024276Y0176065D01*
X0024276Y0175946D02*
X0024276Y0179112D01*
X0026116Y0179112D01*
X0026447Y0179023D01*
X0026743Y0178852D01*
X0026985Y0178610D01*
X0027156Y0178314D01*
X0027245Y0177983D01*
X0027245Y0175946D01*
X0024276Y0175946D01*
X0024276Y0175467D02*
X0059587Y0175467D01*
X0059587Y0175310D02*
X0060776Y0174121D01*
X0060776Y0173986D01*
X0059171Y0173986D01*
X0058644Y0173459D01*
X0058644Y0163141D01*
X0059171Y0162614D01*
X0061239Y0162614D01*
X0061239Y0153914D01*
X0058691Y0151365D01*
X0054982Y0151365D01*
X0054454Y0150838D01*
X0054454Y0145762D01*
X0054982Y0145235D01*
X0059664Y0145235D01*
X0060191Y0145762D01*
X0060191Y0147100D01*
X0067761Y0147100D01*
X0067761Y0145762D01*
X0068289Y0145235D01*
X0072971Y0145235D01*
X0073498Y0145762D01*
X0073498Y0150838D01*
X0072971Y0151365D01*
X0068289Y0151365D01*
X0067761Y0150838D01*
X0067761Y0149500D01*
X0060220Y0149500D01*
X0062936Y0152217D01*
X0063639Y0152919D01*
X0063639Y0162614D01*
X0065708Y0162614D01*
X0066235Y0163141D01*
X0066235Y0165820D01*
X0066587Y0165820D01*
X0066587Y0164310D01*
X0067987Y0162911D01*
X0069966Y0162911D01*
X0071365Y0164310D01*
X0071365Y0166290D01*
X0070555Y0167100D01*
X0072479Y0167100D01*
X0073479Y0166100D01*
X0087473Y0166100D01*
X0088176Y0166803D01*
X0088176Y0170797D01*
X0087473Y0171500D01*
X0086640Y0171500D01*
X0086259Y0171881D01*
X0081694Y0171881D01*
X0081313Y0171500D01*
X0066235Y0171500D01*
X0066235Y0173459D01*
X0065708Y0173986D01*
X0063176Y0173986D01*
X0063176Y0174121D01*
X0064365Y0175310D01*
X0064365Y0177290D01*
X0062966Y0178689D01*
X0060987Y0178689D01*
X0059587Y0177290D01*
X0059587Y0175310D01*
X0060030Y0174868D02*
X0027245Y0174868D01*
X0027245Y0174270D02*
X0042068Y0174270D01*
X0041454Y0173671D02*
X0027245Y0173671D01*
X0027181Y0173073D02*
X0041318Y0173073D01*
X0041318Y0172474D02*
X0026776Y0172474D01*
X0026461Y0171876D02*
X0041318Y0171876D01*
X0042236Y0170300D02*
X0042245Y0170291D01*
X0047976Y0170291D01*
X0047976Y0166309D01*
X0042245Y0166309D01*
X0042236Y0166300D01*
X0036976Y0166300D01*
X0033976Y0163300D01*
X0033976Y0153300D01*
X0025976Y0153300D01*
X0019976Y0159300D01*
X0019976Y0170300D01*
X0042236Y0170300D01*
X0045339Y0172474D02*
X0045687Y0172474D01*
X0045687Y0172313D02*
X0045687Y0174386D01*
X0048580Y0174386D01*
X0048911Y0174298D01*
X0049207Y0174127D01*
X0049449Y0173885D01*
X0049620Y0173588D01*
X0049709Y0173258D01*
X0049709Y0172313D01*
X0045687Y0172313D01*
X0045687Y0173073D02*
X0045339Y0173073D01*
X0045339Y0173671D02*
X0045687Y0173671D01*
X0045687Y0174270D02*
X0045339Y0174270D01*
X0048959Y0174270D02*
X0052568Y0174270D01*
X0052987Y0174689D02*
X0051587Y0173290D01*
X0051587Y0171310D01*
X0052987Y0169911D01*
X0054966Y0169911D01*
X0056365Y0171310D01*
X0056365Y0173290D01*
X0054966Y0174689D01*
X0052987Y0174689D01*
X0051969Y0173671D02*
X0049572Y0173671D01*
X0049709Y0173073D02*
X0051587Y0173073D01*
X0051587Y0172474D02*
X0049709Y0172474D01*
X0049709Y0171876D02*
X0051587Y0171876D01*
X0051621Y0171277D02*
X0049709Y0171277D01*
X0049614Y0170679D02*
X0052219Y0170679D01*
X0052818Y0170080D02*
X0049309Y0170080D01*
X0049309Y0169482D02*
X0058644Y0169482D01*
X0058644Y0170080D02*
X0055135Y0170080D01*
X0055734Y0170679D02*
X0058644Y0170679D01*
X0058644Y0171277D02*
X0056332Y0171277D01*
X0056365Y0171876D02*
X0058644Y0171876D01*
X0058644Y0172474D02*
X0056365Y0172474D01*
X0056365Y0173073D02*
X0058644Y0173073D01*
X0058856Y0173671D02*
X0055984Y0173671D01*
X0055385Y0174270D02*
X0060628Y0174270D01*
X0059587Y0176065D02*
X0027245Y0176065D01*
X0027245Y0176664D02*
X0059587Y0176664D01*
X0059587Y0177262D02*
X0027245Y0177262D01*
X0027245Y0177861D02*
X0060159Y0177861D01*
X0060757Y0178459D02*
X0027072Y0178459D01*
X0026317Y0179058D02*
X0063521Y0179058D01*
X0063196Y0178459D02*
X0064120Y0178459D01*
X0063794Y0177861D02*
X0064718Y0177861D01*
X0064365Y0177262D02*
X0065317Y0177262D01*
X0065916Y0176664D02*
X0064365Y0176664D01*
X0064365Y0176065D02*
X0066514Y0176065D01*
X0067113Y0175467D02*
X0064365Y0175467D01*
X0063923Y0174868D02*
X0067711Y0174868D01*
X0068310Y0174270D02*
X0063325Y0174270D01*
X0061976Y0172602D02*
X0061976Y0176300D01*
X0061976Y0172602D02*
X0062439Y0172139D01*
X0059976Y0170291D02*
X0059976Y0168868D01*
X0065708Y0168868D01*
X0066235Y0168341D01*
X0066235Y0168300D01*
X0072976Y0168300D01*
X0073976Y0167300D01*
X0086976Y0167300D01*
X0086976Y0170300D01*
X0065717Y0170300D01*
X0065708Y0170291D01*
X0059976Y0170291D01*
X0059976Y0170080D02*
X0086976Y0170080D01*
X0086976Y0169482D02*
X0059976Y0169482D01*
X0059976Y0168883D02*
X0086976Y0168883D01*
X0086976Y0168285D02*
X0072992Y0168285D01*
X0073590Y0167686D02*
X0086976Y0167686D01*
X0088176Y0167686D02*
X0089776Y0167686D01*
X0089776Y0167088D02*
X0088176Y0167088D01*
X0087863Y0166489D02*
X0089776Y0166489D01*
X0089776Y0165891D02*
X0071365Y0165891D01*
X0071365Y0165292D02*
X0089776Y0165292D01*
X0089776Y0164694D02*
X0071365Y0164694D01*
X0071150Y0164095D02*
X0089776Y0164095D01*
X0089776Y0163497D02*
X0070551Y0163497D01*
X0068976Y0165300D02*
X0067256Y0167020D01*
X0062439Y0167020D01*
X0062439Y0164461D02*
X0062439Y0153417D01*
X0057323Y0148300D01*
X0070630Y0148300D01*
X0073498Y0148534D02*
X0074454Y0148534D01*
X0074454Y0149132D02*
X0073498Y0149132D01*
X0073498Y0149731D02*
X0074454Y0149731D01*
X0074454Y0150329D02*
X0073498Y0150329D01*
X0073409Y0150928D02*
X0074544Y0150928D01*
X0074454Y0150838D02*
X0074454Y0145762D01*
X0074982Y0145235D01*
X0079664Y0145235D01*
X0080191Y0145762D01*
X0080191Y0147100D01*
X0081798Y0147100D01*
X0082987Y0145911D01*
X0084966Y0145911D01*
X0086365Y0147310D01*
X0086365Y0149290D01*
X0084966Y0150689D01*
X0082987Y0150689D01*
X0081798Y0149500D01*
X0080191Y0149500D01*
X0080191Y0150838D01*
X0079664Y0151365D01*
X0074982Y0151365D01*
X0074454Y0150838D01*
X0074454Y0147935D02*
X0073498Y0147935D01*
X0073498Y0147337D02*
X0074454Y0147337D01*
X0074454Y0146738D02*
X0073498Y0146738D01*
X0073498Y0146140D02*
X0074454Y0146140D01*
X0074675Y0145541D02*
X0073278Y0145541D01*
X0077323Y0148300D02*
X0083976Y0148300D01*
X0082160Y0146738D02*
X0080191Y0146738D01*
X0080191Y0146140D02*
X0082758Y0146140D01*
X0085195Y0146140D02*
X0089776Y0146140D01*
X0089776Y0146738D02*
X0085793Y0146738D01*
X0086365Y0147337D02*
X0089776Y0147337D01*
X0089776Y0147935D02*
X0086365Y0147935D01*
X0086365Y0148534D02*
X0089776Y0148534D01*
X0089776Y0149132D02*
X0086365Y0149132D01*
X0085924Y0149731D02*
X0089776Y0149731D01*
X0089776Y0150329D02*
X0085326Y0150329D01*
X0082627Y0150329D02*
X0080191Y0150329D01*
X0080191Y0149731D02*
X0082029Y0149731D01*
X0080102Y0150928D02*
X0089776Y0150928D01*
X0089776Y0151526D02*
X0062246Y0151526D01*
X0061648Y0150928D02*
X0067851Y0150928D01*
X0067761Y0150329D02*
X0061049Y0150329D01*
X0060451Y0149731D02*
X0067761Y0149731D01*
X0067761Y0146738D02*
X0060191Y0146738D01*
X0060191Y0146140D02*
X0067761Y0146140D01*
X0067982Y0145541D02*
X0059971Y0145541D01*
X0054675Y0145541D02*
X0053757Y0145541D01*
X0053810Y0145633D02*
X0053898Y0145963D01*
X0053898Y0148000D01*
X0050930Y0148000D01*
X0050930Y0148600D01*
X0053898Y0148600D01*
X0053898Y0150637D01*
X0053810Y0150967D01*
X0053639Y0151264D01*
X0053397Y0151506D01*
X0053100Y0151677D01*
X0052770Y0151765D01*
X0050930Y0151765D01*
X0050930Y0148600D01*
X0050330Y0148600D01*
X0050330Y0151765D01*
X0048490Y0151765D01*
X0048160Y0151677D01*
X0047863Y0151506D01*
X0047621Y0151264D01*
X0047450Y0150967D01*
X0047361Y0150637D01*
X0047361Y0148600D01*
X0050330Y0148600D01*
X0050330Y0148000D01*
X0050930Y0148000D01*
X0050930Y0144835D01*
X0052770Y0144835D01*
X0053100Y0144923D01*
X0053397Y0145094D01*
X0053639Y0145336D01*
X0053810Y0145633D01*
X0053898Y0146140D02*
X0054454Y0146140D01*
X0054454Y0146738D02*
X0053898Y0146738D01*
X0053898Y0147337D02*
X0054454Y0147337D01*
X0054454Y0147935D02*
X0053898Y0147935D01*
X0054454Y0148534D02*
X0050930Y0148534D01*
X0050930Y0149132D02*
X0050330Y0149132D01*
X0050330Y0148534D02*
X0034426Y0148534D01*
X0034426Y0149132D02*
X0047361Y0149132D01*
X0047361Y0149731D02*
X0033919Y0149731D01*
X0034426Y0147935D02*
X0047361Y0147935D01*
X0047361Y0148000D02*
X0047361Y0145963D01*
X0047450Y0145633D01*
X0047621Y0145336D01*
X0047863Y0145094D01*
X0048160Y0144923D01*
X0048490Y0144835D01*
X0050330Y0144835D01*
X0050330Y0148000D01*
X0047361Y0148000D01*
X0047361Y0147337D02*
X0034426Y0147337D01*
X0034426Y0146738D02*
X0047361Y0146738D01*
X0047361Y0146140D02*
X0034426Y0146140D01*
X0034426Y0145541D02*
X0047503Y0145541D01*
X0048126Y0144943D02*
X0034426Y0144943D01*
X0034426Y0144344D02*
X0089776Y0144344D01*
X0089776Y0143746D02*
X0034426Y0143746D01*
X0034426Y0143147D02*
X0089776Y0143147D01*
X0089776Y0142549D02*
X0034426Y0142549D01*
X0034197Y0141950D02*
X0089776Y0141950D01*
X0089776Y0141352D02*
X0031905Y0141352D01*
X0032503Y0140753D02*
X0089776Y0140753D01*
X0089776Y0140155D02*
X0033102Y0140155D01*
X0033700Y0139556D02*
X0089776Y0139556D01*
X0089776Y0138958D02*
X0034299Y0138958D01*
X0034897Y0138359D02*
X0089776Y0138359D01*
X0089776Y0137761D02*
X0035496Y0137761D01*
X0035402Y0132972D02*
X0061324Y0132972D01*
X0061922Y0132374D02*
X0036000Y0132374D01*
X0050330Y0144943D02*
X0050930Y0144943D01*
X0050930Y0145541D02*
X0050330Y0145541D01*
X0050330Y0146140D02*
X0050930Y0146140D01*
X0050930Y0146738D02*
X0050330Y0146738D01*
X0050330Y0147337D02*
X0050930Y0147337D01*
X0050930Y0147935D02*
X0050330Y0147935D01*
X0050330Y0149731D02*
X0050930Y0149731D01*
X0050930Y0150329D02*
X0050330Y0150329D01*
X0050330Y0150928D02*
X0050930Y0150928D01*
X0050930Y0151526D02*
X0050330Y0151526D01*
X0047899Y0151526D02*
X0009576Y0151526D01*
X0009576Y0150928D02*
X0047439Y0150928D01*
X0047361Y0150329D02*
X0009576Y0150329D01*
X0019976Y0159307D02*
X0033976Y0159307D01*
X0033976Y0159905D02*
X0019976Y0159905D01*
X0019976Y0160504D02*
X0033976Y0160504D01*
X0033976Y0161103D02*
X0019976Y0161103D01*
X0019976Y0161701D02*
X0033976Y0161701D01*
X0033976Y0162300D02*
X0019976Y0162300D01*
X0019976Y0162898D02*
X0033976Y0162898D01*
X0034173Y0163497D02*
X0019976Y0163497D01*
X0019976Y0164095D02*
X0034771Y0164095D01*
X0035370Y0164694D02*
X0019976Y0164694D01*
X0019976Y0165292D02*
X0035968Y0165292D01*
X0036567Y0165891D02*
X0019976Y0165891D01*
X0019976Y0166489D02*
X0047976Y0166489D01*
X0047976Y0167088D02*
X0019976Y0167088D01*
X0019976Y0167686D02*
X0047976Y0167686D01*
X0047976Y0168285D02*
X0019976Y0168285D01*
X0019976Y0168883D02*
X0047976Y0168883D01*
X0047976Y0169482D02*
X0019976Y0169482D01*
X0019976Y0170080D02*
X0047976Y0170080D01*
X0049309Y0168883D02*
X0058644Y0168883D01*
X0058644Y0168285D02*
X0049309Y0168285D01*
X0049309Y0167686D02*
X0058644Y0167686D01*
X0058644Y0167088D02*
X0049309Y0167088D01*
X0049309Y0166489D02*
X0052787Y0166489D01*
X0052987Y0166689D02*
X0051587Y0165290D01*
X0051587Y0163310D01*
X0052987Y0161911D01*
X0054966Y0161911D01*
X0056365Y0163310D01*
X0056365Y0165290D01*
X0054966Y0166689D01*
X0052987Y0166689D01*
X0052188Y0165891D02*
X0049626Y0165891D01*
X0049709Y0165292D02*
X0051590Y0165292D01*
X0051587Y0164694D02*
X0049709Y0164694D01*
X0049709Y0164095D02*
X0051587Y0164095D01*
X0051587Y0163497D02*
X0049709Y0163497D01*
X0049555Y0162898D02*
X0052000Y0162898D01*
X0052598Y0162300D02*
X0048901Y0162300D01*
X0045687Y0162300D02*
X0045339Y0162300D01*
X0045339Y0162898D02*
X0045687Y0162898D01*
X0045687Y0163497D02*
X0045339Y0163497D01*
X0045339Y0164095D02*
X0045687Y0164095D01*
X0042126Y0162300D02*
X0035176Y0162300D01*
X0035176Y0161701D02*
X0061239Y0161701D01*
X0061239Y0161103D02*
X0035176Y0161103D01*
X0035176Y0160504D02*
X0061239Y0160504D01*
X0061239Y0159905D02*
X0035176Y0159905D01*
X0035176Y0159307D02*
X0061239Y0159307D01*
X0061239Y0158708D02*
X0035176Y0158708D01*
X0035176Y0158110D02*
X0061239Y0158110D01*
X0061239Y0157511D02*
X0035176Y0157511D01*
X0035176Y0156913D02*
X0061239Y0156913D01*
X0061239Y0156314D02*
X0035176Y0156314D01*
X0035176Y0155716D02*
X0061239Y0155716D01*
X0061239Y0155117D02*
X0035176Y0155117D01*
X0035176Y0154519D02*
X0061239Y0154519D01*
X0061239Y0153920D02*
X0035176Y0153920D01*
X0035176Y0153322D02*
X0060648Y0153322D01*
X0060049Y0152723D02*
X0035097Y0152723D01*
X0034498Y0152125D02*
X0059451Y0152125D01*
X0058852Y0151526D02*
X0053361Y0151526D01*
X0053820Y0150928D02*
X0054544Y0150928D01*
X0054454Y0150329D02*
X0053898Y0150329D01*
X0053898Y0149731D02*
X0054454Y0149731D01*
X0054454Y0149132D02*
X0053898Y0149132D01*
X0053134Y0144943D02*
X0089776Y0144943D01*
X0089776Y0145541D02*
X0079971Y0145541D01*
X0089776Y0152125D02*
X0062845Y0152125D01*
X0063443Y0152723D02*
X0089776Y0152723D01*
X0089776Y0153322D02*
X0063639Y0153322D01*
X0063639Y0153920D02*
X0089776Y0153920D01*
X0089776Y0154519D02*
X0063639Y0154519D01*
X0063639Y0155117D02*
X0089776Y0155117D01*
X0089776Y0155716D02*
X0063639Y0155716D01*
X0063639Y0156314D02*
X0089776Y0156314D01*
X0089776Y0156913D02*
X0063639Y0156913D01*
X0063639Y0157511D02*
X0089776Y0157511D01*
X0089776Y0158110D02*
X0063639Y0158110D01*
X0063639Y0158708D02*
X0089776Y0158708D01*
X0089776Y0159307D02*
X0063639Y0159307D01*
X0063639Y0159905D02*
X0089776Y0159905D01*
X0089776Y0160504D02*
X0063639Y0160504D01*
X0063639Y0161103D02*
X0089776Y0161103D01*
X0089776Y0161701D02*
X0063639Y0161701D01*
X0063639Y0162300D02*
X0089776Y0162300D01*
X0089776Y0162898D02*
X0065992Y0162898D01*
X0066235Y0163497D02*
X0067401Y0163497D01*
X0066803Y0164095D02*
X0066235Y0164095D01*
X0066235Y0164694D02*
X0066587Y0164694D01*
X0066587Y0165292D02*
X0066235Y0165292D01*
X0070567Y0167088D02*
X0072492Y0167088D01*
X0073090Y0166489D02*
X0071166Y0166489D01*
X0066235Y0171876D02*
X0081689Y0171876D01*
X0083976Y0175327D02*
X0083976Y0188300D01*
X0091976Y0196300D01*
X0141630Y0196300D01*
X0146630Y0201300D01*
X0200882Y0201300D01*
X0205882Y0196300D01*
X0205882Y0176300D01*
X0205882Y0156300D01*
X0205882Y0150394D01*
X0214976Y0141300D01*
X0214976Y0126300D01*
X0210704Y0124593D02*
X0209248Y0124593D01*
X0209001Y0123995D02*
X0210952Y0123995D01*
X0211375Y0123396D02*
X0209577Y0123396D01*
X0210176Y0122798D02*
X0211973Y0122798D01*
X0212856Y0122199D02*
X0210774Y0122199D01*
X0211176Y0121601D02*
X0264976Y0121601D01*
X0264976Y0122199D02*
X0217097Y0122199D01*
X0217980Y0122798D02*
X0264976Y0122798D01*
X0264976Y0123396D02*
X0218578Y0123396D01*
X0219001Y0123995D02*
X0264976Y0123995D01*
X0264976Y0124593D02*
X0219248Y0124593D01*
X0219496Y0125192D02*
X0264976Y0125192D01*
X0264976Y0125790D02*
X0219576Y0125790D01*
X0219576Y0126389D02*
X0264976Y0126389D01*
X0264976Y0126987D02*
X0219576Y0126987D01*
X0219423Y0127586D02*
X0264976Y0127586D01*
X0264976Y0128184D02*
X0219175Y0128184D01*
X0218927Y0128783D02*
X0264976Y0128783D01*
X0264976Y0129381D02*
X0218400Y0129381D01*
X0217802Y0129980D02*
X0264976Y0129980D01*
X0264976Y0130578D02*
X0216668Y0130578D01*
X0216176Y0131177D02*
X0264976Y0131177D01*
X0264976Y0131775D02*
X0216176Y0131775D01*
X0216176Y0132374D02*
X0264976Y0132374D01*
X0264976Y0132972D02*
X0216176Y0132972D01*
X0216176Y0133571D02*
X0264976Y0133571D01*
X0264976Y0134170D02*
X0216176Y0134170D01*
X0216176Y0134768D02*
X0264976Y0134768D01*
X0264976Y0135367D02*
X0216176Y0135367D01*
X0216176Y0135965D02*
X0264976Y0135965D01*
X0264976Y0136564D02*
X0216176Y0136564D01*
X0216176Y0137162D02*
X0264976Y0137162D01*
X0264976Y0137761D02*
X0216176Y0137761D01*
X0216176Y0138359D02*
X0264976Y0138359D01*
X0264976Y0138958D02*
X0216176Y0138958D01*
X0216176Y0139556D02*
X0264976Y0139556D01*
X0264976Y0140155D02*
X0216176Y0140155D01*
X0216176Y0140753D02*
X0264976Y0140753D01*
X0264976Y0141352D02*
X0216176Y0141352D01*
X0216023Y0141950D02*
X0264976Y0141950D01*
X0264976Y0142549D02*
X0215425Y0142549D01*
X0214826Y0143147D02*
X0264976Y0143147D01*
X0264976Y0143746D02*
X0214228Y0143746D01*
X0213629Y0144344D02*
X0264976Y0144344D01*
X0264976Y0144943D02*
X0213031Y0144943D01*
X0212432Y0145541D02*
X0264976Y0145541D01*
X0264976Y0146140D02*
X0211834Y0146140D01*
X0211235Y0146738D02*
X0264976Y0146738D01*
X0264976Y0147337D02*
X0210637Y0147337D01*
X0210038Y0147935D02*
X0264976Y0147935D01*
X0264976Y0148534D02*
X0209440Y0148534D01*
X0208841Y0149132D02*
X0264976Y0149132D01*
X0264976Y0149731D02*
X0208243Y0149731D01*
X0207644Y0150329D02*
X0264976Y0150329D01*
X0264976Y0150928D02*
X0207082Y0150928D01*
X0207082Y0151526D02*
X0264976Y0151526D01*
X0264976Y0152125D02*
X0207082Y0152125D01*
X0208696Y0152723D02*
X0264976Y0152723D01*
X0264976Y0153322D02*
X0209144Y0153322D01*
X0209144Y0153920D02*
X0264976Y0153920D01*
X0264976Y0154519D02*
X0209144Y0154519D01*
X0209144Y0155117D02*
X0264976Y0155117D01*
X0264976Y0155716D02*
X0209144Y0155716D01*
X0209144Y0156314D02*
X0264976Y0156314D01*
X0264976Y0156913D02*
X0209144Y0156913D01*
X0209144Y0157511D02*
X0264976Y0157511D01*
X0264976Y0158110D02*
X0209144Y0158110D01*
X0209144Y0158708D02*
X0264976Y0158708D01*
X0264976Y0159307D02*
X0209144Y0159307D01*
X0208667Y0159905D02*
X0264976Y0159905D01*
X0264976Y0160504D02*
X0207082Y0160504D01*
X0207082Y0161103D02*
X0264976Y0161103D01*
X0264976Y0161701D02*
X0207082Y0161701D01*
X0207082Y0162300D02*
X0264976Y0162300D01*
X0264976Y0162898D02*
X0207082Y0162898D01*
X0207082Y0163497D02*
X0264976Y0163497D01*
X0264976Y0164095D02*
X0207082Y0164095D01*
X0207082Y0164694D02*
X0264976Y0164694D01*
X0264976Y0165292D02*
X0207082Y0165292D01*
X0207082Y0165891D02*
X0264976Y0165891D01*
X0264976Y0166489D02*
X0207082Y0166489D01*
X0207082Y0167088D02*
X0264976Y0167088D01*
X0264976Y0167686D02*
X0207082Y0167686D01*
X0207082Y0168285D02*
X0264976Y0168285D01*
X0264976Y0168883D02*
X0207082Y0168883D01*
X0207082Y0169482D02*
X0264976Y0169482D01*
X0264976Y0170080D02*
X0207082Y0170080D01*
X0207082Y0170679D02*
X0264976Y0170679D01*
X0264976Y0171277D02*
X0207082Y0171277D01*
X0207082Y0171876D02*
X0264976Y0171876D01*
X0264976Y0172474D02*
X0207082Y0172474D01*
X0209046Y0173073D02*
X0264976Y0173073D01*
X0264976Y0173671D02*
X0209144Y0173671D01*
X0209144Y0174270D02*
X0264976Y0174270D01*
X0264976Y0174868D02*
X0209144Y0174868D01*
X0209144Y0175467D02*
X0264976Y0175467D01*
X0264976Y0176065D02*
X0209144Y0176065D01*
X0209144Y0176664D02*
X0264976Y0176664D01*
X0264976Y0177262D02*
X0209144Y0177262D01*
X0209144Y0177861D02*
X0264976Y0177861D01*
X0264976Y0178459D02*
X0209144Y0178459D01*
X0209144Y0179058D02*
X0264976Y0179058D01*
X0264976Y0179656D02*
X0208916Y0179656D01*
X0207082Y0180255D02*
X0264976Y0180255D01*
X0264976Y0180853D02*
X0207082Y0180853D01*
X0207082Y0181452D02*
X0264976Y0181452D01*
X0264976Y0182050D02*
X0207082Y0182050D01*
X0207082Y0182649D02*
X0264976Y0182649D01*
X0264976Y0183247D02*
X0207082Y0183247D01*
X0207082Y0183846D02*
X0264976Y0183846D01*
X0264976Y0184444D02*
X0207082Y0184444D01*
X0207082Y0185043D02*
X0264976Y0185043D01*
X0264976Y0185641D02*
X0207082Y0185641D01*
X0207082Y0186240D02*
X0264976Y0186240D01*
X0264976Y0186839D02*
X0207082Y0186839D01*
X0207082Y0187437D02*
X0264976Y0187437D01*
X0264976Y0188036D02*
X0207082Y0188036D01*
X0207082Y0188634D02*
X0264976Y0188634D01*
X0264976Y0189233D02*
X0207082Y0189233D01*
X0207082Y0189831D02*
X0264976Y0189831D01*
X0264976Y0190430D02*
X0207082Y0190430D01*
X0207082Y0191028D02*
X0264976Y0191028D01*
X0264976Y0191627D02*
X0207082Y0191627D01*
X0207082Y0192225D02*
X0264976Y0192225D01*
X0264976Y0192824D02*
X0208796Y0192824D01*
X0209144Y0193422D02*
X0264976Y0193422D01*
X0264976Y0194021D02*
X0209144Y0194021D01*
X0209144Y0194619D02*
X0264976Y0194619D01*
X0264976Y0195218D02*
X0209144Y0195218D01*
X0209144Y0195816D02*
X0264976Y0195816D01*
X0264976Y0196415D02*
X0209144Y0196415D01*
X0209144Y0197013D02*
X0264976Y0197013D01*
X0264976Y0197612D02*
X0209144Y0197612D01*
X0209144Y0198210D02*
X0264976Y0198210D01*
X0264976Y0198809D02*
X0209144Y0198809D01*
X0209144Y0199407D02*
X0264976Y0199407D01*
X0264976Y0200006D02*
X0203873Y0200006D01*
X0203275Y0200604D02*
X0264976Y0200604D01*
X0264976Y0201203D02*
X0202676Y0201203D01*
X0202078Y0201801D02*
X0264976Y0201801D01*
X0264976Y0202400D02*
X0201479Y0202400D01*
X0200479Y0200006D02*
X0147033Y0200006D01*
X0146434Y0199407D02*
X0190809Y0199407D01*
X0190809Y0199429D02*
X0191336Y0199956D01*
X0196806Y0199956D01*
X0197333Y0199429D01*
X0197333Y0193171D01*
X0196806Y0192644D01*
X0191336Y0192644D01*
X0190809Y0193171D01*
X0190809Y0195100D01*
X0181191Y0195100D01*
X0181191Y0193762D01*
X0180664Y0193235D01*
X0175982Y0193235D01*
X0175454Y0193762D01*
X0175454Y0198838D01*
X0175982Y0199365D01*
X0180664Y0199365D01*
X0181191Y0198838D01*
X0181191Y0197500D01*
X0190809Y0197500D01*
X0190809Y0199429D01*
X0190809Y0198809D02*
X0181191Y0198809D01*
X0181191Y0198210D02*
X0190809Y0198210D01*
X0190809Y0197612D02*
X0181191Y0197612D01*
X0181191Y0194619D02*
X0190809Y0194619D01*
X0190809Y0194021D02*
X0181191Y0194021D01*
X0180852Y0193422D02*
X0190809Y0193422D01*
X0191156Y0192824D02*
X0150176Y0192824D01*
X0150176Y0192225D02*
X0204682Y0192225D01*
X0204682Y0191627D02*
X0150176Y0191627D01*
X0150176Y0191028D02*
X0204682Y0191028D01*
X0204682Y0190430D02*
X0150176Y0190430D01*
X0150176Y0189831D02*
X0204682Y0189831D01*
X0204682Y0189233D02*
X0150176Y0189233D01*
X0150176Y0188634D02*
X0204682Y0188634D01*
X0204682Y0188036D02*
X0150619Y0188036D01*
X0151218Y0187437D02*
X0204682Y0187437D01*
X0204682Y0186839D02*
X0151365Y0186839D01*
X0151365Y0186240D02*
X0204682Y0186240D01*
X0204682Y0185641D02*
X0151365Y0185641D01*
X0151098Y0185043D02*
X0204682Y0185043D01*
X0204682Y0184444D02*
X0150499Y0184444D01*
X0148976Y0186300D02*
X0148976Y0195646D01*
X0148323Y0196300D01*
X0171630Y0196300D01*
X0174498Y0196415D02*
X0175454Y0196415D01*
X0175454Y0197013D02*
X0174498Y0197013D01*
X0174498Y0197612D02*
X0175454Y0197612D01*
X0175454Y0198210D02*
X0174498Y0198210D01*
X0174498Y0198809D02*
X0175454Y0198809D01*
X0175454Y0195816D02*
X0174498Y0195816D01*
X0174498Y0195218D02*
X0175454Y0195218D01*
X0175454Y0194619D02*
X0174498Y0194619D01*
X0174498Y0194021D02*
X0175454Y0194021D01*
X0175794Y0193422D02*
X0174159Y0193422D01*
X0169101Y0193422D02*
X0150852Y0193422D01*
X0151191Y0194021D02*
X0168761Y0194021D01*
X0168761Y0194619D02*
X0151191Y0194619D01*
X0151191Y0197612D02*
X0168761Y0197612D01*
X0168761Y0198210D02*
X0151191Y0198210D01*
X0151191Y0198809D02*
X0168761Y0198809D01*
X0178323Y0196300D02*
X0194071Y0196300D01*
X0197333Y0196415D02*
X0202620Y0196415D01*
X0202620Y0197013D02*
X0197333Y0197013D01*
X0197333Y0197612D02*
X0202620Y0197612D01*
X0202275Y0198210D02*
X0197333Y0198210D01*
X0197333Y0198809D02*
X0201676Y0198809D01*
X0201078Y0199407D02*
X0197333Y0199407D01*
X0197333Y0195816D02*
X0202620Y0195816D01*
X0202620Y0195218D02*
X0197333Y0195218D01*
X0197333Y0194619D02*
X0202620Y0194619D01*
X0202620Y0194021D02*
X0197333Y0194021D01*
X0197333Y0193422D02*
X0202620Y0193422D01*
X0202967Y0192824D02*
X0196985Y0192824D01*
X0204682Y0183846D02*
X0095176Y0183846D01*
X0095176Y0184444D02*
X0147453Y0184444D01*
X0146855Y0185043D02*
X0095176Y0185043D01*
X0095176Y0185641D02*
X0146587Y0185641D01*
X0146587Y0186240D02*
X0095176Y0186240D01*
X0095176Y0186839D02*
X0146587Y0186839D01*
X0146735Y0187437D02*
X0095176Y0187437D01*
X0095176Y0188036D02*
X0147333Y0188036D01*
X0147776Y0188634D02*
X0095176Y0188634D01*
X0095176Y0189233D02*
X0147776Y0189233D01*
X0147776Y0189831D02*
X0095176Y0189831D01*
X0095176Y0190430D02*
X0147776Y0190430D01*
X0147776Y0191028D02*
X0095176Y0191028D01*
X0095176Y0191627D02*
X0147776Y0191627D01*
X0147776Y0192225D02*
X0095176Y0192225D01*
X0095176Y0192824D02*
X0147776Y0192824D01*
X0145794Y0193422D02*
X0144159Y0193422D01*
X0144498Y0194021D02*
X0145454Y0194021D01*
X0145454Y0194619D02*
X0144498Y0194619D01*
X0144498Y0195218D02*
X0145454Y0195218D01*
X0145454Y0195816D02*
X0144498Y0195816D01*
X0144498Y0196415D02*
X0145454Y0196415D01*
X0145454Y0197013D02*
X0144498Y0197013D01*
X0144639Y0197612D02*
X0145454Y0197612D01*
X0145454Y0198210D02*
X0145237Y0198210D01*
X0143639Y0200006D02*
X0095176Y0200006D01*
X0095176Y0200604D02*
X0144237Y0200604D01*
X0144836Y0201203D02*
X0095176Y0201203D01*
X0095172Y0201801D02*
X0145434Y0201801D01*
X0146033Y0202400D02*
X0094574Y0202400D01*
X0093976Y0201300D02*
X0093976Y0173300D01*
X0070976Y0173300D01*
X0054976Y0189300D01*
X0054976Y0201300D01*
X0093976Y0201300D01*
X0093976Y0201203D02*
X0054976Y0201203D01*
X0054976Y0200604D02*
X0093976Y0200604D01*
X0093976Y0200006D02*
X0054976Y0200006D01*
X0054976Y0199407D02*
X0093976Y0199407D01*
X0093976Y0198809D02*
X0054976Y0198809D01*
X0054976Y0198210D02*
X0093976Y0198210D01*
X0093976Y0197612D02*
X0054976Y0197612D01*
X0054976Y0197013D02*
X0093976Y0197013D01*
X0093976Y0196415D02*
X0054976Y0196415D01*
X0054976Y0195816D02*
X0093976Y0195816D01*
X0093976Y0195218D02*
X0054976Y0195218D01*
X0054976Y0194619D02*
X0093976Y0194619D01*
X0093976Y0194021D02*
X0054976Y0194021D01*
X0054976Y0193422D02*
X0093976Y0193422D01*
X0093976Y0192824D02*
X0054976Y0192824D01*
X0054976Y0192225D02*
X0093976Y0192225D01*
X0093976Y0191627D02*
X0054976Y0191627D01*
X0054976Y0191028D02*
X0093976Y0191028D01*
X0093976Y0190430D02*
X0054976Y0190430D01*
X0054976Y0189831D02*
X0093976Y0189831D01*
X0093976Y0189233D02*
X0055044Y0189233D01*
X0055642Y0188634D02*
X0093976Y0188634D01*
X0093976Y0188036D02*
X0056241Y0188036D01*
X0056839Y0187437D02*
X0093976Y0187437D01*
X0093976Y0186839D02*
X0057438Y0186839D01*
X0058036Y0186240D02*
X0093976Y0186240D01*
X0093976Y0185641D02*
X0058635Y0185641D01*
X0059233Y0185043D02*
X0093976Y0185043D01*
X0093976Y0184444D02*
X0059832Y0184444D01*
X0060430Y0183846D02*
X0093976Y0183846D01*
X0093976Y0183247D02*
X0061029Y0183247D01*
X0061627Y0182649D02*
X0093976Y0182649D01*
X0093976Y0182050D02*
X0062226Y0182050D01*
X0062824Y0181452D02*
X0093976Y0181452D01*
X0093976Y0180853D02*
X0063423Y0180853D01*
X0064021Y0180255D02*
X0093976Y0180255D01*
X0093976Y0179656D02*
X0064620Y0179656D01*
X0065219Y0179058D02*
X0093976Y0179058D01*
X0093976Y0178459D02*
X0065817Y0178459D01*
X0066416Y0177861D02*
X0093976Y0177861D01*
X0093976Y0177262D02*
X0067014Y0177262D01*
X0067613Y0176664D02*
X0093976Y0176664D01*
X0093976Y0176065D02*
X0068211Y0176065D01*
X0068810Y0175467D02*
X0093976Y0175467D01*
X0093976Y0174868D02*
X0069408Y0174868D01*
X0070007Y0174270D02*
X0093976Y0174270D01*
X0093976Y0173671D02*
X0070605Y0173671D01*
X0069507Y0173073D02*
X0066235Y0173073D01*
X0066235Y0172474D02*
X0070105Y0172474D01*
X0068908Y0173671D02*
X0066023Y0173671D01*
X0073976Y0178300D02*
X0058976Y0193300D01*
X0057323Y0193300D01*
X0053776Y0190430D02*
X0053732Y0190430D01*
X0053776Y0189831D02*
X0009576Y0189831D01*
X0009576Y0189233D02*
X0053776Y0189233D01*
X0053945Y0188634D02*
X0009576Y0188634D01*
X0009576Y0188036D02*
X0054544Y0188036D01*
X0055142Y0187437D02*
X0009576Y0187437D01*
X0009576Y0186839D02*
X0055741Y0186839D01*
X0056339Y0186240D02*
X0009576Y0186240D01*
X0009576Y0185641D02*
X0056938Y0185641D01*
X0057536Y0185043D02*
X0009576Y0185043D01*
X0009576Y0184444D02*
X0058135Y0184444D01*
X0058733Y0183846D02*
X0009576Y0183846D01*
X0009576Y0183247D02*
X0059332Y0183247D01*
X0059930Y0182649D02*
X0009576Y0182649D01*
X0009576Y0182050D02*
X0060529Y0182050D01*
X0061127Y0181452D02*
X0009576Y0181452D01*
X0009576Y0180853D02*
X0061726Y0180853D01*
X0062324Y0180255D02*
X0009576Y0180255D01*
X0009576Y0179656D02*
X0062923Y0179656D01*
X0073976Y0178300D02*
X0081003Y0178300D01*
X0083976Y0175327D01*
X0088950Y0175327D01*
X0090976Y0173300D01*
X0090976Y0174300D01*
X0090976Y0173300D02*
X0090976Y0095300D01*
X0091976Y0094300D01*
X0093790Y0095865D02*
X0102123Y0095865D01*
X0102123Y0096463D02*
X0093192Y0096463D01*
X0092176Y0097062D02*
X0102123Y0097062D01*
X0102123Y0097660D02*
X0092176Y0097660D01*
X0092176Y0098259D02*
X0102123Y0098259D01*
X0102123Y0098857D02*
X0092176Y0098857D01*
X0092176Y0099456D02*
X0102123Y0099456D01*
X0102123Y0100054D02*
X0092176Y0100054D01*
X0092176Y0100653D02*
X0102123Y0100653D01*
X0102123Y0101251D02*
X0092176Y0101251D01*
X0092176Y0101850D02*
X0102123Y0101850D01*
X0102123Y0102448D02*
X0092176Y0102448D01*
X0092176Y0103047D02*
X0102123Y0103047D01*
X0102123Y0103645D02*
X0092176Y0103645D01*
X0092176Y0104244D02*
X0102123Y0104244D01*
X0102123Y0104842D02*
X0092176Y0104842D01*
X0092176Y0105441D02*
X0102123Y0105441D01*
X0102123Y0106039D02*
X0092176Y0106039D01*
X0092176Y0106638D02*
X0102123Y0106638D01*
X0102123Y0107237D02*
X0092176Y0107237D01*
X0092176Y0107835D02*
X0102123Y0107835D01*
X0102123Y0108434D02*
X0092176Y0108434D01*
X0092176Y0109032D02*
X0102123Y0109032D01*
X0102123Y0109631D02*
X0092176Y0109631D01*
X0092176Y0110229D02*
X0102123Y0110229D01*
X0102123Y0110828D02*
X0092176Y0110828D01*
X0092176Y0111426D02*
X0102123Y0111426D01*
X0102123Y0112025D02*
X0092176Y0112025D01*
X0092176Y0112623D02*
X0102123Y0112623D01*
X0102123Y0113222D02*
X0092176Y0113222D01*
X0092176Y0113820D02*
X0102123Y0113820D01*
X0102123Y0114419D02*
X0092176Y0114419D01*
X0092176Y0115017D02*
X0102123Y0115017D01*
X0102123Y0115616D02*
X0092176Y0115616D01*
X0092176Y0116214D02*
X0102123Y0116214D01*
X0102123Y0116813D02*
X0092176Y0116813D01*
X0092176Y0117411D02*
X0102123Y0117411D01*
X0102123Y0118010D02*
X0092176Y0118010D01*
X0092176Y0118608D02*
X0102123Y0118608D01*
X0102123Y0119207D02*
X0092176Y0119207D01*
X0092176Y0119805D02*
X0102123Y0119805D01*
X0102123Y0120404D02*
X0092176Y0120404D01*
X0092176Y0121002D02*
X0102123Y0121002D01*
X0102123Y0121601D02*
X0092176Y0121601D01*
X0092176Y0122199D02*
X0102123Y0122199D01*
X0102123Y0122798D02*
X0092176Y0122798D01*
X0092176Y0123396D02*
X0093561Y0123396D01*
X0093209Y0123995D02*
X0092176Y0123995D01*
X0092176Y0124593D02*
X0093165Y0124593D01*
X0093165Y0125192D02*
X0092176Y0125192D01*
X0092176Y0125790D02*
X0093165Y0125790D01*
X0096330Y0125790D02*
X0096930Y0125790D01*
X0096930Y0125192D02*
X0096330Y0125192D01*
X0096330Y0124593D02*
X0096930Y0124593D01*
X0096930Y0123995D02*
X0096330Y0123995D01*
X0096330Y0123396D02*
X0096930Y0123396D01*
X0099699Y0123396D02*
X0102123Y0123396D01*
X0100257Y0123995D02*
X0100051Y0123995D01*
X0100095Y0124593D02*
X0100257Y0124593D01*
X0100257Y0125192D02*
X0100095Y0125192D01*
X0100095Y0125790D02*
X0100257Y0125790D01*
X0103323Y0126300D02*
X0103323Y0094134D01*
X0102123Y0094069D02*
X0094365Y0094069D01*
X0094365Y0093471D02*
X0102289Y0093471D01*
X0102888Y0092872D02*
X0093927Y0092872D01*
X0093329Y0092274D02*
X0103116Y0092274D01*
X0102123Y0094668D02*
X0094365Y0094668D01*
X0094365Y0095266D02*
X0102123Y0095266D01*
X0104523Y0097062D02*
X0108855Y0097062D01*
X0108855Y0097660D02*
X0104523Y0097660D01*
X0104523Y0098259D02*
X0108855Y0098259D01*
X0108855Y0098857D02*
X0104523Y0098857D01*
X0104523Y0099456D02*
X0108855Y0099456D01*
X0108855Y0100054D02*
X0104523Y0100054D01*
X0104523Y0100653D02*
X0108855Y0100653D01*
X0108855Y0101251D02*
X0104523Y0101251D01*
X0104523Y0101850D02*
X0108855Y0101850D01*
X0108855Y0102448D02*
X0104523Y0102448D01*
X0104523Y0103047D02*
X0108855Y0103047D01*
X0108855Y0103645D02*
X0104523Y0103645D01*
X0104523Y0104244D02*
X0108855Y0104244D01*
X0108855Y0104842D02*
X0104523Y0104842D01*
X0104523Y0105441D02*
X0108855Y0105441D01*
X0108855Y0106039D02*
X0104523Y0106039D01*
X0113224Y0098857D02*
X0125719Y0098857D01*
X0125120Y0098259D02*
X0113224Y0098259D01*
X0113224Y0097660D02*
X0124522Y0097660D01*
X0123923Y0097062D02*
X0113224Y0097062D01*
X0113224Y0096463D02*
X0123325Y0096463D01*
X0122726Y0095865D02*
X0113224Y0095865D01*
X0113224Y0095266D02*
X0122128Y0095266D01*
X0121529Y0094668D02*
X0113224Y0094668D01*
X0113224Y0094069D02*
X0120931Y0094069D01*
X0120332Y0093471D02*
X0113224Y0093471D01*
X0113224Y0092872D02*
X0119734Y0092872D01*
X0120446Y0090371D02*
X0119898Y0089822D01*
X0120882Y0087321D02*
X0120974Y0087229D01*
X0122759Y0087229D01*
X0122850Y0087321D01*
X0122942Y0087229D01*
X0124727Y0087229D01*
X0124819Y0087321D01*
X0124911Y0087229D01*
X0125577Y0087229D01*
X0125577Y0086234D01*
X0125669Y0086143D01*
X0125577Y0086051D01*
X0125577Y0084266D01*
X0125669Y0084174D01*
X0125577Y0084082D01*
X0125577Y0082297D01*
X0125669Y0082206D01*
X0125577Y0082114D01*
X0125577Y0080329D01*
X0125669Y0080237D01*
X0125577Y0080145D01*
X0125577Y0078360D01*
X0125669Y0078268D01*
X0125577Y0078177D01*
X0125577Y0076392D01*
X0125669Y0076300D01*
X0125577Y0076208D01*
X0125577Y0074423D01*
X0125669Y0074331D01*
X0125577Y0074240D01*
X0125577Y0072455D01*
X0125669Y0072363D01*
X0125577Y0072271D01*
X0125577Y0070486D01*
X0125669Y0070394D01*
X0125577Y0070303D01*
X0125577Y0068518D01*
X0125669Y0068426D01*
X0125577Y0068334D01*
X0125577Y0066549D01*
X0125669Y0066457D01*
X0125577Y0066366D01*
X0125577Y0065371D01*
X0124911Y0065371D01*
X0124819Y0065279D01*
X0124727Y0065371D01*
X0122942Y0065371D01*
X0122850Y0065279D01*
X0122759Y0065371D01*
X0120974Y0065371D01*
X0120882Y0065279D01*
X0120790Y0065371D01*
X0119005Y0065371D01*
X0118913Y0065279D01*
X0118822Y0065371D01*
X0117037Y0065371D01*
X0116945Y0065279D01*
X0116853Y0065371D01*
X0115068Y0065371D01*
X0114976Y0065279D01*
X0114885Y0065371D01*
X0113100Y0065371D01*
X0113008Y0065279D01*
X0112916Y0065371D01*
X0111131Y0065371D01*
X0111039Y0065279D01*
X0110948Y0065371D01*
X0109163Y0065371D01*
X0109071Y0065279D01*
X0108979Y0065371D01*
X0107194Y0065371D01*
X0107102Y0065279D01*
X0107011Y0065371D01*
X0105226Y0065371D01*
X0105134Y0065279D01*
X0105042Y0065371D01*
X0104376Y0065371D01*
X0104376Y0066366D01*
X0104284Y0066457D01*
X0104376Y0066549D01*
X0104376Y0068334D01*
X0104284Y0068426D01*
X0104376Y0068518D01*
X0104376Y0070303D01*
X0104284Y0070394D01*
X0104376Y0070486D01*
X0104376Y0072271D01*
X0104284Y0072363D01*
X0104376Y0072455D01*
X0104376Y0074240D01*
X0104284Y0074331D01*
X0104376Y0074423D01*
X0104376Y0076208D01*
X0104284Y0076300D01*
X0104376Y0076392D01*
X0104376Y0078177D01*
X0104284Y0078269D01*
X0104376Y0078360D01*
X0104376Y0080145D01*
X0104284Y0080237D01*
X0104376Y0080329D01*
X0104376Y0082114D01*
X0104284Y0082206D01*
X0104376Y0082297D01*
X0104376Y0084082D01*
X0104284Y0084174D01*
X0104376Y0084266D01*
X0104376Y0086051D01*
X0104284Y0086143D01*
X0104376Y0086234D01*
X0104376Y0087229D01*
X0105042Y0087229D01*
X0105134Y0087321D01*
X0105226Y0087229D01*
X0107011Y0087229D01*
X0107102Y0087321D01*
X0107194Y0087229D01*
X0108979Y0087229D01*
X0109071Y0087321D01*
X0109163Y0087229D01*
X0110948Y0087229D01*
X0111039Y0087321D01*
X0111131Y0087229D01*
X0112916Y0087229D01*
X0113008Y0087321D01*
X0113100Y0087229D01*
X0114885Y0087229D01*
X0114976Y0087321D01*
X0115068Y0087229D01*
X0116853Y0087229D01*
X0116945Y0087321D01*
X0117037Y0087229D01*
X0118822Y0087229D01*
X0118913Y0087321D01*
X0119005Y0087229D01*
X0120790Y0087229D01*
X0120882Y0087321D01*
X0125577Y0086887D02*
X0104376Y0086887D01*
X0104376Y0086289D02*
X0125577Y0086289D01*
X0125577Y0085690D02*
X0104376Y0085690D01*
X0104376Y0085092D02*
X0125577Y0085092D01*
X0125577Y0084493D02*
X0104376Y0084493D01*
X0104376Y0083895D02*
X0125577Y0083895D01*
X0125577Y0083296D02*
X0104376Y0083296D01*
X0104376Y0082698D02*
X0125577Y0082698D01*
X0125577Y0082099D02*
X0104376Y0082099D01*
X0104376Y0081501D02*
X0125577Y0081501D01*
X0125577Y0080902D02*
X0104376Y0080902D01*
X0104350Y0080303D02*
X0125602Y0080303D01*
X0125577Y0079705D02*
X0104376Y0079705D01*
X0104376Y0079106D02*
X0125577Y0079106D01*
X0125577Y0078508D02*
X0104376Y0078508D01*
X0104376Y0077909D02*
X0125577Y0077909D01*
X0125577Y0077311D02*
X0104376Y0077311D01*
X0104376Y0076712D02*
X0125577Y0076712D01*
X0125577Y0076114D02*
X0104376Y0076114D01*
X0104376Y0075515D02*
X0125577Y0075515D01*
X0125577Y0074917D02*
X0104376Y0074917D01*
X0104297Y0074318D02*
X0125656Y0074318D01*
X0125577Y0073720D02*
X0104376Y0073720D01*
X0104376Y0073121D02*
X0125577Y0073121D01*
X0125577Y0072523D02*
X0104376Y0072523D01*
X0104376Y0071924D02*
X0125577Y0071924D01*
X0125577Y0071326D02*
X0104376Y0071326D01*
X0104376Y0070727D02*
X0125577Y0070727D01*
X0125577Y0070129D02*
X0104376Y0070129D01*
X0104376Y0069530D02*
X0125577Y0069530D01*
X0125577Y0068932D02*
X0104376Y0068932D01*
X0104376Y0068333D02*
X0125577Y0068333D01*
X0125577Y0067735D02*
X0104376Y0067735D01*
X0104376Y0067136D02*
X0125577Y0067136D01*
X0125589Y0066538D02*
X0104364Y0066538D01*
X0104376Y0065939D02*
X0125577Y0065939D01*
X0124881Y0065341D02*
X0124757Y0065341D01*
X0122912Y0065341D02*
X0122789Y0065341D01*
X0120944Y0065341D02*
X0120820Y0065341D01*
X0118975Y0065341D02*
X0118852Y0065341D01*
X0117007Y0065341D02*
X0116883Y0065341D01*
X0115038Y0065341D02*
X0114915Y0065341D01*
X0113070Y0065341D02*
X0112946Y0065341D01*
X0111101Y0065341D02*
X0110978Y0065341D01*
X0109132Y0065341D02*
X0109009Y0065341D01*
X0107164Y0065341D02*
X0107041Y0065341D01*
X0105195Y0065341D02*
X0105072Y0065341D01*
X0102730Y0063545D02*
X0097765Y0063545D01*
X0097167Y0062947D02*
X0102730Y0062947D01*
X0102730Y0062348D02*
X0096568Y0062348D01*
X0095477Y0062954D02*
X0099416Y0066893D01*
X0101083Y0066893D01*
X0101632Y0067442D01*
X0101632Y0069410D02*
X0091976Y0069410D01*
X0091976Y0069300D02*
X0084976Y0069300D01*
X0084976Y0069646D01*
X0081911Y0069530D02*
X0069523Y0069530D01*
X0069523Y0068932D02*
X0081911Y0068932D01*
X0081911Y0068333D02*
X0069523Y0068333D01*
X0069523Y0067735D02*
X0081911Y0067735D01*
X0082080Y0067136D02*
X0069523Y0067136D01*
X0069523Y0066538D02*
X0097364Y0066538D01*
X0097962Y0067136D02*
X0093191Y0067136D01*
X0093790Y0067735D02*
X0098561Y0067735D01*
X0096765Y0065939D02*
X0069523Y0065939D01*
X0069523Y0065341D02*
X0073639Y0065341D01*
X0073040Y0064742D02*
X0069523Y0064742D01*
X0069523Y0064144D02*
X0072587Y0064144D01*
X0072587Y0063545D02*
X0069523Y0063545D01*
X0069523Y0062947D02*
X0072587Y0062947D01*
X0072587Y0062348D02*
X0069523Y0062348D01*
X0069523Y0061750D02*
X0073148Y0061750D01*
X0073747Y0061151D02*
X0069523Y0061151D01*
X0069523Y0060553D02*
X0081971Y0060553D01*
X0081911Y0061151D02*
X0076206Y0061151D01*
X0076805Y0061750D02*
X0081911Y0061750D01*
X0081911Y0064742D02*
X0076913Y0064742D01*
X0076314Y0065341D02*
X0081957Y0065341D01*
X0084976Y0062954D02*
X0075323Y0062954D01*
X0074976Y0063300D01*
X0071272Y0058757D02*
X0115736Y0058757D01*
X0115138Y0058159D02*
X0101496Y0058159D01*
X0102095Y0057560D02*
X0114539Y0057560D01*
X0113941Y0056962D02*
X0102365Y0056962D01*
X0102365Y0056363D02*
X0113342Y0056363D01*
X0112744Y0055765D02*
X0102365Y0055765D01*
X0102221Y0055166D02*
X0112145Y0055166D01*
X0111547Y0054568D02*
X0101622Y0054568D01*
X0101024Y0053969D02*
X0110948Y0053969D01*
X0110350Y0053370D02*
X0093284Y0053370D01*
X0093883Y0052772D02*
X0109751Y0052772D01*
X0109976Y0051300D02*
X0091976Y0051300D01*
X0061976Y0021300D01*
X0024976Y0021300D01*
X0024976Y0026800D01*
X0023076Y0027036D02*
X0009576Y0027036D01*
X0009576Y0027634D02*
X0023076Y0027634D01*
X0023076Y0028233D02*
X0009576Y0028233D01*
X0009576Y0028832D02*
X0023076Y0028832D01*
X0023076Y0029430D02*
X0009576Y0029430D01*
X0009576Y0030029D02*
X0023432Y0030029D01*
X0026521Y0030029D02*
X0027896Y0030029D01*
X0027936Y0030098D02*
X0027765Y0029802D01*
X0027676Y0029471D01*
X0027676Y0027000D01*
X0029776Y0027000D01*
X0029776Y0026600D01*
X0027676Y0026600D01*
X0027676Y0024129D01*
X0027765Y0023798D01*
X0027936Y0023502D01*
X0028178Y0023260D01*
X0028475Y0023089D01*
X0028805Y0023000D01*
X0029776Y0023000D01*
X0029776Y0026600D01*
X0030176Y0026600D01*
X0030176Y0023000D01*
X0031148Y0023000D01*
X0031478Y0023089D01*
X0031775Y0023260D01*
X0032017Y0023502D01*
X0032188Y0023798D01*
X0032276Y0024129D01*
X0032276Y0026600D01*
X0030176Y0026600D01*
X0030176Y0027000D01*
X0029776Y0027000D01*
X0029776Y0030600D01*
X0028805Y0030600D01*
X0028475Y0030511D01*
X0028178Y0030340D01*
X0027936Y0030098D01*
X0027676Y0029430D02*
X0026876Y0029430D01*
X0026876Y0028832D02*
X0027676Y0028832D01*
X0027676Y0028233D02*
X0026876Y0028233D01*
X0026876Y0027634D02*
X0027676Y0027634D01*
X0027676Y0027036D02*
X0026876Y0027036D01*
X0026876Y0026437D02*
X0027676Y0026437D01*
X0027676Y0025839D02*
X0026876Y0025839D01*
X0026876Y0025240D02*
X0027676Y0025240D01*
X0027676Y0024642D02*
X0026876Y0024642D01*
X0026876Y0024043D02*
X0027699Y0024043D01*
X0027993Y0023445D02*
X0026394Y0023445D01*
X0026176Y0022846D02*
X0061826Y0022846D01*
X0062424Y0023445D02*
X0046394Y0023445D01*
X0046349Y0023400D02*
X0046876Y0023927D01*
X0046876Y0029673D01*
X0046349Y0030200D01*
X0043604Y0030200D01*
X0043076Y0029673D01*
X0043076Y0023927D01*
X0043604Y0023400D01*
X0046349Y0023400D01*
X0046876Y0024043D02*
X0063023Y0024043D01*
X0063621Y0024642D02*
X0046876Y0024642D01*
X0046876Y0025240D02*
X0064220Y0025240D01*
X0064818Y0025839D02*
X0046876Y0025839D01*
X0046876Y0026437D02*
X0065417Y0026437D01*
X0066015Y0027036D02*
X0046876Y0027036D01*
X0046876Y0027634D02*
X0066614Y0027634D01*
X0067212Y0028233D02*
X0046876Y0028233D01*
X0046876Y0028832D02*
X0067811Y0028832D01*
X0068409Y0029430D02*
X0046876Y0029430D01*
X0046521Y0030029D02*
X0069008Y0030029D01*
X0069606Y0030627D02*
X0009576Y0030627D01*
X0009576Y0031226D02*
X0070205Y0031226D01*
X0070803Y0031824D02*
X0009576Y0031824D01*
X0009576Y0032423D02*
X0071402Y0032423D01*
X0072000Y0033021D02*
X0009576Y0033021D01*
X0009576Y0033620D02*
X0058374Y0033620D01*
X0058424Y0033533D02*
X0058666Y0033291D01*
X0058963Y0033120D01*
X0059293Y0033031D01*
X0061330Y0033031D01*
X0061330Y0036000D01*
X0061930Y0036000D01*
X0061930Y0036600D01*
X0065095Y0036600D01*
X0065095Y0038440D01*
X0065007Y0038770D01*
X0064836Y0039067D01*
X0064593Y0039309D01*
X0064297Y0039480D01*
X0063966Y0039568D01*
X0061930Y0039568D01*
X0061930Y0036600D01*
X0061330Y0036600D01*
X0061330Y0039568D01*
X0059293Y0039568D01*
X0058963Y0039480D01*
X0058666Y0039309D01*
X0058424Y0039067D01*
X0058253Y0038770D01*
X0058165Y0038440D01*
X0058165Y0036600D01*
X0061330Y0036600D01*
X0061330Y0036000D01*
X0058165Y0036000D01*
X0058165Y0034160D01*
X0058253Y0033830D01*
X0058424Y0033533D01*
X0058165Y0034218D02*
X0009576Y0034218D01*
X0009576Y0034817D02*
X0058165Y0034817D01*
X0058165Y0035415D02*
X0009576Y0035415D01*
X0009576Y0036014D02*
X0061330Y0036014D01*
X0061330Y0036612D02*
X0061930Y0036612D01*
X0061930Y0036014D02*
X0065257Y0036014D01*
X0065095Y0036000D02*
X0061930Y0036000D01*
X0061930Y0033031D01*
X0063966Y0033031D01*
X0064297Y0033120D01*
X0064593Y0033291D01*
X0064836Y0033533D01*
X0065007Y0033830D01*
X0065095Y0034160D01*
X0065095Y0036000D01*
X0065095Y0035415D02*
X0065257Y0035415D01*
X0065257Y0034817D02*
X0065095Y0034817D01*
X0065095Y0034218D02*
X0065257Y0034218D01*
X0065597Y0033620D02*
X0064885Y0033620D01*
X0061930Y0033620D02*
X0061330Y0033620D01*
X0061330Y0034218D02*
X0061930Y0034218D01*
X0061930Y0034817D02*
X0061330Y0034817D01*
X0061330Y0035415D02*
X0061930Y0035415D01*
X0061930Y0037211D02*
X0061330Y0037211D01*
X0061330Y0037809D02*
X0061930Y0037809D01*
X0061930Y0038408D02*
X0061330Y0038408D01*
X0061330Y0039006D02*
X0061930Y0039006D01*
X0064870Y0039006D02*
X0065622Y0039006D01*
X0065257Y0038408D02*
X0065095Y0038408D01*
X0065095Y0037809D02*
X0065257Y0037809D01*
X0065257Y0037211D02*
X0065095Y0037211D01*
X0065095Y0036612D02*
X0065257Y0036612D01*
X0068323Y0036300D02*
X0068323Y0056300D01*
X0099976Y0056300D01*
X0098330Y0054568D02*
X0071388Y0054568D01*
X0071388Y0053969D02*
X0098929Y0053969D01*
X0097858Y0057560D02*
X0071388Y0057560D01*
X0071388Y0058159D02*
X0098456Y0058159D01*
X0102890Y0060553D02*
X0087982Y0060553D01*
X0088042Y0061151D02*
X0102730Y0061151D01*
X0102730Y0061750D02*
X0088042Y0061750D01*
X0088042Y0064742D02*
X0095568Y0064742D01*
X0096167Y0065341D02*
X0087996Y0065341D01*
X0087873Y0067136D02*
X0090762Y0067136D01*
X0090163Y0067735D02*
X0088042Y0067735D01*
X0088042Y0070727D02*
X0090025Y0070727D01*
X0090624Y0071326D02*
X0088042Y0071326D01*
X0088042Y0071924D02*
X0094390Y0071924D01*
X0094988Y0071326D02*
X0093329Y0071326D01*
X0093928Y0070727D02*
X0095587Y0070727D01*
X0096632Y0071379D02*
X0091711Y0076300D01*
X0068067Y0076300D01*
X0065396Y0076114D02*
X0064685Y0076114D01*
X0064685Y0076712D02*
X0065396Y0076712D01*
X0065396Y0077311D02*
X0064685Y0077311D01*
X0064685Y0077909D02*
X0065396Y0077909D01*
X0065396Y0078508D02*
X0064685Y0078508D01*
X0064162Y0079106D02*
X0065920Y0079106D01*
X0070215Y0079106D02*
X0098889Y0079106D01*
X0098889Y0078508D02*
X0070739Y0078508D01*
X0070739Y0077909D02*
X0098889Y0077909D01*
X0098889Y0077311D02*
X0092397Y0077311D01*
X0092996Y0076712D02*
X0098889Y0076712D01*
X0098889Y0076114D02*
X0093594Y0076114D01*
X0094193Y0075515D02*
X0098889Y0075515D01*
X0098889Y0074917D02*
X0094791Y0074917D01*
X0095390Y0074318D02*
X0098968Y0074318D01*
X0098889Y0073720D02*
X0095988Y0073720D01*
X0096587Y0073121D02*
X0098889Y0073121D01*
X0096632Y0071379D02*
X0101632Y0071379D01*
X0099326Y0064144D02*
X0098364Y0064144D01*
X0095477Y0062954D02*
X0084976Y0062954D01*
X0081911Y0070129D02*
X0069523Y0070129D01*
X0069219Y0070727D02*
X0081911Y0070727D01*
X0081911Y0071326D02*
X0068621Y0071326D01*
X0068022Y0071924D02*
X0081911Y0071924D01*
X0091397Y0074917D02*
X0070739Y0074917D01*
X0070739Y0074318D02*
X0091996Y0074318D01*
X0092594Y0073720D02*
X0070441Y0073720D01*
X0067424Y0072523D02*
X0093791Y0072523D01*
X0093193Y0073121D02*
X0066825Y0073121D01*
X0065396Y0074917D02*
X0065030Y0074917D01*
X0064685Y0075515D02*
X0065396Y0075515D01*
X0063431Y0073121D02*
X0052605Y0073121D01*
X0052007Y0072523D02*
X0064030Y0072523D01*
X0064628Y0071924D02*
X0051408Y0071924D01*
X0050809Y0071326D02*
X0065227Y0071326D01*
X0065825Y0070727D02*
X0050211Y0070727D01*
X0049612Y0070129D02*
X0066424Y0070129D01*
X0067022Y0069530D02*
X0049014Y0069530D01*
X0048415Y0068932D02*
X0067123Y0068932D01*
X0067123Y0068333D02*
X0047817Y0068333D01*
X0047218Y0067735D02*
X0067123Y0067735D01*
X0067123Y0067136D02*
X0046620Y0067136D01*
X0046021Y0066538D02*
X0067123Y0066538D01*
X0067123Y0065939D02*
X0045423Y0065939D01*
X0044824Y0065341D02*
X0053639Y0065341D01*
X0053987Y0065689D02*
X0052798Y0064500D01*
X0044479Y0064500D01*
X0043776Y0063797D01*
X0043776Y0049200D01*
X0043604Y0049200D01*
X0043076Y0048673D01*
X0043076Y0042927D01*
X0043604Y0042400D01*
X0046349Y0042400D01*
X0046876Y0042927D01*
X0046876Y0048673D01*
X0046349Y0049200D01*
X0046176Y0049200D01*
X0046176Y0062100D01*
X0052798Y0062100D01*
X0053987Y0060911D01*
X0055966Y0060911D01*
X0057365Y0062310D01*
X0057365Y0064290D01*
X0055966Y0065689D01*
X0053987Y0065689D01*
X0053040Y0064742D02*
X0044226Y0064742D01*
X0044123Y0064144D02*
X0043627Y0064144D01*
X0043776Y0063545D02*
X0043029Y0063545D01*
X0042430Y0062947D02*
X0043776Y0062947D01*
X0043776Y0062348D02*
X0041832Y0062348D01*
X0041233Y0061750D02*
X0043776Y0061750D01*
X0043776Y0061151D02*
X0041176Y0061151D01*
X0041176Y0060553D02*
X0043776Y0060553D01*
X0043776Y0059954D02*
X0041176Y0059954D01*
X0041176Y0059356D02*
X0043776Y0059356D01*
X0043776Y0058757D02*
X0041176Y0058757D01*
X0041176Y0058159D02*
X0043776Y0058159D01*
X0043776Y0057560D02*
X0041176Y0057560D01*
X0041176Y0056962D02*
X0043776Y0056962D01*
X0043776Y0056363D02*
X0041176Y0056363D01*
X0041176Y0055765D02*
X0043776Y0055765D01*
X0043776Y0055166D02*
X0041176Y0055166D01*
X0041176Y0054568D02*
X0043776Y0054568D01*
X0043776Y0053969D02*
X0041176Y0053969D01*
X0041176Y0053370D02*
X0043776Y0053370D01*
X0043776Y0052772D02*
X0041176Y0052772D01*
X0041176Y0052173D02*
X0043776Y0052173D01*
X0043776Y0051575D02*
X0041176Y0051575D01*
X0041176Y0050976D02*
X0043776Y0050976D01*
X0043776Y0050378D02*
X0041176Y0050378D01*
X0041176Y0049779D02*
X0043776Y0049779D01*
X0043584Y0049181D02*
X0041368Y0049181D01*
X0041876Y0048582D02*
X0043076Y0048582D01*
X0043076Y0047984D02*
X0041876Y0047984D01*
X0041876Y0047385D02*
X0043076Y0047385D01*
X0043076Y0046787D02*
X0041876Y0046787D01*
X0041876Y0046188D02*
X0043076Y0046188D01*
X0043076Y0045590D02*
X0041876Y0045590D01*
X0041876Y0044991D02*
X0043076Y0044991D01*
X0043076Y0044393D02*
X0041876Y0044393D01*
X0041876Y0043794D02*
X0043076Y0043794D01*
X0043076Y0043196D02*
X0041876Y0043196D01*
X0041546Y0042597D02*
X0043406Y0042597D01*
X0046546Y0042597D02*
X0067123Y0042597D01*
X0067123Y0041999D02*
X0009576Y0041999D01*
X0009576Y0042597D02*
X0023406Y0042597D01*
X0023076Y0043196D02*
X0009576Y0043196D01*
X0009576Y0043794D02*
X0023076Y0043794D01*
X0023076Y0044393D02*
X0009576Y0044393D01*
X0009576Y0044991D02*
X0023076Y0044991D01*
X0026546Y0042597D02*
X0028406Y0042597D01*
X0028076Y0043196D02*
X0026876Y0043196D01*
X0026876Y0043794D02*
X0028076Y0043794D01*
X0028076Y0044393D02*
X0026876Y0044393D01*
X0026876Y0044991D02*
X0028076Y0044991D01*
X0028076Y0045590D02*
X0026876Y0045590D01*
X0026876Y0046188D02*
X0028076Y0046188D01*
X0028076Y0046787D02*
X0026876Y0046787D01*
X0026876Y0047385D02*
X0028076Y0047385D01*
X0028076Y0047984D02*
X0026876Y0047984D01*
X0026876Y0048582D02*
X0028076Y0048582D01*
X0028584Y0049181D02*
X0026368Y0049181D01*
X0026176Y0049779D02*
X0028776Y0049779D01*
X0028776Y0050378D02*
X0026176Y0050378D01*
X0026176Y0050976D02*
X0028776Y0050976D01*
X0028776Y0051575D02*
X0026176Y0051575D01*
X0026176Y0052173D02*
X0028776Y0052173D01*
X0028776Y0052772D02*
X0026176Y0052772D01*
X0026176Y0053370D02*
X0028776Y0053370D01*
X0028776Y0053969D02*
X0026176Y0053969D01*
X0026176Y0054568D02*
X0028776Y0054568D01*
X0028776Y0055166D02*
X0026176Y0055166D01*
X0026616Y0055765D02*
X0028776Y0055765D01*
X0028776Y0056363D02*
X0027214Y0056363D01*
X0027813Y0056962D02*
X0028776Y0056962D01*
X0028776Y0057560D02*
X0028411Y0057560D01*
X0029976Y0058127D02*
X0058976Y0087127D01*
X0101632Y0087127D01*
X0101632Y0085158D02*
X0059976Y0085158D01*
X0034976Y0060158D01*
X0034976Y0045800D01*
X0033076Y0045590D02*
X0031876Y0045590D01*
X0031876Y0046188D02*
X0033076Y0046188D01*
X0033076Y0046787D02*
X0031876Y0046787D01*
X0031876Y0047385D02*
X0033076Y0047385D01*
X0033076Y0047984D02*
X0031876Y0047984D01*
X0031876Y0048582D02*
X0033076Y0048582D01*
X0033584Y0049181D02*
X0031368Y0049181D01*
X0031176Y0049779D02*
X0033776Y0049779D01*
X0033776Y0050378D02*
X0031176Y0050378D01*
X0031176Y0050976D02*
X0033776Y0050976D01*
X0033776Y0051575D02*
X0031176Y0051575D01*
X0031176Y0052173D02*
X0033776Y0052173D01*
X0033776Y0052772D02*
X0031176Y0052772D01*
X0031176Y0053370D02*
X0033776Y0053370D01*
X0033776Y0053969D02*
X0031176Y0053969D01*
X0031176Y0054568D02*
X0033776Y0054568D01*
X0033776Y0055166D02*
X0031176Y0055166D01*
X0031176Y0055765D02*
X0033776Y0055765D01*
X0033776Y0056363D02*
X0031176Y0056363D01*
X0031176Y0056962D02*
X0033776Y0056962D01*
X0033776Y0057560D02*
X0031176Y0057560D01*
X0031705Y0058159D02*
X0033776Y0058159D01*
X0033776Y0058757D02*
X0032304Y0058757D01*
X0032902Y0059356D02*
X0033776Y0059356D01*
X0033776Y0059954D02*
X0033501Y0059954D01*
X0036176Y0059356D02*
X0038776Y0059356D01*
X0038776Y0059954D02*
X0036469Y0059954D01*
X0037068Y0060553D02*
X0038776Y0060553D01*
X0038776Y0061151D02*
X0037666Y0061151D01*
X0038265Y0061750D02*
X0038776Y0061750D01*
X0039976Y0062190D02*
X0039976Y0045800D01*
X0038076Y0045590D02*
X0036876Y0045590D01*
X0036876Y0046188D02*
X0038076Y0046188D01*
X0038076Y0046787D02*
X0036876Y0046787D01*
X0036876Y0047385D02*
X0038076Y0047385D01*
X0038076Y0047984D02*
X0036876Y0047984D01*
X0036876Y0048582D02*
X0038076Y0048582D01*
X0038584Y0049181D02*
X0036368Y0049181D01*
X0036176Y0049779D02*
X0038776Y0049779D01*
X0038776Y0050378D02*
X0036176Y0050378D01*
X0036176Y0050976D02*
X0038776Y0050976D01*
X0038776Y0051575D02*
X0036176Y0051575D01*
X0036176Y0052173D02*
X0038776Y0052173D01*
X0038776Y0052772D02*
X0036176Y0052772D01*
X0036176Y0053370D02*
X0038776Y0053370D01*
X0038776Y0053969D02*
X0036176Y0053969D01*
X0036176Y0054568D02*
X0038776Y0054568D01*
X0038776Y0055166D02*
X0036176Y0055166D01*
X0036176Y0055765D02*
X0038776Y0055765D01*
X0038776Y0056363D02*
X0036176Y0056363D01*
X0036176Y0056962D02*
X0038776Y0056962D01*
X0038776Y0057560D02*
X0036176Y0057560D01*
X0036176Y0058159D02*
X0038776Y0058159D01*
X0038776Y0058757D02*
X0036176Y0058757D01*
X0039976Y0062190D02*
X0060976Y0083190D01*
X0101632Y0083190D01*
X0098889Y0081501D02*
X0060984Y0081501D01*
X0060386Y0080902D02*
X0098889Y0080902D01*
X0098914Y0080303D02*
X0059787Y0080303D01*
X0059189Y0079705D02*
X0098889Y0079705D01*
X0112024Y0089822D02*
X0112024Y0141300D01*
X0127024Y0156300D01*
X0171630Y0156300D01*
X0174498Y0156314D02*
X0175454Y0156314D01*
X0175454Y0155716D02*
X0174498Y0155716D01*
X0174498Y0155117D02*
X0175454Y0155117D01*
X0175454Y0154519D02*
X0174498Y0154519D01*
X0174498Y0153920D02*
X0175454Y0153920D01*
X0175454Y0153762D02*
X0175982Y0153235D01*
X0180664Y0153235D01*
X0181191Y0153762D01*
X0181191Y0155100D01*
X0190809Y0155100D01*
X0190809Y0153171D01*
X0191336Y0152644D01*
X0196806Y0152644D01*
X0197333Y0153171D01*
X0197333Y0159429D01*
X0196806Y0159956D01*
X0191336Y0159956D01*
X0190809Y0159429D01*
X0190809Y0157500D01*
X0181191Y0157500D01*
X0181191Y0158838D01*
X0180664Y0159365D01*
X0175982Y0159365D01*
X0175454Y0158838D01*
X0175454Y0153762D01*
X0175894Y0153322D02*
X0174058Y0153322D01*
X0174498Y0156913D02*
X0175454Y0156913D01*
X0175454Y0157511D02*
X0174498Y0157511D01*
X0174498Y0158110D02*
X0175454Y0158110D01*
X0175454Y0158708D02*
X0174498Y0158708D01*
X0174030Y0159307D02*
X0175923Y0159307D01*
X0178323Y0156300D02*
X0194071Y0156300D01*
X0197333Y0156314D02*
X0202620Y0156314D01*
X0202620Y0155716D02*
X0197333Y0155716D01*
X0197333Y0155117D02*
X0202620Y0155117D01*
X0202620Y0154519D02*
X0197333Y0154519D01*
X0197333Y0153920D02*
X0202620Y0153920D01*
X0202620Y0153322D02*
X0197333Y0153322D01*
X0196885Y0152723D02*
X0203068Y0152723D01*
X0204682Y0152125D02*
X0124546Y0152125D01*
X0125144Y0152723D02*
X0191257Y0152723D01*
X0190809Y0153322D02*
X0180751Y0153322D01*
X0181191Y0153920D02*
X0190809Y0153920D01*
X0190809Y0154519D02*
X0181191Y0154519D01*
X0181191Y0157511D02*
X0190809Y0157511D01*
X0190809Y0158110D02*
X0181191Y0158110D01*
X0181191Y0158708D02*
X0190809Y0158708D01*
X0190809Y0159307D02*
X0180722Y0159307D01*
X0169230Y0159307D02*
X0127680Y0159307D01*
X0127082Y0158708D02*
X0168761Y0158708D01*
X0168761Y0158110D02*
X0126483Y0158110D01*
X0125885Y0157511D02*
X0168761Y0157511D01*
X0168761Y0154519D02*
X0126940Y0154519D01*
X0126341Y0153920D02*
X0168761Y0153920D01*
X0169201Y0153322D02*
X0125743Y0153322D01*
X0124144Y0155117D02*
X0123491Y0155117D01*
X0123545Y0154519D02*
X0122892Y0154519D01*
X0122947Y0153920D02*
X0122294Y0153920D01*
X0122348Y0153322D02*
X0121695Y0153322D01*
X0121750Y0152723D02*
X0121097Y0152723D01*
X0121151Y0152125D02*
X0120498Y0152125D01*
X0120553Y0151526D02*
X0119900Y0151526D01*
X0119954Y0150928D02*
X0119301Y0150928D01*
X0119356Y0150329D02*
X0118703Y0150329D01*
X0118757Y0149731D02*
X0118104Y0149731D01*
X0118159Y0149132D02*
X0117506Y0149132D01*
X0117560Y0148534D02*
X0116907Y0148534D01*
X0116962Y0147935D02*
X0116309Y0147935D01*
X0116363Y0147337D02*
X0115710Y0147337D01*
X0115765Y0146738D02*
X0115112Y0146738D01*
X0115166Y0146140D02*
X0114513Y0146140D01*
X0114568Y0145541D02*
X0113915Y0145541D01*
X0113969Y0144943D02*
X0113316Y0144943D01*
X0113371Y0144344D02*
X0112718Y0144344D01*
X0112772Y0143746D02*
X0112119Y0143746D01*
X0112174Y0143147D02*
X0111521Y0143147D01*
X0111575Y0142549D02*
X0111255Y0142549D01*
X0113772Y0141352D02*
X0213228Y0141352D01*
X0212629Y0141950D02*
X0114371Y0141950D01*
X0114969Y0142549D02*
X0212031Y0142549D01*
X0211432Y0143147D02*
X0115568Y0143147D01*
X0116166Y0143746D02*
X0210834Y0143746D01*
X0210235Y0144344D02*
X0116765Y0144344D01*
X0117363Y0144943D02*
X0209637Y0144943D01*
X0209038Y0145541D02*
X0117962Y0145541D01*
X0118560Y0146140D02*
X0208440Y0146140D01*
X0207841Y0146738D02*
X0119159Y0146738D01*
X0119757Y0147337D02*
X0207243Y0147337D01*
X0206644Y0147935D02*
X0120356Y0147935D01*
X0120954Y0148534D02*
X0206046Y0148534D01*
X0205447Y0149132D02*
X0121553Y0149132D01*
X0122151Y0149731D02*
X0204849Y0149731D01*
X0204682Y0150329D02*
X0122750Y0150329D01*
X0123348Y0150928D02*
X0204682Y0150928D01*
X0204682Y0151526D02*
X0123947Y0151526D01*
X0124089Y0155716D02*
X0124743Y0155716D01*
X0124688Y0156314D02*
X0125341Y0156314D01*
X0125286Y0156913D02*
X0125940Y0156913D01*
X0128279Y0159905D02*
X0191285Y0159905D01*
X0196856Y0159905D02*
X0203096Y0159905D01*
X0202620Y0159307D02*
X0197333Y0159307D01*
X0197333Y0158708D02*
X0202620Y0158708D01*
X0202620Y0158110D02*
X0197333Y0158110D01*
X0197333Y0157511D02*
X0202620Y0157511D01*
X0202620Y0156913D02*
X0197333Y0156913D01*
X0204682Y0160504D02*
X0128877Y0160504D01*
X0129476Y0161103D02*
X0204682Y0161103D01*
X0204682Y0161701D02*
X0130074Y0161701D01*
X0130673Y0162300D02*
X0204682Y0162300D01*
X0204682Y0162898D02*
X0131271Y0162898D01*
X0131870Y0163497D02*
X0204682Y0163497D01*
X0204682Y0164095D02*
X0132469Y0164095D01*
X0133067Y0164694D02*
X0204682Y0164694D01*
X0204682Y0165292D02*
X0133666Y0165292D01*
X0134264Y0165891D02*
X0204682Y0165891D01*
X0204682Y0166489D02*
X0134863Y0166489D01*
X0135461Y0167088D02*
X0204682Y0167088D01*
X0204682Y0167686D02*
X0136060Y0167686D01*
X0136658Y0168285D02*
X0204682Y0168285D01*
X0204682Y0168883D02*
X0137257Y0168883D01*
X0137855Y0169482D02*
X0204682Y0169482D01*
X0204682Y0170080D02*
X0138454Y0170080D01*
X0139052Y0170679D02*
X0204682Y0170679D01*
X0204682Y0171277D02*
X0139651Y0171277D01*
X0140249Y0171876D02*
X0204682Y0171876D01*
X0204682Y0172474D02*
X0140848Y0172474D01*
X0141446Y0173073D02*
X0190907Y0173073D01*
X0190809Y0173671D02*
X0181101Y0173671D01*
X0181191Y0174270D02*
X0190809Y0174270D01*
X0190809Y0174868D02*
X0181191Y0174868D01*
X0181191Y0177861D02*
X0190809Y0177861D01*
X0190809Y0178459D02*
X0181191Y0178459D01*
X0180972Y0179058D02*
X0190809Y0179058D01*
X0191036Y0179656D02*
X0095176Y0179656D01*
X0095176Y0180255D02*
X0204682Y0180255D01*
X0204682Y0180853D02*
X0095176Y0180853D01*
X0095176Y0181452D02*
X0204682Y0181452D01*
X0204682Y0182050D02*
X0095176Y0182050D01*
X0095176Y0182649D02*
X0204682Y0182649D01*
X0204682Y0183247D02*
X0095176Y0183247D01*
X0095176Y0193422D02*
X0139101Y0193422D01*
X0138761Y0194021D02*
X0095176Y0194021D01*
X0095176Y0194619D02*
X0138761Y0194619D01*
X0138761Y0197612D02*
X0095176Y0197612D01*
X0095176Y0198210D02*
X0138761Y0198210D01*
X0138761Y0198809D02*
X0095176Y0198809D01*
X0095176Y0199407D02*
X0143040Y0199407D01*
X0143242Y0174868D02*
X0168761Y0174868D01*
X0168761Y0174270D02*
X0142643Y0174270D01*
X0142045Y0173671D02*
X0168852Y0173671D01*
X0178323Y0176300D02*
X0194071Y0176300D01*
X0197333Y0176065D02*
X0202620Y0176065D01*
X0202620Y0175467D02*
X0197333Y0175467D01*
X0197333Y0174868D02*
X0202620Y0174868D01*
X0202620Y0174270D02*
X0197333Y0174270D01*
X0197333Y0173671D02*
X0202620Y0173671D01*
X0202718Y0173073D02*
X0197235Y0173073D01*
X0197333Y0176664D02*
X0202620Y0176664D01*
X0202620Y0177262D02*
X0197333Y0177262D01*
X0197333Y0177861D02*
X0202620Y0177861D01*
X0202620Y0178459D02*
X0197333Y0178459D01*
X0197333Y0179058D02*
X0202620Y0179058D01*
X0202847Y0179656D02*
X0197105Y0179656D01*
X0193285Y0130578D02*
X0186668Y0130578D01*
X0187802Y0129980D02*
X0192151Y0129980D01*
X0191552Y0129381D02*
X0188400Y0129381D01*
X0188927Y0128783D02*
X0191026Y0128783D01*
X0190778Y0128184D02*
X0189175Y0128184D01*
X0189423Y0127586D02*
X0190530Y0127586D01*
X0190376Y0126987D02*
X0189576Y0126987D01*
X0189576Y0126389D02*
X0190376Y0126389D01*
X0190376Y0125790D02*
X0189576Y0125790D01*
X0189496Y0125192D02*
X0190456Y0125192D01*
X0190704Y0124593D02*
X0189248Y0124593D01*
X0189001Y0123995D02*
X0190952Y0123995D01*
X0191375Y0123396D02*
X0189577Y0123396D01*
X0190176Y0122798D02*
X0191973Y0122798D01*
X0192856Y0122199D02*
X0190774Y0122199D01*
X0191176Y0121601D02*
X0197979Y0121601D01*
X0198577Y0121002D02*
X0191176Y0121002D01*
X0191176Y0120404D02*
X0192863Y0120404D01*
X0191976Y0119805D02*
X0191176Y0119805D01*
X0191176Y0119207D02*
X0191378Y0119207D01*
X0189976Y0121300D02*
X0184976Y0126300D01*
X0187097Y0122199D02*
X0187380Y0122199D01*
X0187089Y0120404D02*
X0188776Y0120404D01*
X0188776Y0119805D02*
X0187977Y0119805D01*
X0188575Y0119207D02*
X0188776Y0119207D01*
X0189976Y0121300D02*
X0189976Y0103300D01*
X0186776Y0100100D01*
X0152984Y0100100D01*
X0136073Y0083190D01*
X0128320Y0083190D01*
X0128320Y0085158D02*
X0136345Y0085158D01*
X0152487Y0101300D01*
X0182976Y0101300D01*
X0184976Y0103300D01*
X0184976Y0116300D01*
X0194976Y0116300D02*
X0194976Y0101300D01*
X0192576Y0098900D01*
X0153481Y0098900D01*
X0135802Y0081221D01*
X0128320Y0081221D01*
X0128320Y0079253D02*
X0135531Y0079253D01*
X0153978Y0097700D01*
X0196376Y0097700D01*
X0199976Y0101300D01*
X0199976Y0121300D01*
X0194976Y0126300D01*
X0197097Y0122199D02*
X0197380Y0122199D01*
X0197089Y0120404D02*
X0198776Y0120404D01*
X0198776Y0119805D02*
X0197977Y0119805D01*
X0198575Y0119207D02*
X0198776Y0119207D01*
X0207097Y0122199D02*
X0207380Y0122199D01*
X0209976Y0121300D02*
X0204976Y0126300D01*
X0209576Y0126389D02*
X0210376Y0126389D01*
X0210376Y0126987D02*
X0209576Y0126987D01*
X0209423Y0127586D02*
X0210530Y0127586D01*
X0210778Y0128184D02*
X0209175Y0128184D01*
X0208927Y0128783D02*
X0211026Y0128783D01*
X0211552Y0129381D02*
X0208400Y0129381D01*
X0207802Y0129980D02*
X0212151Y0129980D01*
X0210376Y0125790D02*
X0209576Y0125790D01*
X0209496Y0125192D02*
X0210456Y0125192D01*
X0209976Y0121300D02*
X0209976Y0101300D01*
X0203976Y0095300D01*
X0154972Y0095300D01*
X0135537Y0075865D01*
X0136616Y0087127D02*
X0128320Y0087127D01*
X0136616Y0087127D02*
X0151990Y0102500D01*
X0155438Y0094069D02*
X0264976Y0094069D01*
X0264976Y0093471D02*
X0154840Y0093471D01*
X0130969Y0064144D02*
X0130627Y0064144D01*
X0131568Y0063545D02*
X0127223Y0063545D01*
X0127223Y0062947D02*
X0132166Y0062947D01*
X0127223Y0062348D02*
X0140639Y0062348D01*
X0141237Y0061750D02*
X0127223Y0061750D01*
X0127223Y0061151D02*
X0141836Y0061151D01*
X0142434Y0060553D02*
X0127063Y0060553D01*
X0127003Y0059954D02*
X0143033Y0059954D01*
X0143631Y0059356D02*
X0127003Y0059356D01*
X0127003Y0058757D02*
X0144230Y0058757D01*
X0144828Y0058159D02*
X0127996Y0058159D01*
X0128595Y0057560D02*
X0145427Y0057560D01*
X0146025Y0056962D02*
X0128865Y0056962D01*
X0128865Y0056363D02*
X0146187Y0056363D01*
X0146187Y0055765D02*
X0128865Y0055765D01*
X0129307Y0055166D02*
X0146187Y0055166D01*
X0146187Y0054568D02*
X0129906Y0054568D01*
X0130504Y0053969D02*
X0146187Y0053969D01*
X0146187Y0053370D02*
X0131103Y0053370D01*
X0131701Y0052772D02*
X0146187Y0052772D01*
X0146187Y0052173D02*
X0132300Y0052173D01*
X0132898Y0051575D02*
X0146187Y0051575D01*
X0146187Y0050976D02*
X0133497Y0050976D01*
X0134095Y0050378D02*
X0146187Y0050378D01*
X0146187Y0049779D02*
X0134694Y0049779D01*
X0135293Y0049181D02*
X0146187Y0049181D01*
X0146187Y0048582D02*
X0135891Y0048582D01*
X0136176Y0047984D02*
X0146187Y0047984D01*
X0146187Y0047385D02*
X0136176Y0047385D01*
X0136176Y0046787D02*
X0146187Y0046787D01*
X0146187Y0046188D02*
X0136176Y0046188D01*
X0136176Y0045590D02*
X0146187Y0045590D01*
X0146187Y0044991D02*
X0136176Y0044991D01*
X0136176Y0044393D02*
X0146187Y0044393D01*
X0146187Y0043794D02*
X0136176Y0043794D01*
X0136176Y0043196D02*
X0146187Y0043196D01*
X0146187Y0042597D02*
X0137432Y0042597D01*
X0137845Y0041999D02*
X0146187Y0041999D01*
X0146187Y0041400D02*
X0137845Y0041400D01*
X0137845Y0040802D02*
X0146187Y0040802D01*
X0146187Y0040203D02*
X0137845Y0040203D01*
X0137845Y0039605D02*
X0146187Y0039605D01*
X0146187Y0039006D02*
X0137845Y0039006D01*
X0137845Y0038408D02*
X0146187Y0038408D01*
X0146187Y0037809D02*
X0137845Y0037809D01*
X0137845Y0037211D02*
X0146187Y0037211D01*
X0146241Y0036612D02*
X0137349Y0036612D01*
X0137447Y0036330D02*
X0137116Y0036419D01*
X0135276Y0036419D01*
X0135276Y0033254D01*
X0138245Y0033254D01*
X0138245Y0035290D01*
X0138156Y0035621D01*
X0137985Y0035917D01*
X0137743Y0036159D01*
X0137447Y0036330D01*
X0137889Y0036014D02*
X0147064Y0036014D01*
X0146741Y0035415D02*
X0138211Y0035415D01*
X0138245Y0034817D02*
X0146708Y0034817D01*
X0146708Y0034218D02*
X0138245Y0034218D01*
X0138245Y0033620D02*
X0146708Y0033620D01*
X0146708Y0032423D02*
X0138245Y0032423D01*
X0138245Y0031824D02*
X0146708Y0031824D01*
X0146708Y0031226D02*
X0138245Y0031226D01*
X0138245Y0030627D02*
X0146708Y0030627D01*
X0146945Y0030029D02*
X0138007Y0030029D01*
X0135276Y0030029D02*
X0134676Y0030029D01*
X0134676Y0030627D02*
X0135276Y0030627D01*
X0135276Y0031226D02*
X0134676Y0031226D01*
X0134676Y0031824D02*
X0135276Y0031824D01*
X0135276Y0033620D02*
X0134676Y0033620D01*
X0134676Y0034218D02*
X0135276Y0034218D01*
X0135276Y0034817D02*
X0134676Y0034817D01*
X0134676Y0035415D02*
X0135276Y0035415D01*
X0135276Y0036014D02*
X0134676Y0036014D01*
X0131708Y0032423D02*
X0116506Y0032423D01*
X0116506Y0031824D02*
X0131708Y0031824D01*
X0131708Y0031226D02*
X0116506Y0031226D01*
X0111630Y0035670D02*
X0111630Y0016300D01*
X0114695Y0016861D02*
X0114857Y0016861D01*
X0114857Y0017460D02*
X0114695Y0017460D01*
X0114695Y0018058D02*
X0114857Y0018058D01*
X0114916Y0018657D02*
X0114680Y0018657D01*
X0115306Y0019255D02*
X0112830Y0019255D01*
X0108013Y0031226D02*
X0101939Y0031226D01*
X0101939Y0031824D02*
X0108013Y0031824D01*
X0108013Y0032423D02*
X0101939Y0032423D01*
X0101939Y0033021D02*
X0108013Y0033021D01*
X0108013Y0033620D02*
X0101939Y0033620D01*
X0101939Y0034218D02*
X0108013Y0034218D01*
X0108013Y0034817D02*
X0101939Y0034817D01*
X0101939Y0035415D02*
X0108013Y0035415D01*
X0108013Y0036014D02*
X0101939Y0036014D01*
X0101939Y0036612D02*
X0108013Y0036612D01*
X0108013Y0037211D02*
X0101939Y0037211D01*
X0101939Y0037809D02*
X0108013Y0037809D01*
X0108013Y0038408D02*
X0101939Y0038408D01*
X0102096Y0039006D02*
X0108013Y0039006D01*
X0108013Y0039605D02*
X0102695Y0039605D01*
X0103293Y0040203D02*
X0108013Y0040203D01*
X0108013Y0040802D02*
X0103892Y0040802D01*
X0104490Y0041400D02*
X0108016Y0041400D01*
X0104089Y0044393D02*
X0086766Y0044393D01*
X0086168Y0043794D02*
X0103490Y0043794D01*
X0102892Y0043196D02*
X0085569Y0043196D01*
X0084971Y0042597D02*
X0102293Y0042597D01*
X0101695Y0041999D02*
X0084372Y0041999D01*
X0083774Y0041400D02*
X0093450Y0041400D01*
X0093446Y0040802D02*
X0083175Y0040802D01*
X0082577Y0040203D02*
X0093446Y0040203D01*
X0093446Y0039605D02*
X0081978Y0039605D01*
X0081380Y0039006D02*
X0093446Y0039006D01*
X0093446Y0038408D02*
X0080781Y0038408D01*
X0080183Y0037809D02*
X0093446Y0037809D01*
X0093446Y0037211D02*
X0079584Y0037211D01*
X0078986Y0036612D02*
X0093446Y0036612D01*
X0093446Y0036014D02*
X0078387Y0036014D01*
X0077789Y0035415D02*
X0093446Y0035415D01*
X0093446Y0034817D02*
X0077190Y0034817D01*
X0076592Y0034218D02*
X0093446Y0034218D01*
X0093446Y0033620D02*
X0075993Y0033620D01*
X0075395Y0033021D02*
X0093446Y0033021D01*
X0093446Y0032423D02*
X0074796Y0032423D01*
X0074198Y0031824D02*
X0093446Y0031824D01*
X0093446Y0031226D02*
X0073599Y0031226D01*
X0073000Y0030627D02*
X0097123Y0030627D01*
X0097123Y0030029D02*
X0072402Y0030029D01*
X0071803Y0029430D02*
X0097123Y0029430D01*
X0097123Y0028832D02*
X0071205Y0028832D01*
X0070606Y0028233D02*
X0097123Y0028233D01*
X0097123Y0027634D02*
X0070008Y0027634D01*
X0069409Y0027036D02*
X0097123Y0027036D01*
X0097123Y0026437D02*
X0068811Y0026437D01*
X0068212Y0025839D02*
X0097123Y0025839D01*
X0097123Y0025240D02*
X0067614Y0025240D01*
X0067015Y0024642D02*
X0097123Y0024642D01*
X0097123Y0024043D02*
X0066417Y0024043D01*
X0065818Y0023445D02*
X0097123Y0023445D01*
X0097123Y0022846D02*
X0065220Y0022846D01*
X0064621Y0022248D02*
X0097123Y0022248D01*
X0097123Y0021649D02*
X0064023Y0021649D01*
X0063424Y0021051D02*
X0097123Y0021051D01*
X0097123Y0020452D02*
X0062826Y0020452D01*
X0071049Y0033620D02*
X0072599Y0033620D01*
X0073197Y0034218D02*
X0071388Y0034218D01*
X0071388Y0034817D02*
X0073796Y0034817D01*
X0074394Y0035415D02*
X0071388Y0035415D01*
X0071388Y0036014D02*
X0074993Y0036014D01*
X0075591Y0036612D02*
X0071388Y0036612D01*
X0071388Y0037211D02*
X0076190Y0037211D01*
X0076789Y0037809D02*
X0071388Y0037809D01*
X0071388Y0038408D02*
X0077387Y0038408D01*
X0077986Y0039006D02*
X0071023Y0039006D01*
X0069523Y0039605D02*
X0078584Y0039605D01*
X0079183Y0040203D02*
X0069523Y0040203D01*
X0069523Y0040802D02*
X0079781Y0040802D01*
X0080380Y0041400D02*
X0069523Y0041400D01*
X0069523Y0041999D02*
X0080978Y0041999D01*
X0081577Y0042597D02*
X0069523Y0042597D01*
X0069523Y0043196D02*
X0082175Y0043196D01*
X0082774Y0043794D02*
X0069523Y0043794D01*
X0069523Y0044393D02*
X0083372Y0044393D01*
X0083971Y0044991D02*
X0069523Y0044991D01*
X0069523Y0045590D02*
X0084569Y0045590D01*
X0085168Y0046188D02*
X0069523Y0046188D01*
X0069523Y0046787D02*
X0085766Y0046787D01*
X0086365Y0047385D02*
X0069523Y0047385D01*
X0069523Y0047984D02*
X0086963Y0047984D01*
X0087562Y0048582D02*
X0069523Y0048582D01*
X0069523Y0049181D02*
X0088160Y0049181D01*
X0088759Y0049779D02*
X0069523Y0049779D01*
X0069523Y0050378D02*
X0089357Y0050378D01*
X0089587Y0050976D02*
X0069523Y0050976D01*
X0069523Y0051575D02*
X0089587Y0051575D01*
X0089587Y0052173D02*
X0069523Y0052173D01*
X0069523Y0052772D02*
X0090070Y0052772D01*
X0090668Y0053370D02*
X0069523Y0053370D01*
X0067123Y0053370D02*
X0064673Y0053370D01*
X0064593Y0053291D02*
X0064836Y0053533D01*
X0065007Y0053830D01*
X0065095Y0054160D01*
X0065095Y0056000D01*
X0061930Y0056000D01*
X0061930Y0056600D01*
X0065095Y0056600D01*
X0065095Y0058440D01*
X0065007Y0058770D01*
X0064836Y0059067D01*
X0064593Y0059309D01*
X0064297Y0059480D01*
X0063966Y0059568D01*
X0061930Y0059568D01*
X0061930Y0056600D01*
X0061330Y0056600D01*
X0061330Y0059568D01*
X0059293Y0059568D01*
X0058963Y0059480D01*
X0058666Y0059309D01*
X0058424Y0059067D01*
X0058253Y0058770D01*
X0058165Y0058440D01*
X0058165Y0056600D01*
X0061330Y0056600D01*
X0061330Y0056000D01*
X0061930Y0056000D01*
X0061930Y0053031D01*
X0063966Y0053031D01*
X0064297Y0053120D01*
X0064593Y0053291D01*
X0065044Y0053969D02*
X0065257Y0053969D01*
X0065257Y0054568D02*
X0065095Y0054568D01*
X0065095Y0055166D02*
X0065257Y0055166D01*
X0065257Y0055765D02*
X0065095Y0055765D01*
X0065257Y0056363D02*
X0061930Y0056363D01*
X0061930Y0055765D02*
X0061330Y0055765D01*
X0061330Y0056000D02*
X0061330Y0053031D01*
X0059293Y0053031D01*
X0058963Y0053120D01*
X0058666Y0053291D01*
X0058424Y0053533D01*
X0058253Y0053830D01*
X0058165Y0054160D01*
X0058165Y0056000D01*
X0061330Y0056000D01*
X0061330Y0056363D02*
X0046176Y0056363D01*
X0046176Y0055765D02*
X0058165Y0055765D01*
X0058165Y0055166D02*
X0046176Y0055166D01*
X0046176Y0054568D02*
X0058165Y0054568D01*
X0058216Y0053969D02*
X0046176Y0053969D01*
X0046176Y0053370D02*
X0058587Y0053370D01*
X0061330Y0053370D02*
X0061930Y0053370D01*
X0061930Y0053969D02*
X0061330Y0053969D01*
X0061330Y0054568D02*
X0061930Y0054568D01*
X0061930Y0055166D02*
X0061330Y0055166D01*
X0061330Y0056962D02*
X0061930Y0056962D01*
X0061930Y0057560D02*
X0061330Y0057560D01*
X0061330Y0058159D02*
X0061930Y0058159D01*
X0061930Y0058757D02*
X0061330Y0058757D01*
X0061330Y0059356D02*
X0061930Y0059356D01*
X0064512Y0059356D02*
X0067123Y0059356D01*
X0067123Y0059954D02*
X0046176Y0059954D01*
X0046176Y0059356D02*
X0058747Y0059356D01*
X0058250Y0058757D02*
X0046176Y0058757D01*
X0046176Y0058159D02*
X0058165Y0058159D01*
X0058165Y0057560D02*
X0046176Y0057560D01*
X0046176Y0056962D02*
X0058165Y0056962D01*
X0056206Y0061151D02*
X0067123Y0061151D01*
X0067123Y0060553D02*
X0046176Y0060553D01*
X0046176Y0061151D02*
X0053747Y0061151D01*
X0053148Y0061750D02*
X0046176Y0061750D01*
X0044976Y0063300D02*
X0044976Y0045800D01*
X0046876Y0045590D02*
X0067123Y0045590D01*
X0067123Y0046188D02*
X0046876Y0046188D01*
X0046876Y0046787D02*
X0067123Y0046787D01*
X0067123Y0047385D02*
X0046876Y0047385D01*
X0046876Y0047984D02*
X0067123Y0047984D01*
X0067123Y0048582D02*
X0046876Y0048582D01*
X0046368Y0049181D02*
X0067123Y0049181D01*
X0067123Y0049779D02*
X0046176Y0049779D01*
X0046176Y0050378D02*
X0067123Y0050378D01*
X0067123Y0050976D02*
X0046176Y0050976D01*
X0046176Y0051575D02*
X0067123Y0051575D01*
X0067123Y0052173D02*
X0046176Y0052173D01*
X0046176Y0052772D02*
X0067123Y0052772D01*
X0068323Y0056300D02*
X0068323Y0069927D01*
X0061950Y0076300D01*
X0059214Y0076114D02*
X0055598Y0076114D01*
X0056196Y0076712D02*
X0059214Y0076712D01*
X0059214Y0077311D02*
X0056795Y0077311D01*
X0057393Y0077909D02*
X0059214Y0077909D01*
X0059214Y0078508D02*
X0057992Y0078508D01*
X0058590Y0079106D02*
X0059738Y0079106D01*
X0059214Y0075515D02*
X0054999Y0075515D01*
X0054401Y0074917D02*
X0059214Y0074917D01*
X0059214Y0074318D02*
X0053802Y0074318D01*
X0053204Y0073720D02*
X0059511Y0073720D01*
X0056314Y0065341D02*
X0067123Y0065341D01*
X0067123Y0064742D02*
X0056913Y0064742D01*
X0057365Y0064144D02*
X0067123Y0064144D01*
X0067123Y0063545D02*
X0057365Y0063545D01*
X0057365Y0062947D02*
X0067123Y0062947D01*
X0067123Y0062348D02*
X0057365Y0062348D01*
X0056805Y0061750D02*
X0067123Y0061750D01*
X0069523Y0059954D02*
X0116729Y0059954D01*
X0116335Y0059356D02*
X0069523Y0059356D01*
X0065373Y0058757D02*
X0065010Y0058757D01*
X0065095Y0058159D02*
X0065257Y0058159D01*
X0065257Y0057560D02*
X0065095Y0057560D01*
X0065095Y0056962D02*
X0065257Y0056962D01*
X0054976Y0063300D02*
X0044976Y0063300D01*
X0029976Y0058127D02*
X0029976Y0045800D01*
X0031876Y0044991D02*
X0033076Y0044991D01*
X0033076Y0044393D02*
X0031876Y0044393D01*
X0031876Y0043794D02*
X0033076Y0043794D01*
X0033076Y0043196D02*
X0031876Y0043196D01*
X0031546Y0042597D02*
X0033406Y0042597D01*
X0036546Y0042597D02*
X0038406Y0042597D01*
X0038076Y0043196D02*
X0036876Y0043196D01*
X0036876Y0043794D02*
X0038076Y0043794D01*
X0038076Y0044393D02*
X0036876Y0044393D01*
X0036876Y0044991D02*
X0038076Y0044991D01*
X0046876Y0044991D02*
X0067123Y0044991D01*
X0067123Y0044393D02*
X0046876Y0044393D01*
X0046876Y0043794D02*
X0067123Y0043794D01*
X0067123Y0043196D02*
X0046876Y0043196D01*
X0058389Y0039006D02*
X0009576Y0039006D01*
X0009576Y0038408D02*
X0058165Y0038408D01*
X0058165Y0037809D02*
X0009576Y0037809D01*
X0009576Y0037211D02*
X0058165Y0037211D01*
X0058165Y0036612D02*
X0009576Y0036612D01*
X0009576Y0039605D02*
X0067123Y0039605D01*
X0067123Y0040203D02*
X0009576Y0040203D01*
X0009576Y0040802D02*
X0067123Y0040802D01*
X0067123Y0041400D02*
X0009576Y0041400D01*
X0009576Y0026437D02*
X0023076Y0026437D01*
X0023076Y0025839D02*
X0009576Y0025839D01*
X0009576Y0025240D02*
X0023076Y0025240D01*
X0023076Y0024642D02*
X0009576Y0024642D01*
X0009576Y0024043D02*
X0023076Y0024043D01*
X0023559Y0023445D02*
X0009576Y0023445D01*
X0009576Y0022846D02*
X0023776Y0022846D01*
X0023776Y0022248D02*
X0009576Y0022248D01*
X0009576Y0021649D02*
X0023776Y0021649D01*
X0023776Y0021051D02*
X0009576Y0021051D01*
X0009576Y0020452D02*
X0024127Y0020452D01*
X0029776Y0023445D02*
X0030176Y0023445D01*
X0030176Y0024043D02*
X0029776Y0024043D01*
X0029776Y0024642D02*
X0030176Y0024642D01*
X0030176Y0025240D02*
X0029776Y0025240D01*
X0029776Y0025839D02*
X0030176Y0025839D01*
X0030176Y0026437D02*
X0029776Y0026437D01*
X0029776Y0027036D02*
X0030176Y0027036D01*
X0030176Y0027000D02*
X0030176Y0030600D01*
X0031148Y0030600D01*
X0031478Y0030511D01*
X0031775Y0030340D01*
X0032017Y0030098D01*
X0032188Y0029802D01*
X0032276Y0029471D01*
X0032276Y0027000D01*
X0030176Y0027000D01*
X0030176Y0027634D02*
X0029776Y0027634D01*
X0029776Y0028233D02*
X0030176Y0028233D01*
X0030176Y0028832D02*
X0029776Y0028832D01*
X0029776Y0029430D02*
X0030176Y0029430D01*
X0030176Y0030029D02*
X0029776Y0030029D01*
X0032057Y0030029D02*
X0032896Y0030029D01*
X0032936Y0030098D02*
X0032765Y0029802D01*
X0032676Y0029471D01*
X0032676Y0027000D01*
X0034776Y0027000D01*
X0034776Y0026600D01*
X0032676Y0026600D01*
X0032676Y0024129D01*
X0032765Y0023798D01*
X0032936Y0023502D01*
X0033178Y0023260D01*
X0033475Y0023089D01*
X0033805Y0023000D01*
X0034776Y0023000D01*
X0034776Y0026600D01*
X0035176Y0026600D01*
X0035176Y0023000D01*
X0036148Y0023000D01*
X0036478Y0023089D01*
X0036775Y0023260D01*
X0037017Y0023502D01*
X0037188Y0023798D01*
X0037276Y0024129D01*
X0037276Y0026600D01*
X0035176Y0026600D01*
X0035176Y0027000D01*
X0034776Y0027000D01*
X0034776Y0030600D01*
X0033805Y0030600D01*
X0033475Y0030511D01*
X0033178Y0030340D01*
X0032936Y0030098D01*
X0032676Y0029430D02*
X0032276Y0029430D01*
X0032276Y0028832D02*
X0032676Y0028832D01*
X0032676Y0028233D02*
X0032276Y0028233D01*
X0032276Y0027634D02*
X0032676Y0027634D01*
X0032676Y0027036D02*
X0032276Y0027036D01*
X0032276Y0026437D02*
X0032676Y0026437D01*
X0032676Y0025839D02*
X0032276Y0025839D01*
X0032276Y0025240D02*
X0032676Y0025240D01*
X0032676Y0024642D02*
X0032276Y0024642D01*
X0032253Y0024043D02*
X0032699Y0024043D01*
X0032993Y0023445D02*
X0031960Y0023445D01*
X0034776Y0023445D02*
X0035176Y0023445D01*
X0035176Y0024043D02*
X0034776Y0024043D01*
X0034776Y0024642D02*
X0035176Y0024642D01*
X0035176Y0025240D02*
X0034776Y0025240D01*
X0034776Y0025839D02*
X0035176Y0025839D01*
X0035176Y0026437D02*
X0034776Y0026437D01*
X0034776Y0027036D02*
X0035176Y0027036D01*
X0035176Y0027000D02*
X0035176Y0030600D01*
X0036148Y0030600D01*
X0036478Y0030511D01*
X0036775Y0030340D01*
X0037017Y0030098D01*
X0037188Y0029802D01*
X0037276Y0029471D01*
X0037276Y0027000D01*
X0035176Y0027000D01*
X0035176Y0027634D02*
X0034776Y0027634D01*
X0034776Y0028233D02*
X0035176Y0028233D01*
X0035176Y0028832D02*
X0034776Y0028832D01*
X0034776Y0029430D02*
X0035176Y0029430D01*
X0035176Y0030029D02*
X0034776Y0030029D01*
X0037057Y0030029D02*
X0038432Y0030029D01*
X0038604Y0030200D02*
X0038076Y0029673D01*
X0038076Y0023927D01*
X0038604Y0023400D01*
X0041349Y0023400D01*
X0041876Y0023927D01*
X0041876Y0029673D01*
X0041349Y0030200D01*
X0038604Y0030200D01*
X0038076Y0029430D02*
X0037276Y0029430D01*
X0037276Y0028832D02*
X0038076Y0028832D01*
X0038076Y0028233D02*
X0037276Y0028233D01*
X0037276Y0027634D02*
X0038076Y0027634D01*
X0038076Y0027036D02*
X0037276Y0027036D01*
X0037276Y0026437D02*
X0038076Y0026437D01*
X0038076Y0025839D02*
X0037276Y0025839D01*
X0037276Y0025240D02*
X0038076Y0025240D01*
X0038076Y0024642D02*
X0037276Y0024642D01*
X0037253Y0024043D02*
X0038076Y0024043D01*
X0038559Y0023445D02*
X0036960Y0023445D01*
X0041394Y0023445D02*
X0043559Y0023445D01*
X0043076Y0024043D02*
X0041876Y0024043D01*
X0041876Y0024642D02*
X0043076Y0024642D01*
X0043076Y0025240D02*
X0041876Y0025240D01*
X0041876Y0025839D02*
X0043076Y0025839D01*
X0043076Y0026437D02*
X0041876Y0026437D01*
X0041876Y0027036D02*
X0043076Y0027036D01*
X0043076Y0027634D02*
X0041876Y0027634D01*
X0041876Y0028233D02*
X0043076Y0028233D01*
X0043076Y0028832D02*
X0041876Y0028832D01*
X0041876Y0029430D02*
X0043076Y0029430D01*
X0043432Y0030029D02*
X0041521Y0030029D01*
X0009576Y0019854D02*
X0097123Y0019854D01*
X0097123Y0019255D02*
X0094647Y0019255D01*
X0095037Y0018657D02*
X0095273Y0018657D01*
X0095257Y0018058D02*
X0095095Y0018058D01*
X0095095Y0017460D02*
X0095257Y0017460D01*
X0095257Y0016861D02*
X0095095Y0016861D01*
X0091930Y0017460D02*
X0091330Y0017460D01*
X0091330Y0018058D02*
X0091930Y0018058D01*
X0091930Y0018657D02*
X0091330Y0018657D01*
X0091330Y0019255D02*
X0091930Y0019255D01*
X0088613Y0019255D02*
X0009576Y0019255D01*
X0009576Y0018657D02*
X0088223Y0018657D01*
X0088165Y0018058D02*
X0009576Y0018058D01*
X0009576Y0017460D02*
X0088165Y0017460D01*
X0091330Y0015664D02*
X0091930Y0015664D01*
X0091930Y0015066D02*
X0091330Y0015066D01*
X0091330Y0014467D02*
X0091930Y0014467D01*
X0091930Y0013869D02*
X0091330Y0013869D01*
X0091330Y0013270D02*
X0091930Y0013270D01*
X0111630Y0035670D02*
X0112260Y0036300D01*
X0123835Y0047875D01*
X0123835Y0062778D01*
X0125803Y0062778D02*
X0125803Y0057473D01*
X0126476Y0056300D01*
X0134976Y0047800D01*
X0134976Y0039646D01*
X0132108Y0040802D02*
X0118459Y0040802D01*
X0119057Y0041400D02*
X0132108Y0041400D01*
X0132108Y0041999D02*
X0119656Y0041999D01*
X0120254Y0042597D02*
X0132521Y0042597D01*
X0133776Y0043196D02*
X0120853Y0043196D01*
X0121451Y0043794D02*
X0133776Y0043794D01*
X0133776Y0044393D02*
X0122050Y0044393D01*
X0122648Y0044991D02*
X0133776Y0044991D01*
X0133776Y0045590D02*
X0123247Y0045590D01*
X0123845Y0046188D02*
X0133776Y0046188D01*
X0133776Y0046787D02*
X0124444Y0046787D01*
X0125035Y0047385D02*
X0133694Y0047385D01*
X0133095Y0047984D02*
X0125035Y0047984D01*
X0125035Y0048582D02*
X0132497Y0048582D01*
X0131898Y0049181D02*
X0125035Y0049181D01*
X0125035Y0049779D02*
X0131300Y0049779D01*
X0130701Y0050378D02*
X0125035Y0050378D01*
X0125035Y0050976D02*
X0130103Y0050976D01*
X0129504Y0051575D02*
X0125035Y0051575D01*
X0125035Y0052173D02*
X0128906Y0052173D01*
X0128307Y0052772D02*
X0125035Y0052772D01*
X0125035Y0053370D02*
X0127709Y0053370D01*
X0125429Y0053969D02*
X0125035Y0053969D01*
X0117929Y0059253D02*
X0109976Y0051300D01*
X0107081Y0047385D02*
X0089759Y0047385D01*
X0089160Y0046787D02*
X0106483Y0046787D01*
X0105884Y0046188D02*
X0088562Y0046188D01*
X0087963Y0045590D02*
X0105286Y0045590D01*
X0104687Y0044991D02*
X0087365Y0044991D01*
X0117929Y0059253D02*
X0117929Y0062778D01*
X0149976Y0053273D02*
X0149976Y0039646D01*
X0184227Y0061750D02*
X0196829Y0061750D01*
X0215245Y0091077D02*
X0264976Y0091077D01*
X0264976Y0091675D02*
X0215245Y0091675D01*
X0215167Y0092274D02*
X0264976Y0092274D01*
X0264976Y0092872D02*
X0214708Y0092872D01*
X0208034Y0097660D02*
X0264976Y0097660D01*
X0264976Y0097062D02*
X0207435Y0097062D01*
X0206837Y0096463D02*
X0264976Y0096463D01*
X0264976Y0095865D02*
X0206238Y0095865D01*
X0205640Y0095266D02*
X0264976Y0095266D01*
X0264976Y0094668D02*
X0205041Y0094668D01*
X0208632Y0098259D02*
X0264976Y0098259D01*
X0264976Y0098857D02*
X0209231Y0098857D01*
X0209829Y0099456D02*
X0264976Y0099456D01*
X0264976Y0100054D02*
X0210428Y0100054D01*
X0211026Y0100653D02*
X0264976Y0100653D01*
X0264976Y0101251D02*
X0211176Y0101251D01*
X0211176Y0101850D02*
X0264976Y0101850D01*
X0264976Y0102448D02*
X0211176Y0102448D01*
X0211176Y0103047D02*
X0264976Y0103047D01*
X0264976Y0103645D02*
X0211176Y0103645D01*
X0211176Y0104244D02*
X0264976Y0104244D01*
X0264976Y0104842D02*
X0211176Y0104842D01*
X0211176Y0105441D02*
X0264976Y0105441D01*
X0264976Y0106039D02*
X0211176Y0106039D01*
X0211176Y0106638D02*
X0264976Y0106638D01*
X0264976Y0107237D02*
X0211176Y0107237D01*
X0211176Y0107835D02*
X0264976Y0107835D01*
X0264976Y0108434D02*
X0211176Y0108434D01*
X0211176Y0109032D02*
X0264976Y0109032D01*
X0264976Y0109631D02*
X0211176Y0109631D01*
X0211176Y0110229D02*
X0264976Y0110229D01*
X0264976Y0110828D02*
X0211176Y0110828D01*
X0211176Y0111426D02*
X0213796Y0111426D01*
X0214676Y0111426D02*
X0215276Y0111426D01*
X0215276Y0112025D02*
X0214676Y0112025D01*
X0214676Y0112623D02*
X0215276Y0112623D01*
X0215276Y0113222D02*
X0214676Y0113222D01*
X0214676Y0113820D02*
X0215276Y0113820D01*
X0215276Y0114419D02*
X0214676Y0114419D01*
X0214676Y0115017D02*
X0215276Y0115017D01*
X0215276Y0115616D02*
X0214676Y0115616D01*
X0215276Y0116214D02*
X0264976Y0116214D01*
X0264976Y0115616D02*
X0219930Y0115616D01*
X0219817Y0115017D02*
X0264976Y0115017D01*
X0264976Y0114419D02*
X0219622Y0114419D01*
X0219324Y0113820D02*
X0264976Y0113820D01*
X0264976Y0113222D02*
X0218920Y0113222D01*
X0218371Y0112623D02*
X0264976Y0112623D01*
X0264976Y0112025D02*
X0217598Y0112025D01*
X0216156Y0111426D02*
X0264976Y0111426D01*
X0264976Y0116813D02*
X0219957Y0116813D01*
X0219976Y0116694D02*
X0219853Y0117471D01*
X0219610Y0118219D01*
X0219253Y0118921D01*
X0218790Y0119557D01*
X0218234Y0120114D01*
X0217597Y0120576D01*
X0216896Y0120934D01*
X0216147Y0121177D01*
X0215370Y0121300D01*
X0215276Y0121300D01*
X0215276Y0116600D01*
X0219976Y0116600D01*
X0219976Y0116694D01*
X0219863Y0117411D02*
X0264976Y0117411D01*
X0264976Y0118010D02*
X0219678Y0118010D01*
X0219412Y0118608D02*
X0264976Y0118608D01*
X0264976Y0119207D02*
X0219045Y0119207D01*
X0218542Y0119805D02*
X0264976Y0119805D01*
X0264976Y0120404D02*
X0217835Y0120404D01*
X0216685Y0121002D02*
X0264976Y0121002D01*
X0215276Y0121002D02*
X0214676Y0121002D01*
X0214676Y0120404D02*
X0215276Y0120404D01*
X0215276Y0119805D02*
X0214676Y0119805D01*
X0214676Y0119207D02*
X0215276Y0119207D01*
X0215276Y0118608D02*
X0214676Y0118608D01*
X0214676Y0118010D02*
X0215276Y0118010D01*
X0215276Y0117411D02*
X0214676Y0117411D01*
X0214676Y0116813D02*
X0215276Y0116813D01*
X0213268Y0121002D02*
X0211176Y0121002D01*
X0211176Y0120404D02*
X0212118Y0120404D01*
X0211411Y0119805D02*
X0211176Y0119805D01*
X0211176Y0112623D02*
X0211582Y0112623D01*
X0211176Y0112025D02*
X0212354Y0112025D01*
X0264080Y0077311D02*
X0264464Y0077311D01*
X0264464Y0076712D02*
X0264080Y0076712D01*
X0264080Y0076114D02*
X0264464Y0076114D01*
X0264464Y0075515D02*
X0264080Y0075515D01*
X0264080Y0074917D02*
X0264464Y0074917D01*
X0264464Y0074318D02*
X0264080Y0074318D01*
X0264080Y0073720D02*
X0264464Y0073720D01*
X0264464Y0073121D02*
X0264080Y0073121D01*
X0264080Y0072523D02*
X0264464Y0072523D01*
X0264464Y0071924D02*
X0264080Y0071924D01*
X0263953Y0066300D02*
X0258323Y0066300D01*
X0263953Y0066300D02*
X0264272Y0066261D01*
X0264534Y0061750D02*
X0264976Y0061750D01*
X0264976Y0061151D02*
X0263936Y0061151D01*
X0251630Y0066300D02*
X0238323Y0066300D01*
X0122123Y0129381D02*
X0119468Y0129381D01*
X0119999Y0128783D02*
X0120399Y0128783D01*
X0120257Y0128184D02*
X0120095Y0128184D01*
X0120095Y0127586D02*
X0120257Y0127586D01*
X0120257Y0126987D02*
X0120095Y0126987D01*
X0116930Y0125790D02*
X0116330Y0125790D01*
X0116330Y0125192D02*
X0116930Y0125192D01*
X0116930Y0124593D02*
X0116330Y0124593D01*
X0116330Y0123995D02*
X0116930Y0123995D01*
X0116930Y0123396D02*
X0116330Y0123396D01*
X0096930Y0127586D02*
X0096330Y0127586D01*
X0096330Y0128184D02*
X0096930Y0128184D01*
X0096930Y0128783D02*
X0096330Y0128783D01*
X0096330Y0129381D02*
X0096930Y0129381D01*
X0063576Y0129381D02*
X0055576Y0129381D01*
X0055576Y0128783D02*
X0063576Y0128783D01*
X0063576Y0128184D02*
X0055576Y0128184D01*
X0055576Y0129980D02*
X0063576Y0129980D01*
X0063576Y0130578D02*
X0055576Y0130578D01*
X0055576Y0131177D02*
X0063120Y0131177D01*
X0062521Y0131775D02*
X0055349Y0131775D01*
X0057837Y0127586D02*
X0063576Y0127586D01*
X0063576Y0126987D02*
X0057845Y0126987D01*
X0057845Y0126389D02*
X0063576Y0126389D01*
X0063576Y0125790D02*
X0057845Y0125790D01*
X0057845Y0125192D02*
X0063576Y0125192D01*
X0063576Y0124593D02*
X0057845Y0124593D01*
X0057845Y0123995D02*
X0063576Y0123995D01*
X0063576Y0123396D02*
X0057845Y0123396D01*
X0057747Y0122798D02*
X0063576Y0122798D01*
X0063576Y0122199D02*
X0055576Y0122199D01*
X0055576Y0121601D02*
X0063297Y0121601D01*
X0062699Y0121002D02*
X0055576Y0121002D01*
X0055576Y0120404D02*
X0062100Y0120404D01*
X0061502Y0119805D02*
X0057744Y0119805D01*
X0057845Y0119207D02*
X0060903Y0119207D01*
X0033976Y0153322D02*
X0025955Y0153322D01*
X0025356Y0153920D02*
X0033976Y0153920D01*
X0033976Y0154519D02*
X0024757Y0154519D01*
X0024159Y0155117D02*
X0033976Y0155117D01*
X0033976Y0155716D02*
X0023560Y0155716D01*
X0022962Y0156314D02*
X0033976Y0156314D01*
X0033976Y0156913D02*
X0022363Y0156913D01*
X0021765Y0157511D02*
X0033976Y0157511D01*
X0033976Y0158110D02*
X0021166Y0158110D01*
X0020568Y0158708D02*
X0033976Y0158708D01*
X0035271Y0162898D02*
X0041472Y0162898D01*
X0041318Y0163497D02*
X0035870Y0163497D01*
X0036469Y0164095D02*
X0041318Y0164095D01*
X0041318Y0164694D02*
X0037067Y0164694D01*
X0024276Y0172474D02*
X0023676Y0172474D01*
X0023676Y0173073D02*
X0024276Y0173073D01*
X0024276Y0173671D02*
X0023676Y0173671D01*
X0023676Y0174270D02*
X0024276Y0174270D01*
X0024276Y0174868D02*
X0023676Y0174868D01*
X0023676Y0176664D02*
X0024276Y0176664D01*
X0024276Y0177262D02*
X0023676Y0177262D01*
X0023676Y0177861D02*
X0024276Y0177861D01*
X0024276Y0178459D02*
X0023676Y0178459D01*
X0023676Y0179058D02*
X0024276Y0179058D01*
X0021635Y0179058D02*
X0009576Y0179058D01*
X0009576Y0178459D02*
X0020881Y0178459D01*
X0020708Y0177861D02*
X0009576Y0177861D01*
X0009576Y0177262D02*
X0020708Y0177262D01*
X0020708Y0176664D02*
X0009576Y0176664D01*
X0009576Y0176065D02*
X0020708Y0176065D01*
X0009576Y0190430D02*
X0047528Y0190430D01*
X0047424Y0190533D02*
X0047666Y0190291D01*
X0047963Y0190120D01*
X0048293Y0190031D01*
X0050330Y0190031D01*
X0050330Y0193000D01*
X0047165Y0193000D01*
X0047165Y0191160D01*
X0047253Y0190830D01*
X0047424Y0190533D01*
X0047200Y0191028D02*
X0009576Y0191028D01*
X0009576Y0191627D02*
X0047165Y0191627D01*
X0047165Y0192225D02*
X0009576Y0192225D01*
X0009576Y0192824D02*
X0047165Y0192824D01*
X0047165Y0194021D02*
X0009576Y0194021D01*
X0009576Y0194619D02*
X0047165Y0194619D01*
X0047165Y0195218D02*
X0009576Y0195218D01*
X0009576Y0195816D02*
X0047280Y0195816D01*
X0047850Y0196415D02*
X0009576Y0196415D01*
X0009576Y0197013D02*
X0053776Y0197013D01*
X0053776Y0196415D02*
X0053410Y0196415D01*
X0053776Y0197612D02*
X0009576Y0197612D01*
X0009576Y0198210D02*
X0053776Y0198210D01*
X0053776Y0198809D02*
X0009576Y0198809D01*
X0009576Y0199407D02*
X0053776Y0199407D01*
X0053776Y0200006D02*
X0009576Y0200006D01*
X0009576Y0200604D02*
X0053776Y0200604D01*
X0053776Y0201203D02*
X0009576Y0201203D01*
X0009576Y0201801D02*
X0053781Y0201801D01*
X0054379Y0202400D02*
X0009576Y0202400D01*
X0009576Y0202998D02*
X0264976Y0202998D01*
X0264976Y0203597D02*
X0009576Y0203597D01*
X0009576Y0204195D02*
X0264976Y0204195D01*
X0264976Y0204794D02*
X0009576Y0204794D01*
X0009576Y0205392D02*
X0264976Y0205392D01*
X0264976Y0205991D02*
X0009576Y0205991D01*
X0009576Y0206589D02*
X0264976Y0206589D01*
X0089776Y0171876D02*
X0086264Y0171876D01*
X0087696Y0171277D02*
X0089776Y0171277D01*
X0089776Y0170679D02*
X0088176Y0170679D01*
X0088176Y0170080D02*
X0089776Y0170080D01*
X0089776Y0169482D02*
X0088176Y0169482D01*
X0088176Y0168883D02*
X0089776Y0168883D01*
X0089776Y0168285D02*
X0088176Y0168285D01*
X0061239Y0162300D02*
X0055354Y0162300D01*
X0055953Y0162898D02*
X0058887Y0162898D01*
X0058644Y0163497D02*
X0056365Y0163497D01*
X0056365Y0164095D02*
X0058644Y0164095D01*
X0058644Y0164694D02*
X0056365Y0164694D01*
X0056363Y0165292D02*
X0058644Y0165292D01*
X0058644Y0165891D02*
X0055764Y0165891D01*
X0055166Y0166489D02*
X0058644Y0166489D01*
X0050930Y0190430D02*
X0050330Y0190430D01*
X0050330Y0191028D02*
X0050930Y0191028D01*
X0050930Y0191627D02*
X0050330Y0191627D01*
X0050330Y0192225D02*
X0050930Y0192225D01*
X0050930Y0192824D02*
X0050330Y0192824D01*
X0050330Y0193422D02*
X0009576Y0193422D01*
X0050330Y0194021D02*
X0050930Y0194021D01*
X0050930Y0194619D02*
X0050330Y0194619D01*
X0050330Y0195218D02*
X0050930Y0195218D01*
X0050930Y0195816D02*
X0050330Y0195816D01*
X0050330Y0196415D02*
X0050930Y0196415D01*
D34*
X0044976Y0201300D03*
X0014976Y0201300D03*
X0053976Y0172300D03*
X0061976Y0176300D03*
X0073976Y0178300D03*
X0068976Y0165300D03*
X0053976Y0164300D03*
X0083976Y0148300D03*
X0099976Y0141300D03*
X0074976Y0131300D03*
X0044976Y0121800D03*
X0044976Y0100300D03*
X0074976Y0101300D03*
X0091976Y0094300D03*
X0107666Y0094300D03*
X0114976Y0081300D03*
X0114976Y0071300D03*
X0119477Y0056300D03*
X0126476Y0056300D03*
X0134976Y0061300D03*
X0139976Y0061300D03*
X0144976Y0056300D03*
X0144976Y0051300D03*
X0144976Y0046300D03*
X0144976Y0041300D03*
X0144976Y0036300D03*
X0144976Y0031300D03*
X0144976Y0026300D03*
X0149976Y0026300D03*
X0154976Y0026300D03*
X0154976Y0031300D03*
X0154976Y0036300D03*
X0154976Y0041300D03*
X0154976Y0046300D03*
X0154976Y0051300D03*
X0159976Y0051300D03*
X0164976Y0051300D03*
X0169976Y0051300D03*
X0174976Y0051300D03*
X0179976Y0051300D03*
X0179976Y0056300D03*
X0184976Y0061300D03*
X0189976Y0061300D03*
X0194976Y0061300D03*
X0199976Y0061300D03*
X0204976Y0061300D03*
X0209976Y0061300D03*
X0214976Y0061300D03*
X0219976Y0061300D03*
X0224976Y0061300D03*
X0229976Y0061300D03*
X0234976Y0061300D03*
X0239976Y0061300D03*
X0244976Y0061300D03*
X0249976Y0061300D03*
X0254976Y0061300D03*
X0259976Y0061300D03*
X0262976Y0058300D03*
X0262976Y0053300D03*
X0262976Y0048300D03*
X0262976Y0043300D03*
X0262976Y0038300D03*
X0254976Y0041300D03*
X0262976Y0033300D03*
X0262976Y0028300D03*
X0262976Y0023300D03*
X0262976Y0018300D03*
X0262976Y0013300D03*
X0254976Y0011300D03*
X0262976Y0008300D03*
X0224976Y0011300D03*
X0194976Y0011300D03*
X0164976Y0011300D03*
X0134976Y0011300D03*
X0104976Y0011300D03*
X0084976Y0031300D03*
X0074976Y0011300D03*
X0054976Y0031300D03*
X0044976Y0011300D03*
X0014976Y0011300D03*
X0014976Y0041300D03*
X0054976Y0051300D03*
X0054976Y0063300D03*
X0074976Y0063300D03*
X0074976Y0051300D03*
X0091976Y0051300D03*
X0099976Y0056300D03*
X0091976Y0069300D03*
X0130976Y0094300D03*
X0149976Y0086300D03*
X0154976Y0086300D03*
X0154976Y0081300D03*
X0159976Y0081300D03*
X0164976Y0081300D03*
X0169976Y0081300D03*
X0174976Y0081300D03*
X0179976Y0076300D03*
X0184976Y0071300D03*
X0189976Y0071300D03*
X0194976Y0071300D03*
X0199976Y0071300D03*
X0204976Y0071300D03*
X0204976Y0076300D03*
X0204976Y0081300D03*
X0204976Y0086300D03*
X0204976Y0091300D03*
X0209976Y0096300D03*
X0214976Y0096300D03*
X0219976Y0096300D03*
X0219976Y0091300D03*
X0219976Y0086300D03*
X0219976Y0081300D03*
X0224976Y0081300D03*
X0219976Y0076300D03*
X0219976Y0071300D03*
X0224976Y0071300D03*
X0229976Y0071300D03*
X0234976Y0071300D03*
X0239976Y0071300D03*
X0244976Y0071300D03*
X0249976Y0071300D03*
X0254976Y0071300D03*
X0259976Y0071300D03*
X0262976Y0079300D03*
X0262976Y0084300D03*
X0254976Y0081300D03*
X0262976Y0089300D03*
X0262976Y0094300D03*
X0262976Y0099300D03*
X0262976Y0104300D03*
X0262976Y0109300D03*
X0262976Y0114300D03*
X0254976Y0111300D03*
X0262976Y0119300D03*
X0262976Y0124300D03*
X0262976Y0129300D03*
X0262976Y0134300D03*
X0262976Y0139300D03*
X0262976Y0144300D03*
X0254976Y0141300D03*
X0262976Y0149300D03*
X0262976Y0154300D03*
X0262976Y0159300D03*
X0262976Y0164300D03*
X0262976Y0169300D03*
X0262976Y0174300D03*
X0254976Y0171300D03*
X0262976Y0179300D03*
X0262976Y0184300D03*
X0262976Y0189300D03*
X0262976Y0194300D03*
X0262976Y0199300D03*
X0254976Y0201300D03*
X0262976Y0204300D03*
X0224976Y0201300D03*
X0184976Y0186300D03*
X0184976Y0166300D03*
X0154976Y0166300D03*
X0148976Y0186300D03*
X0134976Y0201300D03*
X0104976Y0201300D03*
X0124976Y0176300D03*
X0099976Y0171300D03*
X0164976Y0141300D03*
X0194976Y0141300D03*
X0224976Y0141300D03*
X0224976Y0111300D03*
X0194976Y0091300D03*
X0164976Y0091300D03*
X0154976Y0076300D03*
X0144976Y0076300D03*
X0139976Y0071300D03*
X0134976Y0073300D03*
X0164976Y0041300D03*
X0194976Y0041300D03*
X0224976Y0041300D03*
X0136976Y0111300D03*
X0122976Y0111300D03*
X0224976Y0171300D03*
X0014976Y0171300D03*
X0014976Y0141300D03*
X0014976Y0071300D03*
D35*
X0091976Y0069410D02*
X0091976Y0069300D01*
D36*
X0054976Y0097363D02*
X0041891Y0097363D01*
X0037378Y0093583D01*
X0034094Y0090300D01*
X0018614Y0090300D01*
X0015331Y0093583D01*
X0015331Y0129017D01*
X0018059Y0131745D01*
X0034650Y0131745D01*
X0037378Y0129017D01*
X0041157Y0125237D01*
X0054976Y0125237D01*
X0054976Y0117363D02*
X0061039Y0117363D01*
X0064976Y0121300D01*
X0064976Y0131300D01*
X0059976Y0136300D01*
X0034976Y0136300D01*
X0029976Y0141300D01*
X0029976Y0145702D01*
X0038598Y0122127D02*
X0044650Y0122127D01*
X0044976Y0121800D01*
X0044661Y0116221D02*
X0038598Y0116221D01*
X0038419Y0116042D01*
X0036765Y0116042D01*
X0036748Y0116024D01*
X0034228Y0116024D01*
X0034228Y0106576D02*
X0034425Y0106379D01*
X0038598Y0106379D01*
X0040252Y0106379D01*
X0044976Y0111103D01*
X0044976Y0115906D01*
X0044661Y0116221D01*
X0053835Y0116221D01*
X0054976Y0117363D01*
X0054976Y0105237D02*
X0052913Y0105237D01*
X0047835Y0100158D01*
X0045118Y0100158D01*
X0044976Y0100300D01*
X0038589Y0100300D01*
X0038598Y0100473D01*
D37*
X0264740Y0076339D02*
X0264740Y0072757D01*
X0282575Y0072757D01*
X0282575Y0067245D01*
X0264996Y0067245D01*
X0264996Y0065276D01*
X0282575Y0065276D01*
X0282575Y0058583D01*
X0273677Y0058583D01*
X0273677Y0050709D01*
X0282575Y0050709D01*
X0282575Y0044017D01*
X0273717Y0044017D01*
X0273717Y0032206D01*
X0282575Y0032206D01*
X0282575Y0025513D01*
X0267102Y0025513D01*
X0267102Y0023544D01*
X0284543Y0023544D01*
X0284543Y0034174D01*
X0275685Y0034174D01*
X0275685Y0042048D01*
X0284504Y0042048D01*
X0284504Y0052678D01*
X0275685Y0052678D01*
X0275685Y0056615D01*
X0284543Y0056615D01*
X0284543Y0076339D01*
X0264740Y0076339D01*
X0264740Y0076220D02*
X0284543Y0076220D01*
X0284543Y0075822D02*
X0264740Y0075822D01*
X0264740Y0075423D02*
X0284543Y0075423D01*
X0284543Y0075025D02*
X0264740Y0075025D01*
X0264740Y0074626D02*
X0284543Y0074626D01*
X0284543Y0074228D02*
X0264740Y0074228D01*
X0264740Y0073829D02*
X0284543Y0073829D01*
X0284543Y0073431D02*
X0264740Y0073431D01*
X0264740Y0073032D02*
X0284543Y0073032D01*
X0284543Y0072634D02*
X0282575Y0072634D01*
X0282575Y0072235D02*
X0284543Y0072235D01*
X0284543Y0071837D02*
X0282575Y0071837D01*
X0282575Y0071438D02*
X0284543Y0071438D01*
X0284543Y0071039D02*
X0282575Y0071039D01*
X0282575Y0070641D02*
X0284543Y0070641D01*
X0284543Y0070242D02*
X0282575Y0070242D01*
X0282575Y0069844D02*
X0284543Y0069844D01*
X0284543Y0069445D02*
X0282575Y0069445D01*
X0282575Y0069047D02*
X0284543Y0069047D01*
X0284543Y0068648D02*
X0282575Y0068648D01*
X0282575Y0068250D02*
X0284543Y0068250D01*
X0284543Y0067851D02*
X0282575Y0067851D01*
X0282575Y0067453D02*
X0284543Y0067453D01*
X0284543Y0067054D02*
X0264996Y0067054D01*
X0264996Y0066656D02*
X0284543Y0066656D01*
X0284543Y0066257D02*
X0264996Y0066257D01*
X0264996Y0065859D02*
X0284543Y0065859D01*
X0284543Y0065460D02*
X0264996Y0065460D01*
X0273677Y0058287D02*
X0284543Y0058287D01*
X0284543Y0057889D02*
X0273677Y0057889D01*
X0273677Y0057490D02*
X0284543Y0057490D01*
X0284543Y0057092D02*
X0273677Y0057092D01*
X0273677Y0056693D02*
X0284543Y0056693D01*
X0284543Y0058686D02*
X0282575Y0058686D01*
X0282575Y0059084D02*
X0284543Y0059084D01*
X0284543Y0059483D02*
X0282575Y0059483D01*
X0282575Y0059881D02*
X0284543Y0059881D01*
X0284543Y0060280D02*
X0282575Y0060280D01*
X0282575Y0060678D02*
X0284543Y0060678D01*
X0284543Y0061077D02*
X0282575Y0061077D01*
X0282575Y0061475D02*
X0284543Y0061475D01*
X0284543Y0061874D02*
X0282575Y0061874D01*
X0282575Y0062272D02*
X0284543Y0062272D01*
X0284543Y0062671D02*
X0282575Y0062671D01*
X0282575Y0063069D02*
X0284543Y0063069D01*
X0284543Y0063468D02*
X0282575Y0063468D01*
X0282575Y0063866D02*
X0284543Y0063866D01*
X0284543Y0064265D02*
X0282575Y0064265D01*
X0282575Y0064663D02*
X0284543Y0064663D01*
X0284543Y0065062D02*
X0282575Y0065062D01*
X0275685Y0056295D02*
X0273677Y0056295D01*
X0273677Y0055896D02*
X0275685Y0055896D01*
X0275685Y0055498D02*
X0273677Y0055498D01*
X0273677Y0055099D02*
X0275685Y0055099D01*
X0275685Y0054701D02*
X0273677Y0054701D01*
X0273677Y0054302D02*
X0275685Y0054302D01*
X0275685Y0053903D02*
X0273677Y0053903D01*
X0273677Y0053505D02*
X0275685Y0053505D01*
X0275685Y0053106D02*
X0273677Y0053106D01*
X0273677Y0052708D02*
X0275685Y0052708D01*
X0273677Y0052309D02*
X0284504Y0052309D01*
X0284504Y0051911D02*
X0273677Y0051911D01*
X0273677Y0051512D02*
X0284504Y0051512D01*
X0284504Y0051114D02*
X0273677Y0051114D01*
X0273677Y0050715D02*
X0284504Y0050715D01*
X0284504Y0050317D02*
X0282575Y0050317D01*
X0282575Y0049918D02*
X0284504Y0049918D01*
X0284504Y0049520D02*
X0282575Y0049520D01*
X0282575Y0049121D02*
X0284504Y0049121D01*
X0284504Y0048723D02*
X0282575Y0048723D01*
X0282575Y0048324D02*
X0284504Y0048324D01*
X0284504Y0047926D02*
X0282575Y0047926D01*
X0282575Y0047527D02*
X0284504Y0047527D01*
X0284504Y0047129D02*
X0282575Y0047129D01*
X0282575Y0046730D02*
X0284504Y0046730D01*
X0284504Y0046332D02*
X0282575Y0046332D01*
X0282575Y0045933D02*
X0284504Y0045933D01*
X0284504Y0045535D02*
X0282575Y0045535D01*
X0282575Y0045136D02*
X0284504Y0045136D01*
X0284504Y0044738D02*
X0282575Y0044738D01*
X0282575Y0044339D02*
X0284504Y0044339D01*
X0284504Y0043941D02*
X0273717Y0043941D01*
X0273717Y0043542D02*
X0284504Y0043542D01*
X0284504Y0043144D02*
X0273717Y0043144D01*
X0273717Y0042745D02*
X0284504Y0042745D01*
X0284504Y0042347D02*
X0273717Y0042347D01*
X0273717Y0041948D02*
X0275685Y0041948D01*
X0275685Y0041550D02*
X0273717Y0041550D01*
X0273717Y0041151D02*
X0275685Y0041151D01*
X0275685Y0040753D02*
X0273717Y0040753D01*
X0273717Y0040354D02*
X0275685Y0040354D01*
X0275685Y0039956D02*
X0273717Y0039956D01*
X0273717Y0039557D02*
X0275685Y0039557D01*
X0275685Y0039159D02*
X0273717Y0039159D01*
X0273717Y0038760D02*
X0275685Y0038760D01*
X0275685Y0038362D02*
X0273717Y0038362D01*
X0273717Y0037963D02*
X0275685Y0037963D01*
X0275685Y0037565D02*
X0273717Y0037565D01*
X0273717Y0037166D02*
X0275685Y0037166D01*
X0275685Y0036768D02*
X0273717Y0036768D01*
X0273717Y0036369D02*
X0275685Y0036369D01*
X0275685Y0035970D02*
X0273717Y0035970D01*
X0273717Y0035572D02*
X0275685Y0035572D01*
X0275685Y0035173D02*
X0273717Y0035173D01*
X0273717Y0034775D02*
X0275685Y0034775D01*
X0275685Y0034376D02*
X0273717Y0034376D01*
X0273717Y0033978D02*
X0284543Y0033978D01*
X0284543Y0033579D02*
X0273717Y0033579D01*
X0273717Y0033181D02*
X0284543Y0033181D01*
X0284543Y0032782D02*
X0273717Y0032782D01*
X0273717Y0032384D02*
X0284543Y0032384D01*
X0284543Y0031985D02*
X0282575Y0031985D01*
X0282575Y0031587D02*
X0284543Y0031587D01*
X0284543Y0031188D02*
X0282575Y0031188D01*
X0282575Y0030790D02*
X0284543Y0030790D01*
X0284543Y0030391D02*
X0282575Y0030391D01*
X0282575Y0029993D02*
X0284543Y0029993D01*
X0284543Y0029594D02*
X0282575Y0029594D01*
X0282575Y0029196D02*
X0284543Y0029196D01*
X0284543Y0028797D02*
X0282575Y0028797D01*
X0282575Y0028399D02*
X0284543Y0028399D01*
X0284543Y0028000D02*
X0282575Y0028000D01*
X0282575Y0027602D02*
X0284543Y0027602D01*
X0284543Y0027203D02*
X0282575Y0027203D01*
X0282575Y0026805D02*
X0284543Y0026805D01*
X0284543Y0026406D02*
X0282575Y0026406D01*
X0282575Y0026008D02*
X0284543Y0026008D01*
X0284543Y0025609D02*
X0282575Y0025609D01*
X0284543Y0025211D02*
X0267102Y0025211D01*
X0267102Y0024812D02*
X0284543Y0024812D01*
X0284543Y0024414D02*
X0267102Y0024414D01*
X0267102Y0024015D02*
X0284543Y0024015D01*
X0284543Y0023617D02*
X0267102Y0023617D01*
M02*
