G75*
%MOIN*%
%OFA0B0*%
%FSLAX25Y25*%
%IPPOS*%
%LPD*%
%AMOC8*
5,1,8,0,0,1.08239X$1,22.5*
%
%ADD10R,0.01969X0.03543*%
%ADD11R,0.01969X0.01969*%
%ADD12R,0.03937X0.04331*%
%ADD13R,0.04331X0.03937*%
%ADD14R,0.04724X0.05512*%
%ADD15R,0.07098X0.06299*%
%ADD16R,0.02000X0.05000*%
%ADD17R,0.02756X0.01378*%
%ADD18R,0.03820X0.03543*%
%ADD19R,0.03820X0.03672*%
%ADD20R,0.03543X0.03820*%
%ADD21R,0.03672X0.03820*%
%ADD22R,0.03937X0.03937*%
%ADD23R,0.05791X0.01896*%
%ADD24R,0.03687X0.01039*%
%ADD25R,0.01039X0.03386*%
%ADD26R,0.20276X0.20276*%
%ADD27R,0.06693X0.09449*%
D10*
X0264272Y0074528D03*
D11*
X0264272Y0066261D03*
D12*
X0211976Y0082954D03*
X0211976Y0089646D03*
X0149976Y0079646D03*
X0149976Y0072954D03*
X0149976Y0039646D03*
X0149976Y0032954D03*
X0134976Y0032954D03*
X0134976Y0039646D03*
X0077323Y0148300D03*
X0070630Y0148300D03*
X0057323Y0148300D03*
X0050630Y0148300D03*
X0023976Y0168954D03*
X0023976Y0175646D03*
X0141630Y0196300D03*
X0148323Y0196300D03*
X0171630Y0196300D03*
X0178323Y0196300D03*
X0178323Y0176300D03*
X0171630Y0176300D03*
X0171630Y0156300D03*
X0178323Y0156300D03*
D13*
X0143323Y0126300D03*
X0136630Y0126300D03*
X0123323Y0126300D03*
X0116630Y0126300D03*
X0103323Y0126300D03*
X0096630Y0126300D03*
X0084976Y0069646D03*
X0084976Y0062954D03*
X0068323Y0056300D03*
X0061630Y0056300D03*
X0061630Y0036300D03*
X0068323Y0036300D03*
X0091630Y0016300D03*
X0098323Y0016300D03*
X0111630Y0016300D03*
X0118323Y0016300D03*
X0166630Y0059300D03*
X0173323Y0059300D03*
X0231630Y0066300D03*
X0238323Y0066300D03*
X0251630Y0066300D03*
X0258323Y0066300D03*
X0057323Y0193300D03*
X0050630Y0193300D03*
D14*
X0194071Y0196300D03*
X0205882Y0196300D03*
X0205882Y0176300D03*
X0194071Y0176300D03*
X0194071Y0156300D03*
X0205882Y0156300D03*
D15*
X0029976Y0156898D03*
X0029976Y0145702D03*
D16*
X0024976Y0026800D03*
X0029976Y0026800D03*
X0034976Y0026800D03*
X0039976Y0026800D03*
X0044976Y0026800D03*
X0044976Y0045800D03*
X0039976Y0045800D03*
X0034976Y0045800D03*
X0029976Y0045800D03*
X0024976Y0045800D03*
D17*
X0038598Y0100473D03*
X0038598Y0102442D03*
X0038598Y0104410D03*
X0038598Y0106379D03*
X0038598Y0108347D03*
X0038598Y0110316D03*
X0038598Y0112284D03*
X0038598Y0114253D03*
X0038598Y0116221D03*
X0038598Y0118190D03*
X0038598Y0120158D03*
X0038598Y0122127D03*
D18*
X0083976Y0169209D03*
X0149976Y0059391D03*
D19*
X0149976Y0053273D03*
X0083976Y0175327D03*
D20*
X0068067Y0076300D03*
X0166885Y0073300D03*
X0191885Y0066300D03*
X0211885Y0066300D03*
D21*
X0218003Y0066300D03*
X0198003Y0066300D03*
X0173003Y0073300D03*
X0061950Y0076300D03*
D22*
X0054976Y0097363D03*
X0054976Y0105237D03*
X0054976Y0117363D03*
X0054976Y0125237D03*
D23*
X0062439Y0164461D03*
X0062439Y0167020D03*
X0062439Y0169580D03*
X0062439Y0172139D03*
X0045513Y0172139D03*
X0045513Y0169580D03*
X0045513Y0167020D03*
X0045513Y0164461D03*
D24*
X0101632Y0087127D03*
X0101632Y0085158D03*
X0101632Y0083190D03*
X0101632Y0081221D03*
X0101632Y0079253D03*
X0101632Y0077284D03*
X0101632Y0075316D03*
X0101632Y0073347D03*
X0101632Y0071379D03*
X0101632Y0069410D03*
X0101632Y0067442D03*
X0101632Y0065473D03*
X0128320Y0065473D03*
X0128320Y0067442D03*
X0128320Y0069410D03*
X0128320Y0071379D03*
X0128320Y0073347D03*
X0128320Y0075316D03*
X0128320Y0077284D03*
X0128320Y0079253D03*
X0128320Y0081221D03*
X0128320Y0083190D03*
X0128320Y0085158D03*
X0128320Y0087127D03*
D25*
X0125803Y0089822D03*
X0123835Y0089822D03*
X0121866Y0089822D03*
X0119898Y0089822D03*
X0117929Y0089822D03*
X0115961Y0089822D03*
X0113992Y0089822D03*
X0112024Y0089822D03*
X0110055Y0089822D03*
X0108087Y0089822D03*
X0106118Y0089822D03*
X0104150Y0089822D03*
X0104150Y0062778D03*
X0106118Y0062778D03*
X0108087Y0062778D03*
X0110055Y0062778D03*
X0112024Y0062778D03*
X0113992Y0062778D03*
X0115961Y0062778D03*
X0117929Y0062778D03*
X0119898Y0062778D03*
X0121866Y0062778D03*
X0123835Y0062778D03*
X0125803Y0062778D03*
D26*
X0114976Y0076300D03*
D27*
X0112260Y0036300D03*
X0097693Y0036300D03*
M02*
