G75*
%MOIN*%
%OFA0B0*%
%FSLAX25Y25*%
%IPPOS*%
%LPD*%
%AMOC8*
5,1,8,0,0,1.08239X$1,22.5*
%
%ADD10C,0.01000*%
%ADD11C,0.00800*%
%ADD12C,0.00400*%
%ADD13C,0.00500*%
%ADD14C,0.00787*%
%ADD15C,0.00472*%
%ADD16C,0.00300*%
%ADD17C,0.01969*%
%ADD18C,0.00600*%
%ADD19C,0.01600*%
%ADD20R,0.01600X0.02300*%
D10*
X0022476Y0021300D02*
X0022478Y0021399D01*
X0022484Y0021499D01*
X0022494Y0021598D01*
X0022508Y0021696D01*
X0022525Y0021794D01*
X0022547Y0021891D01*
X0022572Y0021987D01*
X0022601Y0022082D01*
X0022634Y0022176D01*
X0022671Y0022268D01*
X0022711Y0022359D01*
X0022755Y0022448D01*
X0022803Y0022536D01*
X0022854Y0022621D01*
X0022908Y0022704D01*
X0022965Y0022786D01*
X0023026Y0022864D01*
X0023090Y0022941D01*
X0023156Y0023014D01*
X0023226Y0023085D01*
X0023298Y0023153D01*
X0023373Y0023219D01*
X0023451Y0023281D01*
X0023531Y0023340D01*
X0023613Y0023396D01*
X0023697Y0023448D01*
X0023784Y0023497D01*
X0023872Y0023543D01*
X0023962Y0023585D01*
X0024054Y0023624D01*
X0024147Y0023659D01*
X0024241Y0023690D01*
X0024337Y0023717D01*
X0024434Y0023740D01*
X0024531Y0023760D01*
X0024629Y0023776D01*
X0024728Y0023788D01*
X0024827Y0023796D01*
X0024926Y0023800D01*
X0025026Y0023800D01*
X0025125Y0023796D01*
X0025224Y0023788D01*
X0025323Y0023776D01*
X0025421Y0023760D01*
X0025518Y0023740D01*
X0025615Y0023717D01*
X0025711Y0023690D01*
X0025805Y0023659D01*
X0025898Y0023624D01*
X0025990Y0023585D01*
X0026080Y0023543D01*
X0026168Y0023497D01*
X0026255Y0023448D01*
X0026339Y0023396D01*
X0026421Y0023340D01*
X0026501Y0023281D01*
X0026579Y0023219D01*
X0026654Y0023153D01*
X0026726Y0023085D01*
X0026796Y0023014D01*
X0026862Y0022941D01*
X0026926Y0022864D01*
X0026987Y0022786D01*
X0027044Y0022704D01*
X0027098Y0022621D01*
X0027149Y0022536D01*
X0027197Y0022448D01*
X0027241Y0022359D01*
X0027281Y0022268D01*
X0027318Y0022176D01*
X0027351Y0022082D01*
X0027380Y0021987D01*
X0027405Y0021891D01*
X0027427Y0021794D01*
X0027444Y0021696D01*
X0027458Y0021598D01*
X0027468Y0021499D01*
X0027474Y0021399D01*
X0027476Y0021300D01*
X0027474Y0021201D01*
X0027468Y0021101D01*
X0027458Y0021002D01*
X0027444Y0020904D01*
X0027427Y0020806D01*
X0027405Y0020709D01*
X0027380Y0020613D01*
X0027351Y0020518D01*
X0027318Y0020424D01*
X0027281Y0020332D01*
X0027241Y0020241D01*
X0027197Y0020152D01*
X0027149Y0020064D01*
X0027098Y0019979D01*
X0027044Y0019896D01*
X0026987Y0019814D01*
X0026926Y0019736D01*
X0026862Y0019659D01*
X0026796Y0019586D01*
X0026726Y0019515D01*
X0026654Y0019447D01*
X0026579Y0019381D01*
X0026501Y0019319D01*
X0026421Y0019260D01*
X0026339Y0019204D01*
X0026255Y0019152D01*
X0026168Y0019103D01*
X0026080Y0019057D01*
X0025990Y0019015D01*
X0025898Y0018976D01*
X0025805Y0018941D01*
X0025711Y0018910D01*
X0025615Y0018883D01*
X0025518Y0018860D01*
X0025421Y0018840D01*
X0025323Y0018824D01*
X0025224Y0018812D01*
X0025125Y0018804D01*
X0025026Y0018800D01*
X0024926Y0018800D01*
X0024827Y0018804D01*
X0024728Y0018812D01*
X0024629Y0018824D01*
X0024531Y0018840D01*
X0024434Y0018860D01*
X0024337Y0018883D01*
X0024241Y0018910D01*
X0024147Y0018941D01*
X0024054Y0018976D01*
X0023962Y0019015D01*
X0023872Y0019057D01*
X0023784Y0019103D01*
X0023697Y0019152D01*
X0023613Y0019204D01*
X0023531Y0019260D01*
X0023451Y0019319D01*
X0023373Y0019381D01*
X0023298Y0019447D01*
X0023226Y0019515D01*
X0023156Y0019586D01*
X0023090Y0019659D01*
X0023026Y0019736D01*
X0022965Y0019814D01*
X0022908Y0019896D01*
X0022854Y0019979D01*
X0022803Y0020064D01*
X0022755Y0020152D01*
X0022711Y0020241D01*
X0022671Y0020332D01*
X0022634Y0020424D01*
X0022601Y0020518D01*
X0022572Y0020613D01*
X0022547Y0020709D01*
X0022525Y0020806D01*
X0022508Y0020904D01*
X0022494Y0021002D01*
X0022484Y0021101D01*
X0022478Y0021201D01*
X0022476Y0021300D01*
X0018476Y0033800D02*
X0018476Y0034244D01*
X0018477Y0034244D02*
X0018475Y0034302D01*
X0018469Y0034360D01*
X0018460Y0034417D01*
X0018447Y0034474D01*
X0018430Y0034530D01*
X0018409Y0034584D01*
X0018385Y0034637D01*
X0018358Y0034689D01*
X0018327Y0034738D01*
X0018293Y0034785D01*
X0018256Y0034830D01*
X0018217Y0034873D01*
X0018174Y0034912D01*
X0018129Y0034949D01*
X0018082Y0034983D01*
X0018033Y0035014D01*
X0017981Y0035041D01*
X0017928Y0035065D01*
X0017874Y0035086D01*
X0017818Y0035103D01*
X0017761Y0035116D01*
X0017704Y0035125D01*
X0017646Y0035131D01*
X0017588Y0035133D01*
X0014476Y0035133D01*
X0015365Y0037529D02*
X0014476Y0038640D01*
X0018476Y0038640D01*
X0018476Y0037529D02*
X0018476Y0039751D01*
X0101504Y0028406D02*
X0102837Y0026517D01*
X0102837Y0024406D01*
X0102837Y0026517D02*
X0104171Y0028406D01*
X0108116Y0026628D02*
X0108159Y0026672D01*
X0108201Y0026719D01*
X0108239Y0026768D01*
X0108274Y0026819D01*
X0108307Y0026872D01*
X0108336Y0026927D01*
X0108362Y0026983D01*
X0108385Y0027041D01*
X0108404Y0027100D01*
X0108420Y0027160D01*
X0108433Y0027221D01*
X0108442Y0027282D01*
X0108447Y0027344D01*
X0108449Y0027406D01*
X0108115Y0026629D02*
X0106226Y0024406D01*
X0108449Y0024406D01*
X0106227Y0027518D02*
X0106250Y0027584D01*
X0106277Y0027649D01*
X0106308Y0027712D01*
X0106342Y0027774D01*
X0106379Y0027833D01*
X0106419Y0027891D01*
X0106463Y0027946D01*
X0106509Y0027998D01*
X0106559Y0028049D01*
X0106611Y0028096D01*
X0106665Y0028140D01*
X0106722Y0028181D01*
X0106781Y0028220D01*
X0106842Y0028255D01*
X0106905Y0028286D01*
X0106969Y0028314D01*
X0107035Y0028338D01*
X0107102Y0028359D01*
X0107170Y0028376D01*
X0107239Y0028390D01*
X0107309Y0028399D01*
X0107379Y0028405D01*
X0107449Y0028407D01*
X0107449Y0028406D02*
X0107509Y0028404D01*
X0107570Y0028399D01*
X0107629Y0028390D01*
X0107688Y0028377D01*
X0107747Y0028361D01*
X0107804Y0028341D01*
X0107859Y0028318D01*
X0107914Y0028291D01*
X0107966Y0028262D01*
X0108017Y0028229D01*
X0108066Y0028193D01*
X0108112Y0028155D01*
X0108156Y0028113D01*
X0108198Y0028069D01*
X0108236Y0028023D01*
X0108272Y0027974D01*
X0108305Y0027923D01*
X0108334Y0027871D01*
X0108361Y0027816D01*
X0108384Y0027761D01*
X0108404Y0027704D01*
X0108420Y0027645D01*
X0108433Y0027586D01*
X0108442Y0027527D01*
X0108447Y0027466D01*
X0108449Y0027406D01*
X0162476Y0134800D02*
X0162921Y0134800D01*
X0162979Y0134802D01*
X0163037Y0134808D01*
X0163094Y0134817D01*
X0163151Y0134830D01*
X0163207Y0134847D01*
X0163261Y0134868D01*
X0163314Y0134892D01*
X0163366Y0134919D01*
X0163415Y0134950D01*
X0163462Y0134984D01*
X0163507Y0135021D01*
X0163550Y0135060D01*
X0163589Y0135103D01*
X0163626Y0135148D01*
X0163660Y0135195D01*
X0163691Y0135245D01*
X0163718Y0135296D01*
X0163742Y0135349D01*
X0163763Y0135403D01*
X0163780Y0135459D01*
X0163793Y0135516D01*
X0163802Y0135573D01*
X0163808Y0135631D01*
X0163810Y0135689D01*
X0163810Y0138800D01*
X0166205Y0138800D02*
X0167539Y0138800D01*
X0167597Y0138798D01*
X0167655Y0138792D01*
X0167712Y0138783D01*
X0167769Y0138770D01*
X0167825Y0138753D01*
X0167879Y0138732D01*
X0167932Y0138708D01*
X0167984Y0138681D01*
X0168033Y0138650D01*
X0168080Y0138616D01*
X0168125Y0138579D01*
X0168168Y0138540D01*
X0168207Y0138497D01*
X0168244Y0138452D01*
X0168278Y0138405D01*
X0168309Y0138356D01*
X0168336Y0138304D01*
X0168360Y0138251D01*
X0168381Y0138197D01*
X0168398Y0138141D01*
X0168411Y0138084D01*
X0168420Y0138027D01*
X0168426Y0137969D01*
X0168428Y0137911D01*
X0168426Y0137853D01*
X0168420Y0137795D01*
X0168411Y0137738D01*
X0168398Y0137681D01*
X0168381Y0137625D01*
X0168360Y0137571D01*
X0168336Y0137518D01*
X0168309Y0137467D01*
X0168278Y0137417D01*
X0168244Y0137370D01*
X0168207Y0137325D01*
X0168168Y0137282D01*
X0168125Y0137243D01*
X0168080Y0137206D01*
X0168033Y0137172D01*
X0167984Y0137141D01*
X0167932Y0137114D01*
X0167879Y0137090D01*
X0167825Y0137069D01*
X0167769Y0137052D01*
X0167712Y0137039D01*
X0167655Y0137030D01*
X0167597Y0137024D01*
X0167539Y0137022D01*
X0166650Y0137022D01*
X0167317Y0137022D02*
X0167383Y0137020D01*
X0167448Y0137014D01*
X0167514Y0137004D01*
X0167578Y0136991D01*
X0167641Y0136974D01*
X0167704Y0136952D01*
X0167765Y0136928D01*
X0167824Y0136899D01*
X0167882Y0136868D01*
X0167938Y0136832D01*
X0167991Y0136794D01*
X0168042Y0136753D01*
X0168091Y0136708D01*
X0168137Y0136661D01*
X0168180Y0136611D01*
X0168220Y0136559D01*
X0168256Y0136504D01*
X0168290Y0136447D01*
X0168320Y0136389D01*
X0168347Y0136329D01*
X0168369Y0136267D01*
X0168389Y0136204D01*
X0168404Y0136140D01*
X0168416Y0136075D01*
X0168424Y0136010D01*
X0168428Y0135944D01*
X0168428Y0135878D01*
X0168424Y0135812D01*
X0168416Y0135747D01*
X0168404Y0135682D01*
X0168389Y0135618D01*
X0168369Y0135555D01*
X0168347Y0135493D01*
X0168320Y0135433D01*
X0168290Y0135375D01*
X0168256Y0135318D01*
X0168220Y0135263D01*
X0168180Y0135211D01*
X0168137Y0135161D01*
X0168091Y0135114D01*
X0168042Y0135069D01*
X0167991Y0135028D01*
X0167938Y0134990D01*
X0167882Y0134954D01*
X0167824Y0134923D01*
X0167765Y0134894D01*
X0167704Y0134870D01*
X0167641Y0134848D01*
X0167578Y0134831D01*
X0167514Y0134818D01*
X0167448Y0134808D01*
X0167383Y0134802D01*
X0167317Y0134800D01*
X0166205Y0134800D01*
X0195476Y0161050D02*
X0196587Y0161050D01*
X0195476Y0161050D02*
X0195476Y0165050D01*
X0196587Y0165050D01*
X0196652Y0165048D01*
X0196716Y0165042D01*
X0196780Y0165033D01*
X0196843Y0165020D01*
X0196906Y0165003D01*
X0196967Y0164983D01*
X0197027Y0164959D01*
X0197086Y0164932D01*
X0197143Y0164901D01*
X0197198Y0164867D01*
X0197250Y0164830D01*
X0197301Y0164790D01*
X0197349Y0164747D01*
X0197395Y0164701D01*
X0197438Y0164653D01*
X0197478Y0164602D01*
X0197515Y0164549D01*
X0197549Y0164494D01*
X0197580Y0164438D01*
X0197607Y0164379D01*
X0197631Y0164319D01*
X0197651Y0164258D01*
X0197668Y0164195D01*
X0197681Y0164132D01*
X0197690Y0164068D01*
X0197696Y0164004D01*
X0197698Y0163939D01*
X0197699Y0163939D02*
X0197699Y0162161D01*
X0197698Y0162161D02*
X0197696Y0162096D01*
X0197690Y0162032D01*
X0197681Y0161968D01*
X0197668Y0161905D01*
X0197651Y0161842D01*
X0197631Y0161781D01*
X0197607Y0161721D01*
X0197580Y0161662D01*
X0197549Y0161606D01*
X0197515Y0161550D01*
X0197478Y0161498D01*
X0197438Y0161447D01*
X0197395Y0161399D01*
X0197349Y0161353D01*
X0197301Y0161310D01*
X0197250Y0161270D01*
X0197198Y0161233D01*
X0197143Y0161199D01*
X0197086Y0161168D01*
X0197027Y0161141D01*
X0196967Y0161117D01*
X0196906Y0161097D01*
X0196843Y0161080D01*
X0196780Y0161067D01*
X0196716Y0161058D01*
X0196652Y0161052D01*
X0196587Y0161050D01*
X0200126Y0161050D02*
X0201237Y0161050D01*
X0201303Y0161052D01*
X0201368Y0161058D01*
X0201434Y0161068D01*
X0201498Y0161081D01*
X0201561Y0161098D01*
X0201624Y0161120D01*
X0201685Y0161144D01*
X0201744Y0161173D01*
X0201802Y0161204D01*
X0201858Y0161240D01*
X0201911Y0161278D01*
X0201962Y0161319D01*
X0202011Y0161364D01*
X0202057Y0161411D01*
X0202100Y0161461D01*
X0202140Y0161513D01*
X0202176Y0161568D01*
X0202210Y0161625D01*
X0202240Y0161683D01*
X0202267Y0161743D01*
X0202289Y0161805D01*
X0202309Y0161868D01*
X0202324Y0161932D01*
X0202336Y0161997D01*
X0202344Y0162062D01*
X0202348Y0162128D01*
X0202348Y0162194D01*
X0202344Y0162260D01*
X0202336Y0162325D01*
X0202324Y0162390D01*
X0202309Y0162454D01*
X0202289Y0162517D01*
X0202267Y0162579D01*
X0202240Y0162639D01*
X0202210Y0162697D01*
X0202176Y0162754D01*
X0202140Y0162809D01*
X0202100Y0162861D01*
X0202057Y0162911D01*
X0202011Y0162958D01*
X0201962Y0163003D01*
X0201911Y0163044D01*
X0201858Y0163082D01*
X0201802Y0163118D01*
X0201744Y0163149D01*
X0201685Y0163178D01*
X0201624Y0163202D01*
X0201561Y0163224D01*
X0201498Y0163241D01*
X0201434Y0163254D01*
X0201368Y0163264D01*
X0201303Y0163270D01*
X0201237Y0163272D01*
X0201460Y0163272D02*
X0200571Y0163272D01*
X0201460Y0163272D02*
X0201518Y0163274D01*
X0201576Y0163280D01*
X0201633Y0163289D01*
X0201690Y0163302D01*
X0201746Y0163319D01*
X0201800Y0163340D01*
X0201853Y0163364D01*
X0201905Y0163391D01*
X0201954Y0163422D01*
X0202001Y0163456D01*
X0202046Y0163493D01*
X0202089Y0163532D01*
X0202128Y0163575D01*
X0202165Y0163620D01*
X0202199Y0163667D01*
X0202230Y0163717D01*
X0202257Y0163768D01*
X0202281Y0163821D01*
X0202302Y0163875D01*
X0202319Y0163931D01*
X0202332Y0163988D01*
X0202341Y0164045D01*
X0202347Y0164103D01*
X0202349Y0164161D01*
X0202347Y0164219D01*
X0202341Y0164277D01*
X0202332Y0164334D01*
X0202319Y0164391D01*
X0202302Y0164447D01*
X0202281Y0164501D01*
X0202257Y0164554D01*
X0202230Y0164606D01*
X0202199Y0164655D01*
X0202165Y0164702D01*
X0202128Y0164747D01*
X0202089Y0164790D01*
X0202046Y0164829D01*
X0202001Y0164866D01*
X0201954Y0164900D01*
X0201905Y0164931D01*
X0201853Y0164958D01*
X0201800Y0164982D01*
X0201746Y0165003D01*
X0201690Y0165020D01*
X0201633Y0165033D01*
X0201576Y0165042D01*
X0201518Y0165048D01*
X0201460Y0165050D01*
X0200126Y0165050D01*
X0200126Y0181050D02*
X0202349Y0181050D01*
X0200126Y0181050D02*
X0202015Y0183272D01*
X0201349Y0185050D02*
X0201279Y0185048D01*
X0201209Y0185042D01*
X0201139Y0185033D01*
X0201070Y0185019D01*
X0201002Y0185002D01*
X0200935Y0184981D01*
X0200869Y0184957D01*
X0200805Y0184929D01*
X0200742Y0184898D01*
X0200681Y0184863D01*
X0200622Y0184824D01*
X0200565Y0184783D01*
X0200511Y0184739D01*
X0200459Y0184692D01*
X0200409Y0184641D01*
X0200363Y0184589D01*
X0200319Y0184534D01*
X0200279Y0184476D01*
X0200242Y0184417D01*
X0200208Y0184355D01*
X0200177Y0184292D01*
X0200150Y0184227D01*
X0200127Y0184161D01*
X0202016Y0183272D02*
X0202059Y0183316D01*
X0202101Y0183363D01*
X0202139Y0183412D01*
X0202174Y0183463D01*
X0202207Y0183516D01*
X0202236Y0183571D01*
X0202262Y0183627D01*
X0202285Y0183685D01*
X0202304Y0183744D01*
X0202320Y0183804D01*
X0202333Y0183865D01*
X0202342Y0183926D01*
X0202347Y0183988D01*
X0202349Y0184050D01*
X0202347Y0184110D01*
X0202342Y0184171D01*
X0202333Y0184230D01*
X0202320Y0184289D01*
X0202304Y0184348D01*
X0202284Y0184405D01*
X0202261Y0184460D01*
X0202234Y0184515D01*
X0202205Y0184567D01*
X0202172Y0184618D01*
X0202136Y0184667D01*
X0202098Y0184713D01*
X0202056Y0184757D01*
X0202012Y0184799D01*
X0201966Y0184837D01*
X0201917Y0184873D01*
X0201866Y0184906D01*
X0201814Y0184935D01*
X0201759Y0184962D01*
X0201704Y0184985D01*
X0201647Y0185005D01*
X0201588Y0185021D01*
X0201529Y0185034D01*
X0201470Y0185043D01*
X0201409Y0185048D01*
X0201349Y0185050D01*
X0197699Y0183939D02*
X0197699Y0182161D01*
X0197698Y0182161D02*
X0197696Y0182096D01*
X0197690Y0182032D01*
X0197681Y0181968D01*
X0197668Y0181905D01*
X0197651Y0181842D01*
X0197631Y0181781D01*
X0197607Y0181721D01*
X0197580Y0181662D01*
X0197549Y0181606D01*
X0197515Y0181550D01*
X0197478Y0181498D01*
X0197438Y0181447D01*
X0197395Y0181399D01*
X0197349Y0181353D01*
X0197301Y0181310D01*
X0197250Y0181270D01*
X0197198Y0181233D01*
X0197143Y0181199D01*
X0197086Y0181168D01*
X0197027Y0181141D01*
X0196967Y0181117D01*
X0196906Y0181097D01*
X0196843Y0181080D01*
X0196780Y0181067D01*
X0196716Y0181058D01*
X0196652Y0181052D01*
X0196587Y0181050D01*
X0195476Y0181050D01*
X0195476Y0185050D01*
X0196587Y0185050D01*
X0196652Y0185048D01*
X0196716Y0185042D01*
X0196780Y0185033D01*
X0196843Y0185020D01*
X0196906Y0185003D01*
X0196967Y0184983D01*
X0197027Y0184959D01*
X0197086Y0184932D01*
X0197143Y0184901D01*
X0197198Y0184867D01*
X0197250Y0184830D01*
X0197301Y0184790D01*
X0197349Y0184747D01*
X0197395Y0184701D01*
X0197438Y0184653D01*
X0197478Y0184602D01*
X0197515Y0184549D01*
X0197549Y0184494D01*
X0197580Y0184438D01*
X0197607Y0184379D01*
X0197631Y0184319D01*
X0197651Y0184258D01*
X0197668Y0184195D01*
X0197681Y0184132D01*
X0197690Y0184068D01*
X0197696Y0184004D01*
X0197698Y0183939D01*
X0196587Y0201050D02*
X0195476Y0201050D01*
X0195476Y0205050D01*
X0196587Y0205050D01*
X0196652Y0205048D01*
X0196716Y0205042D01*
X0196780Y0205033D01*
X0196843Y0205020D01*
X0196906Y0205003D01*
X0196967Y0204983D01*
X0197027Y0204959D01*
X0197086Y0204932D01*
X0197143Y0204901D01*
X0197198Y0204867D01*
X0197250Y0204830D01*
X0197301Y0204790D01*
X0197349Y0204747D01*
X0197395Y0204701D01*
X0197438Y0204653D01*
X0197478Y0204602D01*
X0197515Y0204549D01*
X0197549Y0204494D01*
X0197580Y0204438D01*
X0197607Y0204379D01*
X0197631Y0204319D01*
X0197651Y0204258D01*
X0197668Y0204195D01*
X0197681Y0204132D01*
X0197690Y0204068D01*
X0197696Y0204004D01*
X0197698Y0203939D01*
X0197699Y0203939D02*
X0197699Y0202161D01*
X0197698Y0202161D02*
X0197696Y0202096D01*
X0197690Y0202032D01*
X0197681Y0201968D01*
X0197668Y0201905D01*
X0197651Y0201842D01*
X0197631Y0201781D01*
X0197607Y0201721D01*
X0197580Y0201662D01*
X0197549Y0201606D01*
X0197515Y0201550D01*
X0197478Y0201498D01*
X0197438Y0201447D01*
X0197395Y0201399D01*
X0197349Y0201353D01*
X0197301Y0201310D01*
X0197250Y0201270D01*
X0197198Y0201233D01*
X0197143Y0201199D01*
X0197086Y0201168D01*
X0197027Y0201141D01*
X0196967Y0201117D01*
X0196906Y0201097D01*
X0196843Y0201080D01*
X0196780Y0201067D01*
X0196716Y0201058D01*
X0196652Y0201052D01*
X0196587Y0201050D01*
X0200126Y0201050D02*
X0202349Y0201050D01*
X0201237Y0201050D02*
X0201237Y0205050D01*
X0200126Y0204161D01*
X0119476Y0153744D02*
X0119476Y0151522D01*
X0119476Y0152633D02*
X0115476Y0152633D01*
X0116365Y0151522D01*
X0115476Y0149467D02*
X0117365Y0148133D01*
X0119476Y0148133D01*
X0117365Y0148133D02*
X0115476Y0146800D01*
X0212476Y0136300D02*
X0212478Y0136399D01*
X0212484Y0136499D01*
X0212494Y0136598D01*
X0212508Y0136696D01*
X0212525Y0136794D01*
X0212547Y0136891D01*
X0212572Y0136987D01*
X0212601Y0137082D01*
X0212634Y0137176D01*
X0212671Y0137268D01*
X0212711Y0137359D01*
X0212755Y0137448D01*
X0212803Y0137536D01*
X0212854Y0137621D01*
X0212908Y0137704D01*
X0212965Y0137786D01*
X0213026Y0137864D01*
X0213090Y0137941D01*
X0213156Y0138014D01*
X0213226Y0138085D01*
X0213298Y0138153D01*
X0213373Y0138219D01*
X0213451Y0138281D01*
X0213531Y0138340D01*
X0213613Y0138396D01*
X0213697Y0138448D01*
X0213784Y0138497D01*
X0213872Y0138543D01*
X0213962Y0138585D01*
X0214054Y0138624D01*
X0214147Y0138659D01*
X0214241Y0138690D01*
X0214337Y0138717D01*
X0214434Y0138740D01*
X0214531Y0138760D01*
X0214629Y0138776D01*
X0214728Y0138788D01*
X0214827Y0138796D01*
X0214926Y0138800D01*
X0215026Y0138800D01*
X0215125Y0138796D01*
X0215224Y0138788D01*
X0215323Y0138776D01*
X0215421Y0138760D01*
X0215518Y0138740D01*
X0215615Y0138717D01*
X0215711Y0138690D01*
X0215805Y0138659D01*
X0215898Y0138624D01*
X0215990Y0138585D01*
X0216080Y0138543D01*
X0216168Y0138497D01*
X0216255Y0138448D01*
X0216339Y0138396D01*
X0216421Y0138340D01*
X0216501Y0138281D01*
X0216579Y0138219D01*
X0216654Y0138153D01*
X0216726Y0138085D01*
X0216796Y0138014D01*
X0216862Y0137941D01*
X0216926Y0137864D01*
X0216987Y0137786D01*
X0217044Y0137704D01*
X0217098Y0137621D01*
X0217149Y0137536D01*
X0217197Y0137448D01*
X0217241Y0137359D01*
X0217281Y0137268D01*
X0217318Y0137176D01*
X0217351Y0137082D01*
X0217380Y0136987D01*
X0217405Y0136891D01*
X0217427Y0136794D01*
X0217444Y0136696D01*
X0217458Y0136598D01*
X0217468Y0136499D01*
X0217474Y0136399D01*
X0217476Y0136300D01*
X0217474Y0136201D01*
X0217468Y0136101D01*
X0217458Y0136002D01*
X0217444Y0135904D01*
X0217427Y0135806D01*
X0217405Y0135709D01*
X0217380Y0135613D01*
X0217351Y0135518D01*
X0217318Y0135424D01*
X0217281Y0135332D01*
X0217241Y0135241D01*
X0217197Y0135152D01*
X0217149Y0135064D01*
X0217098Y0134979D01*
X0217044Y0134896D01*
X0216987Y0134814D01*
X0216926Y0134736D01*
X0216862Y0134659D01*
X0216796Y0134586D01*
X0216726Y0134515D01*
X0216654Y0134447D01*
X0216579Y0134381D01*
X0216501Y0134319D01*
X0216421Y0134260D01*
X0216339Y0134204D01*
X0216255Y0134152D01*
X0216168Y0134103D01*
X0216080Y0134057D01*
X0215990Y0134015D01*
X0215898Y0133976D01*
X0215805Y0133941D01*
X0215711Y0133910D01*
X0215615Y0133883D01*
X0215518Y0133860D01*
X0215421Y0133840D01*
X0215323Y0133824D01*
X0215224Y0133812D01*
X0215125Y0133804D01*
X0215026Y0133800D01*
X0214926Y0133800D01*
X0214827Y0133804D01*
X0214728Y0133812D01*
X0214629Y0133824D01*
X0214531Y0133840D01*
X0214434Y0133860D01*
X0214337Y0133883D01*
X0214241Y0133910D01*
X0214147Y0133941D01*
X0214054Y0133976D01*
X0213962Y0134015D01*
X0213872Y0134057D01*
X0213784Y0134103D01*
X0213697Y0134152D01*
X0213613Y0134204D01*
X0213531Y0134260D01*
X0213451Y0134319D01*
X0213373Y0134381D01*
X0213298Y0134447D01*
X0213226Y0134515D01*
X0213156Y0134586D01*
X0213090Y0134659D01*
X0213026Y0134736D01*
X0212965Y0134814D01*
X0212908Y0134896D01*
X0212854Y0134979D01*
X0212803Y0135064D01*
X0212755Y0135152D01*
X0212711Y0135241D01*
X0212671Y0135332D01*
X0212634Y0135424D01*
X0212601Y0135518D01*
X0212572Y0135613D01*
X0212547Y0135709D01*
X0212525Y0135806D01*
X0212508Y0135904D01*
X0212494Y0136002D01*
X0212484Y0136101D01*
X0212478Y0136201D01*
X0212476Y0136300D01*
D11*
X0212476Y0132800D02*
X0217476Y0132800D01*
X0217476Y0131300D02*
X0219976Y0128800D01*
X0219976Y0113800D01*
X0217476Y0111300D01*
X0219976Y0113800D01*
X0219976Y0128800D01*
X0217476Y0131300D01*
X0212476Y0131300D01*
X0209976Y0128800D01*
X0209976Y0113800D01*
X0207476Y0111300D01*
X0202476Y0111300D01*
X0199976Y0113800D01*
X0199976Y0128800D01*
X0197476Y0131300D01*
X0192476Y0131300D01*
X0189976Y0128800D01*
X0189976Y0113800D01*
X0187476Y0111300D01*
X0182476Y0111300D01*
X0179976Y0113800D01*
X0179976Y0128800D01*
X0177476Y0131300D01*
X0172476Y0131300D01*
X0169976Y0128800D01*
X0169976Y0113800D01*
X0167476Y0111300D01*
X0162476Y0111300D01*
X0159976Y0113800D01*
X0159976Y0128800D01*
X0162476Y0131300D01*
X0167476Y0131300D01*
X0169976Y0128800D01*
X0179976Y0128800D02*
X0182476Y0131300D01*
X0187476Y0131300D01*
X0189976Y0128800D01*
X0199976Y0128800D02*
X0202476Y0131300D01*
X0207476Y0131300D01*
X0209976Y0128800D01*
X0217476Y0131300D02*
X0219976Y0128800D01*
X0219976Y0113800D01*
X0217476Y0111300D01*
X0212476Y0111300D01*
X0209976Y0113800D01*
X0199976Y0113800D02*
X0197476Y0111300D01*
X0192476Y0111300D01*
X0189976Y0113800D01*
X0179976Y0113800D02*
X0177476Y0111300D01*
X0172476Y0111300D01*
X0169976Y0113800D01*
X0190528Y0153613D02*
X0190528Y0158987D01*
X0190528Y0173613D02*
X0190528Y0178987D01*
X0190528Y0193613D02*
X0190528Y0198987D01*
X0115213Y0042993D02*
X0094740Y0042993D01*
X0094740Y0041812D01*
X0094740Y0030788D02*
X0094740Y0029607D01*
X0115213Y0029607D01*
X0115213Y0030788D01*
X0115213Y0041812D02*
X0115213Y0042993D01*
X0175376Y0020900D02*
X0180487Y0020900D01*
X0177932Y0020900D02*
X0177932Y0011700D01*
X0184289Y0017833D02*
X0184437Y0017829D01*
X0184585Y0017822D01*
X0184733Y0017810D01*
X0184880Y0017795D01*
X0185028Y0017776D01*
X0185174Y0017753D01*
X0185320Y0017726D01*
X0185465Y0017696D01*
X0185609Y0017662D01*
X0185753Y0017624D01*
X0185895Y0017583D01*
X0186036Y0017538D01*
X0186177Y0017489D01*
X0186315Y0017437D01*
X0186453Y0017381D01*
X0186589Y0017322D01*
X0184289Y0017833D02*
X0184217Y0017832D01*
X0184145Y0017827D01*
X0184073Y0017818D01*
X0184002Y0017806D01*
X0183932Y0017789D01*
X0183863Y0017769D01*
X0183795Y0017745D01*
X0183728Y0017717D01*
X0183663Y0017686D01*
X0183600Y0017651D01*
X0183539Y0017613D01*
X0183480Y0017572D01*
X0183423Y0017527D01*
X0183369Y0017480D01*
X0183318Y0017429D01*
X0183269Y0017376D01*
X0183223Y0017320D01*
X0183181Y0017262D01*
X0183141Y0017202D01*
X0183105Y0017139D01*
X0183072Y0017075D01*
X0183043Y0017009D01*
X0183018Y0016942D01*
X0182996Y0016873D01*
X0182978Y0016803D01*
X0182964Y0016732D01*
X0182954Y0016661D01*
X0182947Y0016589D01*
X0182945Y0016517D01*
X0182946Y0016445D01*
X0182952Y0016373D01*
X0182961Y0016302D01*
X0182974Y0016231D01*
X0182991Y0016161D01*
X0183012Y0016092D01*
X0183037Y0016024D01*
X0183065Y0015958D01*
X0183096Y0015893D01*
X0183132Y0015830D01*
X0183170Y0015769D01*
X0183212Y0015710D01*
X0183257Y0015654D01*
X0183305Y0015600D01*
X0183356Y0015549D01*
X0183409Y0015501D01*
X0183465Y0015455D01*
X0183524Y0015413D01*
X0183584Y0015374D01*
X0183647Y0015339D01*
X0183712Y0015306D01*
X0183778Y0015278D01*
X0186334Y0014256D01*
X0186333Y0014255D02*
X0186399Y0014227D01*
X0186464Y0014194D01*
X0186527Y0014159D01*
X0186587Y0014120D01*
X0186646Y0014078D01*
X0186702Y0014032D01*
X0186755Y0013984D01*
X0186806Y0013933D01*
X0186854Y0013879D01*
X0186899Y0013823D01*
X0186941Y0013764D01*
X0186979Y0013703D01*
X0187015Y0013640D01*
X0187046Y0013575D01*
X0187074Y0013509D01*
X0187099Y0013441D01*
X0187120Y0013372D01*
X0187137Y0013302D01*
X0187150Y0013231D01*
X0187159Y0013160D01*
X0187165Y0013088D01*
X0187166Y0013016D01*
X0187164Y0012944D01*
X0187157Y0012872D01*
X0187147Y0012801D01*
X0187133Y0012730D01*
X0187115Y0012660D01*
X0187093Y0012591D01*
X0187068Y0012524D01*
X0187039Y0012458D01*
X0187006Y0012394D01*
X0186970Y0012331D01*
X0186930Y0012271D01*
X0186888Y0012213D01*
X0186842Y0012157D01*
X0186793Y0012104D01*
X0186742Y0012053D01*
X0186688Y0012006D01*
X0186631Y0011961D01*
X0186572Y0011920D01*
X0186511Y0011882D01*
X0186448Y0011847D01*
X0186383Y0011816D01*
X0186316Y0011788D01*
X0186248Y0011764D01*
X0186179Y0011744D01*
X0186109Y0011727D01*
X0186038Y0011715D01*
X0185966Y0011706D01*
X0185894Y0011701D01*
X0185822Y0011700D01*
X0190430Y0011700D02*
X0192985Y0011700D01*
X0193063Y0011702D01*
X0193140Y0011708D01*
X0193217Y0011718D01*
X0193294Y0011731D01*
X0193369Y0011749D01*
X0193444Y0011770D01*
X0193517Y0011795D01*
X0193590Y0011824D01*
X0193660Y0011857D01*
X0193729Y0011893D01*
X0193796Y0011932D01*
X0193861Y0011975D01*
X0193923Y0012021D01*
X0193984Y0012070D01*
X0194041Y0012122D01*
X0194096Y0012177D01*
X0194148Y0012234D01*
X0194197Y0012295D01*
X0194243Y0012357D01*
X0194286Y0012422D01*
X0194325Y0012489D01*
X0194361Y0012558D01*
X0194394Y0012628D01*
X0194423Y0012701D01*
X0194448Y0012774D01*
X0194469Y0012849D01*
X0194487Y0012924D01*
X0194500Y0013001D01*
X0194510Y0013078D01*
X0194516Y0013155D01*
X0194518Y0013233D01*
X0194518Y0016300D01*
X0194516Y0016375D01*
X0194511Y0016450D01*
X0194501Y0016525D01*
X0194489Y0016599D01*
X0194472Y0016672D01*
X0194452Y0016745D01*
X0194428Y0016816D01*
X0194401Y0016887D01*
X0194371Y0016955D01*
X0194337Y0017023D01*
X0194300Y0017088D01*
X0194260Y0017152D01*
X0194216Y0017213D01*
X0194170Y0017273D01*
X0194121Y0017329D01*
X0194069Y0017384D01*
X0194014Y0017436D01*
X0193958Y0017485D01*
X0193898Y0017531D01*
X0193837Y0017575D01*
X0193773Y0017615D01*
X0193708Y0017652D01*
X0193640Y0017686D01*
X0193572Y0017716D01*
X0193501Y0017743D01*
X0193430Y0017767D01*
X0193357Y0017787D01*
X0193284Y0017804D01*
X0193210Y0017816D01*
X0193135Y0017826D01*
X0193060Y0017831D01*
X0192985Y0017833D01*
X0190430Y0017833D01*
X0190430Y0008633D01*
X0202228Y0011700D02*
X0204784Y0011700D01*
X0204884Y0011702D01*
X0204985Y0011708D01*
X0205084Y0011718D01*
X0205184Y0011731D01*
X0205283Y0011749D01*
X0205381Y0011771D01*
X0205478Y0011796D01*
X0205574Y0011825D01*
X0205669Y0011858D01*
X0205762Y0011895D01*
X0205854Y0011935D01*
X0205944Y0011979D01*
X0206033Y0012026D01*
X0206119Y0012077D01*
X0206204Y0012131D01*
X0206286Y0012188D01*
X0206366Y0012249D01*
X0206444Y0012312D01*
X0206519Y0012379D01*
X0206591Y0012449D01*
X0206661Y0012521D01*
X0206728Y0012596D01*
X0206791Y0012674D01*
X0206852Y0012754D01*
X0206909Y0012836D01*
X0206963Y0012920D01*
X0207014Y0013007D01*
X0207061Y0013096D01*
X0207105Y0013186D01*
X0207145Y0013278D01*
X0207182Y0013371D01*
X0207215Y0013466D01*
X0207244Y0013562D01*
X0207269Y0013659D01*
X0207291Y0013757D01*
X0207309Y0013856D01*
X0207322Y0013956D01*
X0207332Y0014055D01*
X0207338Y0014156D01*
X0207340Y0014256D01*
X0207339Y0014256D02*
X0207339Y0018344D01*
X0207340Y0018344D02*
X0207338Y0018444D01*
X0207332Y0018545D01*
X0207322Y0018644D01*
X0207309Y0018744D01*
X0207291Y0018843D01*
X0207269Y0018941D01*
X0207244Y0019038D01*
X0207215Y0019134D01*
X0207182Y0019229D01*
X0207145Y0019322D01*
X0207105Y0019414D01*
X0207061Y0019504D01*
X0207014Y0019593D01*
X0206963Y0019680D01*
X0206909Y0019764D01*
X0206852Y0019846D01*
X0206791Y0019926D01*
X0206728Y0020004D01*
X0206661Y0020079D01*
X0206591Y0020151D01*
X0206519Y0020221D01*
X0206444Y0020288D01*
X0206366Y0020351D01*
X0206286Y0020412D01*
X0206204Y0020469D01*
X0206120Y0020523D01*
X0206033Y0020574D01*
X0205944Y0020621D01*
X0205854Y0020665D01*
X0205762Y0020705D01*
X0205669Y0020742D01*
X0205574Y0020775D01*
X0205478Y0020804D01*
X0205381Y0020829D01*
X0205283Y0020851D01*
X0205184Y0020869D01*
X0205084Y0020882D01*
X0204985Y0020892D01*
X0204884Y0020898D01*
X0204784Y0020900D01*
X0202228Y0020900D01*
X0202228Y0011700D01*
X0210685Y0013233D02*
X0210685Y0015789D01*
X0210685Y0014767D02*
X0214774Y0014767D01*
X0214774Y0015789D01*
X0214772Y0015878D01*
X0214766Y0015967D01*
X0214757Y0016056D01*
X0214743Y0016144D01*
X0214726Y0016231D01*
X0214704Y0016318D01*
X0214679Y0016404D01*
X0214651Y0016488D01*
X0214618Y0016571D01*
X0214582Y0016653D01*
X0214543Y0016733D01*
X0214500Y0016811D01*
X0214454Y0016887D01*
X0214404Y0016961D01*
X0214352Y0017033D01*
X0214296Y0017103D01*
X0214237Y0017170D01*
X0214175Y0017234D01*
X0214111Y0017296D01*
X0214044Y0017355D01*
X0213974Y0017411D01*
X0213902Y0017463D01*
X0213828Y0017513D01*
X0213752Y0017559D01*
X0213674Y0017602D01*
X0213594Y0017641D01*
X0213512Y0017677D01*
X0213429Y0017710D01*
X0213345Y0017738D01*
X0213259Y0017763D01*
X0213172Y0017785D01*
X0213085Y0017802D01*
X0212997Y0017816D01*
X0212908Y0017825D01*
X0212819Y0017831D01*
X0212730Y0017833D01*
X0212641Y0017831D01*
X0212552Y0017825D01*
X0212463Y0017816D01*
X0212375Y0017802D01*
X0212288Y0017785D01*
X0212201Y0017763D01*
X0212115Y0017738D01*
X0212031Y0017710D01*
X0211948Y0017677D01*
X0211866Y0017641D01*
X0211786Y0017602D01*
X0211708Y0017559D01*
X0211632Y0017513D01*
X0211558Y0017463D01*
X0211486Y0017411D01*
X0211416Y0017355D01*
X0211349Y0017296D01*
X0211285Y0017234D01*
X0211223Y0017170D01*
X0211164Y0017103D01*
X0211108Y0017033D01*
X0211056Y0016961D01*
X0211006Y0016887D01*
X0210960Y0016811D01*
X0210917Y0016733D01*
X0210878Y0016653D01*
X0210842Y0016571D01*
X0210809Y0016488D01*
X0210781Y0016404D01*
X0210756Y0016318D01*
X0210734Y0016231D01*
X0210717Y0016144D01*
X0210703Y0016056D01*
X0210694Y0015967D01*
X0210688Y0015878D01*
X0210686Y0015789D01*
X0210686Y0013233D02*
X0210688Y0013158D01*
X0210693Y0013083D01*
X0210703Y0013008D01*
X0210715Y0012934D01*
X0210732Y0012861D01*
X0210752Y0012788D01*
X0210776Y0012717D01*
X0210803Y0012646D01*
X0210833Y0012578D01*
X0210867Y0012510D01*
X0210904Y0012445D01*
X0210944Y0012381D01*
X0210988Y0012320D01*
X0211034Y0012260D01*
X0211083Y0012204D01*
X0211135Y0012149D01*
X0211190Y0012097D01*
X0211246Y0012048D01*
X0211306Y0012002D01*
X0211367Y0011958D01*
X0211431Y0011918D01*
X0211496Y0011881D01*
X0211564Y0011847D01*
X0211632Y0011817D01*
X0211703Y0011790D01*
X0211774Y0011766D01*
X0211847Y0011746D01*
X0211920Y0011729D01*
X0211994Y0011717D01*
X0212069Y0011707D01*
X0212144Y0011702D01*
X0212219Y0011700D01*
X0214774Y0011700D01*
X0219087Y0017833D02*
X0219235Y0017829D01*
X0219383Y0017822D01*
X0219531Y0017810D01*
X0219678Y0017795D01*
X0219826Y0017776D01*
X0219972Y0017753D01*
X0220118Y0017726D01*
X0220263Y0017696D01*
X0220407Y0017662D01*
X0220551Y0017624D01*
X0220693Y0017583D01*
X0220834Y0017538D01*
X0220975Y0017489D01*
X0221113Y0017437D01*
X0221251Y0017381D01*
X0221387Y0017322D01*
X0219087Y0017833D02*
X0219015Y0017832D01*
X0218943Y0017827D01*
X0218871Y0017818D01*
X0218800Y0017806D01*
X0218730Y0017789D01*
X0218661Y0017769D01*
X0218593Y0017745D01*
X0218526Y0017717D01*
X0218461Y0017686D01*
X0218398Y0017651D01*
X0218337Y0017613D01*
X0218278Y0017572D01*
X0218221Y0017527D01*
X0218167Y0017480D01*
X0218116Y0017429D01*
X0218067Y0017376D01*
X0218021Y0017320D01*
X0217979Y0017262D01*
X0217939Y0017202D01*
X0217903Y0017139D01*
X0217870Y0017075D01*
X0217841Y0017009D01*
X0217816Y0016942D01*
X0217794Y0016873D01*
X0217776Y0016803D01*
X0217762Y0016732D01*
X0217752Y0016661D01*
X0217745Y0016589D01*
X0217743Y0016517D01*
X0217744Y0016445D01*
X0217750Y0016373D01*
X0217759Y0016302D01*
X0217772Y0016231D01*
X0217789Y0016161D01*
X0217810Y0016092D01*
X0217835Y0016024D01*
X0217863Y0015958D01*
X0217894Y0015893D01*
X0217930Y0015830D01*
X0217968Y0015769D01*
X0218010Y0015710D01*
X0218055Y0015654D01*
X0218103Y0015600D01*
X0218154Y0015549D01*
X0218207Y0015501D01*
X0218263Y0015455D01*
X0218322Y0015413D01*
X0218382Y0015374D01*
X0218445Y0015339D01*
X0218510Y0015306D01*
X0218576Y0015278D01*
X0221132Y0014256D01*
X0221131Y0014255D02*
X0221197Y0014227D01*
X0221262Y0014194D01*
X0221325Y0014159D01*
X0221385Y0014120D01*
X0221444Y0014078D01*
X0221500Y0014032D01*
X0221553Y0013984D01*
X0221604Y0013933D01*
X0221652Y0013879D01*
X0221697Y0013823D01*
X0221739Y0013764D01*
X0221777Y0013703D01*
X0221813Y0013640D01*
X0221844Y0013575D01*
X0221872Y0013509D01*
X0221897Y0013441D01*
X0221918Y0013372D01*
X0221935Y0013302D01*
X0221948Y0013231D01*
X0221957Y0013160D01*
X0221963Y0013088D01*
X0221964Y0013016D01*
X0221962Y0012944D01*
X0221955Y0012872D01*
X0221945Y0012801D01*
X0221931Y0012730D01*
X0221913Y0012660D01*
X0221891Y0012591D01*
X0221866Y0012524D01*
X0221837Y0012458D01*
X0221804Y0012394D01*
X0221768Y0012331D01*
X0221728Y0012271D01*
X0221686Y0012213D01*
X0221640Y0012157D01*
X0221591Y0012104D01*
X0221540Y0012053D01*
X0221486Y0012006D01*
X0221429Y0011961D01*
X0221370Y0011920D01*
X0221309Y0011882D01*
X0221246Y0011847D01*
X0221181Y0011816D01*
X0221114Y0011788D01*
X0221046Y0011764D01*
X0220977Y0011744D01*
X0220907Y0011727D01*
X0220836Y0011715D01*
X0220764Y0011706D01*
X0220692Y0011701D01*
X0220620Y0011700D01*
X0225060Y0011700D02*
X0225060Y0017833D01*
X0225315Y0020389D02*
X0224804Y0020389D01*
X0224804Y0020900D01*
X0225315Y0020900D01*
X0225315Y0020389D01*
X0229735Y0017833D02*
X0232290Y0017833D01*
X0232290Y0010167D01*
X0232290Y0011700D02*
X0229735Y0011700D01*
X0229660Y0011702D01*
X0229585Y0011707D01*
X0229510Y0011717D01*
X0229436Y0011729D01*
X0229363Y0011746D01*
X0229290Y0011766D01*
X0229219Y0011790D01*
X0229148Y0011817D01*
X0229080Y0011847D01*
X0229012Y0011881D01*
X0228947Y0011918D01*
X0228883Y0011958D01*
X0228822Y0012002D01*
X0228762Y0012048D01*
X0228706Y0012097D01*
X0228651Y0012149D01*
X0228599Y0012204D01*
X0228550Y0012260D01*
X0228504Y0012320D01*
X0228460Y0012381D01*
X0228420Y0012445D01*
X0228383Y0012510D01*
X0228349Y0012578D01*
X0228319Y0012646D01*
X0228292Y0012717D01*
X0228268Y0012788D01*
X0228248Y0012861D01*
X0228231Y0012934D01*
X0228219Y0013008D01*
X0228209Y0013083D01*
X0228204Y0013158D01*
X0228202Y0013233D01*
X0228201Y0013233D02*
X0228201Y0016300D01*
X0228202Y0016300D02*
X0228204Y0016375D01*
X0228209Y0016450D01*
X0228219Y0016525D01*
X0228231Y0016599D01*
X0228248Y0016672D01*
X0228268Y0016745D01*
X0228292Y0016816D01*
X0228319Y0016887D01*
X0228349Y0016955D01*
X0228383Y0017023D01*
X0228420Y0017088D01*
X0228460Y0017152D01*
X0228504Y0017213D01*
X0228550Y0017273D01*
X0228599Y0017330D01*
X0228651Y0017384D01*
X0228706Y0017436D01*
X0228762Y0017485D01*
X0228822Y0017531D01*
X0228883Y0017575D01*
X0228947Y0017615D01*
X0229012Y0017652D01*
X0229080Y0017686D01*
X0229148Y0017716D01*
X0229219Y0017743D01*
X0229290Y0017767D01*
X0229363Y0017787D01*
X0229436Y0017804D01*
X0229510Y0017816D01*
X0229585Y0017826D01*
X0229660Y0017831D01*
X0229735Y0017833D01*
X0235893Y0017833D02*
X0238449Y0017833D01*
X0238524Y0017831D01*
X0238599Y0017826D01*
X0238674Y0017816D01*
X0238748Y0017804D01*
X0238821Y0017787D01*
X0238894Y0017767D01*
X0238965Y0017743D01*
X0239036Y0017716D01*
X0239104Y0017686D01*
X0239172Y0017652D01*
X0239237Y0017615D01*
X0239301Y0017575D01*
X0239362Y0017531D01*
X0239422Y0017485D01*
X0239478Y0017436D01*
X0239533Y0017384D01*
X0239585Y0017329D01*
X0239634Y0017273D01*
X0239680Y0017213D01*
X0239724Y0017152D01*
X0239764Y0017088D01*
X0239801Y0017023D01*
X0239835Y0016955D01*
X0239865Y0016887D01*
X0239892Y0016816D01*
X0239916Y0016745D01*
X0239936Y0016672D01*
X0239953Y0016599D01*
X0239965Y0016525D01*
X0239975Y0016450D01*
X0239980Y0016375D01*
X0239982Y0016300D01*
X0239982Y0011700D01*
X0235893Y0011700D02*
X0235893Y0017833D01*
X0244058Y0015278D02*
X0246613Y0014256D01*
X0246613Y0014255D02*
X0246679Y0014227D01*
X0246744Y0014194D01*
X0246807Y0014159D01*
X0246867Y0014120D01*
X0246926Y0014078D01*
X0246982Y0014032D01*
X0247035Y0013984D01*
X0247086Y0013933D01*
X0247134Y0013879D01*
X0247179Y0013823D01*
X0247221Y0013764D01*
X0247259Y0013703D01*
X0247295Y0013640D01*
X0247326Y0013575D01*
X0247354Y0013509D01*
X0247379Y0013441D01*
X0247400Y0013372D01*
X0247417Y0013302D01*
X0247430Y0013231D01*
X0247439Y0013160D01*
X0247445Y0013088D01*
X0247446Y0013016D01*
X0247444Y0012944D01*
X0247437Y0012872D01*
X0247427Y0012801D01*
X0247413Y0012730D01*
X0247395Y0012660D01*
X0247373Y0012591D01*
X0247348Y0012524D01*
X0247319Y0012458D01*
X0247286Y0012394D01*
X0247250Y0012331D01*
X0247210Y0012271D01*
X0247168Y0012213D01*
X0247122Y0012157D01*
X0247073Y0012104D01*
X0247022Y0012053D01*
X0246968Y0012006D01*
X0246911Y0011961D01*
X0246852Y0011920D01*
X0246791Y0011882D01*
X0246728Y0011847D01*
X0246663Y0011816D01*
X0246596Y0011788D01*
X0246528Y0011764D01*
X0246459Y0011744D01*
X0246389Y0011727D01*
X0246318Y0011715D01*
X0246246Y0011706D01*
X0246174Y0011701D01*
X0246102Y0011700D01*
X0246869Y0017322D02*
X0246733Y0017381D01*
X0246595Y0017437D01*
X0246457Y0017489D01*
X0246316Y0017538D01*
X0246175Y0017583D01*
X0246033Y0017624D01*
X0245889Y0017662D01*
X0245745Y0017696D01*
X0245600Y0017726D01*
X0245454Y0017753D01*
X0245308Y0017776D01*
X0245160Y0017795D01*
X0245013Y0017810D01*
X0244865Y0017822D01*
X0244717Y0017829D01*
X0244569Y0017833D01*
X0244497Y0017832D01*
X0244425Y0017827D01*
X0244353Y0017818D01*
X0244282Y0017806D01*
X0244212Y0017789D01*
X0244143Y0017769D01*
X0244075Y0017745D01*
X0244008Y0017717D01*
X0243943Y0017686D01*
X0243880Y0017651D01*
X0243819Y0017613D01*
X0243760Y0017572D01*
X0243703Y0017527D01*
X0243649Y0017480D01*
X0243598Y0017429D01*
X0243549Y0017376D01*
X0243503Y0017320D01*
X0243461Y0017262D01*
X0243421Y0017202D01*
X0243385Y0017139D01*
X0243352Y0017075D01*
X0243323Y0017009D01*
X0243298Y0016942D01*
X0243276Y0016873D01*
X0243258Y0016803D01*
X0243244Y0016732D01*
X0243234Y0016661D01*
X0243227Y0016589D01*
X0243225Y0016517D01*
X0243226Y0016445D01*
X0243232Y0016373D01*
X0243241Y0016302D01*
X0243254Y0016231D01*
X0243271Y0016161D01*
X0243292Y0016092D01*
X0243317Y0016024D01*
X0243345Y0015958D01*
X0243376Y0015893D01*
X0243412Y0015830D01*
X0243450Y0015769D01*
X0243492Y0015710D01*
X0243537Y0015654D01*
X0243585Y0015600D01*
X0243636Y0015549D01*
X0243689Y0015501D01*
X0243745Y0015455D01*
X0243804Y0015413D01*
X0243864Y0015374D01*
X0243927Y0015339D01*
X0243992Y0015306D01*
X0244058Y0015278D01*
X0243291Y0012211D02*
X0243485Y0012144D01*
X0243680Y0012081D01*
X0243877Y0012023D01*
X0244075Y0011970D01*
X0244274Y0011922D01*
X0244474Y0011878D01*
X0244675Y0011839D01*
X0244878Y0011805D01*
X0245080Y0011775D01*
X0245284Y0011750D01*
X0245488Y0011730D01*
X0245693Y0011715D01*
X0245897Y0011705D01*
X0246102Y0011700D01*
X0232290Y0010167D02*
X0232288Y0010089D01*
X0232282Y0010012D01*
X0232272Y0009935D01*
X0232259Y0009858D01*
X0232241Y0009783D01*
X0232220Y0009708D01*
X0232195Y0009635D01*
X0232166Y0009562D01*
X0232133Y0009492D01*
X0232097Y0009423D01*
X0232058Y0009356D01*
X0232015Y0009291D01*
X0231969Y0009229D01*
X0231920Y0009168D01*
X0231868Y0009111D01*
X0231813Y0009056D01*
X0231756Y0009004D01*
X0231695Y0008955D01*
X0231633Y0008909D01*
X0231568Y0008866D01*
X0231501Y0008827D01*
X0231432Y0008791D01*
X0231362Y0008758D01*
X0231289Y0008729D01*
X0231216Y0008704D01*
X0231141Y0008683D01*
X0231066Y0008665D01*
X0230989Y0008652D01*
X0230912Y0008642D01*
X0230835Y0008636D01*
X0230757Y0008634D01*
X0230757Y0008633D02*
X0228712Y0008633D01*
X0220620Y0011700D02*
X0220415Y0011705D01*
X0220211Y0011715D01*
X0220006Y0011730D01*
X0219802Y0011750D01*
X0219598Y0011775D01*
X0219396Y0011805D01*
X0219193Y0011839D01*
X0218992Y0011878D01*
X0218792Y0011922D01*
X0218593Y0011970D01*
X0218395Y0012023D01*
X0218198Y0012081D01*
X0218003Y0012144D01*
X0217809Y0012211D01*
X0185822Y0011700D02*
X0185617Y0011705D01*
X0185413Y0011715D01*
X0185208Y0011730D01*
X0185004Y0011750D01*
X0184800Y0011775D01*
X0184598Y0011805D01*
X0184395Y0011839D01*
X0184194Y0011878D01*
X0183994Y0011922D01*
X0183795Y0011970D01*
X0183597Y0012023D01*
X0183400Y0012081D01*
X0183205Y0012144D01*
X0183011Y0012211D01*
X0047476Y0029550D02*
X0046876Y0029550D01*
X0047476Y0029550D02*
X0047476Y0043050D01*
X0046876Y0043050D01*
X0043076Y0043050D02*
X0041876Y0043050D01*
X0038076Y0043050D02*
X0036876Y0043050D01*
X0033076Y0043050D02*
X0031876Y0043050D01*
X0028076Y0043050D02*
X0026876Y0043050D01*
X0023076Y0043050D02*
X0022476Y0043050D01*
X0022476Y0029550D01*
X0023076Y0029550D01*
X0026876Y0029550D02*
X0028076Y0029550D01*
X0031876Y0029550D02*
X0033076Y0029550D01*
X0036876Y0029550D02*
X0038076Y0029550D01*
X0041876Y0029550D02*
X0043076Y0029550D01*
D12*
X0059699Y0042000D02*
X0060721Y0042000D01*
X0059699Y0042000D02*
X0059637Y0042002D01*
X0059576Y0042007D01*
X0059515Y0042017D01*
X0059454Y0042030D01*
X0059395Y0042046D01*
X0059337Y0042066D01*
X0059280Y0042090D01*
X0059224Y0042117D01*
X0059170Y0042147D01*
X0059118Y0042181D01*
X0059069Y0042217D01*
X0059021Y0042257D01*
X0058976Y0042299D01*
X0058934Y0042344D01*
X0058894Y0042392D01*
X0058858Y0042441D01*
X0058824Y0042493D01*
X0058794Y0042547D01*
X0058767Y0042603D01*
X0058743Y0042660D01*
X0058723Y0042718D01*
X0058707Y0042777D01*
X0058694Y0042838D01*
X0058684Y0042899D01*
X0058679Y0042960D01*
X0058677Y0043022D01*
X0058676Y0043022D02*
X0058676Y0045578D01*
X0058677Y0045578D02*
X0058679Y0045640D01*
X0058684Y0045701D01*
X0058694Y0045762D01*
X0058707Y0045823D01*
X0058723Y0045882D01*
X0058743Y0045940D01*
X0058767Y0045997D01*
X0058794Y0046053D01*
X0058824Y0046107D01*
X0058858Y0046159D01*
X0058894Y0046208D01*
X0058934Y0046256D01*
X0058976Y0046301D01*
X0059021Y0046343D01*
X0059069Y0046382D01*
X0059118Y0046419D01*
X0059170Y0046453D01*
X0059224Y0046483D01*
X0059280Y0046510D01*
X0059337Y0046534D01*
X0059395Y0046554D01*
X0059454Y0046570D01*
X0059515Y0046583D01*
X0059576Y0046593D01*
X0059637Y0046598D01*
X0059699Y0046600D01*
X0060721Y0046600D01*
X0062439Y0045578D02*
X0063717Y0046600D01*
X0063717Y0042000D01*
X0062439Y0042000D02*
X0064995Y0042000D01*
X0066939Y0042000D02*
X0068217Y0042000D01*
X0068287Y0042002D01*
X0068358Y0042008D01*
X0068427Y0042017D01*
X0068496Y0042031D01*
X0068565Y0042048D01*
X0068632Y0042069D01*
X0068698Y0042094D01*
X0068762Y0042122D01*
X0068825Y0042154D01*
X0068886Y0042189D01*
X0068945Y0042228D01*
X0069002Y0042269D01*
X0069056Y0042314D01*
X0069108Y0042362D01*
X0069157Y0042412D01*
X0069204Y0042466D01*
X0069247Y0042521D01*
X0069287Y0042579D01*
X0069324Y0042639D01*
X0069357Y0042701D01*
X0069387Y0042765D01*
X0069414Y0042830D01*
X0069437Y0042896D01*
X0069456Y0042964D01*
X0069471Y0043033D01*
X0069483Y0043102D01*
X0069491Y0043172D01*
X0069495Y0043243D01*
X0069495Y0043313D01*
X0069491Y0043384D01*
X0069483Y0043454D01*
X0069471Y0043523D01*
X0069456Y0043592D01*
X0069437Y0043660D01*
X0069414Y0043726D01*
X0069387Y0043791D01*
X0069357Y0043855D01*
X0069324Y0043917D01*
X0069287Y0043977D01*
X0069247Y0044035D01*
X0069204Y0044090D01*
X0069157Y0044144D01*
X0069108Y0044194D01*
X0069056Y0044242D01*
X0069002Y0044287D01*
X0068945Y0044328D01*
X0068886Y0044367D01*
X0068825Y0044402D01*
X0068762Y0044434D01*
X0068698Y0044462D01*
X0068632Y0044487D01*
X0068565Y0044508D01*
X0068496Y0044525D01*
X0068427Y0044539D01*
X0068358Y0044548D01*
X0068287Y0044554D01*
X0068217Y0044556D01*
X0068473Y0044556D02*
X0067451Y0044556D01*
X0068473Y0044556D02*
X0068536Y0044558D01*
X0068599Y0044564D01*
X0068661Y0044573D01*
X0068722Y0044587D01*
X0068783Y0044604D01*
X0068842Y0044625D01*
X0068900Y0044650D01*
X0068957Y0044678D01*
X0069011Y0044709D01*
X0069063Y0044744D01*
X0069114Y0044782D01*
X0069162Y0044823D01*
X0069207Y0044867D01*
X0069249Y0044913D01*
X0069289Y0044962D01*
X0069325Y0045013D01*
X0069358Y0045067D01*
X0069388Y0045122D01*
X0069414Y0045180D01*
X0069437Y0045238D01*
X0069456Y0045298D01*
X0069471Y0045359D01*
X0069483Y0045421D01*
X0069491Y0045484D01*
X0069495Y0045547D01*
X0069495Y0045609D01*
X0069491Y0045672D01*
X0069483Y0045735D01*
X0069471Y0045797D01*
X0069456Y0045858D01*
X0069437Y0045918D01*
X0069414Y0045976D01*
X0069388Y0046034D01*
X0069358Y0046089D01*
X0069325Y0046143D01*
X0069289Y0046194D01*
X0069249Y0046243D01*
X0069207Y0046289D01*
X0069162Y0046333D01*
X0069114Y0046374D01*
X0069063Y0046412D01*
X0069011Y0046447D01*
X0068957Y0046478D01*
X0068900Y0046506D01*
X0068842Y0046531D01*
X0068783Y0046552D01*
X0068722Y0046569D01*
X0068661Y0046583D01*
X0068599Y0046592D01*
X0068536Y0046598D01*
X0068473Y0046600D01*
X0066939Y0046600D01*
X0066939Y0062000D02*
X0069495Y0062000D01*
X0066939Y0062000D02*
X0069112Y0064556D01*
X0068345Y0066600D02*
X0068271Y0066598D01*
X0068197Y0066593D01*
X0068123Y0066583D01*
X0068050Y0066570D01*
X0067977Y0066554D01*
X0067906Y0066533D01*
X0067836Y0066509D01*
X0067767Y0066482D01*
X0067699Y0066451D01*
X0067633Y0066417D01*
X0067569Y0066380D01*
X0067507Y0066339D01*
X0067447Y0066295D01*
X0067389Y0066249D01*
X0067333Y0066199D01*
X0067280Y0066147D01*
X0067230Y0066092D01*
X0067183Y0066035D01*
X0067139Y0065975D01*
X0067097Y0065913D01*
X0067059Y0065850D01*
X0067024Y0065784D01*
X0066993Y0065717D01*
X0066965Y0065648D01*
X0066940Y0065578D01*
X0069112Y0064556D02*
X0069159Y0064603D01*
X0069203Y0064653D01*
X0069245Y0064705D01*
X0069284Y0064759D01*
X0069319Y0064815D01*
X0069352Y0064873D01*
X0069382Y0064933D01*
X0069408Y0064994D01*
X0069431Y0065057D01*
X0069450Y0065121D01*
X0069466Y0065185D01*
X0069479Y0065251D01*
X0069488Y0065317D01*
X0069493Y0065383D01*
X0069495Y0065450D01*
X0069493Y0065517D01*
X0069487Y0065584D01*
X0069478Y0065650D01*
X0069464Y0065715D01*
X0069447Y0065780D01*
X0069426Y0065843D01*
X0069401Y0065905D01*
X0069373Y0065966D01*
X0069341Y0066025D01*
X0069306Y0066082D01*
X0069267Y0066137D01*
X0069226Y0066189D01*
X0069181Y0066239D01*
X0069134Y0066286D01*
X0069084Y0066331D01*
X0069032Y0066372D01*
X0068977Y0066411D01*
X0068920Y0066446D01*
X0068861Y0066478D01*
X0068800Y0066506D01*
X0068738Y0066531D01*
X0068675Y0066552D01*
X0068610Y0066569D01*
X0068545Y0066583D01*
X0068479Y0066592D01*
X0068412Y0066598D01*
X0068345Y0066600D01*
X0063717Y0066600D02*
X0063717Y0062000D01*
X0062439Y0062000D02*
X0064995Y0062000D01*
X0060721Y0062000D02*
X0059699Y0062000D01*
X0059637Y0062002D01*
X0059576Y0062007D01*
X0059515Y0062017D01*
X0059454Y0062030D01*
X0059395Y0062046D01*
X0059337Y0062066D01*
X0059280Y0062090D01*
X0059224Y0062117D01*
X0059170Y0062147D01*
X0059118Y0062181D01*
X0059069Y0062217D01*
X0059021Y0062257D01*
X0058976Y0062299D01*
X0058934Y0062344D01*
X0058894Y0062392D01*
X0058858Y0062441D01*
X0058824Y0062493D01*
X0058794Y0062547D01*
X0058767Y0062603D01*
X0058743Y0062660D01*
X0058723Y0062718D01*
X0058707Y0062777D01*
X0058694Y0062838D01*
X0058684Y0062899D01*
X0058679Y0062960D01*
X0058677Y0063022D01*
X0058676Y0063022D02*
X0058676Y0065578D01*
X0058677Y0065578D02*
X0058679Y0065640D01*
X0058684Y0065701D01*
X0058694Y0065762D01*
X0058707Y0065823D01*
X0058723Y0065882D01*
X0058743Y0065940D01*
X0058767Y0065997D01*
X0058794Y0066053D01*
X0058824Y0066107D01*
X0058858Y0066159D01*
X0058894Y0066208D01*
X0058934Y0066256D01*
X0058976Y0066301D01*
X0059021Y0066343D01*
X0059069Y0066382D01*
X0059118Y0066419D01*
X0059170Y0066453D01*
X0059224Y0066483D01*
X0059280Y0066510D01*
X0059337Y0066534D01*
X0059395Y0066554D01*
X0059454Y0066570D01*
X0059515Y0066583D01*
X0059576Y0066593D01*
X0059637Y0066598D01*
X0059699Y0066600D01*
X0060721Y0066600D01*
X0062439Y0065578D02*
X0063717Y0066600D01*
X0074676Y0067471D02*
X0074676Y0070027D01*
X0079276Y0068749D01*
X0075188Y0067471D02*
X0074676Y0067471D01*
X0074676Y0064278D02*
X0074676Y0063000D01*
X0079276Y0063000D01*
X0077232Y0063000D02*
X0077232Y0064278D01*
X0077232Y0064533D02*
X0079276Y0065556D01*
X0077232Y0064278D02*
X0077230Y0064348D01*
X0077224Y0064419D01*
X0077215Y0064488D01*
X0077201Y0064557D01*
X0077184Y0064626D01*
X0077163Y0064693D01*
X0077138Y0064759D01*
X0077110Y0064823D01*
X0077078Y0064886D01*
X0077043Y0064947D01*
X0077004Y0065006D01*
X0076963Y0065063D01*
X0076918Y0065117D01*
X0076870Y0065169D01*
X0076820Y0065218D01*
X0076766Y0065265D01*
X0076711Y0065308D01*
X0076653Y0065348D01*
X0076593Y0065385D01*
X0076531Y0065418D01*
X0076467Y0065448D01*
X0076402Y0065475D01*
X0076336Y0065498D01*
X0076268Y0065517D01*
X0076199Y0065532D01*
X0076130Y0065544D01*
X0076060Y0065552D01*
X0075989Y0065556D01*
X0075919Y0065556D01*
X0075848Y0065552D01*
X0075778Y0065544D01*
X0075709Y0065532D01*
X0075640Y0065517D01*
X0075572Y0065498D01*
X0075506Y0065475D01*
X0075441Y0065448D01*
X0075377Y0065418D01*
X0075315Y0065385D01*
X0075255Y0065348D01*
X0075197Y0065308D01*
X0075142Y0065265D01*
X0075088Y0065218D01*
X0075038Y0065169D01*
X0074990Y0065117D01*
X0074945Y0065063D01*
X0074904Y0065006D01*
X0074865Y0064947D01*
X0074830Y0064886D01*
X0074798Y0064823D01*
X0074770Y0064759D01*
X0074745Y0064693D01*
X0074724Y0064626D01*
X0074707Y0064557D01*
X0074693Y0064488D01*
X0074684Y0064419D01*
X0074678Y0064348D01*
X0074676Y0064278D01*
X0063102Y0081854D02*
X0061569Y0081854D01*
X0059872Y0081854D02*
X0057828Y0081854D01*
X0057828Y0086454D01*
X0061569Y0086454D02*
X0061569Y0084409D01*
X0063102Y0084409D01*
X0063164Y0084407D01*
X0063225Y0084402D01*
X0063286Y0084392D01*
X0063347Y0084379D01*
X0063406Y0084363D01*
X0063464Y0084343D01*
X0063521Y0084319D01*
X0063577Y0084292D01*
X0063631Y0084262D01*
X0063683Y0084228D01*
X0063732Y0084192D01*
X0063780Y0084152D01*
X0063825Y0084110D01*
X0063867Y0084065D01*
X0063907Y0084017D01*
X0063943Y0083968D01*
X0063977Y0083916D01*
X0064007Y0083862D01*
X0064034Y0083806D01*
X0064058Y0083749D01*
X0064078Y0083691D01*
X0064094Y0083632D01*
X0064107Y0083571D01*
X0064117Y0083510D01*
X0064122Y0083449D01*
X0064124Y0083387D01*
X0064125Y0083387D02*
X0064125Y0082876D01*
X0064124Y0082876D02*
X0064122Y0082814D01*
X0064117Y0082753D01*
X0064107Y0082692D01*
X0064094Y0082631D01*
X0064078Y0082572D01*
X0064058Y0082514D01*
X0064034Y0082457D01*
X0064007Y0082401D01*
X0063977Y0082347D01*
X0063943Y0082295D01*
X0063907Y0082246D01*
X0063867Y0082198D01*
X0063825Y0082153D01*
X0063780Y0082111D01*
X0063732Y0082071D01*
X0063683Y0082035D01*
X0063631Y0082001D01*
X0063577Y0081971D01*
X0063521Y0081944D01*
X0063464Y0081920D01*
X0063406Y0081900D01*
X0063347Y0081884D01*
X0063286Y0081871D01*
X0063225Y0081861D01*
X0063164Y0081856D01*
X0063102Y0081854D01*
X0064125Y0086454D02*
X0061569Y0086454D01*
X0047650Y0107500D02*
X0047650Y0108011D01*
X0047648Y0108073D01*
X0047643Y0108134D01*
X0047633Y0108195D01*
X0047620Y0108256D01*
X0047604Y0108315D01*
X0047584Y0108373D01*
X0047560Y0108430D01*
X0047533Y0108486D01*
X0047503Y0108540D01*
X0047469Y0108592D01*
X0047433Y0108641D01*
X0047393Y0108689D01*
X0047351Y0108734D01*
X0047306Y0108776D01*
X0047258Y0108816D01*
X0047209Y0108852D01*
X0047157Y0108886D01*
X0047103Y0108916D01*
X0047047Y0108943D01*
X0046990Y0108967D01*
X0046932Y0108987D01*
X0046873Y0109003D01*
X0046812Y0109016D01*
X0046751Y0109026D01*
X0046690Y0109031D01*
X0046628Y0109033D01*
X0043050Y0109033D01*
X0045094Y0113282D02*
X0045047Y0113329D01*
X0044997Y0113373D01*
X0044945Y0113415D01*
X0044891Y0113454D01*
X0044835Y0113489D01*
X0044777Y0113522D01*
X0044717Y0113552D01*
X0044656Y0113578D01*
X0044593Y0113601D01*
X0044529Y0113620D01*
X0044465Y0113636D01*
X0044399Y0113649D01*
X0044333Y0113658D01*
X0044267Y0113663D01*
X0044200Y0113665D01*
X0045095Y0113282D02*
X0047650Y0111109D01*
X0047650Y0113665D01*
X0044073Y0111110D02*
X0044003Y0111135D01*
X0043934Y0111163D01*
X0043867Y0111194D01*
X0043801Y0111229D01*
X0043738Y0111267D01*
X0043676Y0111309D01*
X0043616Y0111353D01*
X0043559Y0111400D01*
X0043504Y0111450D01*
X0043452Y0111503D01*
X0043402Y0111559D01*
X0043356Y0111616D01*
X0043312Y0111677D01*
X0043271Y0111739D01*
X0043234Y0111803D01*
X0043200Y0111869D01*
X0043169Y0111937D01*
X0043142Y0112006D01*
X0043118Y0112076D01*
X0043097Y0112147D01*
X0043081Y0112220D01*
X0043068Y0112293D01*
X0043058Y0112367D01*
X0043053Y0112441D01*
X0043051Y0112515D01*
X0043050Y0112515D02*
X0043052Y0112582D01*
X0043058Y0112649D01*
X0043067Y0112715D01*
X0043081Y0112780D01*
X0043098Y0112845D01*
X0043119Y0112908D01*
X0043144Y0112970D01*
X0043172Y0113031D01*
X0043204Y0113090D01*
X0043239Y0113147D01*
X0043278Y0113202D01*
X0043319Y0113254D01*
X0043364Y0113304D01*
X0043411Y0113351D01*
X0043461Y0113396D01*
X0043513Y0113437D01*
X0043568Y0113476D01*
X0043625Y0113511D01*
X0043684Y0113543D01*
X0043745Y0113571D01*
X0043807Y0113596D01*
X0043870Y0113617D01*
X0043935Y0113634D01*
X0044000Y0113648D01*
X0044066Y0113657D01*
X0044133Y0113663D01*
X0044200Y0113665D01*
X0049176Y0138500D02*
X0049176Y0143100D01*
X0050454Y0143100D01*
X0050524Y0143098D01*
X0050595Y0143092D01*
X0050664Y0143083D01*
X0050733Y0143069D01*
X0050802Y0143052D01*
X0050869Y0143031D01*
X0050935Y0143006D01*
X0050999Y0142978D01*
X0051062Y0142946D01*
X0051123Y0142911D01*
X0051182Y0142872D01*
X0051239Y0142831D01*
X0051293Y0142786D01*
X0051345Y0142738D01*
X0051394Y0142688D01*
X0051441Y0142634D01*
X0051484Y0142579D01*
X0051524Y0142521D01*
X0051561Y0142461D01*
X0051594Y0142399D01*
X0051624Y0142335D01*
X0051651Y0142270D01*
X0051674Y0142204D01*
X0051693Y0142136D01*
X0051708Y0142067D01*
X0051720Y0141998D01*
X0051728Y0141928D01*
X0051732Y0141857D01*
X0051732Y0141787D01*
X0051728Y0141716D01*
X0051720Y0141646D01*
X0051708Y0141577D01*
X0051693Y0141508D01*
X0051674Y0141440D01*
X0051651Y0141374D01*
X0051624Y0141309D01*
X0051594Y0141245D01*
X0051561Y0141183D01*
X0051524Y0141123D01*
X0051484Y0141065D01*
X0051441Y0141010D01*
X0051394Y0140956D01*
X0051345Y0140906D01*
X0051293Y0140858D01*
X0051239Y0140813D01*
X0051182Y0140772D01*
X0051123Y0140733D01*
X0051062Y0140698D01*
X0050999Y0140666D01*
X0050935Y0140638D01*
X0050869Y0140613D01*
X0050802Y0140592D01*
X0050733Y0140575D01*
X0050664Y0140561D01*
X0050595Y0140552D01*
X0050524Y0140546D01*
X0050454Y0140544D01*
X0049176Y0140544D01*
X0050710Y0140544D02*
X0051732Y0138500D01*
X0054158Y0138500D02*
X0054247Y0138502D01*
X0054336Y0138508D01*
X0054425Y0138517D01*
X0054513Y0138531D01*
X0054600Y0138548D01*
X0054687Y0138570D01*
X0054773Y0138595D01*
X0054857Y0138623D01*
X0054940Y0138656D01*
X0055022Y0138692D01*
X0055102Y0138731D01*
X0055180Y0138774D01*
X0055256Y0138820D01*
X0055330Y0138870D01*
X0055402Y0138922D01*
X0055472Y0138978D01*
X0055539Y0139037D01*
X0055603Y0139099D01*
X0055665Y0139163D01*
X0055724Y0139230D01*
X0055780Y0139300D01*
X0055832Y0139372D01*
X0055882Y0139446D01*
X0055928Y0139522D01*
X0055971Y0139600D01*
X0056010Y0139680D01*
X0056046Y0139762D01*
X0056079Y0139845D01*
X0056107Y0139929D01*
X0056132Y0140015D01*
X0056154Y0140102D01*
X0056171Y0140189D01*
X0056185Y0140277D01*
X0056194Y0140366D01*
X0056200Y0140455D01*
X0056202Y0140544D01*
X0056203Y0140544D02*
X0056203Y0141822D01*
X0056203Y0140544D02*
X0054670Y0140544D01*
X0054670Y0140545D02*
X0054608Y0140547D01*
X0054547Y0140552D01*
X0054486Y0140562D01*
X0054425Y0140575D01*
X0054366Y0140591D01*
X0054308Y0140611D01*
X0054251Y0140635D01*
X0054195Y0140662D01*
X0054141Y0140692D01*
X0054089Y0140726D01*
X0054040Y0140762D01*
X0053992Y0140802D01*
X0053947Y0140844D01*
X0053905Y0140889D01*
X0053865Y0140937D01*
X0053829Y0140986D01*
X0053795Y0141038D01*
X0053765Y0141092D01*
X0053738Y0141148D01*
X0053714Y0141205D01*
X0053694Y0141263D01*
X0053678Y0141322D01*
X0053665Y0141383D01*
X0053655Y0141444D01*
X0053650Y0141505D01*
X0053648Y0141567D01*
X0053647Y0141567D02*
X0053647Y0141822D01*
X0053649Y0141892D01*
X0053655Y0141963D01*
X0053664Y0142032D01*
X0053678Y0142101D01*
X0053695Y0142170D01*
X0053716Y0142237D01*
X0053741Y0142303D01*
X0053769Y0142367D01*
X0053801Y0142430D01*
X0053836Y0142491D01*
X0053875Y0142550D01*
X0053916Y0142607D01*
X0053961Y0142661D01*
X0054009Y0142713D01*
X0054059Y0142762D01*
X0054113Y0142809D01*
X0054168Y0142852D01*
X0054226Y0142892D01*
X0054286Y0142929D01*
X0054348Y0142962D01*
X0054412Y0142992D01*
X0054477Y0143019D01*
X0054543Y0143042D01*
X0054611Y0143061D01*
X0054680Y0143076D01*
X0054749Y0143088D01*
X0054819Y0143096D01*
X0054890Y0143100D01*
X0054960Y0143100D01*
X0055031Y0143096D01*
X0055101Y0143088D01*
X0055170Y0143076D01*
X0055239Y0143061D01*
X0055307Y0143042D01*
X0055373Y0143019D01*
X0055438Y0142992D01*
X0055502Y0142962D01*
X0055564Y0142929D01*
X0055624Y0142892D01*
X0055682Y0142852D01*
X0055737Y0142809D01*
X0055791Y0142762D01*
X0055841Y0142713D01*
X0055889Y0142661D01*
X0055934Y0142607D01*
X0055975Y0142550D01*
X0056014Y0142491D01*
X0056049Y0142430D01*
X0056081Y0142367D01*
X0056109Y0142303D01*
X0056134Y0142237D01*
X0056155Y0142170D01*
X0056172Y0142101D01*
X0056186Y0142032D01*
X0056195Y0141963D01*
X0056201Y0141892D01*
X0056203Y0141822D01*
X0069176Y0140544D02*
X0070454Y0140544D01*
X0070710Y0140544D02*
X0071732Y0138500D01*
X0069176Y0138500D02*
X0069176Y0143100D01*
X0070454Y0143100D01*
X0070524Y0143098D01*
X0070595Y0143092D01*
X0070664Y0143083D01*
X0070733Y0143069D01*
X0070802Y0143052D01*
X0070869Y0143031D01*
X0070935Y0143006D01*
X0070999Y0142978D01*
X0071062Y0142946D01*
X0071123Y0142911D01*
X0071182Y0142872D01*
X0071239Y0142831D01*
X0071293Y0142786D01*
X0071345Y0142738D01*
X0071394Y0142688D01*
X0071441Y0142634D01*
X0071484Y0142579D01*
X0071524Y0142521D01*
X0071561Y0142461D01*
X0071594Y0142399D01*
X0071624Y0142335D01*
X0071651Y0142270D01*
X0071674Y0142204D01*
X0071693Y0142136D01*
X0071708Y0142067D01*
X0071720Y0141998D01*
X0071728Y0141928D01*
X0071732Y0141857D01*
X0071732Y0141787D01*
X0071728Y0141716D01*
X0071720Y0141646D01*
X0071708Y0141577D01*
X0071693Y0141508D01*
X0071674Y0141440D01*
X0071651Y0141374D01*
X0071624Y0141309D01*
X0071594Y0141245D01*
X0071561Y0141183D01*
X0071524Y0141123D01*
X0071484Y0141065D01*
X0071441Y0141010D01*
X0071394Y0140956D01*
X0071345Y0140906D01*
X0071293Y0140858D01*
X0071239Y0140813D01*
X0071182Y0140772D01*
X0071123Y0140733D01*
X0071062Y0140698D01*
X0070999Y0140666D01*
X0070935Y0140638D01*
X0070869Y0140613D01*
X0070802Y0140592D01*
X0070733Y0140575D01*
X0070664Y0140561D01*
X0070595Y0140552D01*
X0070524Y0140546D01*
X0070454Y0140544D01*
X0073647Y0139778D02*
X0073649Y0139708D01*
X0073655Y0139637D01*
X0073664Y0139568D01*
X0073678Y0139499D01*
X0073695Y0139430D01*
X0073716Y0139363D01*
X0073741Y0139297D01*
X0073769Y0139233D01*
X0073801Y0139170D01*
X0073836Y0139109D01*
X0073875Y0139050D01*
X0073916Y0138993D01*
X0073961Y0138939D01*
X0074009Y0138887D01*
X0074059Y0138838D01*
X0074113Y0138791D01*
X0074168Y0138748D01*
X0074226Y0138708D01*
X0074286Y0138671D01*
X0074348Y0138638D01*
X0074412Y0138608D01*
X0074477Y0138581D01*
X0074543Y0138558D01*
X0074611Y0138539D01*
X0074680Y0138524D01*
X0074749Y0138512D01*
X0074819Y0138504D01*
X0074890Y0138500D01*
X0074960Y0138500D01*
X0075031Y0138504D01*
X0075101Y0138512D01*
X0075170Y0138524D01*
X0075239Y0138539D01*
X0075307Y0138558D01*
X0075373Y0138581D01*
X0075438Y0138608D01*
X0075502Y0138638D01*
X0075564Y0138671D01*
X0075624Y0138708D01*
X0075682Y0138748D01*
X0075737Y0138791D01*
X0075791Y0138838D01*
X0075841Y0138887D01*
X0075889Y0138939D01*
X0075934Y0138993D01*
X0075975Y0139050D01*
X0076014Y0139109D01*
X0076049Y0139170D01*
X0076081Y0139233D01*
X0076109Y0139297D01*
X0076134Y0139363D01*
X0076155Y0139430D01*
X0076172Y0139499D01*
X0076186Y0139568D01*
X0076195Y0139637D01*
X0076201Y0139708D01*
X0076203Y0139778D01*
X0076201Y0139848D01*
X0076195Y0139919D01*
X0076186Y0139988D01*
X0076172Y0140057D01*
X0076155Y0140126D01*
X0076134Y0140193D01*
X0076109Y0140259D01*
X0076081Y0140323D01*
X0076049Y0140386D01*
X0076014Y0140447D01*
X0075975Y0140506D01*
X0075934Y0140563D01*
X0075889Y0140617D01*
X0075841Y0140669D01*
X0075791Y0140718D01*
X0075737Y0140765D01*
X0075682Y0140808D01*
X0075624Y0140848D01*
X0075564Y0140885D01*
X0075502Y0140918D01*
X0075438Y0140948D01*
X0075373Y0140975D01*
X0075307Y0140998D01*
X0075239Y0141017D01*
X0075170Y0141032D01*
X0075101Y0141044D01*
X0075031Y0141052D01*
X0074960Y0141056D01*
X0074890Y0141056D01*
X0074819Y0141052D01*
X0074749Y0141044D01*
X0074680Y0141032D01*
X0074611Y0141017D01*
X0074543Y0140998D01*
X0074477Y0140975D01*
X0074412Y0140948D01*
X0074348Y0140918D01*
X0074286Y0140885D01*
X0074226Y0140848D01*
X0074168Y0140808D01*
X0074113Y0140765D01*
X0074059Y0140718D01*
X0074009Y0140669D01*
X0073961Y0140617D01*
X0073916Y0140563D01*
X0073875Y0140506D01*
X0073836Y0140447D01*
X0073801Y0140386D01*
X0073769Y0140323D01*
X0073741Y0140259D01*
X0073716Y0140193D01*
X0073695Y0140126D01*
X0073678Y0140057D01*
X0073664Y0139988D01*
X0073655Y0139919D01*
X0073649Y0139848D01*
X0073647Y0139778D01*
X0073903Y0142078D02*
X0073905Y0142015D01*
X0073911Y0141952D01*
X0073920Y0141890D01*
X0073934Y0141829D01*
X0073951Y0141768D01*
X0073972Y0141709D01*
X0073997Y0141651D01*
X0074025Y0141594D01*
X0074056Y0141540D01*
X0074091Y0141488D01*
X0074129Y0141437D01*
X0074170Y0141389D01*
X0074214Y0141344D01*
X0074260Y0141302D01*
X0074309Y0141262D01*
X0074360Y0141226D01*
X0074414Y0141193D01*
X0074469Y0141163D01*
X0074527Y0141137D01*
X0074585Y0141114D01*
X0074645Y0141095D01*
X0074706Y0141080D01*
X0074768Y0141068D01*
X0074831Y0141060D01*
X0074894Y0141056D01*
X0074956Y0141056D01*
X0075019Y0141060D01*
X0075082Y0141068D01*
X0075144Y0141080D01*
X0075205Y0141095D01*
X0075265Y0141114D01*
X0075323Y0141137D01*
X0075381Y0141163D01*
X0075436Y0141193D01*
X0075490Y0141226D01*
X0075541Y0141262D01*
X0075590Y0141302D01*
X0075636Y0141344D01*
X0075680Y0141389D01*
X0075721Y0141437D01*
X0075759Y0141488D01*
X0075794Y0141540D01*
X0075825Y0141594D01*
X0075853Y0141651D01*
X0075878Y0141709D01*
X0075899Y0141768D01*
X0075916Y0141829D01*
X0075930Y0141890D01*
X0075939Y0141952D01*
X0075945Y0142015D01*
X0075947Y0142078D01*
X0075945Y0142141D01*
X0075939Y0142204D01*
X0075930Y0142266D01*
X0075916Y0142327D01*
X0075899Y0142388D01*
X0075878Y0142447D01*
X0075853Y0142505D01*
X0075825Y0142562D01*
X0075794Y0142616D01*
X0075759Y0142668D01*
X0075721Y0142719D01*
X0075680Y0142767D01*
X0075636Y0142812D01*
X0075590Y0142854D01*
X0075541Y0142894D01*
X0075490Y0142930D01*
X0075436Y0142963D01*
X0075381Y0142993D01*
X0075323Y0143019D01*
X0075265Y0143042D01*
X0075205Y0143061D01*
X0075144Y0143076D01*
X0075082Y0143088D01*
X0075019Y0143096D01*
X0074956Y0143100D01*
X0074894Y0143100D01*
X0074831Y0143096D01*
X0074768Y0143088D01*
X0074706Y0143076D01*
X0074645Y0143061D01*
X0074585Y0143042D01*
X0074527Y0143019D01*
X0074469Y0142993D01*
X0074414Y0142963D01*
X0074360Y0142930D01*
X0074309Y0142894D01*
X0074260Y0142854D01*
X0074214Y0142812D01*
X0074170Y0142767D01*
X0074129Y0142719D01*
X0074091Y0142668D01*
X0074056Y0142616D01*
X0074025Y0142562D01*
X0073997Y0142505D01*
X0073972Y0142447D01*
X0073951Y0142388D01*
X0073934Y0142327D01*
X0073920Y0142266D01*
X0073911Y0142204D01*
X0073905Y0142141D01*
X0073903Y0142078D01*
X0095176Y0120078D02*
X0095176Y0117522D01*
X0095177Y0117522D02*
X0095179Y0117460D01*
X0095184Y0117399D01*
X0095194Y0117338D01*
X0095207Y0117277D01*
X0095223Y0117218D01*
X0095243Y0117160D01*
X0095267Y0117103D01*
X0095294Y0117047D01*
X0095324Y0116993D01*
X0095358Y0116941D01*
X0095394Y0116892D01*
X0095434Y0116844D01*
X0095476Y0116799D01*
X0095521Y0116757D01*
X0095569Y0116717D01*
X0095618Y0116681D01*
X0095670Y0116647D01*
X0095724Y0116617D01*
X0095780Y0116590D01*
X0095837Y0116566D01*
X0095895Y0116546D01*
X0095954Y0116530D01*
X0096015Y0116517D01*
X0096076Y0116507D01*
X0096137Y0116502D01*
X0096199Y0116500D01*
X0097221Y0116500D01*
X0098939Y0116500D02*
X0101495Y0116500D01*
X0100217Y0116500D02*
X0100217Y0121100D01*
X0098939Y0120078D01*
X0097221Y0121100D02*
X0096199Y0121100D01*
X0096137Y0121098D01*
X0096076Y0121093D01*
X0096015Y0121083D01*
X0095954Y0121070D01*
X0095895Y0121054D01*
X0095837Y0121034D01*
X0095780Y0121010D01*
X0095724Y0120983D01*
X0095670Y0120953D01*
X0095618Y0120919D01*
X0095569Y0120882D01*
X0095521Y0120843D01*
X0095476Y0120801D01*
X0095434Y0120756D01*
X0095394Y0120708D01*
X0095358Y0120659D01*
X0095324Y0120607D01*
X0095294Y0120553D01*
X0095267Y0120497D01*
X0095243Y0120440D01*
X0095223Y0120382D01*
X0095207Y0120323D01*
X0095194Y0120262D01*
X0095184Y0120201D01*
X0095179Y0120140D01*
X0095177Y0120078D01*
X0103439Y0117522D02*
X0105995Y0117522D01*
X0105228Y0118544D02*
X0105228Y0116500D01*
X0103439Y0117522D02*
X0104462Y0121100D01*
X0115176Y0120078D02*
X0115176Y0117522D01*
X0115177Y0117522D02*
X0115179Y0117460D01*
X0115184Y0117399D01*
X0115194Y0117338D01*
X0115207Y0117277D01*
X0115223Y0117218D01*
X0115243Y0117160D01*
X0115267Y0117103D01*
X0115294Y0117047D01*
X0115324Y0116993D01*
X0115358Y0116941D01*
X0115394Y0116892D01*
X0115434Y0116844D01*
X0115476Y0116799D01*
X0115521Y0116757D01*
X0115569Y0116717D01*
X0115618Y0116681D01*
X0115670Y0116647D01*
X0115724Y0116617D01*
X0115780Y0116590D01*
X0115837Y0116566D01*
X0115895Y0116546D01*
X0115954Y0116530D01*
X0116015Y0116517D01*
X0116076Y0116507D01*
X0116137Y0116502D01*
X0116199Y0116500D01*
X0117221Y0116500D01*
X0118939Y0117778D02*
X0118941Y0117708D01*
X0118947Y0117637D01*
X0118956Y0117568D01*
X0118970Y0117499D01*
X0118987Y0117430D01*
X0119008Y0117363D01*
X0119033Y0117297D01*
X0119061Y0117233D01*
X0119093Y0117170D01*
X0119128Y0117109D01*
X0119167Y0117050D01*
X0119208Y0116993D01*
X0119253Y0116939D01*
X0119301Y0116887D01*
X0119351Y0116838D01*
X0119405Y0116791D01*
X0119460Y0116748D01*
X0119518Y0116708D01*
X0119578Y0116671D01*
X0119640Y0116638D01*
X0119704Y0116608D01*
X0119769Y0116581D01*
X0119835Y0116558D01*
X0119903Y0116539D01*
X0119972Y0116524D01*
X0120041Y0116512D01*
X0120111Y0116504D01*
X0120182Y0116500D01*
X0120252Y0116500D01*
X0120323Y0116504D01*
X0120393Y0116512D01*
X0120462Y0116524D01*
X0120531Y0116539D01*
X0120599Y0116558D01*
X0120665Y0116581D01*
X0120730Y0116608D01*
X0120794Y0116638D01*
X0120856Y0116671D01*
X0120916Y0116708D01*
X0120974Y0116748D01*
X0121029Y0116791D01*
X0121083Y0116838D01*
X0121133Y0116887D01*
X0121181Y0116939D01*
X0121226Y0116993D01*
X0121267Y0117050D01*
X0121306Y0117109D01*
X0121341Y0117170D01*
X0121373Y0117233D01*
X0121401Y0117297D01*
X0121426Y0117363D01*
X0121447Y0117430D01*
X0121464Y0117499D01*
X0121478Y0117568D01*
X0121487Y0117637D01*
X0121493Y0117708D01*
X0121495Y0117778D01*
X0121493Y0117848D01*
X0121487Y0117919D01*
X0121478Y0117988D01*
X0121464Y0118057D01*
X0121447Y0118126D01*
X0121426Y0118193D01*
X0121401Y0118259D01*
X0121373Y0118323D01*
X0121341Y0118386D01*
X0121306Y0118447D01*
X0121267Y0118506D01*
X0121226Y0118563D01*
X0121181Y0118617D01*
X0121133Y0118669D01*
X0121083Y0118718D01*
X0121029Y0118765D01*
X0120974Y0118808D01*
X0120916Y0118848D01*
X0120856Y0118885D01*
X0120794Y0118918D01*
X0120730Y0118948D01*
X0120665Y0118975D01*
X0120599Y0118998D01*
X0120531Y0119017D01*
X0120462Y0119032D01*
X0120393Y0119044D01*
X0120323Y0119052D01*
X0120252Y0119056D01*
X0120182Y0119056D01*
X0120111Y0119052D01*
X0120041Y0119044D01*
X0119972Y0119032D01*
X0119903Y0119017D01*
X0119835Y0118998D01*
X0119769Y0118975D01*
X0119704Y0118948D01*
X0119640Y0118918D01*
X0119578Y0118885D01*
X0119518Y0118848D01*
X0119460Y0118808D01*
X0119405Y0118765D01*
X0119351Y0118718D01*
X0119301Y0118669D01*
X0119253Y0118617D01*
X0119208Y0118563D01*
X0119167Y0118506D01*
X0119128Y0118447D01*
X0119093Y0118386D01*
X0119061Y0118323D01*
X0119033Y0118259D01*
X0119008Y0118193D01*
X0118987Y0118126D01*
X0118970Y0118057D01*
X0118956Y0117988D01*
X0118947Y0117919D01*
X0118941Y0117848D01*
X0118939Y0117778D01*
X0119195Y0120078D02*
X0119197Y0120015D01*
X0119203Y0119952D01*
X0119212Y0119890D01*
X0119226Y0119829D01*
X0119243Y0119768D01*
X0119264Y0119709D01*
X0119289Y0119651D01*
X0119317Y0119594D01*
X0119348Y0119540D01*
X0119383Y0119488D01*
X0119421Y0119437D01*
X0119462Y0119389D01*
X0119506Y0119344D01*
X0119552Y0119302D01*
X0119601Y0119262D01*
X0119652Y0119226D01*
X0119706Y0119193D01*
X0119761Y0119163D01*
X0119819Y0119137D01*
X0119877Y0119114D01*
X0119937Y0119095D01*
X0119998Y0119080D01*
X0120060Y0119068D01*
X0120123Y0119060D01*
X0120186Y0119056D01*
X0120248Y0119056D01*
X0120311Y0119060D01*
X0120374Y0119068D01*
X0120436Y0119080D01*
X0120497Y0119095D01*
X0120557Y0119114D01*
X0120615Y0119137D01*
X0120673Y0119163D01*
X0120728Y0119193D01*
X0120782Y0119226D01*
X0120833Y0119262D01*
X0120882Y0119302D01*
X0120928Y0119344D01*
X0120972Y0119389D01*
X0121013Y0119437D01*
X0121051Y0119488D01*
X0121086Y0119540D01*
X0121117Y0119594D01*
X0121145Y0119651D01*
X0121170Y0119709D01*
X0121191Y0119768D01*
X0121208Y0119829D01*
X0121222Y0119890D01*
X0121231Y0119952D01*
X0121237Y0120015D01*
X0121239Y0120078D01*
X0121237Y0120141D01*
X0121231Y0120204D01*
X0121222Y0120266D01*
X0121208Y0120327D01*
X0121191Y0120388D01*
X0121170Y0120447D01*
X0121145Y0120505D01*
X0121117Y0120562D01*
X0121086Y0120616D01*
X0121051Y0120668D01*
X0121013Y0120719D01*
X0120972Y0120767D01*
X0120928Y0120812D01*
X0120882Y0120854D01*
X0120833Y0120894D01*
X0120782Y0120930D01*
X0120728Y0120963D01*
X0120673Y0120993D01*
X0120615Y0121019D01*
X0120557Y0121042D01*
X0120497Y0121061D01*
X0120436Y0121076D01*
X0120374Y0121088D01*
X0120311Y0121096D01*
X0120248Y0121100D01*
X0120186Y0121100D01*
X0120123Y0121096D01*
X0120060Y0121088D01*
X0119998Y0121076D01*
X0119937Y0121061D01*
X0119877Y0121042D01*
X0119819Y0121019D01*
X0119761Y0120993D01*
X0119706Y0120963D01*
X0119652Y0120930D01*
X0119601Y0120894D01*
X0119552Y0120854D01*
X0119506Y0120812D01*
X0119462Y0120767D01*
X0119421Y0120719D01*
X0119383Y0120668D01*
X0119348Y0120616D01*
X0119317Y0120562D01*
X0119289Y0120505D01*
X0119264Y0120447D01*
X0119243Y0120388D01*
X0119226Y0120327D01*
X0119212Y0120266D01*
X0119203Y0120204D01*
X0119197Y0120141D01*
X0119195Y0120078D01*
X0117221Y0121100D02*
X0116199Y0121100D01*
X0116137Y0121098D01*
X0116076Y0121093D01*
X0116015Y0121083D01*
X0115954Y0121070D01*
X0115895Y0121054D01*
X0115837Y0121034D01*
X0115780Y0121010D01*
X0115724Y0120983D01*
X0115670Y0120953D01*
X0115618Y0120919D01*
X0115569Y0120882D01*
X0115521Y0120843D01*
X0115476Y0120801D01*
X0115434Y0120756D01*
X0115394Y0120708D01*
X0115358Y0120659D01*
X0115324Y0120607D01*
X0115294Y0120553D01*
X0115267Y0120497D01*
X0115243Y0120440D01*
X0115223Y0120382D01*
X0115207Y0120323D01*
X0115194Y0120262D01*
X0115184Y0120201D01*
X0115179Y0120140D01*
X0115177Y0120078D01*
X0135676Y0120078D02*
X0135676Y0117522D01*
X0135677Y0117522D02*
X0135679Y0117460D01*
X0135684Y0117399D01*
X0135694Y0117338D01*
X0135707Y0117277D01*
X0135723Y0117218D01*
X0135743Y0117160D01*
X0135767Y0117103D01*
X0135794Y0117047D01*
X0135824Y0116993D01*
X0135858Y0116941D01*
X0135894Y0116892D01*
X0135934Y0116844D01*
X0135976Y0116799D01*
X0136021Y0116757D01*
X0136069Y0116717D01*
X0136118Y0116681D01*
X0136170Y0116647D01*
X0136224Y0116617D01*
X0136280Y0116590D01*
X0136337Y0116566D01*
X0136395Y0116546D01*
X0136454Y0116530D01*
X0136515Y0116517D01*
X0136576Y0116507D01*
X0136637Y0116502D01*
X0136699Y0116500D01*
X0137721Y0116500D01*
X0139951Y0116500D02*
X0140040Y0116502D01*
X0140129Y0116508D01*
X0140218Y0116517D01*
X0140306Y0116531D01*
X0140393Y0116548D01*
X0140480Y0116570D01*
X0140566Y0116595D01*
X0140650Y0116623D01*
X0140733Y0116656D01*
X0140815Y0116692D01*
X0140895Y0116731D01*
X0140973Y0116774D01*
X0141049Y0116820D01*
X0141123Y0116870D01*
X0141195Y0116922D01*
X0141265Y0116978D01*
X0141332Y0117037D01*
X0141396Y0117099D01*
X0141458Y0117163D01*
X0141517Y0117230D01*
X0141573Y0117300D01*
X0141625Y0117372D01*
X0141675Y0117446D01*
X0141721Y0117522D01*
X0141764Y0117600D01*
X0141803Y0117680D01*
X0141839Y0117762D01*
X0141872Y0117845D01*
X0141900Y0117929D01*
X0141925Y0118015D01*
X0141947Y0118102D01*
X0141964Y0118189D01*
X0141978Y0118277D01*
X0141987Y0118366D01*
X0141993Y0118455D01*
X0141995Y0118544D01*
X0141995Y0119822D01*
X0141995Y0118544D02*
X0140462Y0118544D01*
X0140462Y0118545D02*
X0140400Y0118547D01*
X0140339Y0118552D01*
X0140278Y0118562D01*
X0140217Y0118575D01*
X0140158Y0118591D01*
X0140100Y0118611D01*
X0140043Y0118635D01*
X0139987Y0118662D01*
X0139933Y0118692D01*
X0139881Y0118726D01*
X0139832Y0118762D01*
X0139784Y0118802D01*
X0139739Y0118844D01*
X0139697Y0118889D01*
X0139657Y0118937D01*
X0139621Y0118986D01*
X0139587Y0119038D01*
X0139557Y0119092D01*
X0139530Y0119148D01*
X0139506Y0119205D01*
X0139486Y0119263D01*
X0139470Y0119322D01*
X0139457Y0119383D01*
X0139447Y0119444D01*
X0139442Y0119505D01*
X0139440Y0119567D01*
X0139439Y0119567D02*
X0139439Y0119822D01*
X0139441Y0119892D01*
X0139447Y0119963D01*
X0139456Y0120032D01*
X0139470Y0120101D01*
X0139487Y0120170D01*
X0139508Y0120237D01*
X0139533Y0120303D01*
X0139561Y0120367D01*
X0139593Y0120430D01*
X0139628Y0120491D01*
X0139667Y0120550D01*
X0139708Y0120607D01*
X0139753Y0120661D01*
X0139801Y0120713D01*
X0139851Y0120762D01*
X0139905Y0120809D01*
X0139960Y0120852D01*
X0140018Y0120892D01*
X0140078Y0120929D01*
X0140140Y0120962D01*
X0140204Y0120992D01*
X0140269Y0121019D01*
X0140335Y0121042D01*
X0140403Y0121061D01*
X0140472Y0121076D01*
X0140541Y0121088D01*
X0140611Y0121096D01*
X0140682Y0121100D01*
X0140752Y0121100D01*
X0140823Y0121096D01*
X0140893Y0121088D01*
X0140962Y0121076D01*
X0141031Y0121061D01*
X0141099Y0121042D01*
X0141165Y0121019D01*
X0141230Y0120992D01*
X0141294Y0120962D01*
X0141356Y0120929D01*
X0141416Y0120892D01*
X0141474Y0120852D01*
X0141529Y0120809D01*
X0141583Y0120762D01*
X0141633Y0120713D01*
X0141681Y0120661D01*
X0141726Y0120607D01*
X0141767Y0120550D01*
X0141806Y0120491D01*
X0141841Y0120430D01*
X0141873Y0120367D01*
X0141901Y0120303D01*
X0141926Y0120237D01*
X0141947Y0120170D01*
X0141964Y0120101D01*
X0141978Y0120032D01*
X0141987Y0119963D01*
X0141993Y0119892D01*
X0141995Y0119822D01*
X0137721Y0121100D02*
X0136699Y0121100D01*
X0136637Y0121098D01*
X0136576Y0121093D01*
X0136515Y0121083D01*
X0136454Y0121070D01*
X0136395Y0121054D01*
X0136337Y0121034D01*
X0136280Y0121010D01*
X0136224Y0120983D01*
X0136170Y0120953D01*
X0136118Y0120919D01*
X0136069Y0120882D01*
X0136021Y0120843D01*
X0135976Y0120801D01*
X0135934Y0120756D01*
X0135894Y0120708D01*
X0135858Y0120659D01*
X0135824Y0120607D01*
X0135794Y0120553D01*
X0135767Y0120497D01*
X0135743Y0120440D01*
X0135723Y0120382D01*
X0135707Y0120323D01*
X0135694Y0120262D01*
X0135684Y0120201D01*
X0135679Y0120140D01*
X0135677Y0120078D01*
X0117429Y0101385D02*
X0117496Y0101383D01*
X0117563Y0101377D01*
X0117629Y0101368D01*
X0117694Y0101354D01*
X0117759Y0101337D01*
X0117822Y0101316D01*
X0117884Y0101291D01*
X0117945Y0101263D01*
X0118004Y0101231D01*
X0118061Y0101196D01*
X0118116Y0101157D01*
X0118168Y0101116D01*
X0118218Y0101071D01*
X0118265Y0101024D01*
X0118310Y0100974D01*
X0118351Y0100922D01*
X0118390Y0100867D01*
X0118425Y0100810D01*
X0118457Y0100751D01*
X0118485Y0100690D01*
X0118510Y0100628D01*
X0118531Y0100565D01*
X0118548Y0100500D01*
X0118562Y0100435D01*
X0118571Y0100369D01*
X0118577Y0100302D01*
X0118579Y0100235D01*
X0118196Y0099341D02*
X0116024Y0096785D01*
X0118579Y0096785D01*
X0116024Y0100363D02*
X0116049Y0100433D01*
X0116077Y0100502D01*
X0116108Y0100569D01*
X0116143Y0100635D01*
X0116181Y0100698D01*
X0116223Y0100760D01*
X0116267Y0100820D01*
X0116314Y0100877D01*
X0116364Y0100932D01*
X0116417Y0100984D01*
X0116473Y0101034D01*
X0116531Y0101080D01*
X0116591Y0101124D01*
X0116653Y0101165D01*
X0116717Y0101202D01*
X0116783Y0101236D01*
X0116851Y0101267D01*
X0116920Y0101294D01*
X0116990Y0101318D01*
X0117061Y0101339D01*
X0117134Y0101355D01*
X0117207Y0101368D01*
X0117281Y0101378D01*
X0117355Y0101383D01*
X0117429Y0101385D01*
X0118579Y0100235D02*
X0118577Y0100168D01*
X0118572Y0100102D01*
X0118563Y0100036D01*
X0118550Y0099970D01*
X0118534Y0099906D01*
X0118515Y0099842D01*
X0118492Y0099779D01*
X0118466Y0099718D01*
X0118436Y0099658D01*
X0118403Y0099600D01*
X0118368Y0099544D01*
X0118329Y0099490D01*
X0118287Y0099438D01*
X0118243Y0099388D01*
X0118196Y0099341D01*
X0113929Y0098063D02*
X0113929Y0101385D01*
X0111374Y0101385D02*
X0111374Y0098063D01*
X0111373Y0098063D02*
X0111375Y0097993D01*
X0111381Y0097922D01*
X0111390Y0097853D01*
X0111404Y0097784D01*
X0111421Y0097715D01*
X0111442Y0097648D01*
X0111467Y0097582D01*
X0111495Y0097518D01*
X0111527Y0097455D01*
X0111562Y0097394D01*
X0111601Y0097335D01*
X0111642Y0097278D01*
X0111687Y0097224D01*
X0111735Y0097172D01*
X0111785Y0097123D01*
X0111839Y0097076D01*
X0111894Y0097033D01*
X0111952Y0096993D01*
X0112012Y0096956D01*
X0112074Y0096923D01*
X0112138Y0096893D01*
X0112203Y0096866D01*
X0112269Y0096843D01*
X0112337Y0096824D01*
X0112406Y0096809D01*
X0112475Y0096797D01*
X0112545Y0096789D01*
X0112616Y0096785D01*
X0112686Y0096785D01*
X0112757Y0096789D01*
X0112827Y0096797D01*
X0112896Y0096809D01*
X0112965Y0096824D01*
X0113033Y0096843D01*
X0113099Y0096866D01*
X0113164Y0096893D01*
X0113228Y0096923D01*
X0113290Y0096956D01*
X0113350Y0096993D01*
X0113408Y0097033D01*
X0113463Y0097076D01*
X0113517Y0097123D01*
X0113567Y0097172D01*
X0113615Y0097224D01*
X0113660Y0097278D01*
X0113701Y0097335D01*
X0113740Y0097394D01*
X0113775Y0097455D01*
X0113807Y0097518D01*
X0113835Y0097582D01*
X0113860Y0097648D01*
X0113881Y0097715D01*
X0113898Y0097784D01*
X0113912Y0097853D01*
X0113921Y0097922D01*
X0113927Y0097993D01*
X0113929Y0098063D01*
X0140176Y0076541D02*
X0144776Y0076541D01*
X0144776Y0075263D02*
X0144776Y0077819D01*
X0141199Y0075263D02*
X0140176Y0076541D01*
X0140176Y0073544D02*
X0140176Y0072522D01*
X0140177Y0072522D02*
X0140179Y0072460D01*
X0140184Y0072399D01*
X0140194Y0072338D01*
X0140207Y0072277D01*
X0140223Y0072218D01*
X0140243Y0072160D01*
X0140267Y0072103D01*
X0140294Y0072047D01*
X0140324Y0071993D01*
X0140358Y0071941D01*
X0140395Y0071892D01*
X0140434Y0071844D01*
X0140476Y0071799D01*
X0140521Y0071757D01*
X0140569Y0071717D01*
X0140618Y0071681D01*
X0140670Y0071647D01*
X0140724Y0071617D01*
X0140780Y0071590D01*
X0140837Y0071566D01*
X0140895Y0071546D01*
X0140954Y0071530D01*
X0141015Y0071517D01*
X0141076Y0071507D01*
X0141137Y0071502D01*
X0141199Y0071500D01*
X0143754Y0071500D01*
X0143816Y0071502D01*
X0143877Y0071507D01*
X0143938Y0071517D01*
X0143999Y0071530D01*
X0144058Y0071546D01*
X0144116Y0071566D01*
X0144173Y0071590D01*
X0144229Y0071617D01*
X0144283Y0071647D01*
X0144335Y0071681D01*
X0144384Y0071717D01*
X0144432Y0071757D01*
X0144477Y0071799D01*
X0144519Y0071844D01*
X0144559Y0071892D01*
X0144595Y0071941D01*
X0144629Y0071993D01*
X0144659Y0072047D01*
X0144686Y0072103D01*
X0144710Y0072160D01*
X0144730Y0072218D01*
X0144746Y0072277D01*
X0144759Y0072338D01*
X0144769Y0072399D01*
X0144774Y0072460D01*
X0144776Y0072522D01*
X0144776Y0073544D01*
X0144776Y0058797D02*
X0144776Y0056241D01*
X0144776Y0057519D02*
X0140176Y0057519D01*
X0141199Y0056241D01*
X0144776Y0054544D02*
X0144776Y0052500D01*
X0140176Y0052500D01*
X0165176Y0053078D02*
X0165176Y0050522D01*
X0165177Y0050522D02*
X0165179Y0050460D01*
X0165184Y0050399D01*
X0165194Y0050338D01*
X0165207Y0050277D01*
X0165223Y0050218D01*
X0165243Y0050160D01*
X0165267Y0050103D01*
X0165294Y0050047D01*
X0165324Y0049993D01*
X0165358Y0049941D01*
X0165394Y0049892D01*
X0165434Y0049844D01*
X0165476Y0049799D01*
X0165521Y0049757D01*
X0165569Y0049717D01*
X0165618Y0049681D01*
X0165670Y0049647D01*
X0165724Y0049617D01*
X0165780Y0049590D01*
X0165837Y0049566D01*
X0165895Y0049546D01*
X0165954Y0049530D01*
X0166015Y0049517D01*
X0166076Y0049507D01*
X0166137Y0049502D01*
X0166199Y0049500D01*
X0167221Y0049500D01*
X0168939Y0049500D02*
X0170217Y0049500D01*
X0170287Y0049502D01*
X0170358Y0049508D01*
X0170427Y0049517D01*
X0170496Y0049531D01*
X0170565Y0049548D01*
X0170632Y0049569D01*
X0170698Y0049594D01*
X0170762Y0049622D01*
X0170825Y0049654D01*
X0170886Y0049689D01*
X0170945Y0049728D01*
X0171002Y0049769D01*
X0171056Y0049814D01*
X0171108Y0049862D01*
X0171157Y0049912D01*
X0171204Y0049966D01*
X0171247Y0050021D01*
X0171287Y0050079D01*
X0171324Y0050139D01*
X0171357Y0050201D01*
X0171387Y0050265D01*
X0171414Y0050330D01*
X0171437Y0050396D01*
X0171456Y0050464D01*
X0171471Y0050533D01*
X0171483Y0050602D01*
X0171491Y0050672D01*
X0171495Y0050743D01*
X0171495Y0050813D01*
X0171491Y0050884D01*
X0171483Y0050954D01*
X0171471Y0051023D01*
X0171456Y0051092D01*
X0171437Y0051160D01*
X0171414Y0051226D01*
X0171387Y0051291D01*
X0171357Y0051355D01*
X0171324Y0051417D01*
X0171287Y0051477D01*
X0171247Y0051535D01*
X0171204Y0051590D01*
X0171157Y0051644D01*
X0171108Y0051694D01*
X0171056Y0051742D01*
X0171002Y0051787D01*
X0170945Y0051828D01*
X0170886Y0051867D01*
X0170825Y0051902D01*
X0170762Y0051934D01*
X0170698Y0051962D01*
X0170632Y0051987D01*
X0170565Y0052008D01*
X0170496Y0052025D01*
X0170427Y0052039D01*
X0170358Y0052048D01*
X0170287Y0052054D01*
X0170217Y0052056D01*
X0170473Y0052056D02*
X0169451Y0052056D01*
X0170473Y0052056D02*
X0170536Y0052058D01*
X0170599Y0052064D01*
X0170661Y0052073D01*
X0170722Y0052087D01*
X0170783Y0052104D01*
X0170842Y0052125D01*
X0170900Y0052150D01*
X0170957Y0052178D01*
X0171011Y0052209D01*
X0171063Y0052244D01*
X0171114Y0052282D01*
X0171162Y0052323D01*
X0171207Y0052367D01*
X0171249Y0052413D01*
X0171289Y0052462D01*
X0171325Y0052513D01*
X0171358Y0052567D01*
X0171388Y0052622D01*
X0171414Y0052680D01*
X0171437Y0052738D01*
X0171456Y0052798D01*
X0171471Y0052859D01*
X0171483Y0052921D01*
X0171491Y0052984D01*
X0171495Y0053047D01*
X0171495Y0053109D01*
X0171491Y0053172D01*
X0171483Y0053235D01*
X0171471Y0053297D01*
X0171456Y0053358D01*
X0171437Y0053418D01*
X0171414Y0053476D01*
X0171388Y0053534D01*
X0171358Y0053589D01*
X0171325Y0053643D01*
X0171289Y0053694D01*
X0171249Y0053743D01*
X0171207Y0053789D01*
X0171162Y0053833D01*
X0171114Y0053874D01*
X0171063Y0053912D01*
X0171011Y0053947D01*
X0170957Y0053978D01*
X0170900Y0054006D01*
X0170842Y0054031D01*
X0170783Y0054052D01*
X0170722Y0054069D01*
X0170661Y0054083D01*
X0170599Y0054092D01*
X0170536Y0054098D01*
X0170473Y0054100D01*
X0168939Y0054100D01*
X0167221Y0054100D02*
X0166199Y0054100D01*
X0166137Y0054098D01*
X0166076Y0054093D01*
X0166015Y0054083D01*
X0165954Y0054070D01*
X0165895Y0054054D01*
X0165837Y0054034D01*
X0165780Y0054010D01*
X0165724Y0053983D01*
X0165670Y0053953D01*
X0165618Y0053919D01*
X0165569Y0053882D01*
X0165521Y0053843D01*
X0165476Y0053801D01*
X0165434Y0053756D01*
X0165394Y0053708D01*
X0165358Y0053659D01*
X0165324Y0053607D01*
X0165294Y0053553D01*
X0165267Y0053497D01*
X0165243Y0053440D01*
X0165223Y0053382D01*
X0165207Y0053323D01*
X0165194Y0053262D01*
X0165184Y0053201D01*
X0165179Y0053140D01*
X0165177Y0053078D01*
X0190176Y0072146D02*
X0192221Y0072146D01*
X0193917Y0072146D02*
X0195195Y0072146D01*
X0195265Y0072148D01*
X0195336Y0072154D01*
X0195405Y0072163D01*
X0195474Y0072177D01*
X0195543Y0072194D01*
X0195610Y0072215D01*
X0195676Y0072240D01*
X0195740Y0072268D01*
X0195803Y0072300D01*
X0195864Y0072335D01*
X0195923Y0072374D01*
X0195980Y0072415D01*
X0196034Y0072460D01*
X0196086Y0072508D01*
X0196135Y0072558D01*
X0196182Y0072612D01*
X0196225Y0072667D01*
X0196265Y0072725D01*
X0196302Y0072785D01*
X0196335Y0072847D01*
X0196365Y0072911D01*
X0196392Y0072976D01*
X0196415Y0073042D01*
X0196434Y0073110D01*
X0196449Y0073179D01*
X0196461Y0073248D01*
X0196469Y0073318D01*
X0196473Y0073389D01*
X0196473Y0073459D01*
X0196469Y0073530D01*
X0196461Y0073600D01*
X0196449Y0073669D01*
X0196434Y0073738D01*
X0196415Y0073806D01*
X0196392Y0073872D01*
X0196365Y0073937D01*
X0196335Y0074001D01*
X0196302Y0074063D01*
X0196265Y0074123D01*
X0196225Y0074181D01*
X0196182Y0074236D01*
X0196135Y0074290D01*
X0196086Y0074340D01*
X0196034Y0074388D01*
X0195980Y0074433D01*
X0195923Y0074474D01*
X0195864Y0074513D01*
X0195803Y0074548D01*
X0195740Y0074580D01*
X0195676Y0074608D01*
X0195610Y0074633D01*
X0195543Y0074654D01*
X0195474Y0074671D01*
X0195405Y0074685D01*
X0195336Y0074694D01*
X0195265Y0074700D01*
X0195195Y0074702D01*
X0195451Y0074702D02*
X0194429Y0074702D01*
X0195451Y0074702D02*
X0195514Y0074704D01*
X0195577Y0074710D01*
X0195639Y0074719D01*
X0195700Y0074733D01*
X0195761Y0074750D01*
X0195820Y0074771D01*
X0195878Y0074796D01*
X0195935Y0074824D01*
X0195989Y0074855D01*
X0196041Y0074890D01*
X0196092Y0074928D01*
X0196140Y0074969D01*
X0196185Y0075013D01*
X0196227Y0075059D01*
X0196267Y0075108D01*
X0196303Y0075159D01*
X0196336Y0075213D01*
X0196366Y0075268D01*
X0196392Y0075326D01*
X0196415Y0075384D01*
X0196434Y0075444D01*
X0196449Y0075505D01*
X0196461Y0075567D01*
X0196469Y0075630D01*
X0196473Y0075693D01*
X0196473Y0075755D01*
X0196469Y0075818D01*
X0196461Y0075881D01*
X0196449Y0075943D01*
X0196434Y0076004D01*
X0196415Y0076064D01*
X0196392Y0076122D01*
X0196366Y0076180D01*
X0196336Y0076235D01*
X0196303Y0076289D01*
X0196267Y0076340D01*
X0196227Y0076389D01*
X0196185Y0076435D01*
X0196140Y0076479D01*
X0196092Y0076520D01*
X0196041Y0076558D01*
X0195989Y0076593D01*
X0195935Y0076624D01*
X0195878Y0076652D01*
X0195820Y0076677D01*
X0195761Y0076698D01*
X0195700Y0076715D01*
X0195639Y0076729D01*
X0195577Y0076738D01*
X0195514Y0076744D01*
X0195451Y0076746D01*
X0193917Y0076746D01*
X0190176Y0076746D02*
X0190176Y0072146D01*
X0203699Y0082000D02*
X0206254Y0082000D01*
X0206316Y0082002D01*
X0206377Y0082007D01*
X0206438Y0082017D01*
X0206499Y0082030D01*
X0206558Y0082046D01*
X0206616Y0082066D01*
X0206673Y0082090D01*
X0206729Y0082117D01*
X0206783Y0082147D01*
X0206835Y0082181D01*
X0206884Y0082217D01*
X0206932Y0082257D01*
X0206977Y0082299D01*
X0207019Y0082344D01*
X0207059Y0082392D01*
X0207095Y0082441D01*
X0207129Y0082493D01*
X0207159Y0082547D01*
X0207186Y0082603D01*
X0207210Y0082660D01*
X0207230Y0082718D01*
X0207246Y0082777D01*
X0207259Y0082838D01*
X0207269Y0082899D01*
X0207274Y0082960D01*
X0207276Y0083022D01*
X0207276Y0084044D01*
X0206254Y0085763D02*
X0202676Y0086785D01*
X0205232Y0087552D02*
X0207276Y0087552D01*
X0206254Y0088319D02*
X0206254Y0085763D01*
X0202677Y0083022D02*
X0202679Y0082960D01*
X0202684Y0082899D01*
X0202694Y0082838D01*
X0202707Y0082777D01*
X0202723Y0082718D01*
X0202743Y0082660D01*
X0202767Y0082603D01*
X0202794Y0082547D01*
X0202824Y0082493D01*
X0202858Y0082441D01*
X0202895Y0082392D01*
X0202934Y0082344D01*
X0202976Y0082299D01*
X0203021Y0082257D01*
X0203069Y0082217D01*
X0203118Y0082181D01*
X0203170Y0082147D01*
X0203224Y0082117D01*
X0203280Y0082090D01*
X0203337Y0082066D01*
X0203395Y0082046D01*
X0203454Y0082030D01*
X0203515Y0082017D01*
X0203576Y0082007D01*
X0203637Y0082002D01*
X0203699Y0082000D01*
X0202676Y0083022D02*
X0202676Y0084044D01*
X0210176Y0076746D02*
X0210176Y0072146D01*
X0212221Y0072146D01*
X0213917Y0073168D02*
X0216473Y0073168D01*
X0215706Y0072146D02*
X0215706Y0074191D01*
X0213917Y0073168D02*
X0214940Y0076746D01*
X0230676Y0074578D02*
X0230676Y0072022D01*
X0230677Y0072022D02*
X0230679Y0071960D01*
X0230684Y0071899D01*
X0230694Y0071838D01*
X0230707Y0071777D01*
X0230723Y0071718D01*
X0230743Y0071660D01*
X0230767Y0071603D01*
X0230794Y0071547D01*
X0230824Y0071493D01*
X0230858Y0071441D01*
X0230894Y0071392D01*
X0230934Y0071344D01*
X0230976Y0071299D01*
X0231021Y0071257D01*
X0231069Y0071217D01*
X0231118Y0071181D01*
X0231170Y0071147D01*
X0231224Y0071117D01*
X0231280Y0071090D01*
X0231337Y0071066D01*
X0231395Y0071046D01*
X0231454Y0071030D01*
X0231515Y0071017D01*
X0231576Y0071007D01*
X0231637Y0071002D01*
X0231699Y0071000D01*
X0232721Y0071000D01*
X0234439Y0071000D02*
X0235973Y0071000D01*
X0236035Y0071002D01*
X0236096Y0071007D01*
X0236157Y0071017D01*
X0236218Y0071030D01*
X0236277Y0071046D01*
X0236335Y0071066D01*
X0236392Y0071090D01*
X0236448Y0071117D01*
X0236502Y0071147D01*
X0236554Y0071181D01*
X0236603Y0071217D01*
X0236651Y0071257D01*
X0236696Y0071299D01*
X0236738Y0071344D01*
X0236778Y0071392D01*
X0236814Y0071441D01*
X0236848Y0071493D01*
X0236878Y0071547D01*
X0236905Y0071603D01*
X0236929Y0071660D01*
X0236949Y0071718D01*
X0236965Y0071777D01*
X0236978Y0071838D01*
X0236988Y0071899D01*
X0236993Y0071960D01*
X0236995Y0072022D01*
X0236995Y0072533D01*
X0236993Y0072595D01*
X0236988Y0072656D01*
X0236978Y0072717D01*
X0236965Y0072778D01*
X0236949Y0072837D01*
X0236929Y0072895D01*
X0236905Y0072952D01*
X0236878Y0073008D01*
X0236848Y0073062D01*
X0236814Y0073114D01*
X0236778Y0073163D01*
X0236738Y0073211D01*
X0236696Y0073256D01*
X0236651Y0073298D01*
X0236603Y0073338D01*
X0236554Y0073374D01*
X0236502Y0073408D01*
X0236448Y0073438D01*
X0236392Y0073465D01*
X0236335Y0073489D01*
X0236277Y0073509D01*
X0236218Y0073525D01*
X0236157Y0073538D01*
X0236096Y0073548D01*
X0236035Y0073553D01*
X0235973Y0073555D01*
X0235973Y0073556D02*
X0234439Y0073556D01*
X0234439Y0075600D01*
X0236995Y0075600D01*
X0232721Y0075600D02*
X0231699Y0075600D01*
X0231637Y0075598D01*
X0231576Y0075593D01*
X0231515Y0075583D01*
X0231454Y0075570D01*
X0231395Y0075554D01*
X0231337Y0075534D01*
X0231280Y0075510D01*
X0231224Y0075483D01*
X0231170Y0075453D01*
X0231118Y0075419D01*
X0231069Y0075382D01*
X0231021Y0075343D01*
X0230976Y0075301D01*
X0230934Y0075256D01*
X0230894Y0075208D01*
X0230858Y0075159D01*
X0230824Y0075107D01*
X0230794Y0075053D01*
X0230767Y0074997D01*
X0230743Y0074940D01*
X0230723Y0074882D01*
X0230707Y0074823D01*
X0230694Y0074762D01*
X0230684Y0074701D01*
X0230679Y0074640D01*
X0230677Y0074578D01*
X0250676Y0074578D02*
X0250676Y0072022D01*
X0250677Y0072022D02*
X0250679Y0071960D01*
X0250684Y0071899D01*
X0250694Y0071838D01*
X0250707Y0071777D01*
X0250723Y0071718D01*
X0250743Y0071660D01*
X0250767Y0071603D01*
X0250794Y0071547D01*
X0250824Y0071493D01*
X0250858Y0071441D01*
X0250894Y0071392D01*
X0250934Y0071344D01*
X0250976Y0071299D01*
X0251021Y0071257D01*
X0251069Y0071217D01*
X0251118Y0071181D01*
X0251170Y0071147D01*
X0251224Y0071117D01*
X0251280Y0071090D01*
X0251337Y0071066D01*
X0251395Y0071046D01*
X0251454Y0071030D01*
X0251515Y0071017D01*
X0251576Y0071007D01*
X0251637Y0071002D01*
X0251699Y0071000D01*
X0252721Y0071000D01*
X0254439Y0072278D02*
X0254439Y0073556D01*
X0255973Y0073556D01*
X0254440Y0073556D02*
X0254442Y0073645D01*
X0254448Y0073734D01*
X0254457Y0073823D01*
X0254471Y0073911D01*
X0254488Y0073998D01*
X0254510Y0074085D01*
X0254535Y0074171D01*
X0254563Y0074255D01*
X0254596Y0074338D01*
X0254632Y0074420D01*
X0254671Y0074500D01*
X0254714Y0074578D01*
X0254760Y0074654D01*
X0254810Y0074728D01*
X0254862Y0074800D01*
X0254918Y0074870D01*
X0254977Y0074937D01*
X0255039Y0075001D01*
X0255103Y0075063D01*
X0255170Y0075122D01*
X0255240Y0075178D01*
X0255312Y0075230D01*
X0255386Y0075280D01*
X0255462Y0075326D01*
X0255540Y0075369D01*
X0255620Y0075408D01*
X0255702Y0075444D01*
X0255785Y0075477D01*
X0255869Y0075505D01*
X0255955Y0075530D01*
X0256042Y0075552D01*
X0256129Y0075569D01*
X0256217Y0075583D01*
X0256306Y0075592D01*
X0256395Y0075598D01*
X0256484Y0075600D01*
X0256995Y0072533D02*
X0256995Y0072278D01*
X0256995Y0072533D02*
X0256993Y0072595D01*
X0256988Y0072656D01*
X0256978Y0072717D01*
X0256965Y0072778D01*
X0256949Y0072837D01*
X0256929Y0072895D01*
X0256905Y0072952D01*
X0256878Y0073008D01*
X0256848Y0073062D01*
X0256814Y0073114D01*
X0256778Y0073163D01*
X0256738Y0073211D01*
X0256696Y0073256D01*
X0256651Y0073298D01*
X0256603Y0073338D01*
X0256554Y0073374D01*
X0256502Y0073408D01*
X0256448Y0073438D01*
X0256392Y0073465D01*
X0256335Y0073489D01*
X0256277Y0073509D01*
X0256218Y0073525D01*
X0256157Y0073538D01*
X0256096Y0073548D01*
X0256035Y0073553D01*
X0255973Y0073555D01*
X0256995Y0072278D02*
X0256993Y0072208D01*
X0256987Y0072137D01*
X0256978Y0072068D01*
X0256964Y0071999D01*
X0256947Y0071930D01*
X0256926Y0071863D01*
X0256901Y0071797D01*
X0256873Y0071733D01*
X0256841Y0071670D01*
X0256806Y0071609D01*
X0256767Y0071550D01*
X0256726Y0071493D01*
X0256681Y0071439D01*
X0256633Y0071387D01*
X0256583Y0071338D01*
X0256529Y0071291D01*
X0256474Y0071248D01*
X0256416Y0071208D01*
X0256356Y0071171D01*
X0256294Y0071138D01*
X0256230Y0071108D01*
X0256165Y0071081D01*
X0256099Y0071058D01*
X0256031Y0071039D01*
X0255962Y0071024D01*
X0255893Y0071012D01*
X0255823Y0071004D01*
X0255752Y0071000D01*
X0255682Y0071000D01*
X0255611Y0071004D01*
X0255541Y0071012D01*
X0255472Y0071024D01*
X0255403Y0071039D01*
X0255335Y0071058D01*
X0255269Y0071081D01*
X0255204Y0071108D01*
X0255140Y0071138D01*
X0255078Y0071171D01*
X0255018Y0071208D01*
X0254960Y0071248D01*
X0254905Y0071291D01*
X0254851Y0071338D01*
X0254801Y0071387D01*
X0254753Y0071439D01*
X0254708Y0071493D01*
X0254667Y0071550D01*
X0254628Y0071609D01*
X0254593Y0071670D01*
X0254561Y0071733D01*
X0254533Y0071797D01*
X0254508Y0071863D01*
X0254487Y0071930D01*
X0254470Y0071999D01*
X0254456Y0072068D01*
X0254447Y0072137D01*
X0254441Y0072208D01*
X0254439Y0072278D01*
X0251699Y0075600D02*
X0251637Y0075598D01*
X0251576Y0075593D01*
X0251515Y0075583D01*
X0251454Y0075570D01*
X0251395Y0075554D01*
X0251337Y0075534D01*
X0251280Y0075510D01*
X0251224Y0075483D01*
X0251170Y0075453D01*
X0251118Y0075419D01*
X0251069Y0075382D01*
X0251021Y0075343D01*
X0250976Y0075301D01*
X0250934Y0075256D01*
X0250894Y0075208D01*
X0250858Y0075159D01*
X0250824Y0075107D01*
X0250794Y0075053D01*
X0250767Y0074997D01*
X0250743Y0074940D01*
X0250723Y0074882D01*
X0250707Y0074823D01*
X0250694Y0074762D01*
X0250684Y0074701D01*
X0250679Y0074640D01*
X0250677Y0074578D01*
X0251699Y0075600D02*
X0252721Y0075600D01*
X0171473Y0079146D02*
X0168917Y0079146D01*
X0171090Y0081702D01*
X0170323Y0083746D02*
X0170249Y0083744D01*
X0170175Y0083739D01*
X0170101Y0083729D01*
X0170028Y0083716D01*
X0169955Y0083700D01*
X0169884Y0083679D01*
X0169814Y0083655D01*
X0169745Y0083628D01*
X0169677Y0083597D01*
X0169611Y0083563D01*
X0169547Y0083526D01*
X0169485Y0083485D01*
X0169425Y0083441D01*
X0169367Y0083395D01*
X0169311Y0083345D01*
X0169258Y0083293D01*
X0169208Y0083238D01*
X0169161Y0083181D01*
X0169117Y0083121D01*
X0169075Y0083059D01*
X0169037Y0082996D01*
X0169002Y0082930D01*
X0168971Y0082863D01*
X0168943Y0082794D01*
X0168918Y0082724D01*
X0171090Y0081702D02*
X0171137Y0081749D01*
X0171181Y0081799D01*
X0171223Y0081851D01*
X0171262Y0081905D01*
X0171297Y0081961D01*
X0171330Y0082019D01*
X0171360Y0082079D01*
X0171386Y0082140D01*
X0171409Y0082203D01*
X0171428Y0082267D01*
X0171444Y0082331D01*
X0171457Y0082397D01*
X0171466Y0082463D01*
X0171471Y0082529D01*
X0171473Y0082596D01*
X0171471Y0082663D01*
X0171465Y0082730D01*
X0171456Y0082796D01*
X0171442Y0082861D01*
X0171425Y0082926D01*
X0171404Y0082989D01*
X0171379Y0083051D01*
X0171351Y0083112D01*
X0171319Y0083171D01*
X0171284Y0083228D01*
X0171245Y0083283D01*
X0171204Y0083335D01*
X0171159Y0083385D01*
X0171112Y0083432D01*
X0171062Y0083477D01*
X0171010Y0083518D01*
X0170955Y0083557D01*
X0170898Y0083592D01*
X0170839Y0083624D01*
X0170778Y0083652D01*
X0170716Y0083677D01*
X0170653Y0083698D01*
X0170588Y0083715D01*
X0170523Y0083729D01*
X0170457Y0083738D01*
X0170390Y0083744D01*
X0170323Y0083746D01*
X0165176Y0083746D02*
X0165176Y0079146D01*
X0167221Y0079146D01*
X0136254Y0027819D02*
X0135743Y0027819D01*
X0135743Y0027818D02*
X0135681Y0027816D01*
X0135620Y0027811D01*
X0135559Y0027801D01*
X0135498Y0027788D01*
X0135439Y0027772D01*
X0135381Y0027752D01*
X0135324Y0027728D01*
X0135268Y0027701D01*
X0135214Y0027671D01*
X0135162Y0027637D01*
X0135113Y0027601D01*
X0135065Y0027561D01*
X0135020Y0027519D01*
X0134978Y0027474D01*
X0134938Y0027426D01*
X0134902Y0027377D01*
X0134868Y0027325D01*
X0134838Y0027271D01*
X0134811Y0027215D01*
X0134787Y0027158D01*
X0134767Y0027100D01*
X0134751Y0027041D01*
X0134738Y0026980D01*
X0134728Y0026919D01*
X0134723Y0026858D01*
X0134721Y0026796D01*
X0134721Y0025263D01*
X0132676Y0025263D01*
X0132676Y0027819D01*
X0136254Y0027818D02*
X0136316Y0027816D01*
X0136377Y0027811D01*
X0136438Y0027801D01*
X0136499Y0027788D01*
X0136558Y0027772D01*
X0136616Y0027752D01*
X0136673Y0027728D01*
X0136729Y0027701D01*
X0136783Y0027671D01*
X0136835Y0027637D01*
X0136884Y0027601D01*
X0136932Y0027561D01*
X0136977Y0027519D01*
X0137019Y0027474D01*
X0137059Y0027426D01*
X0137095Y0027377D01*
X0137129Y0027325D01*
X0137159Y0027271D01*
X0137186Y0027215D01*
X0137210Y0027158D01*
X0137230Y0027100D01*
X0137246Y0027041D01*
X0137259Y0026980D01*
X0137269Y0026919D01*
X0137274Y0026858D01*
X0137276Y0026796D01*
X0137276Y0025263D01*
X0137276Y0023319D02*
X0137276Y0020763D01*
X0137276Y0022041D02*
X0132676Y0022041D01*
X0133699Y0020763D01*
X0132676Y0019044D02*
X0132676Y0018022D01*
X0132677Y0018022D02*
X0132679Y0017960D01*
X0132684Y0017899D01*
X0132694Y0017838D01*
X0132707Y0017777D01*
X0132723Y0017718D01*
X0132743Y0017660D01*
X0132767Y0017603D01*
X0132794Y0017547D01*
X0132824Y0017493D01*
X0132858Y0017441D01*
X0132895Y0017392D01*
X0132934Y0017344D01*
X0132976Y0017299D01*
X0133021Y0017257D01*
X0133069Y0017217D01*
X0133118Y0017181D01*
X0133170Y0017147D01*
X0133224Y0017117D01*
X0133280Y0017090D01*
X0133337Y0017066D01*
X0133395Y0017046D01*
X0133454Y0017030D01*
X0133515Y0017017D01*
X0133576Y0017007D01*
X0133637Y0017002D01*
X0133699Y0017000D01*
X0136254Y0017000D01*
X0136316Y0017002D01*
X0136377Y0017007D01*
X0136438Y0017017D01*
X0136499Y0017030D01*
X0136558Y0017046D01*
X0136616Y0017066D01*
X0136673Y0017090D01*
X0136729Y0017117D01*
X0136783Y0017147D01*
X0136835Y0017181D01*
X0136884Y0017217D01*
X0136932Y0017257D01*
X0136977Y0017299D01*
X0137019Y0017344D01*
X0137059Y0017392D01*
X0137095Y0017441D01*
X0137129Y0017493D01*
X0137159Y0017547D01*
X0137186Y0017603D01*
X0137210Y0017660D01*
X0137230Y0017718D01*
X0137246Y0017777D01*
X0137259Y0017838D01*
X0137269Y0017899D01*
X0137274Y0017960D01*
X0137276Y0018022D01*
X0137276Y0019044D01*
X0148176Y0019522D02*
X0148176Y0020544D01*
X0148177Y0019522D02*
X0148179Y0019460D01*
X0148184Y0019399D01*
X0148194Y0019338D01*
X0148207Y0019277D01*
X0148223Y0019218D01*
X0148243Y0019160D01*
X0148267Y0019103D01*
X0148294Y0019047D01*
X0148324Y0018993D01*
X0148358Y0018941D01*
X0148395Y0018892D01*
X0148434Y0018844D01*
X0148476Y0018799D01*
X0148521Y0018757D01*
X0148569Y0018717D01*
X0148618Y0018681D01*
X0148670Y0018647D01*
X0148724Y0018617D01*
X0148780Y0018590D01*
X0148837Y0018566D01*
X0148895Y0018546D01*
X0148954Y0018530D01*
X0149015Y0018517D01*
X0149076Y0018507D01*
X0149137Y0018502D01*
X0149199Y0018500D01*
X0151754Y0018500D01*
X0151816Y0018502D01*
X0151877Y0018507D01*
X0151938Y0018517D01*
X0151999Y0018530D01*
X0152058Y0018546D01*
X0152116Y0018566D01*
X0152173Y0018590D01*
X0152229Y0018617D01*
X0152283Y0018647D01*
X0152335Y0018681D01*
X0152384Y0018717D01*
X0152432Y0018757D01*
X0152477Y0018799D01*
X0152519Y0018844D01*
X0152559Y0018892D01*
X0152595Y0018941D01*
X0152629Y0018993D01*
X0152659Y0019047D01*
X0152686Y0019103D01*
X0152710Y0019160D01*
X0152730Y0019218D01*
X0152746Y0019277D01*
X0152759Y0019338D01*
X0152769Y0019399D01*
X0152774Y0019460D01*
X0152776Y0019522D01*
X0152776Y0020544D01*
X0152776Y0022263D02*
X0152776Y0024819D01*
X0152776Y0022263D02*
X0150221Y0024435D01*
X0148177Y0023669D02*
X0148179Y0023595D01*
X0148184Y0023521D01*
X0148194Y0023447D01*
X0148207Y0023374D01*
X0148223Y0023301D01*
X0148244Y0023230D01*
X0148268Y0023160D01*
X0148295Y0023091D01*
X0148326Y0023023D01*
X0148360Y0022957D01*
X0148397Y0022893D01*
X0148438Y0022831D01*
X0148482Y0022770D01*
X0148528Y0022713D01*
X0148578Y0022657D01*
X0148630Y0022604D01*
X0148685Y0022554D01*
X0148742Y0022507D01*
X0148802Y0022463D01*
X0148864Y0022421D01*
X0148927Y0022383D01*
X0148993Y0022348D01*
X0149060Y0022317D01*
X0149129Y0022289D01*
X0149199Y0022264D01*
X0150220Y0024435D02*
X0150173Y0024482D01*
X0150123Y0024526D01*
X0150071Y0024568D01*
X0150017Y0024607D01*
X0149961Y0024642D01*
X0149903Y0024675D01*
X0149843Y0024705D01*
X0149782Y0024731D01*
X0149719Y0024754D01*
X0149655Y0024773D01*
X0149591Y0024789D01*
X0149525Y0024802D01*
X0149459Y0024811D01*
X0149393Y0024816D01*
X0149326Y0024818D01*
X0149326Y0024819D02*
X0149259Y0024817D01*
X0149192Y0024811D01*
X0149126Y0024802D01*
X0149061Y0024788D01*
X0148996Y0024771D01*
X0148933Y0024750D01*
X0148871Y0024725D01*
X0148810Y0024697D01*
X0148751Y0024665D01*
X0148694Y0024630D01*
X0148639Y0024591D01*
X0148587Y0024550D01*
X0148537Y0024505D01*
X0148490Y0024458D01*
X0148445Y0024408D01*
X0148404Y0024356D01*
X0148365Y0024301D01*
X0148330Y0024244D01*
X0148298Y0024185D01*
X0148270Y0024124D01*
X0148245Y0024062D01*
X0148224Y0023999D01*
X0148207Y0023934D01*
X0148193Y0023869D01*
X0148184Y0023803D01*
X0148178Y0023736D01*
X0148176Y0023669D01*
X0118439Y0008800D02*
X0118441Y0008685D01*
X0118446Y0008571D01*
X0118455Y0008457D01*
X0118467Y0008343D01*
X0118482Y0008229D01*
X0118501Y0008116D01*
X0118524Y0008004D01*
X0118549Y0007892D01*
X0118579Y0007781D01*
X0118611Y0007671D01*
X0118647Y0007562D01*
X0118686Y0007454D01*
X0118728Y0007348D01*
X0118774Y0007243D01*
X0118822Y0007139D01*
X0118695Y0007522D02*
X0120739Y0010078D01*
X0120612Y0010461D02*
X0120591Y0010516D01*
X0120567Y0010569D01*
X0120540Y0010621D01*
X0120509Y0010671D01*
X0120476Y0010719D01*
X0120439Y0010765D01*
X0120400Y0010809D01*
X0120358Y0010850D01*
X0120314Y0010888D01*
X0120267Y0010924D01*
X0120218Y0010956D01*
X0120167Y0010986D01*
X0120115Y0011012D01*
X0120061Y0011035D01*
X0120006Y0011055D01*
X0119949Y0011071D01*
X0119892Y0011084D01*
X0119834Y0011093D01*
X0119776Y0011098D01*
X0119717Y0011100D01*
X0119658Y0011098D01*
X0119600Y0011093D01*
X0119542Y0011084D01*
X0119485Y0011071D01*
X0119428Y0011055D01*
X0119373Y0011035D01*
X0119319Y0011012D01*
X0119267Y0010986D01*
X0119216Y0010956D01*
X0119167Y0010924D01*
X0119120Y0010888D01*
X0119076Y0010850D01*
X0119034Y0010809D01*
X0118995Y0010765D01*
X0118958Y0010719D01*
X0118925Y0010671D01*
X0118894Y0010621D01*
X0118867Y0010569D01*
X0118843Y0010516D01*
X0118822Y0010461D01*
X0120612Y0010461D02*
X0120660Y0010357D01*
X0120706Y0010252D01*
X0120748Y0010146D01*
X0120787Y0010038D01*
X0120823Y0009929D01*
X0120855Y0009819D01*
X0120885Y0009708D01*
X0120910Y0009596D01*
X0120933Y0009484D01*
X0120952Y0009371D01*
X0120967Y0009257D01*
X0120979Y0009143D01*
X0120988Y0009029D01*
X0120993Y0008915D01*
X0120995Y0008800D01*
X0118439Y0008800D02*
X0118441Y0008915D01*
X0118446Y0009029D01*
X0118455Y0009143D01*
X0118467Y0009257D01*
X0118482Y0009371D01*
X0118501Y0009484D01*
X0118524Y0009596D01*
X0118549Y0009708D01*
X0118579Y0009819D01*
X0118611Y0009929D01*
X0118647Y0010038D01*
X0118686Y0010146D01*
X0118728Y0010252D01*
X0118774Y0010357D01*
X0118822Y0010461D01*
X0120995Y0008800D02*
X0120993Y0008685D01*
X0120988Y0008571D01*
X0120979Y0008457D01*
X0120967Y0008343D01*
X0120952Y0008229D01*
X0120933Y0008116D01*
X0120910Y0008004D01*
X0120885Y0007892D01*
X0120855Y0007781D01*
X0120823Y0007671D01*
X0120787Y0007562D01*
X0120748Y0007454D01*
X0120706Y0007348D01*
X0120660Y0007243D01*
X0120612Y0007139D01*
X0120591Y0007084D01*
X0120567Y0007031D01*
X0120540Y0006979D01*
X0120509Y0006929D01*
X0120476Y0006881D01*
X0120439Y0006835D01*
X0120400Y0006791D01*
X0120358Y0006750D01*
X0120314Y0006712D01*
X0120267Y0006676D01*
X0120218Y0006644D01*
X0120167Y0006614D01*
X0120115Y0006588D01*
X0120061Y0006565D01*
X0120006Y0006545D01*
X0119949Y0006529D01*
X0119892Y0006516D01*
X0119834Y0006507D01*
X0119776Y0006502D01*
X0119717Y0006500D01*
X0119658Y0006502D01*
X0119600Y0006507D01*
X0119542Y0006516D01*
X0119485Y0006529D01*
X0119428Y0006545D01*
X0119373Y0006565D01*
X0119319Y0006588D01*
X0119267Y0006614D01*
X0119216Y0006644D01*
X0119167Y0006676D01*
X0119120Y0006712D01*
X0119076Y0006750D01*
X0119034Y0006791D01*
X0118995Y0006835D01*
X0118958Y0006881D01*
X0118925Y0006929D01*
X0118894Y0006979D01*
X0118867Y0007031D01*
X0118843Y0007084D01*
X0118822Y0007139D01*
X0116495Y0006500D02*
X0113939Y0006500D01*
X0115217Y0006500D02*
X0115217Y0011100D01*
X0113939Y0010078D01*
X0112221Y0011100D02*
X0111199Y0011100D01*
X0111137Y0011098D01*
X0111076Y0011093D01*
X0111015Y0011083D01*
X0110954Y0011070D01*
X0110895Y0011054D01*
X0110837Y0011034D01*
X0110780Y0011010D01*
X0110724Y0010983D01*
X0110670Y0010953D01*
X0110618Y0010919D01*
X0110569Y0010882D01*
X0110521Y0010843D01*
X0110476Y0010801D01*
X0110434Y0010756D01*
X0110394Y0010708D01*
X0110358Y0010659D01*
X0110324Y0010607D01*
X0110294Y0010553D01*
X0110267Y0010497D01*
X0110243Y0010440D01*
X0110223Y0010382D01*
X0110207Y0010323D01*
X0110194Y0010262D01*
X0110184Y0010201D01*
X0110179Y0010140D01*
X0110177Y0010078D01*
X0110176Y0010078D02*
X0110176Y0007522D01*
X0110177Y0007522D02*
X0110179Y0007460D01*
X0110184Y0007399D01*
X0110194Y0007338D01*
X0110207Y0007277D01*
X0110223Y0007218D01*
X0110243Y0007160D01*
X0110267Y0007103D01*
X0110294Y0007047D01*
X0110324Y0006993D01*
X0110358Y0006941D01*
X0110394Y0006892D01*
X0110434Y0006844D01*
X0110476Y0006799D01*
X0110521Y0006757D01*
X0110569Y0006717D01*
X0110618Y0006681D01*
X0110670Y0006647D01*
X0110724Y0006617D01*
X0110780Y0006590D01*
X0110837Y0006566D01*
X0110895Y0006546D01*
X0110954Y0006530D01*
X0111015Y0006517D01*
X0111076Y0006507D01*
X0111137Y0006502D01*
X0111199Y0006500D01*
X0112221Y0006500D01*
X0096495Y0011100D02*
X0095217Y0006500D01*
X0092221Y0006500D02*
X0091199Y0006500D01*
X0091137Y0006502D01*
X0091076Y0006507D01*
X0091015Y0006517D01*
X0090954Y0006530D01*
X0090895Y0006546D01*
X0090837Y0006566D01*
X0090780Y0006590D01*
X0090724Y0006617D01*
X0090670Y0006647D01*
X0090618Y0006681D01*
X0090569Y0006717D01*
X0090521Y0006757D01*
X0090476Y0006799D01*
X0090434Y0006844D01*
X0090394Y0006892D01*
X0090358Y0006941D01*
X0090324Y0006993D01*
X0090294Y0007047D01*
X0090267Y0007103D01*
X0090243Y0007160D01*
X0090223Y0007218D01*
X0090207Y0007277D01*
X0090194Y0007338D01*
X0090184Y0007399D01*
X0090179Y0007460D01*
X0090177Y0007522D01*
X0090176Y0007522D02*
X0090176Y0010078D01*
X0090177Y0010078D02*
X0090179Y0010140D01*
X0090184Y0010201D01*
X0090194Y0010262D01*
X0090207Y0010323D01*
X0090223Y0010382D01*
X0090243Y0010440D01*
X0090267Y0010497D01*
X0090294Y0010553D01*
X0090324Y0010607D01*
X0090358Y0010659D01*
X0090394Y0010708D01*
X0090434Y0010756D01*
X0090476Y0010801D01*
X0090521Y0010843D01*
X0090569Y0010882D01*
X0090618Y0010919D01*
X0090670Y0010953D01*
X0090724Y0010983D01*
X0090780Y0011010D01*
X0090837Y0011034D01*
X0090895Y0011054D01*
X0090954Y0011070D01*
X0091015Y0011083D01*
X0091076Y0011093D01*
X0091137Y0011098D01*
X0091199Y0011100D01*
X0092221Y0011100D01*
X0093939Y0011100D02*
X0096495Y0011100D01*
X0093939Y0011100D02*
X0093939Y0010589D01*
X0025276Y0146000D02*
X0020676Y0146000D01*
X0020676Y0148044D01*
X0021699Y0149741D02*
X0020676Y0151019D01*
X0025276Y0151019D01*
X0025276Y0149741D02*
X0025276Y0152297D01*
X0022721Y0148044D02*
X0022721Y0146000D01*
X0017254Y0166000D02*
X0014699Y0166000D01*
X0014637Y0166002D01*
X0014576Y0166007D01*
X0014515Y0166017D01*
X0014454Y0166030D01*
X0014395Y0166046D01*
X0014337Y0166066D01*
X0014280Y0166090D01*
X0014224Y0166117D01*
X0014170Y0166147D01*
X0014118Y0166181D01*
X0014069Y0166217D01*
X0014021Y0166257D01*
X0013976Y0166299D01*
X0013934Y0166344D01*
X0013895Y0166392D01*
X0013858Y0166441D01*
X0013824Y0166493D01*
X0013794Y0166547D01*
X0013767Y0166603D01*
X0013743Y0166660D01*
X0013723Y0166718D01*
X0013707Y0166777D01*
X0013694Y0166838D01*
X0013684Y0166899D01*
X0013679Y0166960D01*
X0013677Y0167022D01*
X0013676Y0167022D02*
X0013676Y0168044D01*
X0014699Y0169763D02*
X0013676Y0171041D01*
X0018276Y0171041D01*
X0018276Y0169763D02*
X0018276Y0172319D01*
X0018276Y0174263D02*
X0018276Y0176819D01*
X0018276Y0175541D02*
X0013676Y0175541D01*
X0014699Y0174263D01*
X0018276Y0168044D02*
X0018276Y0167022D01*
X0018274Y0166960D01*
X0018269Y0166899D01*
X0018259Y0166838D01*
X0018246Y0166777D01*
X0018230Y0166718D01*
X0018210Y0166660D01*
X0018186Y0166603D01*
X0018159Y0166547D01*
X0018129Y0166493D01*
X0018095Y0166441D01*
X0018059Y0166392D01*
X0018019Y0166344D01*
X0017977Y0166299D01*
X0017932Y0166257D01*
X0017884Y0166217D01*
X0017835Y0166181D01*
X0017783Y0166147D01*
X0017729Y0166117D01*
X0017673Y0166090D01*
X0017616Y0166066D01*
X0017558Y0166046D01*
X0017499Y0166030D01*
X0017438Y0166017D01*
X0017377Y0166007D01*
X0017316Y0166002D01*
X0017254Y0166000D01*
X0050176Y0178032D02*
X0050176Y0181355D01*
X0052732Y0181355D02*
X0052732Y0178032D01*
X0052730Y0177962D01*
X0052724Y0177891D01*
X0052715Y0177822D01*
X0052701Y0177753D01*
X0052684Y0177684D01*
X0052663Y0177617D01*
X0052638Y0177551D01*
X0052610Y0177487D01*
X0052578Y0177424D01*
X0052543Y0177363D01*
X0052504Y0177304D01*
X0052463Y0177247D01*
X0052418Y0177193D01*
X0052370Y0177141D01*
X0052320Y0177092D01*
X0052266Y0177045D01*
X0052211Y0177002D01*
X0052153Y0176962D01*
X0052093Y0176925D01*
X0052031Y0176892D01*
X0051967Y0176862D01*
X0051902Y0176835D01*
X0051836Y0176812D01*
X0051768Y0176793D01*
X0051699Y0176778D01*
X0051630Y0176766D01*
X0051560Y0176758D01*
X0051489Y0176754D01*
X0051419Y0176754D01*
X0051348Y0176758D01*
X0051278Y0176766D01*
X0051209Y0176778D01*
X0051140Y0176793D01*
X0051072Y0176812D01*
X0051006Y0176835D01*
X0050941Y0176862D01*
X0050877Y0176892D01*
X0050815Y0176925D01*
X0050755Y0176962D01*
X0050697Y0177002D01*
X0050642Y0177045D01*
X0050588Y0177092D01*
X0050538Y0177141D01*
X0050490Y0177193D01*
X0050445Y0177247D01*
X0050404Y0177304D01*
X0050365Y0177363D01*
X0050330Y0177424D01*
X0050298Y0177487D01*
X0050270Y0177551D01*
X0050245Y0177617D01*
X0050224Y0177684D01*
X0050207Y0177753D01*
X0050193Y0177822D01*
X0050184Y0177891D01*
X0050178Y0177962D01*
X0050176Y0178032D01*
X0054826Y0176755D02*
X0057382Y0176755D01*
X0056104Y0176755D02*
X0056104Y0181355D01*
X0054826Y0180332D01*
X0073530Y0169152D02*
X0078130Y0169152D01*
X0078130Y0171196D01*
X0076853Y0172893D02*
X0075575Y0172893D01*
X0075575Y0174426D01*
X0075575Y0172893D02*
X0075486Y0172895D01*
X0075397Y0172901D01*
X0075308Y0172910D01*
X0075220Y0172924D01*
X0075133Y0172941D01*
X0075046Y0172963D01*
X0074960Y0172988D01*
X0074876Y0173016D01*
X0074793Y0173049D01*
X0074711Y0173085D01*
X0074631Y0173124D01*
X0074553Y0173167D01*
X0074477Y0173213D01*
X0074403Y0173263D01*
X0074331Y0173315D01*
X0074261Y0173371D01*
X0074194Y0173430D01*
X0074130Y0173492D01*
X0074068Y0173556D01*
X0074009Y0173623D01*
X0073953Y0173693D01*
X0073901Y0173765D01*
X0073851Y0173839D01*
X0073805Y0173915D01*
X0073762Y0173993D01*
X0073723Y0174073D01*
X0073687Y0174155D01*
X0073654Y0174238D01*
X0073626Y0174322D01*
X0073601Y0174408D01*
X0073579Y0174495D01*
X0073562Y0174582D01*
X0073548Y0174670D01*
X0073539Y0174759D01*
X0073533Y0174848D01*
X0073531Y0174937D01*
X0075575Y0174426D02*
X0075577Y0174488D01*
X0075582Y0174549D01*
X0075592Y0174610D01*
X0075605Y0174671D01*
X0075621Y0174730D01*
X0075641Y0174788D01*
X0075665Y0174845D01*
X0075692Y0174901D01*
X0075722Y0174955D01*
X0075756Y0175007D01*
X0075792Y0175056D01*
X0075832Y0175104D01*
X0075874Y0175149D01*
X0075919Y0175191D01*
X0075967Y0175231D01*
X0076016Y0175267D01*
X0076068Y0175301D01*
X0076122Y0175331D01*
X0076178Y0175358D01*
X0076235Y0175382D01*
X0076293Y0175402D01*
X0076352Y0175418D01*
X0076413Y0175431D01*
X0076474Y0175441D01*
X0076535Y0175446D01*
X0076597Y0175448D01*
X0076853Y0175448D01*
X0076853Y0175449D02*
X0076923Y0175447D01*
X0076994Y0175441D01*
X0077063Y0175432D01*
X0077132Y0175418D01*
X0077201Y0175401D01*
X0077268Y0175380D01*
X0077334Y0175355D01*
X0077398Y0175327D01*
X0077461Y0175295D01*
X0077522Y0175260D01*
X0077581Y0175221D01*
X0077638Y0175180D01*
X0077692Y0175135D01*
X0077744Y0175087D01*
X0077793Y0175037D01*
X0077840Y0174983D01*
X0077883Y0174928D01*
X0077923Y0174870D01*
X0077960Y0174810D01*
X0077993Y0174748D01*
X0078023Y0174684D01*
X0078050Y0174619D01*
X0078073Y0174553D01*
X0078092Y0174485D01*
X0078107Y0174416D01*
X0078119Y0174347D01*
X0078127Y0174277D01*
X0078131Y0174206D01*
X0078131Y0174136D01*
X0078127Y0174065D01*
X0078119Y0173995D01*
X0078107Y0173926D01*
X0078092Y0173857D01*
X0078073Y0173789D01*
X0078050Y0173723D01*
X0078023Y0173658D01*
X0077993Y0173594D01*
X0077960Y0173532D01*
X0077923Y0173472D01*
X0077883Y0173414D01*
X0077840Y0173359D01*
X0077793Y0173305D01*
X0077744Y0173255D01*
X0077692Y0173207D01*
X0077638Y0173162D01*
X0077581Y0173121D01*
X0077522Y0173082D01*
X0077461Y0173047D01*
X0077398Y0173015D01*
X0077334Y0172987D01*
X0077268Y0172962D01*
X0077201Y0172941D01*
X0077132Y0172924D01*
X0077063Y0172910D01*
X0076994Y0172901D01*
X0076923Y0172895D01*
X0076853Y0172893D01*
X0053995Y0199000D02*
X0051439Y0199000D01*
X0052717Y0199000D02*
X0052717Y0203600D01*
X0051439Y0202578D01*
X0049721Y0203600D02*
X0048699Y0203600D01*
X0048637Y0203598D01*
X0048576Y0203593D01*
X0048515Y0203583D01*
X0048454Y0203570D01*
X0048395Y0203554D01*
X0048337Y0203534D01*
X0048280Y0203510D01*
X0048224Y0203483D01*
X0048170Y0203453D01*
X0048118Y0203419D01*
X0048069Y0203382D01*
X0048021Y0203343D01*
X0047976Y0203301D01*
X0047934Y0203256D01*
X0047894Y0203208D01*
X0047858Y0203159D01*
X0047824Y0203107D01*
X0047794Y0203053D01*
X0047767Y0202997D01*
X0047743Y0202940D01*
X0047723Y0202882D01*
X0047707Y0202823D01*
X0047694Y0202762D01*
X0047684Y0202701D01*
X0047679Y0202640D01*
X0047677Y0202578D01*
X0047676Y0202578D02*
X0047676Y0200022D01*
X0047677Y0200022D02*
X0047679Y0199960D01*
X0047684Y0199899D01*
X0047694Y0199838D01*
X0047707Y0199777D01*
X0047723Y0199718D01*
X0047743Y0199660D01*
X0047767Y0199603D01*
X0047794Y0199547D01*
X0047824Y0199493D01*
X0047858Y0199441D01*
X0047894Y0199392D01*
X0047934Y0199344D01*
X0047976Y0199299D01*
X0048021Y0199257D01*
X0048069Y0199217D01*
X0048118Y0199181D01*
X0048170Y0199147D01*
X0048224Y0199117D01*
X0048280Y0199090D01*
X0048337Y0199066D01*
X0048395Y0199046D01*
X0048454Y0199030D01*
X0048515Y0199017D01*
X0048576Y0199007D01*
X0048637Y0199002D01*
X0048699Y0199000D01*
X0049721Y0199000D01*
X0055939Y0200278D02*
X0055939Y0201556D01*
X0057473Y0201556D01*
X0055940Y0201556D02*
X0055942Y0201645D01*
X0055948Y0201734D01*
X0055957Y0201823D01*
X0055971Y0201911D01*
X0055988Y0201998D01*
X0056010Y0202085D01*
X0056035Y0202171D01*
X0056063Y0202255D01*
X0056096Y0202338D01*
X0056132Y0202420D01*
X0056171Y0202500D01*
X0056214Y0202578D01*
X0056260Y0202654D01*
X0056310Y0202728D01*
X0056362Y0202800D01*
X0056418Y0202870D01*
X0056477Y0202937D01*
X0056539Y0203001D01*
X0056603Y0203063D01*
X0056670Y0203122D01*
X0056740Y0203178D01*
X0056812Y0203230D01*
X0056886Y0203280D01*
X0056962Y0203326D01*
X0057040Y0203369D01*
X0057120Y0203408D01*
X0057202Y0203444D01*
X0057285Y0203477D01*
X0057369Y0203505D01*
X0057455Y0203530D01*
X0057542Y0203552D01*
X0057629Y0203569D01*
X0057717Y0203583D01*
X0057806Y0203592D01*
X0057895Y0203598D01*
X0057984Y0203600D01*
X0058495Y0200533D02*
X0058495Y0200278D01*
X0058495Y0200533D02*
X0058493Y0200595D01*
X0058488Y0200656D01*
X0058478Y0200717D01*
X0058465Y0200778D01*
X0058449Y0200837D01*
X0058429Y0200895D01*
X0058405Y0200952D01*
X0058378Y0201008D01*
X0058348Y0201062D01*
X0058314Y0201114D01*
X0058278Y0201163D01*
X0058238Y0201211D01*
X0058196Y0201256D01*
X0058151Y0201298D01*
X0058103Y0201338D01*
X0058054Y0201374D01*
X0058002Y0201408D01*
X0057948Y0201438D01*
X0057892Y0201465D01*
X0057835Y0201489D01*
X0057777Y0201509D01*
X0057718Y0201525D01*
X0057657Y0201538D01*
X0057596Y0201548D01*
X0057535Y0201553D01*
X0057473Y0201555D01*
X0058495Y0200278D02*
X0058493Y0200208D01*
X0058487Y0200137D01*
X0058478Y0200068D01*
X0058464Y0199999D01*
X0058447Y0199930D01*
X0058426Y0199863D01*
X0058401Y0199797D01*
X0058373Y0199733D01*
X0058341Y0199670D01*
X0058306Y0199609D01*
X0058267Y0199550D01*
X0058226Y0199493D01*
X0058181Y0199439D01*
X0058133Y0199387D01*
X0058083Y0199338D01*
X0058029Y0199291D01*
X0057974Y0199248D01*
X0057916Y0199208D01*
X0057856Y0199171D01*
X0057794Y0199138D01*
X0057730Y0199108D01*
X0057665Y0199081D01*
X0057599Y0199058D01*
X0057531Y0199039D01*
X0057462Y0199024D01*
X0057393Y0199012D01*
X0057323Y0199004D01*
X0057252Y0199000D01*
X0057182Y0199000D01*
X0057111Y0199004D01*
X0057041Y0199012D01*
X0056972Y0199024D01*
X0056903Y0199039D01*
X0056835Y0199058D01*
X0056769Y0199081D01*
X0056704Y0199108D01*
X0056640Y0199138D01*
X0056578Y0199171D01*
X0056518Y0199208D01*
X0056460Y0199248D01*
X0056405Y0199291D01*
X0056351Y0199338D01*
X0056301Y0199387D01*
X0056253Y0199439D01*
X0056208Y0199493D01*
X0056167Y0199550D01*
X0056128Y0199609D01*
X0056093Y0199670D01*
X0056061Y0199733D01*
X0056033Y0199797D01*
X0056008Y0199863D01*
X0055987Y0199930D01*
X0055970Y0199999D01*
X0055956Y0200068D01*
X0055947Y0200137D01*
X0055941Y0200208D01*
X0055939Y0200278D01*
X0140676Y0202000D02*
X0140676Y0206600D01*
X0141954Y0206600D01*
X0142024Y0206598D01*
X0142095Y0206592D01*
X0142164Y0206583D01*
X0142233Y0206569D01*
X0142302Y0206552D01*
X0142369Y0206531D01*
X0142435Y0206506D01*
X0142499Y0206478D01*
X0142562Y0206446D01*
X0142623Y0206411D01*
X0142682Y0206372D01*
X0142739Y0206331D01*
X0142793Y0206286D01*
X0142845Y0206238D01*
X0142894Y0206188D01*
X0142941Y0206134D01*
X0142984Y0206079D01*
X0143024Y0206021D01*
X0143061Y0205961D01*
X0143094Y0205899D01*
X0143124Y0205835D01*
X0143151Y0205770D01*
X0143174Y0205704D01*
X0143193Y0205636D01*
X0143208Y0205567D01*
X0143220Y0205498D01*
X0143228Y0205428D01*
X0143232Y0205357D01*
X0143232Y0205287D01*
X0143228Y0205216D01*
X0143220Y0205146D01*
X0143208Y0205077D01*
X0143193Y0205008D01*
X0143174Y0204940D01*
X0143151Y0204874D01*
X0143124Y0204809D01*
X0143094Y0204745D01*
X0143061Y0204683D01*
X0143024Y0204623D01*
X0142984Y0204565D01*
X0142941Y0204510D01*
X0142894Y0204456D01*
X0142845Y0204406D01*
X0142793Y0204358D01*
X0142739Y0204313D01*
X0142682Y0204272D01*
X0142623Y0204233D01*
X0142562Y0204198D01*
X0142499Y0204166D01*
X0142435Y0204138D01*
X0142369Y0204113D01*
X0142302Y0204092D01*
X0142233Y0204075D01*
X0142164Y0204061D01*
X0142095Y0204052D01*
X0142024Y0204046D01*
X0141954Y0204044D01*
X0140676Y0204044D01*
X0142210Y0204044D02*
X0143232Y0202000D01*
X0145147Y0202000D02*
X0146425Y0202000D01*
X0146495Y0202002D01*
X0146566Y0202008D01*
X0146635Y0202017D01*
X0146704Y0202031D01*
X0146773Y0202048D01*
X0146840Y0202069D01*
X0146906Y0202094D01*
X0146970Y0202122D01*
X0147033Y0202154D01*
X0147094Y0202189D01*
X0147153Y0202228D01*
X0147210Y0202269D01*
X0147264Y0202314D01*
X0147316Y0202362D01*
X0147365Y0202412D01*
X0147412Y0202466D01*
X0147455Y0202521D01*
X0147495Y0202579D01*
X0147532Y0202639D01*
X0147565Y0202701D01*
X0147595Y0202765D01*
X0147622Y0202830D01*
X0147645Y0202896D01*
X0147664Y0202964D01*
X0147679Y0203033D01*
X0147691Y0203102D01*
X0147699Y0203172D01*
X0147703Y0203243D01*
X0147703Y0203313D01*
X0147699Y0203384D01*
X0147691Y0203454D01*
X0147679Y0203523D01*
X0147664Y0203592D01*
X0147645Y0203660D01*
X0147622Y0203726D01*
X0147595Y0203791D01*
X0147565Y0203855D01*
X0147532Y0203917D01*
X0147495Y0203977D01*
X0147455Y0204035D01*
X0147412Y0204090D01*
X0147365Y0204144D01*
X0147316Y0204194D01*
X0147264Y0204242D01*
X0147210Y0204287D01*
X0147153Y0204328D01*
X0147094Y0204367D01*
X0147033Y0204402D01*
X0146970Y0204434D01*
X0146906Y0204462D01*
X0146840Y0204487D01*
X0146773Y0204508D01*
X0146704Y0204525D01*
X0146635Y0204539D01*
X0146566Y0204548D01*
X0146495Y0204554D01*
X0146425Y0204556D01*
X0146681Y0204556D02*
X0145658Y0204556D01*
X0146681Y0204556D02*
X0146744Y0204558D01*
X0146807Y0204564D01*
X0146869Y0204573D01*
X0146930Y0204587D01*
X0146991Y0204604D01*
X0147050Y0204625D01*
X0147108Y0204650D01*
X0147165Y0204678D01*
X0147219Y0204709D01*
X0147271Y0204744D01*
X0147322Y0204782D01*
X0147370Y0204823D01*
X0147415Y0204867D01*
X0147457Y0204913D01*
X0147497Y0204962D01*
X0147533Y0205013D01*
X0147566Y0205067D01*
X0147596Y0205122D01*
X0147622Y0205180D01*
X0147645Y0205238D01*
X0147664Y0205298D01*
X0147679Y0205359D01*
X0147691Y0205421D01*
X0147699Y0205484D01*
X0147703Y0205547D01*
X0147703Y0205609D01*
X0147699Y0205672D01*
X0147691Y0205735D01*
X0147679Y0205797D01*
X0147664Y0205858D01*
X0147645Y0205918D01*
X0147622Y0205976D01*
X0147596Y0206034D01*
X0147566Y0206089D01*
X0147533Y0206143D01*
X0147497Y0206194D01*
X0147457Y0206243D01*
X0147415Y0206289D01*
X0147370Y0206333D01*
X0147322Y0206374D01*
X0147271Y0206412D01*
X0147219Y0206447D01*
X0147165Y0206478D01*
X0147108Y0206506D01*
X0147050Y0206531D01*
X0146991Y0206552D01*
X0146930Y0206569D01*
X0146869Y0206583D01*
X0146807Y0206592D01*
X0146744Y0206598D01*
X0146681Y0206600D01*
X0145147Y0206600D01*
X0170676Y0206600D02*
X0170676Y0202000D01*
X0170676Y0204044D02*
X0171954Y0204044D01*
X0172210Y0204044D02*
X0173232Y0202000D01*
X0175147Y0203022D02*
X0177703Y0203022D01*
X0176936Y0204044D02*
X0176936Y0202000D01*
X0175147Y0203022D02*
X0176170Y0206600D01*
X0171954Y0206600D02*
X0170676Y0206600D01*
X0171954Y0206600D02*
X0172024Y0206598D01*
X0172095Y0206592D01*
X0172164Y0206583D01*
X0172233Y0206569D01*
X0172302Y0206552D01*
X0172369Y0206531D01*
X0172435Y0206506D01*
X0172499Y0206478D01*
X0172562Y0206446D01*
X0172623Y0206411D01*
X0172682Y0206372D01*
X0172739Y0206331D01*
X0172793Y0206286D01*
X0172845Y0206238D01*
X0172894Y0206188D01*
X0172941Y0206134D01*
X0172984Y0206079D01*
X0173024Y0206021D01*
X0173061Y0205961D01*
X0173094Y0205899D01*
X0173124Y0205835D01*
X0173151Y0205770D01*
X0173174Y0205704D01*
X0173193Y0205636D01*
X0173208Y0205567D01*
X0173220Y0205498D01*
X0173228Y0205428D01*
X0173232Y0205357D01*
X0173232Y0205287D01*
X0173228Y0205216D01*
X0173220Y0205146D01*
X0173208Y0205077D01*
X0173193Y0205008D01*
X0173174Y0204940D01*
X0173151Y0204874D01*
X0173124Y0204809D01*
X0173094Y0204745D01*
X0173061Y0204683D01*
X0173024Y0204623D01*
X0172984Y0204565D01*
X0172941Y0204510D01*
X0172894Y0204456D01*
X0172845Y0204406D01*
X0172793Y0204358D01*
X0172739Y0204313D01*
X0172682Y0204272D01*
X0172623Y0204233D01*
X0172562Y0204198D01*
X0172499Y0204166D01*
X0172435Y0204138D01*
X0172369Y0204113D01*
X0172302Y0204092D01*
X0172233Y0204075D01*
X0172164Y0204061D01*
X0172095Y0204052D01*
X0172024Y0204046D01*
X0171954Y0204044D01*
X0171954Y0186600D02*
X0170676Y0186600D01*
X0170676Y0182000D01*
X0170676Y0184044D02*
X0171954Y0184044D01*
X0172210Y0184044D02*
X0173232Y0182000D01*
X0175147Y0182000D02*
X0176681Y0182000D01*
X0176743Y0182002D01*
X0176804Y0182007D01*
X0176865Y0182017D01*
X0176926Y0182030D01*
X0176985Y0182046D01*
X0177043Y0182066D01*
X0177100Y0182090D01*
X0177156Y0182117D01*
X0177210Y0182147D01*
X0177262Y0182181D01*
X0177311Y0182217D01*
X0177359Y0182257D01*
X0177404Y0182299D01*
X0177446Y0182344D01*
X0177486Y0182392D01*
X0177522Y0182441D01*
X0177556Y0182493D01*
X0177586Y0182547D01*
X0177613Y0182603D01*
X0177637Y0182660D01*
X0177657Y0182718D01*
X0177673Y0182777D01*
X0177686Y0182838D01*
X0177696Y0182899D01*
X0177701Y0182960D01*
X0177703Y0183022D01*
X0177703Y0183533D01*
X0177701Y0183595D01*
X0177696Y0183656D01*
X0177686Y0183717D01*
X0177673Y0183778D01*
X0177657Y0183837D01*
X0177637Y0183895D01*
X0177613Y0183952D01*
X0177586Y0184008D01*
X0177556Y0184062D01*
X0177522Y0184114D01*
X0177486Y0184163D01*
X0177446Y0184211D01*
X0177404Y0184256D01*
X0177359Y0184298D01*
X0177311Y0184338D01*
X0177262Y0184374D01*
X0177210Y0184408D01*
X0177156Y0184438D01*
X0177100Y0184465D01*
X0177043Y0184489D01*
X0176985Y0184509D01*
X0176926Y0184525D01*
X0176865Y0184538D01*
X0176804Y0184548D01*
X0176743Y0184553D01*
X0176681Y0184555D01*
X0176681Y0184556D02*
X0175147Y0184556D01*
X0175147Y0186600D01*
X0177703Y0186600D01*
X0171954Y0186600D02*
X0172024Y0186598D01*
X0172095Y0186592D01*
X0172164Y0186583D01*
X0172233Y0186569D01*
X0172302Y0186552D01*
X0172369Y0186531D01*
X0172435Y0186506D01*
X0172499Y0186478D01*
X0172562Y0186446D01*
X0172623Y0186411D01*
X0172682Y0186372D01*
X0172739Y0186331D01*
X0172793Y0186286D01*
X0172845Y0186238D01*
X0172894Y0186188D01*
X0172941Y0186134D01*
X0172984Y0186079D01*
X0173024Y0186021D01*
X0173061Y0185961D01*
X0173094Y0185899D01*
X0173124Y0185835D01*
X0173151Y0185770D01*
X0173174Y0185704D01*
X0173193Y0185636D01*
X0173208Y0185567D01*
X0173220Y0185498D01*
X0173228Y0185428D01*
X0173232Y0185357D01*
X0173232Y0185287D01*
X0173228Y0185216D01*
X0173220Y0185146D01*
X0173208Y0185077D01*
X0173193Y0185008D01*
X0173174Y0184940D01*
X0173151Y0184874D01*
X0173124Y0184809D01*
X0173094Y0184745D01*
X0173061Y0184683D01*
X0173024Y0184623D01*
X0172984Y0184565D01*
X0172941Y0184510D01*
X0172894Y0184456D01*
X0172845Y0184406D01*
X0172793Y0184358D01*
X0172739Y0184313D01*
X0172682Y0184272D01*
X0172623Y0184233D01*
X0172562Y0184198D01*
X0172499Y0184166D01*
X0172435Y0184138D01*
X0172369Y0184113D01*
X0172302Y0184092D01*
X0172233Y0184075D01*
X0172164Y0184061D01*
X0172095Y0184052D01*
X0172024Y0184046D01*
X0171954Y0184044D01*
X0171954Y0166600D02*
X0170676Y0166600D01*
X0170676Y0162000D01*
X0170676Y0164044D02*
X0171954Y0164044D01*
X0172210Y0164044D02*
X0173232Y0162000D01*
X0175147Y0163278D02*
X0175147Y0164556D01*
X0176681Y0164556D01*
X0175148Y0164556D02*
X0175150Y0164645D01*
X0175156Y0164734D01*
X0175165Y0164823D01*
X0175179Y0164911D01*
X0175196Y0164998D01*
X0175218Y0165085D01*
X0175243Y0165171D01*
X0175271Y0165255D01*
X0175304Y0165338D01*
X0175340Y0165420D01*
X0175379Y0165500D01*
X0175422Y0165578D01*
X0175468Y0165654D01*
X0175518Y0165728D01*
X0175570Y0165800D01*
X0175626Y0165870D01*
X0175685Y0165937D01*
X0175747Y0166001D01*
X0175811Y0166063D01*
X0175878Y0166122D01*
X0175948Y0166178D01*
X0176020Y0166230D01*
X0176094Y0166280D01*
X0176170Y0166326D01*
X0176248Y0166369D01*
X0176328Y0166408D01*
X0176410Y0166444D01*
X0176493Y0166477D01*
X0176577Y0166505D01*
X0176663Y0166530D01*
X0176750Y0166552D01*
X0176837Y0166569D01*
X0176925Y0166583D01*
X0177014Y0166592D01*
X0177103Y0166598D01*
X0177192Y0166600D01*
X0171954Y0166600D02*
X0172024Y0166598D01*
X0172095Y0166592D01*
X0172164Y0166583D01*
X0172233Y0166569D01*
X0172302Y0166552D01*
X0172369Y0166531D01*
X0172435Y0166506D01*
X0172499Y0166478D01*
X0172562Y0166446D01*
X0172623Y0166411D01*
X0172682Y0166372D01*
X0172739Y0166331D01*
X0172793Y0166286D01*
X0172845Y0166238D01*
X0172894Y0166188D01*
X0172941Y0166134D01*
X0172984Y0166079D01*
X0173024Y0166021D01*
X0173061Y0165961D01*
X0173094Y0165899D01*
X0173124Y0165835D01*
X0173151Y0165770D01*
X0173174Y0165704D01*
X0173193Y0165636D01*
X0173208Y0165567D01*
X0173220Y0165498D01*
X0173228Y0165428D01*
X0173232Y0165357D01*
X0173232Y0165287D01*
X0173228Y0165216D01*
X0173220Y0165146D01*
X0173208Y0165077D01*
X0173193Y0165008D01*
X0173174Y0164940D01*
X0173151Y0164874D01*
X0173124Y0164809D01*
X0173094Y0164745D01*
X0173061Y0164683D01*
X0173024Y0164623D01*
X0172984Y0164565D01*
X0172941Y0164510D01*
X0172894Y0164456D01*
X0172845Y0164406D01*
X0172793Y0164358D01*
X0172739Y0164313D01*
X0172682Y0164272D01*
X0172623Y0164233D01*
X0172562Y0164198D01*
X0172499Y0164166D01*
X0172435Y0164138D01*
X0172369Y0164113D01*
X0172302Y0164092D01*
X0172233Y0164075D01*
X0172164Y0164061D01*
X0172095Y0164052D01*
X0172024Y0164046D01*
X0171954Y0164044D01*
X0175147Y0163278D02*
X0175149Y0163208D01*
X0175155Y0163137D01*
X0175164Y0163068D01*
X0175178Y0162999D01*
X0175195Y0162930D01*
X0175216Y0162863D01*
X0175241Y0162797D01*
X0175269Y0162733D01*
X0175301Y0162670D01*
X0175336Y0162609D01*
X0175375Y0162550D01*
X0175416Y0162493D01*
X0175461Y0162439D01*
X0175509Y0162387D01*
X0175559Y0162338D01*
X0175613Y0162291D01*
X0175668Y0162248D01*
X0175726Y0162208D01*
X0175786Y0162171D01*
X0175848Y0162138D01*
X0175912Y0162108D01*
X0175977Y0162081D01*
X0176043Y0162058D01*
X0176111Y0162039D01*
X0176180Y0162024D01*
X0176249Y0162012D01*
X0176319Y0162004D01*
X0176390Y0162000D01*
X0176460Y0162000D01*
X0176531Y0162004D01*
X0176601Y0162012D01*
X0176670Y0162024D01*
X0176739Y0162039D01*
X0176807Y0162058D01*
X0176873Y0162081D01*
X0176938Y0162108D01*
X0177002Y0162138D01*
X0177064Y0162171D01*
X0177124Y0162208D01*
X0177182Y0162248D01*
X0177237Y0162291D01*
X0177291Y0162338D01*
X0177341Y0162387D01*
X0177389Y0162439D01*
X0177434Y0162493D01*
X0177475Y0162550D01*
X0177514Y0162609D01*
X0177549Y0162670D01*
X0177581Y0162733D01*
X0177609Y0162797D01*
X0177634Y0162863D01*
X0177655Y0162930D01*
X0177672Y0162999D01*
X0177686Y0163068D01*
X0177695Y0163137D01*
X0177701Y0163208D01*
X0177703Y0163278D01*
X0177703Y0163533D01*
X0177701Y0163595D01*
X0177696Y0163656D01*
X0177686Y0163717D01*
X0177673Y0163778D01*
X0177657Y0163837D01*
X0177637Y0163895D01*
X0177613Y0163952D01*
X0177586Y0164008D01*
X0177556Y0164062D01*
X0177522Y0164114D01*
X0177486Y0164163D01*
X0177446Y0164211D01*
X0177404Y0164256D01*
X0177359Y0164298D01*
X0177311Y0164338D01*
X0177262Y0164374D01*
X0177210Y0164408D01*
X0177156Y0164438D01*
X0177100Y0164465D01*
X0177043Y0164489D01*
X0176985Y0164509D01*
X0176926Y0164525D01*
X0176865Y0164538D01*
X0176804Y0164548D01*
X0176743Y0164553D01*
X0176681Y0164555D01*
X0215815Y0156683D02*
X0217221Y0155917D01*
X0216710Y0154000D02*
X0216620Y0154002D01*
X0216531Y0154007D01*
X0216442Y0154017D01*
X0216353Y0154030D01*
X0216265Y0154046D01*
X0216177Y0154067D01*
X0216091Y0154091D01*
X0216005Y0154118D01*
X0215921Y0154149D01*
X0215838Y0154184D01*
X0215757Y0154222D01*
X0215677Y0154263D01*
X0215600Y0154307D01*
X0215524Y0154355D01*
X0215450Y0154406D01*
X0215378Y0154460D01*
X0215309Y0154517D01*
X0215241Y0154576D01*
X0215177Y0154639D01*
X0217221Y0155916D02*
X0217275Y0155882D01*
X0217326Y0155845D01*
X0217375Y0155805D01*
X0217422Y0155762D01*
X0217465Y0155716D01*
X0217506Y0155668D01*
X0217544Y0155617D01*
X0217579Y0155564D01*
X0217611Y0155509D01*
X0217639Y0155452D01*
X0217663Y0155394D01*
X0217684Y0155334D01*
X0217701Y0155273D01*
X0217715Y0155211D01*
X0217724Y0155148D01*
X0217730Y0155085D01*
X0217732Y0155022D01*
X0217730Y0154960D01*
X0217725Y0154899D01*
X0217715Y0154838D01*
X0217702Y0154777D01*
X0217686Y0154718D01*
X0217666Y0154660D01*
X0217642Y0154603D01*
X0217615Y0154547D01*
X0217585Y0154493D01*
X0217551Y0154441D01*
X0217515Y0154392D01*
X0217475Y0154344D01*
X0217433Y0154299D01*
X0217388Y0154257D01*
X0217340Y0154217D01*
X0217291Y0154181D01*
X0217239Y0154147D01*
X0217185Y0154117D01*
X0217129Y0154090D01*
X0217072Y0154066D01*
X0217014Y0154046D01*
X0216955Y0154030D01*
X0216894Y0154017D01*
X0216833Y0154007D01*
X0216772Y0154002D01*
X0216710Y0154000D01*
X0217476Y0158217D02*
X0217409Y0158265D01*
X0217341Y0158310D01*
X0217270Y0158352D01*
X0217197Y0158390D01*
X0217123Y0158426D01*
X0217048Y0158459D01*
X0216971Y0158488D01*
X0216893Y0158514D01*
X0216814Y0158537D01*
X0216734Y0158556D01*
X0216653Y0158572D01*
X0216572Y0158584D01*
X0216490Y0158593D01*
X0216408Y0158598D01*
X0216326Y0158600D01*
X0216264Y0158598D01*
X0216203Y0158593D01*
X0216142Y0158583D01*
X0216081Y0158570D01*
X0216022Y0158554D01*
X0215964Y0158534D01*
X0215907Y0158510D01*
X0215851Y0158483D01*
X0215797Y0158453D01*
X0215745Y0158419D01*
X0215696Y0158383D01*
X0215648Y0158343D01*
X0215603Y0158301D01*
X0215561Y0158256D01*
X0215522Y0158208D01*
X0215485Y0158159D01*
X0215451Y0158107D01*
X0215421Y0158053D01*
X0215394Y0157997D01*
X0215370Y0157940D01*
X0215350Y0157882D01*
X0215334Y0157823D01*
X0215321Y0157762D01*
X0215311Y0157701D01*
X0215306Y0157640D01*
X0215304Y0157578D01*
X0215306Y0157515D01*
X0215312Y0157452D01*
X0215321Y0157389D01*
X0215335Y0157327D01*
X0215352Y0157266D01*
X0215373Y0157206D01*
X0215397Y0157148D01*
X0215425Y0157091D01*
X0215457Y0157036D01*
X0215492Y0156983D01*
X0215530Y0156932D01*
X0215571Y0156884D01*
X0215614Y0156838D01*
X0215661Y0156795D01*
X0215710Y0156755D01*
X0215761Y0156718D01*
X0215815Y0156684D01*
X0219101Y0157067D02*
X0220634Y0157067D01*
X0219612Y0158600D02*
X0219612Y0154767D01*
X0219614Y0154712D01*
X0219620Y0154658D01*
X0219630Y0154604D01*
X0219643Y0154551D01*
X0219660Y0154499D01*
X0219681Y0154448D01*
X0219706Y0154399D01*
X0219734Y0154352D01*
X0219765Y0154307D01*
X0219799Y0154265D01*
X0219837Y0154225D01*
X0219877Y0154187D01*
X0219919Y0154153D01*
X0219964Y0154122D01*
X0220011Y0154094D01*
X0220060Y0154069D01*
X0220111Y0154048D01*
X0220163Y0154031D01*
X0220216Y0154018D01*
X0220270Y0154008D01*
X0220324Y0154002D01*
X0220379Y0154000D01*
X0220634Y0154000D01*
X0223203Y0154000D02*
X0224353Y0154000D01*
X0224353Y0156300D01*
X0224353Y0155789D02*
X0223203Y0155789D01*
X0224353Y0156300D02*
X0224351Y0156355D01*
X0224345Y0156409D01*
X0224335Y0156463D01*
X0224322Y0156516D01*
X0224305Y0156568D01*
X0224284Y0156619D01*
X0224259Y0156668D01*
X0224231Y0156715D01*
X0224200Y0156760D01*
X0224166Y0156802D01*
X0224128Y0156842D01*
X0224088Y0156880D01*
X0224046Y0156914D01*
X0224001Y0156945D01*
X0223954Y0156973D01*
X0223905Y0156998D01*
X0223854Y0157019D01*
X0223802Y0157036D01*
X0223749Y0157049D01*
X0223695Y0157059D01*
X0223641Y0157065D01*
X0223586Y0157067D01*
X0222564Y0157067D01*
X0223203Y0155788D02*
X0223145Y0155786D01*
X0223086Y0155780D01*
X0223029Y0155771D01*
X0222972Y0155758D01*
X0222916Y0155741D01*
X0222861Y0155720D01*
X0222808Y0155696D01*
X0222756Y0155668D01*
X0222706Y0155637D01*
X0222659Y0155603D01*
X0222614Y0155566D01*
X0222571Y0155526D01*
X0222531Y0155483D01*
X0222494Y0155438D01*
X0222460Y0155391D01*
X0222429Y0155341D01*
X0222401Y0155289D01*
X0222377Y0155236D01*
X0222356Y0155181D01*
X0222339Y0155125D01*
X0222326Y0155068D01*
X0222317Y0155011D01*
X0222311Y0154952D01*
X0222309Y0154894D01*
X0222311Y0154836D01*
X0222317Y0154777D01*
X0222326Y0154720D01*
X0222339Y0154663D01*
X0222356Y0154607D01*
X0222377Y0154552D01*
X0222401Y0154499D01*
X0222429Y0154447D01*
X0222460Y0154397D01*
X0222494Y0154350D01*
X0222531Y0154305D01*
X0222571Y0154262D01*
X0222614Y0154222D01*
X0222659Y0154185D01*
X0222706Y0154151D01*
X0222756Y0154120D01*
X0222808Y0154092D01*
X0222861Y0154068D01*
X0222916Y0154047D01*
X0222972Y0154030D01*
X0223029Y0154017D01*
X0223086Y0154008D01*
X0223145Y0154002D01*
X0223203Y0154000D01*
X0226512Y0154767D02*
X0226512Y0158600D01*
X0226001Y0157067D02*
X0227534Y0157067D01*
X0229382Y0157067D02*
X0229382Y0154767D01*
X0229384Y0154712D01*
X0229390Y0154658D01*
X0229400Y0154604D01*
X0229413Y0154551D01*
X0229430Y0154499D01*
X0229451Y0154448D01*
X0229476Y0154399D01*
X0229504Y0154352D01*
X0229535Y0154307D01*
X0229569Y0154265D01*
X0229607Y0154225D01*
X0229647Y0154187D01*
X0229689Y0154153D01*
X0229734Y0154122D01*
X0229781Y0154094D01*
X0229830Y0154069D01*
X0229881Y0154048D01*
X0229933Y0154031D01*
X0229986Y0154018D01*
X0230040Y0154008D01*
X0230094Y0154002D01*
X0230149Y0154000D01*
X0231426Y0154000D01*
X0231426Y0157067D01*
X0233815Y0155789D02*
X0235093Y0155278D01*
X0235093Y0155279D02*
X0235140Y0155258D01*
X0235185Y0155233D01*
X0235228Y0155206D01*
X0235268Y0155175D01*
X0235307Y0155141D01*
X0235342Y0155104D01*
X0235375Y0155065D01*
X0235404Y0155023D01*
X0235430Y0154979D01*
X0235453Y0154933D01*
X0235472Y0154886D01*
X0235487Y0154837D01*
X0235498Y0154787D01*
X0235506Y0154736D01*
X0235510Y0154685D01*
X0235509Y0154634D01*
X0235505Y0154583D01*
X0235497Y0154533D01*
X0235485Y0154483D01*
X0235469Y0154435D01*
X0235450Y0154387D01*
X0235427Y0154342D01*
X0235401Y0154298D01*
X0235371Y0154257D01*
X0235338Y0154217D01*
X0235302Y0154181D01*
X0235264Y0154147D01*
X0235223Y0154117D01*
X0235180Y0154089D01*
X0235134Y0154066D01*
X0235087Y0154045D01*
X0235039Y0154028D01*
X0234990Y0154016D01*
X0234939Y0154006D01*
X0234889Y0154001D01*
X0234838Y0154000D01*
X0235220Y0156811D02*
X0235130Y0156850D01*
X0235037Y0156886D01*
X0234944Y0156919D01*
X0234850Y0156948D01*
X0234755Y0156975D01*
X0234659Y0156998D01*
X0234562Y0157018D01*
X0234464Y0157034D01*
X0234366Y0157047D01*
X0234268Y0157057D01*
X0234169Y0157064D01*
X0234070Y0157067D01*
X0234019Y0157066D01*
X0233969Y0157061D01*
X0233918Y0157051D01*
X0233869Y0157039D01*
X0233821Y0157022D01*
X0233774Y0157001D01*
X0233728Y0156978D01*
X0233685Y0156950D01*
X0233644Y0156920D01*
X0233606Y0156886D01*
X0233570Y0156850D01*
X0233537Y0156810D01*
X0233507Y0156769D01*
X0233481Y0156725D01*
X0233458Y0156680D01*
X0233439Y0156632D01*
X0233423Y0156584D01*
X0233411Y0156534D01*
X0233403Y0156484D01*
X0233399Y0156433D01*
X0233398Y0156382D01*
X0233402Y0156331D01*
X0233410Y0156280D01*
X0233421Y0156230D01*
X0233436Y0156181D01*
X0233455Y0156134D01*
X0233478Y0156088D01*
X0233504Y0156044D01*
X0233533Y0156002D01*
X0233566Y0155963D01*
X0233601Y0155926D01*
X0233640Y0155892D01*
X0233680Y0155861D01*
X0233723Y0155834D01*
X0233768Y0155809D01*
X0233815Y0155788D01*
X0233432Y0154256D02*
X0233555Y0154214D01*
X0233680Y0154175D01*
X0233805Y0154140D01*
X0233932Y0154109D01*
X0234060Y0154082D01*
X0234188Y0154059D01*
X0234317Y0154039D01*
X0234447Y0154024D01*
X0234576Y0154012D01*
X0234707Y0154004D01*
X0234837Y0154000D01*
X0239776Y0154000D02*
X0242332Y0154000D01*
X0239776Y0154000D02*
X0241949Y0156556D01*
X0241182Y0158600D02*
X0241108Y0158598D01*
X0241034Y0158593D01*
X0240960Y0158583D01*
X0240887Y0158570D01*
X0240814Y0158554D01*
X0240743Y0158533D01*
X0240673Y0158509D01*
X0240604Y0158482D01*
X0240536Y0158451D01*
X0240470Y0158417D01*
X0240406Y0158380D01*
X0240344Y0158339D01*
X0240284Y0158295D01*
X0240226Y0158249D01*
X0240170Y0158199D01*
X0240117Y0158147D01*
X0240067Y0158092D01*
X0240020Y0158035D01*
X0239976Y0157975D01*
X0239934Y0157913D01*
X0239896Y0157850D01*
X0239861Y0157784D01*
X0239830Y0157717D01*
X0239802Y0157648D01*
X0239777Y0157578D01*
X0241949Y0156556D02*
X0241996Y0156603D01*
X0242040Y0156653D01*
X0242082Y0156705D01*
X0242121Y0156759D01*
X0242156Y0156815D01*
X0242189Y0156873D01*
X0242219Y0156933D01*
X0242245Y0156994D01*
X0242268Y0157057D01*
X0242287Y0157121D01*
X0242303Y0157185D01*
X0242316Y0157251D01*
X0242325Y0157317D01*
X0242330Y0157383D01*
X0242332Y0157450D01*
X0242330Y0157517D01*
X0242324Y0157584D01*
X0242315Y0157650D01*
X0242301Y0157715D01*
X0242284Y0157780D01*
X0242263Y0157843D01*
X0242238Y0157905D01*
X0242210Y0157966D01*
X0242178Y0158025D01*
X0242143Y0158082D01*
X0242104Y0158137D01*
X0242063Y0158189D01*
X0242018Y0158239D01*
X0241971Y0158286D01*
X0241921Y0158331D01*
X0241869Y0158372D01*
X0241814Y0158411D01*
X0241757Y0158446D01*
X0241698Y0158478D01*
X0241637Y0158506D01*
X0241575Y0158531D01*
X0241512Y0158552D01*
X0241447Y0158569D01*
X0241382Y0158583D01*
X0241316Y0158592D01*
X0241249Y0158598D01*
X0241182Y0158600D01*
X0227534Y0154000D02*
X0227279Y0154000D01*
X0227224Y0154002D01*
X0227170Y0154008D01*
X0227116Y0154018D01*
X0227063Y0154031D01*
X0227011Y0154048D01*
X0226960Y0154069D01*
X0226911Y0154094D01*
X0226864Y0154122D01*
X0226819Y0154153D01*
X0226777Y0154187D01*
X0226737Y0154225D01*
X0226699Y0154265D01*
X0226665Y0154307D01*
X0226634Y0154352D01*
X0226606Y0154399D01*
X0226581Y0154448D01*
X0226560Y0154499D01*
X0226543Y0154551D01*
X0226530Y0154604D01*
X0226520Y0154658D01*
X0226514Y0154712D01*
X0226512Y0154767D01*
X0227279Y0174000D02*
X0227534Y0174000D01*
X0227279Y0174000D02*
X0227224Y0174002D01*
X0227170Y0174008D01*
X0227116Y0174018D01*
X0227063Y0174031D01*
X0227011Y0174048D01*
X0226960Y0174069D01*
X0226911Y0174094D01*
X0226864Y0174122D01*
X0226819Y0174153D01*
X0226777Y0174187D01*
X0226737Y0174225D01*
X0226699Y0174265D01*
X0226665Y0174307D01*
X0226634Y0174352D01*
X0226606Y0174399D01*
X0226581Y0174448D01*
X0226560Y0174499D01*
X0226543Y0174551D01*
X0226530Y0174604D01*
X0226520Y0174658D01*
X0226514Y0174712D01*
X0226512Y0174767D01*
X0226512Y0178600D01*
X0226001Y0177067D02*
X0227534Y0177067D01*
X0229382Y0177067D02*
X0229382Y0174767D01*
X0229384Y0174712D01*
X0229390Y0174658D01*
X0229400Y0174604D01*
X0229413Y0174551D01*
X0229430Y0174499D01*
X0229451Y0174448D01*
X0229476Y0174399D01*
X0229504Y0174352D01*
X0229535Y0174307D01*
X0229569Y0174265D01*
X0229607Y0174225D01*
X0229647Y0174187D01*
X0229689Y0174153D01*
X0229734Y0174122D01*
X0229781Y0174094D01*
X0229830Y0174069D01*
X0229881Y0174048D01*
X0229933Y0174031D01*
X0229986Y0174018D01*
X0230040Y0174008D01*
X0230094Y0174002D01*
X0230149Y0174000D01*
X0231426Y0174000D01*
X0231426Y0177067D01*
X0233815Y0175789D02*
X0235093Y0175278D01*
X0235093Y0175279D02*
X0235140Y0175258D01*
X0235185Y0175233D01*
X0235228Y0175206D01*
X0235268Y0175175D01*
X0235307Y0175141D01*
X0235342Y0175104D01*
X0235375Y0175065D01*
X0235404Y0175023D01*
X0235430Y0174979D01*
X0235453Y0174933D01*
X0235472Y0174886D01*
X0235487Y0174837D01*
X0235498Y0174787D01*
X0235506Y0174736D01*
X0235510Y0174685D01*
X0235509Y0174634D01*
X0235505Y0174583D01*
X0235497Y0174533D01*
X0235485Y0174483D01*
X0235469Y0174435D01*
X0235450Y0174387D01*
X0235427Y0174342D01*
X0235401Y0174298D01*
X0235371Y0174257D01*
X0235338Y0174217D01*
X0235302Y0174181D01*
X0235264Y0174147D01*
X0235223Y0174117D01*
X0235180Y0174089D01*
X0235134Y0174066D01*
X0235087Y0174045D01*
X0235039Y0174028D01*
X0234990Y0174016D01*
X0234939Y0174006D01*
X0234889Y0174001D01*
X0234838Y0174000D01*
X0235220Y0176811D02*
X0235130Y0176850D01*
X0235037Y0176886D01*
X0234944Y0176919D01*
X0234850Y0176948D01*
X0234755Y0176975D01*
X0234659Y0176998D01*
X0234562Y0177018D01*
X0234464Y0177034D01*
X0234366Y0177047D01*
X0234268Y0177057D01*
X0234169Y0177064D01*
X0234070Y0177067D01*
X0234019Y0177066D01*
X0233969Y0177061D01*
X0233918Y0177051D01*
X0233869Y0177039D01*
X0233821Y0177022D01*
X0233774Y0177001D01*
X0233728Y0176978D01*
X0233685Y0176950D01*
X0233644Y0176920D01*
X0233606Y0176886D01*
X0233570Y0176850D01*
X0233537Y0176810D01*
X0233507Y0176769D01*
X0233481Y0176725D01*
X0233458Y0176680D01*
X0233439Y0176632D01*
X0233423Y0176584D01*
X0233411Y0176534D01*
X0233403Y0176484D01*
X0233399Y0176433D01*
X0233398Y0176382D01*
X0233402Y0176331D01*
X0233410Y0176280D01*
X0233421Y0176230D01*
X0233436Y0176181D01*
X0233455Y0176134D01*
X0233478Y0176088D01*
X0233504Y0176044D01*
X0233533Y0176002D01*
X0233566Y0175963D01*
X0233601Y0175926D01*
X0233640Y0175892D01*
X0233680Y0175861D01*
X0233723Y0175834D01*
X0233768Y0175809D01*
X0233815Y0175788D01*
X0233432Y0174256D02*
X0233555Y0174214D01*
X0233680Y0174175D01*
X0233805Y0174140D01*
X0233932Y0174109D01*
X0234060Y0174082D01*
X0234188Y0174059D01*
X0234317Y0174039D01*
X0234447Y0174024D01*
X0234576Y0174012D01*
X0234707Y0174004D01*
X0234837Y0174000D01*
X0239776Y0174000D02*
X0242332Y0174000D01*
X0241054Y0174000D02*
X0241054Y0178600D01*
X0239776Y0177578D01*
X0224353Y0176300D02*
X0224353Y0174000D01*
X0223203Y0174000D01*
X0223145Y0174002D01*
X0223086Y0174008D01*
X0223029Y0174017D01*
X0222972Y0174030D01*
X0222916Y0174047D01*
X0222861Y0174068D01*
X0222808Y0174092D01*
X0222756Y0174120D01*
X0222706Y0174151D01*
X0222659Y0174185D01*
X0222614Y0174222D01*
X0222571Y0174262D01*
X0222531Y0174305D01*
X0222494Y0174350D01*
X0222460Y0174397D01*
X0222429Y0174447D01*
X0222401Y0174499D01*
X0222377Y0174552D01*
X0222356Y0174607D01*
X0222339Y0174663D01*
X0222326Y0174720D01*
X0222317Y0174777D01*
X0222311Y0174836D01*
X0222309Y0174894D01*
X0222311Y0174952D01*
X0222317Y0175011D01*
X0222326Y0175068D01*
X0222339Y0175125D01*
X0222356Y0175181D01*
X0222377Y0175236D01*
X0222401Y0175289D01*
X0222429Y0175341D01*
X0222460Y0175391D01*
X0222494Y0175438D01*
X0222531Y0175483D01*
X0222571Y0175526D01*
X0222614Y0175566D01*
X0222659Y0175603D01*
X0222706Y0175637D01*
X0222756Y0175668D01*
X0222808Y0175696D01*
X0222861Y0175720D01*
X0222916Y0175741D01*
X0222972Y0175758D01*
X0223029Y0175771D01*
X0223086Y0175780D01*
X0223145Y0175786D01*
X0223203Y0175788D01*
X0223203Y0175789D02*
X0224353Y0175789D01*
X0224353Y0176300D02*
X0224351Y0176355D01*
X0224345Y0176409D01*
X0224335Y0176463D01*
X0224322Y0176516D01*
X0224305Y0176568D01*
X0224284Y0176619D01*
X0224259Y0176668D01*
X0224231Y0176715D01*
X0224200Y0176760D01*
X0224166Y0176802D01*
X0224128Y0176842D01*
X0224088Y0176880D01*
X0224046Y0176914D01*
X0224001Y0176945D01*
X0223954Y0176973D01*
X0223905Y0176998D01*
X0223854Y0177019D01*
X0223802Y0177036D01*
X0223749Y0177049D01*
X0223695Y0177059D01*
X0223641Y0177065D01*
X0223586Y0177067D01*
X0222564Y0177067D01*
X0220634Y0177067D02*
X0219101Y0177067D01*
X0219612Y0178600D02*
X0219612Y0174767D01*
X0219614Y0174712D01*
X0219620Y0174658D01*
X0219630Y0174604D01*
X0219643Y0174551D01*
X0219660Y0174499D01*
X0219681Y0174448D01*
X0219706Y0174399D01*
X0219734Y0174352D01*
X0219765Y0174307D01*
X0219799Y0174265D01*
X0219837Y0174225D01*
X0219877Y0174187D01*
X0219919Y0174153D01*
X0219964Y0174122D01*
X0220011Y0174094D01*
X0220060Y0174069D01*
X0220111Y0174048D01*
X0220163Y0174031D01*
X0220216Y0174018D01*
X0220270Y0174008D01*
X0220324Y0174002D01*
X0220379Y0174000D01*
X0220634Y0174000D01*
X0217221Y0175917D02*
X0215815Y0176683D01*
X0216326Y0178600D02*
X0216408Y0178598D01*
X0216490Y0178593D01*
X0216572Y0178584D01*
X0216653Y0178572D01*
X0216734Y0178556D01*
X0216814Y0178537D01*
X0216893Y0178514D01*
X0216971Y0178488D01*
X0217048Y0178459D01*
X0217123Y0178426D01*
X0217197Y0178390D01*
X0217270Y0178352D01*
X0217341Y0178310D01*
X0217409Y0178265D01*
X0217476Y0178217D01*
X0215815Y0176684D02*
X0215761Y0176718D01*
X0215710Y0176755D01*
X0215661Y0176795D01*
X0215614Y0176838D01*
X0215571Y0176884D01*
X0215530Y0176932D01*
X0215492Y0176983D01*
X0215457Y0177036D01*
X0215425Y0177091D01*
X0215397Y0177148D01*
X0215373Y0177206D01*
X0215352Y0177266D01*
X0215335Y0177327D01*
X0215321Y0177389D01*
X0215312Y0177452D01*
X0215306Y0177515D01*
X0215304Y0177578D01*
X0215306Y0177640D01*
X0215311Y0177701D01*
X0215321Y0177762D01*
X0215334Y0177823D01*
X0215350Y0177882D01*
X0215370Y0177940D01*
X0215394Y0177997D01*
X0215421Y0178053D01*
X0215451Y0178107D01*
X0215485Y0178159D01*
X0215522Y0178208D01*
X0215561Y0178256D01*
X0215603Y0178301D01*
X0215648Y0178343D01*
X0215696Y0178383D01*
X0215745Y0178419D01*
X0215797Y0178453D01*
X0215851Y0178483D01*
X0215907Y0178510D01*
X0215964Y0178534D01*
X0216022Y0178554D01*
X0216081Y0178570D01*
X0216142Y0178583D01*
X0216203Y0178593D01*
X0216264Y0178598D01*
X0216326Y0178600D01*
X0215177Y0174639D02*
X0215241Y0174576D01*
X0215309Y0174517D01*
X0215378Y0174460D01*
X0215450Y0174406D01*
X0215524Y0174355D01*
X0215600Y0174307D01*
X0215677Y0174263D01*
X0215757Y0174222D01*
X0215838Y0174184D01*
X0215921Y0174149D01*
X0216005Y0174118D01*
X0216091Y0174091D01*
X0216177Y0174067D01*
X0216265Y0174046D01*
X0216353Y0174030D01*
X0216442Y0174017D01*
X0216531Y0174007D01*
X0216620Y0174002D01*
X0216710Y0174000D01*
X0216772Y0174002D01*
X0216833Y0174007D01*
X0216894Y0174017D01*
X0216955Y0174030D01*
X0217014Y0174046D01*
X0217072Y0174066D01*
X0217129Y0174090D01*
X0217185Y0174117D01*
X0217239Y0174147D01*
X0217291Y0174181D01*
X0217340Y0174217D01*
X0217388Y0174257D01*
X0217433Y0174299D01*
X0217475Y0174344D01*
X0217515Y0174392D01*
X0217551Y0174441D01*
X0217585Y0174493D01*
X0217615Y0174547D01*
X0217642Y0174603D01*
X0217666Y0174660D01*
X0217686Y0174718D01*
X0217702Y0174777D01*
X0217715Y0174838D01*
X0217725Y0174899D01*
X0217730Y0174960D01*
X0217732Y0175022D01*
X0217730Y0175085D01*
X0217724Y0175148D01*
X0217715Y0175211D01*
X0217701Y0175273D01*
X0217684Y0175334D01*
X0217663Y0175394D01*
X0217639Y0175452D01*
X0217611Y0175509D01*
X0217579Y0175564D01*
X0217544Y0175617D01*
X0217506Y0175668D01*
X0217465Y0175716D01*
X0217422Y0175762D01*
X0217375Y0175805D01*
X0217326Y0175845D01*
X0217275Y0175882D01*
X0217221Y0175916D01*
X0215176Y0194000D02*
X0215176Y0198600D01*
X0216454Y0198600D01*
X0216524Y0198598D01*
X0216595Y0198592D01*
X0216664Y0198583D01*
X0216733Y0198569D01*
X0216802Y0198552D01*
X0216869Y0198531D01*
X0216935Y0198506D01*
X0216999Y0198478D01*
X0217062Y0198446D01*
X0217123Y0198411D01*
X0217182Y0198372D01*
X0217239Y0198331D01*
X0217293Y0198286D01*
X0217345Y0198238D01*
X0217394Y0198188D01*
X0217441Y0198134D01*
X0217484Y0198079D01*
X0217524Y0198021D01*
X0217561Y0197961D01*
X0217594Y0197899D01*
X0217624Y0197835D01*
X0217651Y0197770D01*
X0217674Y0197704D01*
X0217693Y0197636D01*
X0217708Y0197567D01*
X0217720Y0197498D01*
X0217728Y0197428D01*
X0217732Y0197357D01*
X0217732Y0197287D01*
X0217728Y0197216D01*
X0217720Y0197146D01*
X0217708Y0197077D01*
X0217693Y0197008D01*
X0217674Y0196940D01*
X0217651Y0196874D01*
X0217624Y0196809D01*
X0217594Y0196745D01*
X0217561Y0196683D01*
X0217524Y0196623D01*
X0217484Y0196565D01*
X0217441Y0196510D01*
X0217394Y0196456D01*
X0217345Y0196406D01*
X0217293Y0196358D01*
X0217239Y0196313D01*
X0217182Y0196272D01*
X0217123Y0196233D01*
X0217062Y0196198D01*
X0216999Y0196166D01*
X0216935Y0196138D01*
X0216869Y0196113D01*
X0216802Y0196092D01*
X0216733Y0196075D01*
X0216664Y0196061D01*
X0216595Y0196052D01*
X0216524Y0196046D01*
X0216454Y0196044D01*
X0215176Y0196044D01*
X0219415Y0196044D02*
X0219415Y0195022D01*
X0219417Y0194959D01*
X0219423Y0194896D01*
X0219432Y0194834D01*
X0219446Y0194773D01*
X0219463Y0194712D01*
X0219484Y0194653D01*
X0219509Y0194595D01*
X0219537Y0194538D01*
X0219568Y0194484D01*
X0219603Y0194432D01*
X0219641Y0194381D01*
X0219682Y0194333D01*
X0219726Y0194288D01*
X0219772Y0194246D01*
X0219821Y0194206D01*
X0219872Y0194170D01*
X0219926Y0194137D01*
X0219981Y0194107D01*
X0220039Y0194081D01*
X0220097Y0194058D01*
X0220157Y0194039D01*
X0220218Y0194024D01*
X0220280Y0194012D01*
X0220343Y0194004D01*
X0220406Y0194000D01*
X0220468Y0194000D01*
X0220531Y0194004D01*
X0220594Y0194012D01*
X0220656Y0194024D01*
X0220717Y0194039D01*
X0220777Y0194058D01*
X0220835Y0194081D01*
X0220893Y0194107D01*
X0220948Y0194137D01*
X0221002Y0194170D01*
X0221053Y0194206D01*
X0221102Y0194246D01*
X0221148Y0194288D01*
X0221192Y0194333D01*
X0221233Y0194381D01*
X0221271Y0194432D01*
X0221306Y0194484D01*
X0221337Y0194538D01*
X0221365Y0194595D01*
X0221390Y0194653D01*
X0221411Y0194712D01*
X0221428Y0194773D01*
X0221442Y0194834D01*
X0221451Y0194896D01*
X0221457Y0194959D01*
X0221459Y0195022D01*
X0221460Y0195022D02*
X0221460Y0196044D01*
X0221459Y0196044D02*
X0221457Y0196107D01*
X0221451Y0196170D01*
X0221442Y0196232D01*
X0221428Y0196293D01*
X0221411Y0196354D01*
X0221390Y0196413D01*
X0221365Y0196471D01*
X0221337Y0196528D01*
X0221306Y0196582D01*
X0221271Y0196634D01*
X0221233Y0196685D01*
X0221192Y0196733D01*
X0221148Y0196778D01*
X0221102Y0196820D01*
X0221053Y0196860D01*
X0221002Y0196896D01*
X0220948Y0196929D01*
X0220893Y0196959D01*
X0220835Y0196985D01*
X0220777Y0197008D01*
X0220717Y0197027D01*
X0220656Y0197042D01*
X0220594Y0197054D01*
X0220531Y0197062D01*
X0220468Y0197066D01*
X0220406Y0197066D01*
X0220343Y0197062D01*
X0220280Y0197054D01*
X0220218Y0197042D01*
X0220157Y0197027D01*
X0220097Y0197008D01*
X0220039Y0196985D01*
X0219981Y0196959D01*
X0219926Y0196929D01*
X0219872Y0196896D01*
X0219821Y0196860D01*
X0219772Y0196820D01*
X0219726Y0196778D01*
X0219682Y0196733D01*
X0219641Y0196685D01*
X0219603Y0196634D01*
X0219568Y0196582D01*
X0219537Y0196528D01*
X0219509Y0196471D01*
X0219484Y0196413D01*
X0219463Y0196354D01*
X0219446Y0196293D01*
X0219432Y0196232D01*
X0219423Y0196170D01*
X0219417Y0196107D01*
X0219415Y0196044D01*
X0223254Y0197067D02*
X0224021Y0194000D01*
X0224787Y0196044D01*
X0225554Y0194000D01*
X0226321Y0197067D01*
X0228115Y0196044D02*
X0228115Y0194767D01*
X0228115Y0195533D02*
X0230160Y0195533D01*
X0230160Y0196044D01*
X0230159Y0196044D02*
X0230157Y0196107D01*
X0230151Y0196170D01*
X0230142Y0196232D01*
X0230128Y0196293D01*
X0230111Y0196354D01*
X0230090Y0196413D01*
X0230065Y0196471D01*
X0230037Y0196528D01*
X0230006Y0196582D01*
X0229971Y0196634D01*
X0229933Y0196685D01*
X0229892Y0196733D01*
X0229848Y0196778D01*
X0229802Y0196820D01*
X0229753Y0196860D01*
X0229702Y0196896D01*
X0229648Y0196929D01*
X0229593Y0196959D01*
X0229535Y0196985D01*
X0229477Y0197008D01*
X0229417Y0197027D01*
X0229356Y0197042D01*
X0229294Y0197054D01*
X0229231Y0197062D01*
X0229168Y0197066D01*
X0229106Y0197066D01*
X0229043Y0197062D01*
X0228980Y0197054D01*
X0228918Y0197042D01*
X0228857Y0197027D01*
X0228797Y0197008D01*
X0228739Y0196985D01*
X0228681Y0196959D01*
X0228626Y0196929D01*
X0228572Y0196896D01*
X0228521Y0196860D01*
X0228472Y0196820D01*
X0228426Y0196778D01*
X0228382Y0196733D01*
X0228341Y0196685D01*
X0228303Y0196634D01*
X0228268Y0196582D01*
X0228237Y0196528D01*
X0228209Y0196471D01*
X0228184Y0196413D01*
X0228163Y0196354D01*
X0228146Y0196293D01*
X0228132Y0196232D01*
X0228123Y0196170D01*
X0228117Y0196107D01*
X0228115Y0196044D01*
X0228115Y0194767D02*
X0228117Y0194712D01*
X0228123Y0194658D01*
X0228133Y0194604D01*
X0228146Y0194551D01*
X0228163Y0194499D01*
X0228184Y0194448D01*
X0228209Y0194399D01*
X0228237Y0194352D01*
X0228268Y0194307D01*
X0228302Y0194265D01*
X0228340Y0194225D01*
X0228380Y0194187D01*
X0228422Y0194153D01*
X0228467Y0194122D01*
X0228514Y0194094D01*
X0228563Y0194069D01*
X0228614Y0194048D01*
X0228666Y0194031D01*
X0228719Y0194018D01*
X0228773Y0194008D01*
X0228827Y0194002D01*
X0228882Y0194000D01*
X0230160Y0194000D01*
X0232191Y0194000D02*
X0232191Y0197067D01*
X0233725Y0197067D01*
X0233725Y0196556D01*
D13*
X0263288Y0076300D02*
X0265256Y0076300D01*
X0265256Y0072757D01*
X0282579Y0072757D01*
X0282579Y0067245D01*
X0265256Y0067245D01*
X0265256Y0065276D01*
X0282579Y0065276D01*
X0282579Y0058583D01*
X0273682Y0058583D01*
X0273682Y0050709D01*
X0282579Y0050709D01*
X0282579Y0044017D01*
X0273682Y0044017D01*
X0273682Y0032206D01*
X0282579Y0032206D01*
X0282579Y0025513D01*
X0267067Y0025513D01*
X0267067Y0023544D01*
X0284548Y0023544D01*
X0284548Y0034174D01*
X0275650Y0034174D01*
X0275650Y0042048D01*
X0284548Y0042048D01*
X0284548Y0052678D01*
X0275650Y0052678D01*
X0275650Y0056615D01*
X0284548Y0056615D01*
X0284548Y0076300D01*
X0265256Y0076300D01*
X0263288Y0076300D02*
X0263288Y0072757D01*
X0265256Y0072757D01*
X0265256Y0067245D02*
X0263288Y0067245D01*
X0263288Y0065276D01*
X0265256Y0065276D01*
D14*
X0040764Y0092402D02*
X0001394Y0092402D01*
X0001394Y0130198D01*
X0040764Y0130198D01*
X0040764Y0092402D01*
D15*
X0061531Y0079446D02*
X0068421Y0079446D01*
X0068421Y0073154D02*
X0061531Y0073154D01*
X0101000Y0063954D02*
X0101000Y0062324D01*
X0102630Y0062324D01*
X0127323Y0062324D02*
X0128953Y0062324D01*
X0128953Y0063954D01*
X0146830Y0059745D02*
X0146830Y0052855D01*
X0153122Y0052855D02*
X0153122Y0059745D01*
X0166531Y0070154D02*
X0173421Y0070154D01*
X0173421Y0076446D02*
X0166531Y0076446D01*
X0191531Y0069446D02*
X0198421Y0069446D01*
X0198421Y0063154D02*
X0191531Y0063154D01*
X0211531Y0063154D02*
X0218421Y0063154D01*
X0218421Y0069446D02*
X0211531Y0069446D01*
X0128953Y0088646D02*
X0128953Y0090276D01*
X0127323Y0090276D01*
X0102630Y0090276D02*
X0101000Y0090276D01*
X0101000Y0088646D01*
X0060079Y0162198D02*
X0047874Y0162198D01*
X0047874Y0162514D01*
X0060079Y0162514D02*
X0060079Y0162198D01*
X0060079Y0174086D02*
X0060079Y0174402D01*
X0047874Y0174402D01*
X0047874Y0174086D01*
X0080830Y0175745D02*
X0080830Y0168855D01*
X0087122Y0168855D02*
X0087122Y0175745D01*
D16*
X0050889Y0121178D02*
X0050889Y0119122D01*
X0050889Y0120150D02*
X0047189Y0120150D01*
X0048012Y0119122D01*
X0049245Y0116778D02*
X0050889Y0117600D01*
X0049245Y0116572D02*
X0049245Y0115544D01*
X0049245Y0116572D02*
X0049243Y0116635D01*
X0049237Y0116698D01*
X0049227Y0116761D01*
X0049214Y0116823D01*
X0049197Y0116884D01*
X0049176Y0116943D01*
X0049151Y0117002D01*
X0049123Y0117058D01*
X0049091Y0117113D01*
X0049056Y0117166D01*
X0049018Y0117216D01*
X0048977Y0117265D01*
X0048933Y0117310D01*
X0048886Y0117353D01*
X0048837Y0117392D01*
X0048785Y0117429D01*
X0048731Y0117462D01*
X0048675Y0117492D01*
X0048618Y0117519D01*
X0048559Y0117542D01*
X0048498Y0117561D01*
X0048437Y0117576D01*
X0048375Y0117588D01*
X0048312Y0117596D01*
X0048249Y0117600D01*
X0048185Y0117600D01*
X0048122Y0117596D01*
X0048059Y0117588D01*
X0047997Y0117576D01*
X0047936Y0117561D01*
X0047875Y0117542D01*
X0047816Y0117519D01*
X0047759Y0117492D01*
X0047703Y0117462D01*
X0047649Y0117429D01*
X0047597Y0117392D01*
X0047548Y0117353D01*
X0047501Y0117310D01*
X0047457Y0117265D01*
X0047416Y0117216D01*
X0047378Y0117166D01*
X0047343Y0117113D01*
X0047311Y0117058D01*
X0047283Y0117002D01*
X0047258Y0116943D01*
X0047237Y0116884D01*
X0047220Y0116823D01*
X0047207Y0116761D01*
X0047197Y0116698D01*
X0047191Y0116635D01*
X0047189Y0116572D01*
X0047189Y0115544D01*
X0050889Y0115544D01*
X0050889Y0101178D02*
X0050889Y0099122D01*
X0048834Y0100869D01*
X0047190Y0100253D02*
X0047192Y0100185D01*
X0047198Y0100117D01*
X0047207Y0100050D01*
X0047221Y0099984D01*
X0047238Y0099918D01*
X0047259Y0099853D01*
X0047284Y0099790D01*
X0047312Y0099728D01*
X0047344Y0099668D01*
X0047379Y0099610D01*
X0047417Y0099554D01*
X0047459Y0099500D01*
X0047503Y0099449D01*
X0047551Y0099401D01*
X0047601Y0099355D01*
X0047653Y0099312D01*
X0047708Y0099272D01*
X0047765Y0099235D01*
X0047824Y0099202D01*
X0047885Y0099172D01*
X0047948Y0099146D01*
X0048012Y0099123D01*
X0048834Y0100870D02*
X0048790Y0100913D01*
X0048743Y0100954D01*
X0048694Y0100991D01*
X0048643Y0101026D01*
X0048589Y0101057D01*
X0048534Y0101085D01*
X0048477Y0101109D01*
X0048419Y0101130D01*
X0048359Y0101147D01*
X0048299Y0101161D01*
X0048238Y0101170D01*
X0048176Y0101176D01*
X0048114Y0101178D01*
X0048056Y0101176D01*
X0047998Y0101171D01*
X0047941Y0101162D01*
X0047884Y0101149D01*
X0047828Y0101133D01*
X0047773Y0101113D01*
X0047720Y0101090D01*
X0047668Y0101064D01*
X0047618Y0101034D01*
X0047570Y0101001D01*
X0047524Y0100966D01*
X0047481Y0100927D01*
X0047440Y0100886D01*
X0047401Y0100843D01*
X0047366Y0100797D01*
X0047333Y0100749D01*
X0047303Y0100699D01*
X0047277Y0100647D01*
X0047254Y0100594D01*
X0047234Y0100539D01*
X0047218Y0100483D01*
X0047205Y0100426D01*
X0047196Y0100369D01*
X0047191Y0100311D01*
X0047189Y0100253D01*
X0047189Y0096572D02*
X0047189Y0095544D01*
X0050889Y0095544D01*
X0049245Y0095544D02*
X0049245Y0096572D01*
X0049245Y0096778D02*
X0050889Y0097600D01*
X0049245Y0096572D02*
X0049243Y0096635D01*
X0049237Y0096698D01*
X0049227Y0096761D01*
X0049214Y0096823D01*
X0049197Y0096884D01*
X0049176Y0096943D01*
X0049151Y0097002D01*
X0049123Y0097058D01*
X0049091Y0097113D01*
X0049056Y0097166D01*
X0049018Y0097216D01*
X0048977Y0097265D01*
X0048933Y0097310D01*
X0048886Y0097353D01*
X0048837Y0097392D01*
X0048785Y0097429D01*
X0048731Y0097462D01*
X0048675Y0097492D01*
X0048618Y0097519D01*
X0048559Y0097542D01*
X0048498Y0097561D01*
X0048437Y0097576D01*
X0048375Y0097588D01*
X0048312Y0097596D01*
X0048249Y0097600D01*
X0048185Y0097600D01*
X0048122Y0097596D01*
X0048059Y0097588D01*
X0047997Y0097576D01*
X0047936Y0097561D01*
X0047875Y0097542D01*
X0047816Y0097519D01*
X0047759Y0097492D01*
X0047703Y0097462D01*
X0047649Y0097429D01*
X0047597Y0097392D01*
X0047548Y0097353D01*
X0047501Y0097310D01*
X0047457Y0097265D01*
X0047416Y0097216D01*
X0047378Y0097166D01*
X0047343Y0097113D01*
X0047311Y0097058D01*
X0047283Y0097002D01*
X0047258Y0096943D01*
X0047237Y0096884D01*
X0047220Y0096823D01*
X0047207Y0096761D01*
X0047197Y0096698D01*
X0047191Y0096635D01*
X0047189Y0096572D01*
D17*
X0130937Y0062969D03*
X0045246Y0175070D03*
D18*
X0125976Y0165800D02*
X0125976Y0144300D01*
X0126476Y0144300D01*
X0133476Y0144300D01*
X0133976Y0144300D01*
X0133976Y0165800D01*
X0133974Y0165860D01*
X0133969Y0165921D01*
X0133960Y0165980D01*
X0133947Y0166039D01*
X0133931Y0166098D01*
X0133911Y0166155D01*
X0133888Y0166210D01*
X0133861Y0166265D01*
X0133832Y0166317D01*
X0133799Y0166368D01*
X0133763Y0166417D01*
X0133725Y0166463D01*
X0133683Y0166507D01*
X0133639Y0166549D01*
X0133593Y0166587D01*
X0133544Y0166623D01*
X0133493Y0166656D01*
X0133441Y0166685D01*
X0133386Y0166712D01*
X0133331Y0166735D01*
X0133274Y0166755D01*
X0133215Y0166771D01*
X0133156Y0166784D01*
X0133097Y0166793D01*
X0133036Y0166798D01*
X0132976Y0166800D01*
X0126976Y0166800D01*
X0126916Y0166798D01*
X0126855Y0166793D01*
X0126796Y0166784D01*
X0126737Y0166771D01*
X0126678Y0166755D01*
X0126621Y0166735D01*
X0126566Y0166712D01*
X0126511Y0166685D01*
X0126459Y0166656D01*
X0126408Y0166623D01*
X0126359Y0166587D01*
X0126313Y0166549D01*
X0126269Y0166507D01*
X0126227Y0166463D01*
X0126189Y0166417D01*
X0126153Y0166368D01*
X0126120Y0166317D01*
X0126091Y0166265D01*
X0126064Y0166210D01*
X0126041Y0166155D01*
X0126021Y0166098D01*
X0126005Y0166039D01*
X0125992Y0165980D01*
X0125983Y0165921D01*
X0125978Y0165860D01*
X0125976Y0165800D01*
X0129976Y0159300D02*
X0129976Y0157300D01*
X0131976Y0157300D01*
X0131976Y0155800D02*
X0127976Y0155800D01*
X0127976Y0154300D01*
X0131976Y0154300D01*
X0131976Y0155800D01*
X0129976Y0157300D02*
X0127976Y0157300D01*
X0127976Y0152800D02*
X0129976Y0152800D01*
X0131976Y0152800D01*
X0129976Y0152800D02*
X0129976Y0150800D01*
X0126476Y0144300D02*
X0126476Y0142800D01*
X0133476Y0142800D01*
X0133476Y0144300D01*
D19*
X0131976Y0140800D02*
X0131976Y0139300D01*
X0127976Y0139300D02*
X0127976Y0141300D01*
D20*
X0127976Y0141450D03*
X0131976Y0141450D03*
M02*
