G75*
%MOIN*%
%OFA0B0*%
%FSLAX25Y25*%
%IPPOS*%
%LPD*%
%AMOC8*
5,1,8,0,0,1.08239X$1,22.5*
%
%ADD10R,0.02769X0.04343*%
%ADD11R,0.02769X0.02769*%
%ADD12R,0.04737X0.05131*%
%ADD13R,0.05131X0.04737*%
%ADD14R,0.05524X0.06312*%
%ADD15R,0.07898X0.07099*%
%ADD16R,0.02800X0.05800*%
%ADD17R,0.03556X0.02178*%
%ADD18C,0.03200*%
%ADD19C,0.03162*%
%ADD20C,0.04737*%
%ADD21C,0.03359*%
%ADD22C,0.08200*%
%ADD23R,0.04620X0.04343*%
%ADD24R,0.04620X0.04472*%
%ADD25R,0.04343X0.04620*%
%ADD26R,0.04472X0.04620*%
%ADD27R,0.04737X0.04737*%
%ADD28R,0.06591X0.02696*%
%ADD29R,0.04487X0.01839*%
%ADD30R,0.01839X0.04186*%
%ADD31R,0.21076X0.21076*%
%ADD32C,0.07400*%
%ADD33R,0.07493X0.10249*%
%ADD34C,0.03778*%
D10*
X0264272Y0074528D03*
D11*
X0264272Y0066261D03*
D12*
X0211976Y0082954D03*
X0211976Y0089646D03*
X0149976Y0079646D03*
X0149976Y0072954D03*
X0149976Y0039646D03*
X0149976Y0032954D03*
X0134976Y0032954D03*
X0134976Y0039646D03*
X0077323Y0148300D03*
X0070630Y0148300D03*
X0057323Y0148300D03*
X0050630Y0148300D03*
X0023976Y0168954D03*
X0023976Y0175646D03*
X0141630Y0196300D03*
X0148323Y0196300D03*
X0171630Y0196300D03*
X0178323Y0196300D03*
X0178323Y0176300D03*
X0171630Y0176300D03*
X0171630Y0156300D03*
X0178323Y0156300D03*
D13*
X0143323Y0126300D03*
X0136630Y0126300D03*
X0123323Y0126300D03*
X0116630Y0126300D03*
X0103323Y0126300D03*
X0096630Y0126300D03*
X0084976Y0069646D03*
X0084976Y0062954D03*
X0068323Y0056300D03*
X0061630Y0056300D03*
X0061630Y0036300D03*
X0068323Y0036300D03*
X0091630Y0016300D03*
X0098323Y0016300D03*
X0111630Y0016300D03*
X0118323Y0016300D03*
X0166630Y0059300D03*
X0173323Y0059300D03*
X0231630Y0066300D03*
X0238323Y0066300D03*
X0251630Y0066300D03*
X0258323Y0066300D03*
X0057323Y0193300D03*
X0050630Y0193300D03*
D14*
X0194071Y0196300D03*
X0205882Y0196300D03*
X0205882Y0176300D03*
X0194071Y0176300D03*
X0194071Y0156300D03*
X0205882Y0156300D03*
D15*
X0029976Y0156898D03*
X0029976Y0145702D03*
D16*
X0029976Y0045800D03*
X0034976Y0045800D03*
X0039976Y0045800D03*
X0044976Y0045800D03*
X0024976Y0045800D03*
X0024976Y0026800D03*
X0029976Y0026800D03*
X0034976Y0026800D03*
X0039976Y0026800D03*
X0044976Y0026800D03*
D17*
X0038598Y0100473D03*
X0038598Y0102442D03*
X0038598Y0104410D03*
X0038598Y0106379D03*
X0038598Y0108347D03*
X0038598Y0110316D03*
X0038598Y0112284D03*
X0038598Y0114253D03*
X0038598Y0116221D03*
X0038598Y0118190D03*
X0038598Y0120158D03*
X0038598Y0122127D03*
D18*
X0031472Y0120749D03*
X0031472Y0117599D03*
X0034228Y0116024D03*
X0034228Y0112875D03*
X0031472Y0114450D03*
X0034228Y0109725D03*
X0034228Y0106576D03*
X0031472Y0108150D03*
X0031472Y0105001D03*
X0031472Y0101851D03*
D19*
X0034228Y0100473D02*
X0034228Y0098111D01*
X0034228Y0122127D02*
X0034228Y0124489D01*
D20*
X0035409Y0129017D02*
X0039346Y0129017D01*
X0017299Y0129017D02*
X0013362Y0129017D01*
X0013362Y0093583D02*
X0017299Y0093583D01*
X0035409Y0093583D02*
X0039346Y0093583D01*
D21*
X0031472Y0096635D03*
X0031472Y0125965D03*
D22*
X0164976Y0126300D03*
X0174976Y0126300D03*
X0184976Y0126300D03*
X0194976Y0126300D03*
X0204976Y0126300D03*
X0214976Y0126300D03*
X0214976Y0116300D03*
X0204976Y0116300D03*
X0194976Y0116300D03*
X0184976Y0116300D03*
X0174976Y0116300D03*
X0164976Y0116300D03*
D23*
X0149976Y0059391D03*
X0083976Y0169209D03*
D24*
X0083976Y0175327D03*
X0149976Y0053273D03*
D25*
X0166885Y0073300D03*
X0191885Y0066300D03*
X0211885Y0066300D03*
X0068067Y0076300D03*
D26*
X0061950Y0076300D03*
X0173003Y0073300D03*
X0198003Y0066300D03*
X0218003Y0066300D03*
D27*
X0054976Y0097363D03*
X0054976Y0105237D03*
X0054976Y0117363D03*
X0054976Y0125237D03*
D28*
X0062439Y0164461D03*
X0062439Y0167020D03*
X0062439Y0169580D03*
X0062439Y0172139D03*
X0045513Y0172139D03*
X0045513Y0169580D03*
X0045513Y0167020D03*
X0045513Y0164461D03*
D29*
X0101632Y0087127D03*
X0101632Y0085158D03*
X0101632Y0083190D03*
X0101632Y0081221D03*
X0101632Y0079253D03*
X0101632Y0077284D03*
X0101632Y0075316D03*
X0101632Y0073347D03*
X0101632Y0071379D03*
X0101632Y0069410D03*
X0101632Y0067442D03*
X0101632Y0065473D03*
X0128320Y0065473D03*
X0128320Y0067442D03*
X0128320Y0069410D03*
X0128320Y0071379D03*
X0128320Y0073347D03*
X0128320Y0075316D03*
X0128320Y0077284D03*
X0128320Y0079253D03*
X0128320Y0081221D03*
X0128320Y0083190D03*
X0128320Y0085158D03*
X0128320Y0087127D03*
D30*
X0125803Y0089822D03*
X0123835Y0089822D03*
X0121866Y0089822D03*
X0119898Y0089822D03*
X0117929Y0089822D03*
X0115961Y0089822D03*
X0113992Y0089822D03*
X0112024Y0089822D03*
X0110055Y0089822D03*
X0108087Y0089822D03*
X0106118Y0089822D03*
X0104150Y0089822D03*
X0104150Y0062778D03*
X0106118Y0062778D03*
X0108087Y0062778D03*
X0110055Y0062778D03*
X0112024Y0062778D03*
X0113992Y0062778D03*
X0115961Y0062778D03*
X0117929Y0062778D03*
X0119898Y0062778D03*
X0121866Y0062778D03*
X0123835Y0062778D03*
X0125803Y0062778D03*
D31*
X0114976Y0076300D03*
D32*
X0124976Y0136300D03*
X0134976Y0136300D03*
D33*
X0112260Y0036300D03*
X0097693Y0036300D03*
D34*
X0014976Y0011300D03*
X0044976Y0011300D03*
X0054976Y0031300D03*
X0074976Y0011300D03*
X0084976Y0031300D03*
X0104976Y0011300D03*
X0134976Y0011300D03*
X0144976Y0026300D03*
X0144976Y0031300D03*
X0149976Y0026300D03*
X0154976Y0026300D03*
X0154976Y0031300D03*
X0154976Y0036300D03*
X0154976Y0041300D03*
X0154976Y0046300D03*
X0154976Y0051300D03*
X0159976Y0051300D03*
X0164976Y0051300D03*
X0169976Y0051300D03*
X0174976Y0051300D03*
X0179976Y0051300D03*
X0179976Y0056300D03*
X0184976Y0061300D03*
X0189976Y0061300D03*
X0194976Y0061300D03*
X0199976Y0061300D03*
X0204976Y0061300D03*
X0209976Y0061300D03*
X0214976Y0061300D03*
X0219976Y0061300D03*
X0224976Y0061300D03*
X0229976Y0061300D03*
X0234976Y0061300D03*
X0239976Y0061300D03*
X0244976Y0061300D03*
X0249976Y0061300D03*
X0254976Y0061300D03*
X0259976Y0061300D03*
X0262976Y0058300D03*
X0262976Y0053300D03*
X0262976Y0048300D03*
X0262976Y0043300D03*
X0262976Y0038300D03*
X0254976Y0041300D03*
X0262976Y0033300D03*
X0262976Y0028300D03*
X0262976Y0023300D03*
X0262976Y0018300D03*
X0262976Y0013300D03*
X0254976Y0011300D03*
X0262976Y0008300D03*
X0224976Y0011300D03*
X0194976Y0011300D03*
X0164976Y0011300D03*
X0144976Y0036300D03*
X0144976Y0041300D03*
X0144976Y0046300D03*
X0144976Y0051300D03*
X0144976Y0056300D03*
X0139976Y0061300D03*
X0134976Y0061300D03*
X0126476Y0056300D03*
X0119477Y0056300D03*
X0114976Y0071300D03*
X0114976Y0081300D03*
X0107666Y0094300D03*
X0091976Y0094300D03*
X0074976Y0101300D03*
X0044976Y0100300D03*
X0044976Y0121800D03*
X0074976Y0131300D03*
X0083976Y0148300D03*
X0099976Y0141300D03*
X0068976Y0165300D03*
X0061976Y0176300D03*
X0053976Y0172300D03*
X0053976Y0164300D03*
X0073976Y0178300D03*
X0099976Y0171300D03*
X0124976Y0176300D03*
X0148976Y0186300D03*
X0134976Y0201300D03*
X0104976Y0201300D03*
X0154976Y0166300D03*
X0184976Y0166300D03*
X0184976Y0186300D03*
X0224976Y0171300D03*
X0254976Y0171300D03*
X0262976Y0169300D03*
X0262976Y0164300D03*
X0262976Y0159300D03*
X0262976Y0154300D03*
X0262976Y0149300D03*
X0262976Y0144300D03*
X0262976Y0139300D03*
X0262976Y0134300D03*
X0262976Y0129300D03*
X0262976Y0124300D03*
X0262976Y0119300D03*
X0262976Y0114300D03*
X0262976Y0109300D03*
X0262976Y0104300D03*
X0262976Y0099300D03*
X0262976Y0094300D03*
X0262976Y0089300D03*
X0262976Y0084300D03*
X0262976Y0079300D03*
X0254976Y0081300D03*
X0254976Y0071300D03*
X0259976Y0071300D03*
X0249976Y0071300D03*
X0244976Y0071300D03*
X0239976Y0071300D03*
X0234976Y0071300D03*
X0229976Y0071300D03*
X0224976Y0071300D03*
X0219976Y0071300D03*
X0219976Y0076300D03*
X0219976Y0081300D03*
X0224976Y0081300D03*
X0219976Y0086300D03*
X0219976Y0091300D03*
X0219976Y0096300D03*
X0214976Y0096300D03*
X0209976Y0096300D03*
X0204976Y0091300D03*
X0204976Y0086300D03*
X0204976Y0081300D03*
X0204976Y0076300D03*
X0204976Y0071300D03*
X0199976Y0071300D03*
X0194976Y0071300D03*
X0189976Y0071300D03*
X0184976Y0071300D03*
X0179976Y0076300D03*
X0174976Y0081300D03*
X0169976Y0081300D03*
X0164976Y0081300D03*
X0159976Y0081300D03*
X0154976Y0081300D03*
X0154976Y0086300D03*
X0149976Y0086300D03*
X0144976Y0076300D03*
X0139976Y0071300D03*
X0134976Y0073300D03*
X0154976Y0076300D03*
X0164976Y0091300D03*
X0194976Y0091300D03*
X0224976Y0111300D03*
X0254976Y0111300D03*
X0254976Y0141300D03*
X0224976Y0141300D03*
X0194976Y0141300D03*
X0164976Y0141300D03*
X0136976Y0111300D03*
X0122976Y0111300D03*
X0130976Y0094300D03*
X0091976Y0069300D03*
X0099976Y0056300D03*
X0091976Y0051300D03*
X0074976Y0051300D03*
X0074976Y0063300D03*
X0054976Y0063300D03*
X0054976Y0051300D03*
X0014976Y0041300D03*
X0014976Y0071300D03*
X0014976Y0141300D03*
X0014976Y0171300D03*
X0014976Y0201300D03*
X0044976Y0201300D03*
X0224976Y0201300D03*
X0254976Y0201300D03*
X0262976Y0199300D03*
X0262976Y0194300D03*
X0262976Y0189300D03*
X0262976Y0184300D03*
X0262976Y0179300D03*
X0262976Y0174300D03*
X0262976Y0204300D03*
X0224976Y0041300D03*
X0194976Y0041300D03*
X0164976Y0041300D03*
M02*
