%
M48
M72
T01C0.0138
T02C0.0157
T03C0.0197
T04C0.0256
T05C0.0320
T06C0.0400
%
T01
X1498Y1130
X4498Y1130
X5498Y3130
X7498Y1130
X8498Y3130
X10498Y1130
X13498Y1130
X14498Y2630
X14998Y2630
X15498Y2630
X15498Y3130
X15498Y3630
X15498Y4130
X15498Y4630
X15498Y5130
X15998Y5130
X16498Y5130
X16998Y5130
X17498Y5130
X17998Y5130
X17998Y5630
X18498Y6130
X18998Y6130
X19498Y6130
X19998Y6130
X20498Y6130
X20998Y6130
X21498Y6130
X21998Y6130
X22498Y6130
X22998Y6130
X23498Y6130
X23998Y6130
X24498Y6130
X24998Y6130
X25498Y6130
X25998Y6130
X26298Y5830
X26298Y5330
X26298Y4830
X26298Y4330
X26298Y3830
X25498Y4130
X26298Y3330
X26298Y2830
X26298Y2330
X26298Y1830
X26298Y1330
X25498Y1130
X26298Y830
X22498Y1130
X19498Y1130
X16498Y1130
X14498Y3130
X14498Y3630
X14498Y4130
X14498Y4630
X14498Y5130
X14498Y5630
X13998Y6130
X13498Y6130
X12648Y5630
X11948Y5630
X11498Y7130
X11498Y8130
X10767Y9430
X9198Y9430
X7498Y10130
X4498Y10030
X4498Y12180
X7498Y13130
X8398Y14830
X9998Y14130
X6898Y16530
X6198Y17630
X5398Y17230
X5398Y16430
X7398Y17830
X9998Y17130
X12498Y17630
X14898Y18630
X13498Y20130
X10498Y20130
X15498Y16630
X18498Y16630
X18498Y18630
X22498Y17130
X25498Y17130
X26298Y16930
X26298Y16430
X26298Y15930
X26298Y15430
X26298Y14930
X26298Y14430
X26298Y13930
X26298Y13430
X26298Y12930
X26298Y12430
X26298Y11930
X26298Y11430
X26298Y10930
X26298Y10430
X26298Y9930
X26298Y9430
X26298Y8930
X26298Y8430
X26298Y7930
X25498Y8130
X25498Y7130
X25998Y7130
X24998Y7130
X24498Y7130
X23998Y7130
X23498Y7130
X22998Y7130
X22498Y7130
X21998Y7130
X21998Y7630
X21998Y8130
X22498Y8130
X21998Y8630
X21998Y9130
X21998Y9630
X21498Y9630
X20998Y9630
X20498Y9130
X20498Y8630
X20498Y8130
X20498Y7630
X20498Y7130
X19998Y7130
X19498Y7130
X18998Y7130
X18498Y7130
X17998Y7630
X17498Y8130
X16998Y8130
X16498Y8130
X15998Y8130
X15498Y8130
X15498Y8630
X14998Y8630
X15498Y7630
X14498Y7630
X13998Y7130
X13498Y7330
X13098Y9430
X13698Y11130
X12298Y11130
X16498Y9130
X19498Y9130
X22498Y11130
X25498Y11130
X25498Y14130
X22498Y14130
X19498Y14130
X16498Y14130
X22498Y20130
X25498Y20130
X26298Y19930
X26298Y19430
X26298Y18930
X26298Y18430
X26298Y17930
X26298Y17430
X26298Y20430
X9198Y6930
X9998Y5630
X9198Y5130
X7498Y5130
X7498Y6330
X5498Y6330
X5498Y5130
X1498Y4130
X1498Y7130
X1498Y14130
X1498Y17130
X1498Y20130
X4498Y20130
X16498Y4130
X19498Y4130
X22498Y4130
T02
X3423Y9929
X3147Y10185
X3147Y10500
X3147Y10815
X3423Y10658
X3423Y10973
X3423Y11287
X3423Y11602
X3147Y11445
X3147Y11760
X3147Y12075
X3423Y12331
T03
X3738Y12902
X1533Y12902
X1533Y9358
X3738Y9358
T04
X3147Y9663
X3147Y12597
T05
X12498Y13630
X13498Y13630
T06
X16498Y12630
X17498Y12630
X18498Y12630
X19498Y12630
X20498Y12630
X21498Y12630
X21498Y11630
X20498Y11630
X19498Y11630
X18498Y11630
X17498Y11630
X16498Y11630
M30
