G75*
%MOIN*%
%OFA0B0*%
%FSLAX25Y25*%
%IPPOS*%
%LPD*%
%AMOC8*
5,1,8,0,0,1.08239X$1,22.5*
%
%ADD10C,0.00600*%
%ADD11C,0.01575*%
%ADD12C,0.01969*%
%ADD13C,0.00000*%
%ADD14C,0.02520*%
D10*
X0004976Y0001300D02*
X0004976Y0211300D01*
X0294976Y0211300D01*
X0294976Y0001300D01*
X0004976Y0001300D01*
D11*
X0034228Y0098308D02*
X0034228Y0100276D01*
X0034228Y0122324D02*
X0034228Y0124292D01*
D12*
X0035213Y0129017D02*
X0039543Y0129017D01*
X0017496Y0129017D02*
X0013165Y0129017D01*
X0013165Y0093583D02*
X0017496Y0093583D01*
X0035213Y0093583D02*
X0039543Y0093583D01*
D13*
X0030192Y0096635D02*
X0030194Y0096706D01*
X0030200Y0096777D01*
X0030210Y0096848D01*
X0030224Y0096917D01*
X0030241Y0096986D01*
X0030263Y0097054D01*
X0030288Y0097121D01*
X0030317Y0097186D01*
X0030349Y0097249D01*
X0030385Y0097311D01*
X0030424Y0097370D01*
X0030467Y0097427D01*
X0030512Y0097482D01*
X0030561Y0097534D01*
X0030612Y0097583D01*
X0030666Y0097629D01*
X0030723Y0097673D01*
X0030781Y0097713D01*
X0030842Y0097749D01*
X0030905Y0097783D01*
X0030970Y0097812D01*
X0031036Y0097838D01*
X0031104Y0097861D01*
X0031172Y0097879D01*
X0031242Y0097894D01*
X0031312Y0097905D01*
X0031383Y0097912D01*
X0031454Y0097915D01*
X0031525Y0097914D01*
X0031596Y0097909D01*
X0031667Y0097900D01*
X0031737Y0097887D01*
X0031806Y0097871D01*
X0031874Y0097850D01*
X0031941Y0097826D01*
X0032007Y0097798D01*
X0032070Y0097766D01*
X0032132Y0097731D01*
X0032192Y0097693D01*
X0032250Y0097651D01*
X0032305Y0097607D01*
X0032358Y0097559D01*
X0032408Y0097508D01*
X0032455Y0097455D01*
X0032499Y0097399D01*
X0032540Y0097341D01*
X0032578Y0097280D01*
X0032612Y0097218D01*
X0032642Y0097153D01*
X0032669Y0097088D01*
X0032693Y0097020D01*
X0032712Y0096952D01*
X0032728Y0096883D01*
X0032740Y0096812D01*
X0032748Y0096742D01*
X0032752Y0096671D01*
X0032752Y0096599D01*
X0032748Y0096528D01*
X0032740Y0096458D01*
X0032728Y0096387D01*
X0032712Y0096318D01*
X0032693Y0096250D01*
X0032669Y0096182D01*
X0032642Y0096117D01*
X0032612Y0096052D01*
X0032578Y0095990D01*
X0032540Y0095929D01*
X0032499Y0095871D01*
X0032455Y0095815D01*
X0032408Y0095762D01*
X0032358Y0095711D01*
X0032305Y0095663D01*
X0032250Y0095619D01*
X0032192Y0095577D01*
X0032132Y0095539D01*
X0032070Y0095504D01*
X0032007Y0095472D01*
X0031941Y0095444D01*
X0031874Y0095420D01*
X0031806Y0095399D01*
X0031737Y0095383D01*
X0031667Y0095370D01*
X0031596Y0095361D01*
X0031525Y0095356D01*
X0031454Y0095355D01*
X0031383Y0095358D01*
X0031312Y0095365D01*
X0031242Y0095376D01*
X0031172Y0095391D01*
X0031104Y0095409D01*
X0031036Y0095432D01*
X0030970Y0095458D01*
X0030905Y0095487D01*
X0030842Y0095521D01*
X0030781Y0095557D01*
X0030723Y0095597D01*
X0030666Y0095641D01*
X0030612Y0095687D01*
X0030561Y0095736D01*
X0030512Y0095788D01*
X0030467Y0095843D01*
X0030424Y0095900D01*
X0030385Y0095959D01*
X0030349Y0096021D01*
X0030317Y0096084D01*
X0030288Y0096149D01*
X0030263Y0096216D01*
X0030241Y0096284D01*
X0030224Y0096353D01*
X0030210Y0096422D01*
X0030200Y0096493D01*
X0030194Y0096564D01*
X0030192Y0096635D01*
X0030192Y0125965D02*
X0030194Y0126036D01*
X0030200Y0126107D01*
X0030210Y0126178D01*
X0030224Y0126247D01*
X0030241Y0126316D01*
X0030263Y0126384D01*
X0030288Y0126451D01*
X0030317Y0126516D01*
X0030349Y0126579D01*
X0030385Y0126641D01*
X0030424Y0126700D01*
X0030467Y0126757D01*
X0030512Y0126812D01*
X0030561Y0126864D01*
X0030612Y0126913D01*
X0030666Y0126959D01*
X0030723Y0127003D01*
X0030781Y0127043D01*
X0030842Y0127079D01*
X0030905Y0127113D01*
X0030970Y0127142D01*
X0031036Y0127168D01*
X0031104Y0127191D01*
X0031172Y0127209D01*
X0031242Y0127224D01*
X0031312Y0127235D01*
X0031383Y0127242D01*
X0031454Y0127245D01*
X0031525Y0127244D01*
X0031596Y0127239D01*
X0031667Y0127230D01*
X0031737Y0127217D01*
X0031806Y0127201D01*
X0031874Y0127180D01*
X0031941Y0127156D01*
X0032007Y0127128D01*
X0032070Y0127096D01*
X0032132Y0127061D01*
X0032192Y0127023D01*
X0032250Y0126981D01*
X0032305Y0126937D01*
X0032358Y0126889D01*
X0032408Y0126838D01*
X0032455Y0126785D01*
X0032499Y0126729D01*
X0032540Y0126671D01*
X0032578Y0126610D01*
X0032612Y0126548D01*
X0032642Y0126483D01*
X0032669Y0126418D01*
X0032693Y0126350D01*
X0032712Y0126282D01*
X0032728Y0126213D01*
X0032740Y0126142D01*
X0032748Y0126072D01*
X0032752Y0126001D01*
X0032752Y0125929D01*
X0032748Y0125858D01*
X0032740Y0125788D01*
X0032728Y0125717D01*
X0032712Y0125648D01*
X0032693Y0125580D01*
X0032669Y0125512D01*
X0032642Y0125447D01*
X0032612Y0125382D01*
X0032578Y0125320D01*
X0032540Y0125259D01*
X0032499Y0125201D01*
X0032455Y0125145D01*
X0032408Y0125092D01*
X0032358Y0125041D01*
X0032305Y0124993D01*
X0032250Y0124949D01*
X0032192Y0124907D01*
X0032132Y0124869D01*
X0032070Y0124834D01*
X0032007Y0124802D01*
X0031941Y0124774D01*
X0031874Y0124750D01*
X0031806Y0124729D01*
X0031737Y0124713D01*
X0031667Y0124700D01*
X0031596Y0124691D01*
X0031525Y0124686D01*
X0031454Y0124685D01*
X0031383Y0124688D01*
X0031312Y0124695D01*
X0031242Y0124706D01*
X0031172Y0124721D01*
X0031104Y0124739D01*
X0031036Y0124762D01*
X0030970Y0124788D01*
X0030905Y0124817D01*
X0030842Y0124851D01*
X0030781Y0124887D01*
X0030723Y0124927D01*
X0030666Y0124971D01*
X0030612Y0125017D01*
X0030561Y0125066D01*
X0030512Y0125118D01*
X0030467Y0125173D01*
X0030424Y0125230D01*
X0030385Y0125289D01*
X0030349Y0125351D01*
X0030317Y0125414D01*
X0030288Y0125479D01*
X0030263Y0125546D01*
X0030241Y0125614D01*
X0030224Y0125683D01*
X0030210Y0125752D01*
X0030200Y0125823D01*
X0030194Y0125894D01*
X0030192Y0125965D01*
D14*
X0031472Y0097245D02*
X0031472Y0096024D01*
M02*
