M48
;GenerationSoftware,Autodesk,EAGLE,9.6.2*%
;CreationDate,2020-11-23T17:23:29Z*%
FMAT,2
ICI,OFF
METRIC,TZ,000.000
T6C0.350
T5C0.400
T4C0.500
T3C0.640
T2C0.813
T1C1.016
%
G90
M71
T1
X40640Y29210
X40640Y31750
X43180Y29210
X43180Y31750
X45720Y29210
X45720Y31750
X48260Y29210
X48260Y31750
X50800Y29210
X50800Y31750
X53340Y29210
X53340Y31750
T2
X33020Y34290
X30480Y34290
T3
X6730Y24215
X6730Y31665
T4
X8230Y32440
X2630Y23440
X2630Y32440
X8230Y23440
T5
X7430Y30990
X7430Y24890
X7430Y26740
X7430Y27540
X7430Y28340
X7430Y29140
X6730Y25540
X6730Y26340
X6730Y27140
X6730Y28740
X6730Y29540
X6730Y30340
T6
X65532Y22352
X65532Y23622
X65532Y24892
X65532Y26162
X65532Y27432
X65532Y28702
X65532Y29972
X65532Y31242
X65532Y32512
X65532Y33782
X65532Y35052
X65532Y36322
X65532Y37592
X65532Y38862
X65532Y40132
X65532Y41402
X65532Y42672
X65532Y43942
X65532Y45212
X65532Y46482
X65532Y47752
X65532Y49022
X65532Y50292
X65532Y51562
X64770Y15240
X63500Y15240
X62230Y15240
X60960Y15240
X59690Y15240
X58420Y15240
X57150Y15240
X55880Y15240
X54610Y15240
X52070Y15240
X53340Y15240
X50800Y15240
X49530Y15240
X46990Y15240
X48260Y15240
X45720Y15240
X44450Y13970
X44450Y12700
X43180Y12700
X41910Y12700
X40640Y12700
X39370Y12700
X38100Y12700
X38100Y11430
X38100Y10160
X38100Y8890
X38100Y7620
X38100Y6350
X36830Y6350
X35560Y6350
X35560Y7620
X35560Y8890
X35560Y10160
X35560Y11430
X35560Y12700
X35560Y13970
X34290Y15240
X33020Y15240
X35560Y19050
X38100Y19050
X38100Y20320
X38100Y21590
X36830Y21590
X39370Y20320
X40640Y20320
X41910Y20320
X43180Y20320
X44450Y19050
X45720Y17780
X46990Y17780
X48260Y17780
X33020Y18288
X50800Y17780
X50800Y19050
X50800Y20320
X50800Y21590
X50800Y22860
X52070Y24130
X53340Y24130
X54610Y24130
X54610Y22860
X54610Y21590
X54610Y20320
X54610Y19050
X54610Y17780
X55880Y17780
X57150Y17780
X58420Y17780
X59690Y17780
X62230Y17780
X60960Y17780
X63500Y17780
X64770Y17780
X27940Y20320
X27940Y17780
X10160Y25146
X10160Y30607
X2540Y50800
X10160Y50800
X2540Y43180
X2540Y35560
X2540Y2540
X2540Y10160
X2540Y17780
X10160Y2540
X17780Y2540
X20320Y7620
X12700Y12700
X12700Y7620
X17780Y12700
X17780Y25400
X17780Y33020
X24130Y35560
X24130Y43180
X30480Y44450
X25400Y50800
X33020Y50800
X25400Y2540
X33020Y2540
X40640Y2540
X40640Y10160
X48260Y10160
X55880Y10160
X48260Y2540
X55880Y2540
X63500Y2540
X63500Y10160
X40640Y22860
X48260Y22860
X63500Y50800
X55880Y50800
X55880Y43180
X63500Y43180
X55880Y35560
X63500Y35560
X63500Y27940
X55880Y27940
X63500Y20320
X55880Y20320
X48260Y35560
X40640Y35560
X45720Y46990
X45720Y41910
X38100Y41910
X12446Y43434
X12446Y41402
X65532Y21082
X65532Y19812
X65532Y1778
X65532Y3048
X65532Y4318
X65532Y5588
X65532Y6858
X65532Y8128
X65532Y9398
X65532Y10668
X65532Y11938
X65532Y13208
X65532Y14478
X36576Y46990
X14478Y44450
X17526Y44958
X16256Y41656
X22098Y23622
X20066Y37338
X26083Y23622
X22098Y17272
X22098Y12700
X32004Y23622
X12700Y15748
X17780Y15748
X29083Y13970
X24130Y13970
X30861Y13970
X33528Y27940
X34290Y17780
X29972Y27940
X49530Y17780
M30